<svg width="160" height="160" viewBox="0 0 160 160" fill="none" xmlns="http://www.w3.org/2000/svg">
<rect width="160" height="160" rx="16" fill="#B5D6F4"/>
<path d="M75.6977 54.4569C75.8555 54.3644 76.0349 54.2897 76.2404 54.2392C78.3383 53.7227 80.1373 52.8493 80.1504 52.8437C80.3223 52.5607 80.4119 52.1525 80.4568 51.8611C79.9216 51.1596 79.6731 50.3171 79.5619 49.595C79.3649 49.5791 79.1043 49.2989 78.825 48.2995C78.442 46.932 78.8483 46.7293 79.193 46.762C78.9399 46.0437 78.9352 45.3366 79.1043 44.6827C79.2827 43.9131 79.6936 43.2966 80.1551 42.8193C80.4465 42.5054 80.7772 42.2308 81.1274 42.0066C81.4123 41.8067 81.7281 41.6349 82.0718 41.5172C82.3408 41.4256 82.6276 41.3659 82.9302 41.3518C83.8671 41.2696 84.577 41.5069 85.086 41.8123C85.8473 42.2373 86.1359 42.7987 86.1359 42.7987C86.1359 42.7987 88.0508 42.9351 87.2129 46.9946C87.4707 47.0852 87.6519 47.442 87.354 48.5096C86.9869 49.8229 86.6525 49.8949 86.4517 49.7566C86.334 50.4282 86.092 51.1811 85.6166 51.8237C85.6642 52.1469 85.7689 52.6401 85.9874 52.9315C85.9874 52.9315 87.7341 53.7218 89.8386 54.2402C90.0441 54.2906 90.2234 54.3653 90.3813 54.4578C88.7943 56.8191 86.0976 58.3734 83.0386 58.3734C79.9813 58.3725 77.2847 56.8191 75.6977 54.4569ZM62.5674 81.1788C62.2882 80.8061 62.1546 80.1756 62.0939 79.7627C62.7019 78.9417 63.0102 77.9787 63.1606 77.1203C63.4174 77.2968 63.8443 77.2043 64.3142 75.5258C64.6962 74.162 64.4636 73.7044 64.1339 73.5895C65.2053 68.3998 62.7571 68.2251 62.7571 68.2251C62.7571 68.2251 62.3881 67.5068 61.4148 66.9632C60.7628 66.5727 59.8558 66.2691 58.6584 66.3738C58.2707 66.3924 57.9046 66.4681 57.5608 66.5858C57.1209 66.7362 56.7164 66.9557 56.3521 67.2116C55.9047 67.4984 55.4816 67.8496 55.1089 68.2503C54.5185 68.8603 53.9927 69.6486 53.7647 70.6331C53.548 71.4691 53.5546 72.3724 53.8778 73.2915C53.4378 73.2495 52.9185 73.5082 53.407 75.2568C53.7647 76.5346 54.0973 76.8933 54.3495 76.9138C54.4905 77.8376 54.809 78.9146 55.4928 79.8113C55.4349 80.184 55.32 80.7052 55.1014 81.0676C55.0855 81.0751 52.7849 82.1913 50.1032 82.8517C49.8398 82.9162 49.6109 83.0114 49.4092 83.1301C51.438 86.149 54.8856 88.1358 58.7966 88.1358C62.7076 88.1358 66.1543 86.149 68.184 83.1301C67.9832 83.0114 67.7534 82.9162 67.49 82.8517C64.7999 82.1895 62.5674 81.1788 62.5674 81.1788ZM117.224 101.349C117.224 113.307 107.53 123 95.5729 123C83.6158 123 73.9211 113.306 73.9211 101.349C73.9211 97.682 74.8346 94.2278 76.4431 91.2014L70.7686 87.4819C67.8337 90.7792 63.5585 92.8566 58.7975 92.8566C49.9491 92.8566 42.7754 85.6829 42.7754 76.8344C42.7754 67.986 49.9491 60.8123 58.7975 60.8123C62.3993 60.8123 65.7237 62.0014 68.3998 64.0078L73.852 58.0521C71.7774 55.8159 70.508 52.8232 70.508 49.5324C70.508 42.611 76.119 37 83.0404 37C89.9619 37 95.5729 42.611 95.5729 49.5324C95.5729 56.4539 89.9619 62.0649 83.0404 62.0649C80.5483 62.0649 78.2272 61.3344 76.2759 60.08L70.7275 66.1402C73.2719 68.9761 74.8197 72.7245 74.8197 76.8344C74.8197 79.7861 74.0201 82.5509 72.6274 84.9263L78.1244 88.529C82.0662 83.174 88.4123 79.6983 95.5719 79.6983C107.53 79.6974 117.224 89.3912 117.224 101.349ZM72.6517 49.5324C72.6517 55.2695 77.3024 59.9212 83.0404 59.9212C88.7775 59.9212 93.4292 55.2704 93.4292 49.5324C93.4292 43.7944 88.7775 39.1437 83.0404 39.1437C77.3034 39.1437 72.6517 43.7944 72.6517 49.5324ZM72.08 76.8344C72.08 69.4992 66.1337 63.5529 58.7985 63.5529C51.4632 63.5529 45.5169 69.4992 45.5169 76.8344C45.5169 84.1697 51.4632 90.116 58.7985 90.116C66.1337 90.116 72.08 84.1697 72.08 76.8344ZM113.52 101.349C113.52 91.4368 105.484 83.401 95.5719 83.401C85.6596 83.401 77.6237 91.4368 77.6237 101.349C77.6237 111.262 85.6605 119.296 95.5729 119.296C105.485 119.296 113.52 111.262 113.52 101.349ZM105.766 108.853C105.143 108.613 104.727 108.495 104.512 108.437C104.484 108.429 104.46 108.423 104.439 108.417C104.387 108.403 104.355 108.394 104.345 108.389C104.29 108.359 101.218 107.553 99.8098 106.786C99.4792 106.574 99.2709 106.416 99.2709 106.416L99.1438 105.34C99.1438 105.34 103.197 105.465 105.12 103.5C105.12 103.5 102.322 102.707 102.824 97.6129C103.328 92.5184 102.197 88.0452 98.1023 88.4235C98.1023 88.4235 96.3276 86.2872 92.7949 87.6304C91.5816 88.0919 88.3273 89.2576 88.4926 96.3173C88.6579 103.376 85.9837 103.418 85.9837 103.418C85.9837 103.418 87.3624 105.424 92.043 105.382L92.0225 106.071C92.0169 106.145 92.0122 106.218 92.0047 106.292C92 106.341 91.9926 106.389 91.9832 106.437C91.9178 106.486 91.7348 106.618 91.4723 106.786C90.0637 107.552 86.9925 108.359 86.9374 108.389C86.9299 108.393 86.9094 108.4 86.8776 108.408C86.7403 108.446 86.3807 108.536 85.7913 108.75C85.7184 108.776 85.6428 108.805 85.5634 108.835C85.1654 108.986 84.6807 109.189 84.1071 109.458C83.6943 109.652 83.3702 109.898 83.1152 110.161C85.8539 114.069 90.3916 116.625 95.5262 116.625C100.72 116.625 105.301 114.01 108.03 110.027C107.798 109.815 107.517 109.618 107.175 109.458C106.624 109.199 106.155 109.003 105.766 108.853Z" fill="#081638"/>
</svg>
