<svg width="311" height="161" viewBox="0 0 311 161" fill="none" xmlns="http://www.w3.org/2000/svg">
<rect y="0.620728" width="311" height="160" rx="16" fill="#B5D6F4"/>
<path d="M150.126 48.5433C150.323 48.4272 150.547 48.3333 150.804 48.27C153.425 47.6213 155.672 46.5245 155.688 46.5175C155.903 46.1621 156.015 45.6495 156.071 45.2835C155.403 44.4025 155.092 43.3445 154.953 42.4377C154.707 42.4178 154.382 42.0659 154.033 40.8108C153.554 39.0935 154.062 38.8389 154.492 38.88C154.176 37.9779 154.17 37.0899 154.382 36.2688C154.604 35.3023 155.118 34.5281 155.694 33.9286C156.058 33.5345 156.471 33.1896 156.909 32.9081C157.265 32.6571 157.659 32.4413 158.089 32.2935C158.425 32.1785 158.783 32.1034 159.161 32.0858C160.331 31.9826 161.218 32.2806 161.854 32.6641C162.805 33.1979 163.166 33.9028 163.166 33.9028C163.166 33.9028 165.558 34.0741 164.511 39.172C164.833 39.2858 165.059 39.7339 164.687 41.0747C164.228 42.724 163.811 42.8143 163.56 42.6407C163.413 43.4841 163.111 44.4295 162.517 45.2366C162.576 45.6424 162.707 46.2618 162.98 46.6278C162.98 46.6278 165.162 47.6201 167.791 48.2712C168.048 48.3345 168.272 48.4284 168.469 48.5445C166.486 51.5099 163.118 53.4618 159.296 53.4618C155.477 53.4606 152.109 51.5099 150.126 48.5433ZM133.724 82.1011C133.375 81.633 133.208 80.8413 133.132 80.3228C133.892 79.2917 134.277 78.0823 134.465 77.0043C134.786 77.226 135.319 77.1099 135.906 75.002C136.383 73.2893 136.093 72.7146 135.681 72.5703C137.019 66.053 133.961 65.8336 133.961 65.8336C133.961 65.8336 133.5 64.9316 132.284 64.2489C131.47 63.7586 130.337 63.3773 128.841 63.5087C128.357 63.5322 127.899 63.6272 127.47 63.775C126.92 63.9638 126.415 64.2395 125.96 64.5609C125.401 64.921 124.872 65.3621 124.407 65.8653C123.669 66.6313 123.012 67.6213 122.728 68.8577C122.457 69.9075 122.465 71.0418 122.869 72.1961C122.319 72.1433 121.671 72.4682 122.281 74.6641C122.728 76.2688 123.143 76.7193 123.458 76.7451C123.634 77.9052 124.032 79.2577 124.886 80.3838C124.814 80.8518 124.671 81.5064 124.398 81.9615C124.378 81.9709 121.504 83.3726 118.154 84.202C117.825 84.2829 117.539 84.4025 117.287 84.5515C119.821 88.3427 124.128 90.8377 129.014 90.8377C133.899 90.8377 138.205 88.3427 140.74 84.5515C140.489 84.4025 140.202 84.2829 139.873 84.202C136.513 83.3703 133.724 82.1011 133.724 82.1011ZM202 107.431C202 122.448 189.891 134.621 174.954 134.621C160.017 134.621 147.907 122.447 147.907 107.431C147.907 102.826 149.048 98.4882 151.057 94.6876L143.969 90.0166C140.303 94.1574 134.962 96.7662 129.015 96.7662C117.961 96.7662 109 87.7574 109 76.6454C109 65.5333 117.961 56.5245 129.015 56.5245C133.514 56.5245 137.667 58.0178 141.01 60.5374L147.82 53.0583C145.229 50.2501 143.643 46.4917 143.643 42.3591C143.643 33.6671 150.652 26.6207 159.299 26.6207C167.945 26.6207 174.954 33.6671 174.954 42.3591C174.954 51.0512 167.945 58.0976 159.299 58.0976C156.186 58.0976 153.286 57.1803 150.848 55.6049L143.917 63.2154C147.096 66.7767 149.029 71.4841 149.029 76.6454C149.029 80.3521 148.031 83.8242 146.291 86.8072L153.158 91.3316C158.082 84.6067 166.009 80.2418 174.953 80.2418C189.891 80.2407 202 92.4143 202 107.431ZM146.321 42.3591C146.321 49.5638 152.131 55.4055 159.299 55.4055C166.465 55.4055 172.276 49.565 172.276 42.3591C172.276 35.1533 166.465 29.3128 159.299 29.3128C152.132 29.3128 146.321 35.1533 146.321 42.3591ZM145.607 76.6454C145.607 67.4336 138.179 59.9662 129.016 59.9662C119.853 59.9662 112.425 67.4336 112.425 76.6454C112.425 85.8571 119.853 93.3245 129.016 93.3245C138.179 93.3245 145.607 85.8571 145.607 76.6454ZM197.374 107.431C197.374 94.9832 187.335 84.8917 174.953 84.8917C162.57 84.8917 152.532 94.9832 152.532 107.431C152.532 119.879 162.572 129.97 174.954 129.97C187.336 129.97 197.374 119.879 197.374 107.431ZM187.688 116.854C186.909 116.554 186.389 116.405 186.121 116.332C186.086 116.323 186.055 116.315 186.03 116.308C185.964 116.29 185.925 116.278 185.912 116.272C185.843 116.235 182.006 115.222 180.247 114.259C179.834 113.993 179.573 113.794 179.573 113.794L179.415 112.444C179.415 112.444 184.478 112.6 186.88 110.133C186.88 110.133 183.384 109.137 184.012 102.739C184.641 96.3416 183.229 90.724 178.114 91.199C178.114 91.199 175.897 88.5163 171.484 90.2031C169.968 90.7826 165.903 92.2465 166.109 101.112C166.316 109.977 162.975 110.03 162.975 110.03C162.975 110.03 164.698 112.548 170.545 112.496L170.519 113.361C170.512 113.454 170.506 113.546 170.497 113.639C170.491 113.7 170.482 113.761 170.47 113.821C170.388 113.882 170.16 114.048 169.832 114.259C168.072 115.221 164.235 116.235 164.167 116.272C164.157 116.277 164.132 116.285 164.092 116.296C163.92 116.344 163.471 116.457 162.735 116.725C162.644 116.758 162.549 116.794 162.45 116.832C161.953 117.022 161.348 117.276 160.631 117.614C160.115 117.858 159.711 118.167 159.392 118.498C162.813 123.405 168.482 126.615 174.896 126.615C181.383 126.615 187.107 123.332 190.515 118.329C190.226 118.062 189.874 117.816 189.447 117.614C188.759 117.289 188.173 117.043 187.688 116.854Z" fill="#081638"/>
</svg>
