<svg width="160" height="160" viewBox="0 0 160 160" fill="none" xmlns="http://www.w3.org/2000/svg">
<rect width="160" height="160" rx="16" fill="#B5D6F4"/>
<path d="M116.003 87.1149C106.232 89.3452 93.4874 90.5135 80.1057 90.5135C66.6178 90.5135 53.9795 89.3452 44.2087 87.1149L41.3412 109.205C40.9164 112.179 43.0405 114.94 46.0142 115.365C51.9616 116.109 60.6704 116.746 68.317 117.064C70.2287 117.171 72.0342 116.427 73.4148 115.047L75.8575 112.604C77.132 111.329 78.8312 110.586 80.6367 110.586C82.4422 110.586 84.1414 111.329 85.4159 112.604L87.7524 115.047C89.133 116.427 90.9385 117.171 92.8502 117.064C100.072 116.746 108.568 116.215 114.303 115.471C117.277 115.047 119.401 112.391 118.976 109.418L116.003 87.1149ZM71.0783 104.108C69.1667 105.488 65.9806 107.294 62.3696 107.294C58.7587 107.294 55.5726 105.488 53.6609 104.108C52.5989 103.364 52.5989 101.771 53.6609 101.028C55.5726 99.647 58.7587 97.8415 62.3696 97.8415C65.9806 97.8415 69.1667 99.647 71.0783 101.028C72.0342 101.771 72.0342 103.364 71.0783 104.108ZM106.444 104.108C104.533 105.488 101.346 107.294 97.7355 107.294C94.1246 107.294 90.9385 105.488 89.0268 104.108C87.9648 103.364 87.9648 101.771 89.0268 101.028C90.9385 99.647 94.1246 97.8415 97.7355 97.8415C101.346 97.8415 104.533 99.647 106.444 101.028C107.506 101.771 107.506 103.364 106.444 104.108Z" fill="#081638"/>
<path d="M115.472 65.3432L117.065 72.034L112.392 73.0961L106.869 49.5188C105.807 44.952 101.24 42.0845 96.6736 43.1465L87.6463 45.2706C82.6547 46.4389 77.4507 46.4389 72.4591 45.2706L63.4318 43.1465C58.865 42.0845 54.2983 44.952 53.2362 49.5188L47.7136 73.0961L43.0406 72.034L44.6337 65.3432C35.2877 67.4672 29.5527 70.441 29.5527 73.8395C29.5527 80.4241 52.1742 85.7343 79.9996 85.7343C107.825 85.7343 130.446 80.4241 130.446 73.8395C130.553 70.5472 124.818 67.5734 115.472 65.3432Z" fill="#081638"/>
</svg>
