<svg width="311" height="161" viewBox="0 0 311 161" fill="none" xmlns="http://www.w3.org/2000/svg">
<rect y="0.620728" width="311" height="160" rx="16" fill="#B5D6F4"/>
<path d="M191.502 87.7356C181.731 89.9659 168.987 91.1341 155.605 91.1341C142.117 91.1341 129.479 89.9659 119.708 87.7356L116.841 109.826C116.416 112.8 118.54 115.561 121.514 115.986C127.461 116.729 136.17 117.366 143.817 117.685C145.728 117.791 147.534 117.048 148.914 115.667L151.357 113.225C152.631 111.95 154.331 111.207 156.136 111.207C157.942 111.207 159.641 111.95 160.915 113.225L163.252 115.667C164.633 117.048 166.438 117.791 168.35 117.685C175.572 117.366 184.068 116.835 189.803 116.092C192.777 115.667 194.901 113.012 194.476 110.038L191.502 87.7356ZM146.578 104.728C144.666 106.109 141.48 107.914 137.869 107.914C134.258 107.914 131.072 106.109 129.16 104.728C128.098 103.985 128.098 102.392 129.16 101.648C131.072 100.268 134.258 98.4622 137.869 98.4622C141.48 98.4622 144.666 100.268 146.578 101.648C147.534 102.392 147.534 103.985 146.578 104.728ZM181.944 104.728C180.032 106.109 176.846 107.914 173.235 107.914C169.624 107.914 166.438 106.109 164.526 104.728C163.464 103.985 163.464 102.392 164.526 101.648C166.438 100.268 169.624 98.4622 173.235 98.4622C176.846 98.4622 180.032 100.268 181.944 101.648C183.006 102.392 183.006 103.985 181.944 104.728Z" fill="#081638"/>
<path d="M190.971 65.9639L192.564 72.6547L187.891 73.7168L182.369 50.1395C181.307 45.5727 176.74 42.7052 172.173 43.7673L163.146 45.8913C158.154 47.0596 152.95 47.0596 147.959 45.8913L138.931 43.7673C134.365 42.7052 129.798 45.5727 128.736 50.1395L123.213 73.7168L118.54 72.6547L120.133 65.9639C110.787 68.088 105.052 71.0617 105.052 74.4602C105.052 81.0448 127.674 86.355 155.499 86.355C183.325 86.355 205.946 81.0448 205.946 74.4602C206.052 71.1679 200.317 68.1942 190.971 65.9639Z" fill="#081638"/>
</svg>
