<svg width="160" height="160" viewBox="0 0 160 160" fill="none" xmlns="http://www.w3.org/2000/svg">
<rect width="160" height="160" rx="16" fill="#B5D6F4"/>
<path fill-rule="evenodd" clip-rule="evenodd" d="M52.5354 68.2945V89.1865H50.0144V68.2945H52.5354ZM106.204 89.1855C115.603 89.1855 123.223 96.8055 123.223 106.204C123.223 115.603 115.603 123.223 106.204 123.223C96.8054 123.223 89.1854 115.603 89.1854 106.204C89.1854 96.8055 96.8054 89.1855 106.204 89.1855ZM63.9904 91.7065H42.8984L38.5584 96.0465H59.6504L63.9904 91.7065ZM65.7724 114.58L61.4324 118.92V97.8295L65.7724 93.4895V114.58ZM51.9404 105.726C52.4784 105.288 53.2704 105.37 53.7084 105.908C54.1464 106.446 54.0644 107.238 53.5264 107.676L46.3014 113.543C45.7204 114.015 44.8594 113.876 44.4534 113.251L41.9114 109.465C41.5254 108.888 41.6794 108.108 42.2564 107.722C42.8334 107.336 43.6134 107.49 43.9994 108.067L45.7844 110.726L51.9404 105.726ZM58.9114 98.5675H36.7764V120.702H58.9114V98.5675ZM63.9904 36.7765H42.8984L38.5584 41.1165H59.6504L63.9904 36.7765ZM65.7724 59.6505L61.4324 63.9905V42.8985L65.7724 38.5585V59.6505ZM51.9404 50.7965C52.4784 50.3585 53.2704 50.4405 53.7084 50.9785C54.1464 51.5165 54.0644 52.3085 53.5264 52.7465L46.3014 58.6135C45.7204 59.0855 44.8594 58.9465 44.4534 58.3215L41.9114 54.5355C41.5254 53.9585 41.6794 53.1785 42.2564 52.7925C42.8334 52.4065 43.6134 52.5605 43.9994 53.1375L45.7844 55.7965L51.9404 50.7965ZM58.9114 43.6375H36.7764V65.7725H58.9114V43.6375ZM118.92 36.7765H97.8294L93.4894 41.1165H114.58L118.92 36.7765ZM120.702 59.6505L116.362 63.9905V42.8985L120.702 38.5585V59.6505ZM106.87 50.7965C107.408 50.3585 108.2 50.4405 108.638 50.9785C109.076 51.5165 108.994 52.3085 108.456 52.7465L101.231 58.6135C100.65 59.0855 99.7894 58.9465 99.3834 58.3215L96.8414 54.5355C96.4554 53.9585 96.6094 53.1785 97.1864 52.7925C97.7634 52.4065 98.5434 52.5605 98.9294 53.1375L100.714 55.7965L106.87 50.7965ZM113.841 43.6375H91.7064V65.7725H113.841V43.6375ZM95.7834 116.283C97.3884 112.091 101.448 109.114 106.205 109.114C110.961 109.114 115.022 112.091 116.626 116.283C119.149 113.674 120.702 110.121 120.702 106.204C120.702 98.1975 114.211 91.7065 106.204 91.7065C98.1974 91.7065 91.7064 98.1975 91.7064 106.204C91.7064 110.121 93.2594 113.674 95.7834 116.283ZM101.049 100.986C101.049 103.834 103.357 106.142 106.205 106.142C109.053 106.142 111.361 103.834 111.361 100.986C111.361 98.1395 109.053 95.8315 106.205 95.8315C103.357 95.8315 101.049 98.1395 101.049 100.986ZM68.2944 50.0145H89.1864V52.5355H68.2944V50.0145ZM107.465 68.2945V86.7055C106.625 86.6515 105.784 86.6515 104.944 86.7055V68.2945H107.465ZM68.2944 104.944H86.7054C86.6514 105.784 86.6514 106.625 86.7054 107.465H68.2944V104.944Z" fill="#081638"/>
</svg>
