<svg width="311" height="161" viewBox="0 0 311 161" fill="none" xmlns="http://www.w3.org/2000/svg">
<rect y="0.620728" width="311" height="160" rx="16" fill="#B5D6F4"/>
<path fill-rule="evenodd" clip-rule="evenodd" d="M128.035 68.9152V89.8072H125.514V68.9152H128.035ZM181.704 89.8062C191.103 89.8062 198.723 97.4262 198.723 106.825C198.723 116.224 191.103 123.844 181.704 123.844C172.305 123.844 164.685 116.224 164.685 106.825C164.685 97.4262 172.305 89.8062 181.704 89.8062ZM139.49 92.3272H118.398L114.058 96.6672H135.15L139.49 92.3272ZM141.272 115.201L136.932 119.541V98.4502L141.272 94.1102V115.201ZM127.44 106.347C127.978 105.909 128.77 105.991 129.208 106.529C129.646 107.067 129.564 107.859 129.026 108.297L121.801 114.164C121.22 114.636 120.359 114.497 119.953 113.872L117.411 110.086C117.025 109.509 117.179 108.729 117.756 108.343C118.333 107.957 119.113 108.111 119.499 108.688L121.284 111.347L127.44 106.347ZM134.411 99.1882H112.276V121.323H134.411V99.1882ZM139.49 37.3972H118.398L114.058 41.7372H135.15L139.49 37.3972ZM141.272 60.2712L136.932 64.6112V43.5192L141.272 39.1792V60.2712ZM127.44 51.4172C127.978 50.9792 128.77 51.0612 129.208 51.5992C129.646 52.1372 129.564 52.9292 129.026 53.3672L121.801 59.2342C121.22 59.7062 120.359 59.5672 119.953 58.9422L117.411 55.1562C117.025 54.5792 117.179 53.7992 117.756 53.4132C118.333 53.0272 119.113 53.1812 119.499 53.7582L121.284 56.4172L127.44 51.4172ZM134.411 44.2582H112.276V66.3932H134.411V44.2582ZM194.42 37.3972H173.329L168.989 41.7372H190.08L194.42 37.3972ZM196.202 60.2712L191.862 64.6112V43.5192L196.202 39.1792V60.2712ZM182.37 51.4172C182.908 50.9792 183.7 51.0612 184.138 51.5992C184.576 52.1372 184.494 52.9292 183.956 53.3672L176.731 59.2342C176.15 59.7062 175.289 59.5672 174.883 58.9422L172.341 55.1562C171.955 54.5792 172.109 53.7992 172.686 53.4132C173.263 53.0272 174.043 53.1812 174.429 53.7582L176.214 56.4172L182.37 51.4172ZM189.341 44.2582H167.206V66.3932H189.341V44.2582ZM171.283 116.904C172.888 112.712 176.948 109.735 181.705 109.735C186.461 109.735 190.522 112.712 192.126 116.904C194.649 114.295 196.202 110.742 196.202 106.825C196.202 98.8182 189.711 92.3272 181.704 92.3272C173.697 92.3272 167.206 98.8182 167.206 106.825C167.206 110.742 168.759 114.295 171.283 116.904ZM176.549 101.607C176.549 104.455 178.857 106.763 181.705 106.763C184.553 106.763 186.861 104.455 186.861 101.607C186.861 98.7602 184.553 96.4522 181.705 96.4522C178.857 96.4522 176.549 98.7602 176.549 101.607ZM143.794 50.6352H164.686V53.1562H143.794V50.6352ZM182.965 68.9152V87.3262C182.125 87.2722 181.284 87.2722 180.444 87.3262V68.9152H182.965ZM143.794 105.565H162.205C162.151 106.405 162.151 107.246 162.205 108.086H143.794V105.565Z" fill="#081638"/>
</svg>
