<svg width="263" height="220" viewBox="0 0 263 220" fill="none" xmlns="http://www.w3.org/2000/svg">
<path d="M236.8 72.6076C242.28 72.6076 246.72 68.1664 246.72 62.6881C246.72 57.2097 242.28 52.7686 236.8 52.7686C231.323 52.7686 226.881 57.2097 226.881 62.6881C226.881 68.1664 231.323 72.6076 236.8 72.6076Z" fill="#F6F8FF"/>
<path d="M47.9864 142.428C53.4648 142.428 57.9059 137.987 57.9059 132.509C57.9059 127.03 53.4648 122.589 47.9864 122.589C42.508 122.589 38.0669 127.03 38.0669 132.509C38.0669 137.987 42.508 142.428 47.9864 142.428Z" fill="#F6F8FF"/>
<path d="M177.987 0H129.364V68.9095H177.987V0Z" fill="white"/>
<path d="M129.333 35.4884L120.184 35.8771C120.184 35.8771 123.999 17.0395 129.333 14.9937L129.378 25.4306C131.214 23.8974 133.174 22.512 133.873 22.8935C135.177 23.5945 129.333 35.4884 129.333 35.4884Z" fill="#F9D0B5"/>
<path d="M129.329 14.9819C129.329 14.9819 124.636 15.4874 120.179 35.6197" stroke="white" stroke-width="0.715349" stroke-linecap="square"/>
<path d="M166.88 202.258L166.584 219.567L207.204 209.082L186.371 203.6L166.88 202.258Z" fill="#081638"/>
<path d="M197.132 87.2894L210.659 88.2861L203.248 50.9092L194.769 74.8781L197.132 87.2894Z" fill="#081638"/>
<path d="M119.144 139.905C119.543 139.524 123.987 114.1 126.808 97.7619C127.504 93.7385 129.335 89.998 132.087 86.9813C134.839 83.9647 138.396 81.7979 142.338 80.7366L193.395 66.9995L201.612 92.5327L155.83 108.087L153.042 140.957" fill="#DADDF1"/>
<path d="M84.369 143.306L86.2242 147.539C88.126 151.871 91.332 155.503 95.3954 157.928C99.4588 160.353 104.177 161.449 108.894 161.066L141.304 158.421L161.405 210.072C161.405 210.072 191.633 202.589 190.753 201.416C190.138 200.594 176.241 162.661 167.943 139.932C166.212 135.187 162.912 131.174 158.594 128.556C154.273 125.937 149.189 124.87 144.182 125.53L98.2134 131.584" fill="#DADDF1"/>
<path d="M87.5094 156.506L115.77 144.772L110.036 127.167L79.085 134.648L87.5094 156.506Z" fill="#1758FE"/>
<path d="M81.2859 117.081L85.5637 132.006L109.461 125.403L115.77 144.772L78.4984 160.243C76.8405 160.932 75.0507 161.248 73.2566 161.166C71.4628 161.084 69.709 160.608 68.1204 159.77C66.5319 158.933 65.1479 157.755 64.0668 156.322C62.9856 154.888 62.2345 153.233 61.8666 151.475C57.8869 132.306 55.1399 99.35 81.0594 93.7226C87.8886 92.2394 105.508 64.0666 105.508 64.0666L110.157 36.6449L130.426 34.5752L128.041 68.249C127.784 71.8484 126.527 75.3043 124.412 78.2282L107.399 101.742L122.659 127.609L83.4844 149.908" fill="#1758FE"/>
<mask id="mask0_1609_104" style="mask-type:luminance" maskUnits="userSpaceOnUse" x="59" y="34" width="72" height="128">
<path fill-rule="evenodd" clip-rule="evenodd" d="M81.2854 117.081L85.5632 132.006L109.461 125.403L115.77 144.772L78.498 160.243C76.84 160.932 75.0502 161.248 73.2561 161.166C71.4623 161.084 69.7085 160.608 68.1199 159.77C66.5314 158.933 65.1474 157.755 64.0663 156.322C62.9851 154.888 62.234 153.233 61.8661 151.475C57.8864 132.306 55.1394 99.35 81.0589 93.7226C87.8881 92.2394 105.507 64.0666 105.507 64.0666L110.157 36.6449L130.425 34.5752L128.041 68.249C127.783 71.8484 126.526 75.3043 124.411 78.2282L107.398 101.742L122.659 127.609L83.4839 149.908" fill="white"/>
</mask>
<g mask="url(#mask0_1609_104)">
<path d="M74.3683 135.273C77.5817 135.273 80.1865 132.668 80.1865 129.454C80.1865 126.241 77.5817 123.636 74.3683 123.636C71.155 123.636 68.5502 126.241 68.5502 129.454C68.5502 132.668 71.155 135.273 74.3683 135.273Z" fill="#DADDF1"/>
<path d="M97.7868 137.175C101 137.175 103.605 134.571 103.605 131.357C103.605 128.144 101 125.539 97.7868 125.539C94.5735 125.539 91.9686 128.144 91.9686 131.357C91.9686 134.571 94.5735 137.175 97.7868 137.175Z" fill="#DADDF1"/>
<path d="M121.205 139.081C124.418 139.081 127.023 136.476 127.023 133.263C127.023 130.049 124.418 127.444 121.205 127.444C117.991 127.444 115.387 130.049 115.387 133.263C115.387 136.476 117.991 139.081 121.205 139.081Z" fill="#DADDF1"/>
<path d="M87.3923 120.038C90.6056 120.038 93.2104 117.433 93.2104 114.22C93.2104 111.007 90.6056 108.402 87.3923 108.402C84.1789 108.402 81.5741 111.007 81.5741 114.22C81.5741 117.433 84.1789 120.038 87.3923 120.038Z" fill="#DADDF1"/>
<path d="M110.81 121.943C114.024 121.943 116.629 119.339 116.629 116.125C116.629 112.912 114.024 110.307 110.81 110.307C107.597 110.307 104.992 112.912 104.992 116.125C104.992 119.339 107.597 121.943 110.81 121.943Z" fill="#DADDF1"/>
<path d="M134.231 123.846C137.445 123.846 140.05 121.241 140.05 118.028C140.05 114.815 137.445 112.21 134.231 112.21C131.018 112.21 128.413 114.815 128.413 118.028C128.413 121.241 131.018 123.846 134.231 123.846Z" fill="#DADDF1"/>
<path d="M63.9741 118.135C67.1874 118.135 69.7922 115.531 69.7922 112.317C69.7922 109.104 67.1874 106.499 63.9741 106.499C60.7609 106.499 58.1559 109.104 58.1559 112.317C58.1559 115.531 60.7609 118.135 63.9741 118.135Z" fill="#DADDF1"/>
<path d="M84.705 152.405C87.9181 152.405 90.5232 149.801 90.5232 146.587C90.5232 143.374 87.9181 140.769 84.705 140.769C81.4917 140.769 78.8868 143.374 78.8868 146.587C78.8868 149.801 81.4917 152.405 84.705 152.405Z" fill="#DADDF1"/>
<path d="M108.123 154.308C111.337 154.308 113.942 151.703 113.942 148.49C113.942 145.277 111.337 142.672 108.123 142.672C104.91 142.672 102.305 145.277 102.305 148.49C102.305 151.703 104.91 154.308 108.123 154.308Z" fill="#DADDF1"/>
<path d="M131.541 156.213C134.755 156.213 137.36 153.609 137.36 150.395C137.36 147.182 134.755 144.577 131.541 144.577C128.328 144.577 125.723 147.182 125.723 150.395C125.723 153.609 128.328 156.213 131.541 156.213Z" fill="#DADDF1"/>
<path d="M61.287 150.5C64.5001 150.5 67.1052 147.895 67.1052 144.682C67.1052 141.469 64.5001 138.864 61.287 138.864C58.0737 138.864 55.4689 141.469 55.4689 144.682C55.4689 147.895 58.0737 150.5 61.287 150.5Z" fill="#DADDF1"/>
<path d="M79.7167 70.5358C82.9298 70.5358 85.5349 67.9309 85.5349 64.7176C85.5349 61.5042 82.9298 58.8994 79.7167 58.8994C76.5034 58.8994 73.8986 61.5042 73.8986 64.7176C73.8986 67.9309 76.5034 70.5358 79.7167 70.5358Z" fill="#DADDF1"/>
<path d="M103.135 72.441C106.348 72.441 108.953 69.8362 108.953 66.6229C108.953 63.4095 106.348 60.8047 103.135 60.8047C99.9218 60.8047 97.317 63.4095 97.317 66.6229C97.317 69.8362 99.9218 72.441 103.135 72.441Z" fill="#DADDF1"/>
<path d="M126.553 74.3443C129.766 74.3443 132.371 71.7395 132.371 68.5262C132.371 65.3128 129.766 62.708 126.553 62.708C123.34 62.708 120.735 65.3128 120.735 68.5262C120.735 71.7395 123.34 74.3443 126.553 74.3443Z" fill="#DADDF1"/>
<path d="M56.2985 68.6329C59.5119 68.6329 62.1167 66.0281 62.1167 62.8148C62.1167 59.6014 59.5119 56.9966 56.2985 56.9966C53.0852 56.9966 50.4803 59.6014 50.4803 62.8148C50.4803 66.0281 53.0852 68.6329 56.2985 68.6329Z" fill="#DADDF1"/>
<path d="M90.0534 87.6686C93.2667 87.6686 95.8716 85.0637 95.8716 81.8504C95.8716 78.637 93.2667 76.0322 90.0534 76.0322C86.8403 76.0322 84.2352 78.637 84.2352 81.8504C84.2352 85.0637 86.8403 87.6686 90.0534 87.6686Z" fill="#DADDF1"/>
<path d="M113.472 89.5738C116.685 89.5738 119.29 86.969 119.29 83.7557C119.29 80.5423 116.685 77.9375 113.472 77.9375C110.259 77.9375 107.653 80.5423 107.653 83.7557C107.653 86.969 110.259 89.5738 113.472 89.5738Z" fill="#DADDF1"/>
<path d="M66.6354 85.7657C69.8488 85.7657 72.4536 83.1609 72.4536 79.9476C72.4536 76.7342 69.8488 74.1294 66.6354 74.1294C63.4223 74.1294 60.8173 76.7342 60.8173 79.9476C60.8173 83.1609 63.4223 85.7657 66.6354 85.7657Z" fill="#DADDF1"/>
<path d="M92.7696 55.3063C95.9829 55.3063 98.5878 52.7014 98.5878 49.4881C98.5878 46.2747 95.9829 43.6699 92.7696 43.6699C89.5562 43.6699 86.9514 46.2747 86.9514 49.4881C86.9514 52.7014 89.5562 55.3063 92.7696 55.3063Z" fill="#DADDF1"/>
<path d="M116.188 57.2091C119.401 57.2091 122.006 54.6043 122.006 51.3909C122.006 48.1776 119.401 45.5728 116.188 45.5728C112.974 45.5728 110.37 48.1776 110.37 51.3909C110.37 54.6043 112.974 57.2091 116.188 57.2091Z" fill="#DADDF1"/>
<path d="M69.3514 53.401C72.5647 53.401 75.1695 50.7962 75.1695 47.5828C75.1695 44.3695 72.5647 41.7646 69.3514 41.7646C66.138 41.7646 63.5332 44.3695 63.5332 47.5828C63.5332 50.7962 66.138 53.401 69.3514 53.401Z" fill="#DADDF1"/>
<path d="M100.474 104.808C103.687 104.808 106.292 102.203 106.292 98.99C106.292 95.7767 103.687 93.1719 100.474 93.1719C97.2606 93.1719 94.6558 95.7767 94.6558 98.99C94.6558 102.203 97.2606 104.808 100.474 104.808Z" fill="#DADDF1"/>
<path d="M123.892 106.713C127.105 106.713 129.71 104.109 129.71 100.895C129.71 97.682 127.105 95.0771 123.892 95.0771C120.678 95.0771 118.074 97.682 118.074 100.895C118.074 104.109 120.678 106.713 123.892 106.713Z" fill="#DADDF1"/>
<path d="M53.6377 101.001C56.8509 101.001 59.4559 98.3958 59.4559 95.1824C59.4559 91.9691 56.8509 89.3643 53.6377 89.3643C50.4244 89.3643 47.8196 91.9691 47.8196 95.1824C47.8196 98.3958 50.4244 101.001 53.6377 101.001Z" fill="#DADDF1"/>
</g>
<path d="M81.1713 96.2071L83.8181 73.6641" stroke="#F9D0B5" stroke-width="12.1609" stroke-linecap="round"/>
<path d="M145.037 158.672L140.605 158.202L142.062 152.622" stroke="white" stroke-width="0.715349" stroke-linecap="square"/>
<path d="M79.681 133.775L83.6679 132.781" stroke="white" stroke-width="0.715349" stroke-linecap="square"/>
<path d="M112.947 136.352C112.947 136.321 121.255 128.746 121.255 128.746L131.091 126.681C131.091 126.681 123.014 118.9 110.584 128.877" fill="#F9D0B5"/>
<path d="M156.123 103.499L156.757 108.635L150.174 108.537" stroke="white" stroke-width="0.715349" stroke-linecap="square"/>
<path d="M80.0624 117.076L83.6391 132.85L109.461 125.403L113.09 136.543L121.481 128.314L144.408 125.296C144.408 125.296 151.049 124.249 154.301 126.338" stroke="white" stroke-width="0.715349" stroke-linecap="square"/>
<path d="M142.184 161.185H23.6193V210.436H142.184V161.185Z" fill="white"/>
<path d="M233.858 26.6611H213.022V61.7418H233.858V26.6611Z" fill="#DADDF1"/>
<path d="M230.226 158.202H200.291V182.776H230.226V158.202Z" fill="#DADDF1"/>
<path d="M104.127 37.4079H78.3768L91.2507 15.771L104.127 37.4079Z" fill="#DADDF1"/>
<path d="M91.2505 34.9854C92.0407 34.9854 92.6812 34.3448 92.6812 33.5547C92.6812 32.7646 92.0407 32.124 91.2505 32.124C90.4604 32.124 89.8198 32.7646 89.8198 33.5547C89.8198 34.3448 90.4604 34.9854 91.2505 34.9854Z" fill="#DADDF1"/>
<path d="M92.2042 23.063H90.2966V31.1703H92.2042V23.063Z" fill="#DADDF1"/>
<path d="M227.565 47.6876C228.717 47.6876 229.649 46.7546 229.649 45.6036C229.649 44.4526 228.717 43.5195 227.565 43.5195C226.413 43.5195 225.481 44.4526 225.481 45.6036C225.481 46.7546 226.413 47.6876 227.565 47.6876Z" fill="#DADDF1"/>
<path d="M229.015 30.519H226.12V41.998H229.015V30.519Z" fill="#DADDF1"/>
<path d="M255.435 107.502L262.496 114.563" stroke="#DADDF1" stroke-width="1.19225"/>
<path d="M262.496 107.502L255.435 114.563" stroke="#DADDF1" stroke-width="1.19225"/>
<path d="M29.5734 167.108L37.0702 174.607" stroke="#081638" stroke-width="1.19225"/>
<path d="M37.0702 167.108L29.5734 174.607" stroke="#081638" stroke-width="1.19225"/>
<path d="M28 10.1367L35.4969 17.636" stroke="#DADDF1" stroke-width="1.19225"/>
<path d="M35.4969 10.1367L28 17.636" stroke="#DADDF1" stroke-width="1.19225"/>
<path d="M50.6688 104.052L55.042 108.425" stroke="#DADDF1" stroke-width="1.19225"/>
<path d="M55.042 104.052L50.6688 108.425" stroke="#DADDF1" stroke-width="1.19225"/>
<path d="M216.536 52.645L221.716 57.8241" stroke="#DADDF1" stroke-width="1.19225"/>
<path d="M221.716 52.645L216.536 57.8241" stroke="#DADDF1" stroke-width="1.19225"/>
<path d="M207.425 162.656L223.094 178.324" stroke="#DADDF1" stroke-width="1.19225"/>
<path d="M223.094 162.656L207.425 178.324" stroke="#DADDF1" stroke-width="1.19225"/>
<path d="M84.8838 94.6236L86.231 94.607C92.9076 94.533 97.8411 88.0257 96.5249 81.063L94.994 72.9557C93.9735 67.5572 89.4644 63.7087 84.2996 63.8279C78.4218 63.9614 73.772 69.1453 73.9151 75.4046L74.1011 83.5119C74.2418 89.7283 79.0513 94.6761 84.8838 94.6236Z" fill="#F9D0B5"/>
<path d="M89.1306 77.1338L90.733 83.5576L88.451 84.1394" stroke="#252B2D" stroke-width="0.715349"/>
<path d="M78.4673 83.8388L80.1365 71.5945L80.5347 68.6878C81.3313 69.354 82.2329 69.8833 83.2029 70.2544C86.7272 71.6207 96.5966 69.6702 97.1045 62.5167C97.5194 56.6818 91.8825 60.7092 88.7421 60.7379C83.8086 60.7855 80.0721 58.3534 73.8652 62.7718C66.4328 68.0749 71.5237 78.1709 71.5237 78.1709C71.5237 78.1709 74.8715 76.3754 78.4673 83.8388Z" fill="#081638"/>
<path d="M84.3689 79.6704C85.013 79.6704 85.5349 79.1484 85.5349 78.5044C85.5349 77.8603 85.013 77.3384 84.3689 77.3384C83.7251 77.3384 83.2029 77.8603 83.2029 78.5044C83.2029 79.1484 83.7251 79.6704 84.3689 79.6704Z" fill="#081638"/>
<path d="M91.5438 78.9028C92.1879 78.9028 92.7098 78.3809 92.7098 77.7368C92.7098 77.0928 92.1879 76.5708 91.5438 76.5708C90.8998 76.5708 90.3778 77.0928 90.3778 77.7368C90.3778 78.3809 90.8998 78.9028 91.5438 78.9028Z" fill="#081638"/>
<path d="M86.7555 87.6394C86.7555 87.6394 88.6945 89.1029 90.7195 87.2803" stroke="#252B2D" stroke-width="0.715349"/>
<path d="M73.3238 87.2608C74.7643 89.058 77.3886 89.3477 79.1854 87.9077C80.9823 86.4677 81.2711 83.8433 79.8306 82.0459L77.3061 78.8957C75.8657 77.0985 73.2413 76.8088 71.4446 78.2488C69.6479 79.6891 69.3589 82.3132 70.7993 84.1106L73.3238 87.2608Z" fill="#F9D0B5"/>
<path d="M72.3582 80.8345L76.1137 83.9272" stroke="#252B2D" stroke-width="0.715349"/>
<path d="M61.0031 37.3267L66.1822 42.5058" stroke="#DADDF1" stroke-width="1.19225"/>
<path d="M66.1822 37.3267L61.0031 42.5058" stroke="#DADDF1" stroke-width="1.19225"/>
<path d="M87.4876 94.5044L84.6477 95.1077L87.2277 96.9366L87.4876 94.5044Z" fill="#081638"/>
<path d="M120.537 123.992C120.537 123.992 126.994 122.277 131.091 126.676" stroke="white" stroke-width="0.715349" stroke-linecap="square"/>
<path d="M102.56 185.812L111.352 194.604L128.336 177.62" stroke="#081638" stroke-width="1.13033"/>
<path d="M141.556 49.6074L150.348 58.3993L167.332 41.415" stroke="#081638" stroke-width="1.13033"/>
<path d="M0.830078 70.5186L9.62198 79.3105L26.6063 62.3261" stroke="#DADDF1" stroke-width="1.13033"/>
<path d="M24.0018 137.208L32.7937 146L49.7781 129.016" stroke="#DADDF1" stroke-width="1.13033"/>
</svg>
