<svg width="306" height="220" viewBox="0 0 306 220" fill="none" xmlns="http://www.w3.org/2000/svg">
<g opacity="0.25">
<path d="M279.499 72.6076C284.978 72.6076 289.418 68.1664 289.418 62.6881C289.418 57.2097 284.978 52.7686 279.499 52.7686C274.021 52.7686 269.579 57.2097 269.579 62.6881C269.579 68.1664 274.021 72.6076 279.499 72.6076Z" fill="#F6F8FF"/>
<path d="M90.6846 142.428C96.163 142.428 100.604 137.987 100.604 132.509C100.604 127.03 96.163 122.589 90.6846 122.589C85.2063 122.589 80.7651 127.03 80.7651 132.509C80.7651 137.987 85.2063 142.428 90.6846 142.428Z" fill="#F6F8FF"/>
<path d="M220.685 0H172.062V68.9095H220.685V0Z" fill="#081638"/>
<path d="M172.031 35.4884L162.882 35.8771C162.882 35.8771 166.697 17.0395 172.031 14.9937L172.076 25.4306C173.913 23.8974 175.873 22.512 176.571 22.8935C177.876 23.5945 172.031 35.4884 172.031 35.4884Z" fill="#F9D0B5"/>
<path d="M172.027 14.9819C172.027 14.9819 167.334 15.4874 162.877 35.6197" stroke="white" stroke-width="0.715349" stroke-linecap="square"/>
<path d="M209.578 202.258L209.282 219.567L249.902 209.082L229.069 203.6L209.578 202.258Z" fill="#081638"/>
<path d="M239.83 87.2894L253.358 88.2861L245.947 50.9092L237.467 74.8781L239.83 87.2894Z" fill="#081638"/>
<path d="M161.843 139.905C162.241 139.524 166.686 114.1 169.507 97.7619C170.202 93.7385 172.034 89.998 174.785 86.9813C177.537 83.9647 181.094 81.7979 185.037 80.7366L236.094 66.9995L244.311 92.5327L198.528 108.087L195.741 140.957" fill="#DADDF1"/>
<path d="M127.067 143.306L128.923 147.539C130.824 151.871 134.03 155.503 138.094 157.928C142.157 160.353 146.876 161.449 151.592 161.066L184.002 158.421L204.103 210.072C204.103 210.072 234.332 202.589 233.452 201.416C232.836 200.594 218.94 162.661 210.642 139.932C208.91 135.187 205.61 131.174 201.292 128.556C196.971 125.937 191.887 124.87 186.88 125.53L140.912 131.584" fill="#DADDF1"/>
<path d="M130.208 156.506L158.469 144.772L152.734 127.167L121.783 134.648L130.208 156.506Z" fill="#1758FE"/>
<path d="M123.984 117.081L128.262 132.006L152.159 125.403L158.469 144.772L121.197 160.243C119.539 160.932 117.749 161.248 115.955 161.166C114.161 161.084 112.407 160.608 110.819 159.77C109.23 158.933 107.846 157.755 106.765 156.322C105.684 154.888 104.933 153.233 104.565 151.475C100.585 132.306 97.8382 99.35 123.758 93.7226C130.587 92.2394 148.206 64.0666 148.206 64.0666L152.856 36.6449L173.124 34.5752L170.739 68.249C170.482 71.8484 169.225 75.3043 167.11 78.2282L150.097 101.742L165.358 127.609L126.183 149.908" fill="#1758FE"/>
<mask id="mask0_1388_5" style="mask-type:luminance" maskUnits="userSpaceOnUse" x="102" y="34" width="72" height="128">
<path fill-rule="evenodd" clip-rule="evenodd" d="M123.984 117.081L128.261 132.006L152.159 125.403L158.468 144.772L121.196 160.243C119.538 160.932 117.748 161.248 115.954 161.166C114.161 161.084 112.407 160.608 110.818 159.77C109.23 158.933 107.846 157.755 106.765 156.322C105.683 154.888 104.932 153.233 104.564 151.475C100.585 132.306 97.8377 99.35 123.757 93.7226C130.586 92.2394 148.205 64.0666 148.205 64.0666L152.855 36.6449L173.123 34.5752L170.739 68.249C170.481 71.8484 169.224 75.3043 167.11 78.2282L150.096 101.742L165.357 127.609L126.182 149.908" fill="white"/>
</mask>
<g mask="url(#mask0_1388_5)">
<path d="M117.067 135.273C120.28 135.273 122.885 132.668 122.885 129.454C122.885 126.241 120.28 123.636 117.067 123.636C113.853 123.636 111.249 126.241 111.249 129.454C111.249 132.668 113.853 135.273 117.067 135.273Z" fill="#DADDF1"/>
<path d="M140.485 137.175C143.699 137.175 146.303 134.571 146.303 131.357C146.303 128.144 143.699 125.539 140.485 125.539C137.272 125.539 134.667 128.144 134.667 131.357C134.667 134.571 137.272 137.175 140.485 137.175Z" fill="#DADDF1"/>
<path d="M163.903 139.081C167.116 139.081 169.721 136.476 169.721 133.263C169.721 130.049 167.116 127.444 163.903 127.444C160.69 127.444 158.085 130.049 158.085 133.263C158.085 136.476 160.69 139.081 163.903 139.081Z" fill="#DADDF1"/>
<path d="M130.091 120.038C133.304 120.038 135.909 117.433 135.909 114.22C135.909 111.007 133.304 108.402 130.091 108.402C126.877 108.402 124.272 111.007 124.272 114.22C124.272 117.433 126.877 120.038 130.091 120.038Z" fill="#DADDF1"/>
<path d="M153.509 121.943C156.722 121.943 159.327 119.339 159.327 116.125C159.327 112.912 156.722 110.307 153.509 110.307C150.295 110.307 147.69 112.912 147.69 116.125C147.69 119.339 150.295 121.943 153.509 121.943Z" fill="#DADDF1"/>
<path d="M176.929 123.846C180.143 123.846 182.748 121.241 182.748 118.028C182.748 114.815 180.143 112.21 176.929 112.21C173.716 112.21 171.111 114.815 171.111 118.028C171.111 121.241 173.716 123.846 176.929 123.846Z" fill="#DADDF1"/>
<path d="M106.672 118.135C109.886 118.135 112.49 115.531 112.49 112.317C112.49 109.104 109.886 106.499 106.672 106.499C103.459 106.499 100.854 109.104 100.854 112.317C100.854 115.531 103.459 118.135 106.672 118.135Z" fill="#DADDF1"/>
<path d="M127.403 152.405C130.616 152.405 133.221 149.801 133.221 146.587C133.221 143.374 130.616 140.769 127.403 140.769C124.19 140.769 121.585 143.374 121.585 146.587C121.585 149.801 124.19 152.405 127.403 152.405Z" fill="#DADDF1"/>
<path d="M150.822 154.308C154.035 154.308 156.64 151.703 156.64 148.49C156.64 145.277 154.035 142.672 150.822 142.672C147.608 142.672 145.003 145.277 145.003 148.49C145.003 151.703 147.608 154.308 150.822 154.308Z" fill="#DADDF1"/>
<path d="M174.24 156.213C177.453 156.213 180.058 153.609 180.058 150.395C180.058 147.182 177.453 144.577 174.24 144.577C171.026 144.577 168.421 147.182 168.421 150.395C168.421 153.609 171.026 156.213 174.24 156.213Z" fill="#DADDF1"/>
<path d="M103.985 150.5C107.198 150.5 109.803 147.895 109.803 144.682C109.803 141.469 107.198 138.864 103.985 138.864C100.772 138.864 98.167 141.469 98.167 144.682C98.167 147.895 100.772 150.5 103.985 150.5Z" fill="#DADDF1"/>
<path d="M122.415 70.5358C125.628 70.5358 128.233 67.9309 128.233 64.7176C128.233 61.5042 125.628 58.8994 122.415 58.8994C119.202 58.8994 116.597 61.5042 116.597 64.7176C116.597 67.9309 119.202 70.5358 122.415 70.5358Z" fill="#DADDF1"/>
<path d="M145.833 72.441C149.046 72.441 151.651 69.8362 151.651 66.6229C151.651 63.4095 149.046 60.8047 145.833 60.8047C142.62 60.8047 140.015 63.4095 140.015 66.6229C140.015 69.8362 142.62 72.441 145.833 72.441Z" fill="#DADDF1"/>
<path d="M169.251 74.3443C172.464 74.3443 175.069 71.7395 175.069 68.5262C175.069 65.3128 172.464 62.708 169.251 62.708C166.037 62.708 163.433 65.3128 163.433 68.5262C163.433 71.7395 166.037 74.3443 169.251 74.3443Z" fill="#DADDF1"/>
<path d="M98.9969 68.6329C102.21 68.6329 104.815 66.0281 104.815 62.8148C104.815 59.6014 102.21 56.9966 98.9969 56.9966C95.7835 56.9966 93.1787 59.6014 93.1787 62.8148C93.1787 66.0281 95.7835 68.6329 98.9969 68.6329Z" fill="#DADDF1"/>
<path d="M132.751 87.6686C135.965 87.6686 138.569 85.0637 138.569 81.8504C138.569 78.637 135.965 76.0322 132.751 76.0322C129.538 76.0322 126.933 78.637 126.933 81.8504C126.933 85.0637 129.538 87.6686 132.751 87.6686Z" fill="#DADDF1"/>
<path d="M156.17 89.5738C159.383 89.5738 161.988 86.969 161.988 83.7557C161.988 80.5423 159.383 77.9375 156.17 77.9375C152.957 77.9375 150.352 80.5423 150.352 83.7557C150.352 86.969 152.957 89.5738 156.17 89.5738Z" fill="#DADDF1"/>
<path d="M109.334 85.7657C112.547 85.7657 115.152 83.1609 115.152 79.9476C115.152 76.7342 112.547 74.1294 109.334 74.1294C106.121 74.1294 103.516 76.7342 103.516 79.9476C103.516 83.1609 106.121 85.7657 109.334 85.7657Z" fill="#DADDF1"/>
<path d="M135.468 55.3063C138.681 55.3063 141.286 52.7014 141.286 49.4881C141.286 46.2747 138.681 43.6699 135.468 43.6699C132.254 43.6699 129.649 46.2747 129.649 49.4881C129.649 52.7014 132.254 55.3063 135.468 55.3063Z" fill="#DADDF1"/>
<path d="M158.886 57.2091C162.099 57.2091 164.704 54.6043 164.704 51.3909C164.704 48.1776 162.099 45.5728 158.886 45.5728C155.673 45.5728 153.068 48.1776 153.068 51.3909C153.068 54.6043 155.673 57.2091 158.886 57.2091Z" fill="#DADDF1"/>
<path d="M112.05 53.401C115.263 53.401 117.868 50.7962 117.868 47.5828C117.868 44.3695 115.263 41.7646 112.05 41.7646C108.836 41.7646 106.231 44.3695 106.231 47.5828C106.231 50.7962 108.836 53.401 112.05 53.401Z" fill="#DADDF1"/>
<path d="M143.172 104.808C146.385 104.808 148.99 102.203 148.99 98.99C148.99 95.7767 146.385 93.1719 143.172 93.1719C139.959 93.1719 137.354 95.7767 137.354 98.99C137.354 102.203 139.959 104.808 143.172 104.808Z" fill="#DADDF1"/>
<path d="M166.59 106.713C169.803 106.713 172.408 104.109 172.408 100.895C172.408 97.682 169.803 95.0771 166.59 95.0771C163.377 95.0771 160.772 97.682 160.772 100.895C160.772 104.109 163.377 106.713 166.59 106.713Z" fill="#DADDF1"/>
<path d="M96.3357 101.001C99.5489 101.001 102.154 98.3958 102.154 95.1824C102.154 91.9691 99.5489 89.3643 96.3357 89.3643C93.1224 89.3643 90.5176 91.9691 90.5176 95.1824C90.5176 98.3958 93.1224 101.001 96.3357 101.001Z" fill="#DADDF1"/>
</g>
<path d="M123.87 96.2071L126.516 73.6641" stroke="#F9D0B5" stroke-width="12.1609" stroke-linecap="round"/>
<path d="M187.736 158.672L183.303 158.202L184.76 152.622" stroke="white" stroke-width="0.715349" stroke-linecap="square"/>
<path d="M122.379 133.775L126.366 132.781" stroke="white" stroke-width="0.715349" stroke-linecap="square"/>
<path d="M155.645 136.352C155.645 136.321 163.953 128.746 163.953 128.746L173.789 126.681C173.789 126.681 165.713 118.9 153.282 128.877" fill="#F9D0B5"/>
<path d="M198.821 103.499L199.456 108.635L192.872 108.537" stroke="white" stroke-width="0.715349" stroke-linecap="square"/>
<path d="M122.761 117.076L126.337 132.85L152.159 125.403L155.788 136.543L164.179 128.314L187.106 125.296C187.106 125.296 193.747 124.249 197 126.338" stroke="white" stroke-width="0.715349" stroke-linecap="square"/>
<path d="M184.882 161.185H66.3174V210.436H184.882V161.185Z" fill="#081638"/>
<path d="M276.556 26.6611H255.72V61.7418H276.556V26.6611Z" fill="#DADDF1"/>
<path d="M272.925 158.202H242.99V182.776H272.925V158.202Z" fill="#DADDF1"/>
<path d="M146.825 37.4079H121.075L133.949 15.771L146.825 37.4079Z" fill="#DADDF1"/>
<path d="M133.949 34.9854C134.739 34.9854 135.379 34.3448 135.379 33.5547C135.379 32.7646 134.739 32.124 133.949 32.124C133.159 32.124 132.518 32.7646 132.518 33.5547C132.518 34.3448 133.159 34.9854 133.949 34.9854Z" fill="#DADDF1"/>
<path d="M134.903 23.063H132.995V31.1703H134.903V23.063Z" fill="#DADDF1"/>
<path d="M270.263 47.6876C271.415 47.6876 272.347 46.7546 272.347 45.6036C272.347 44.4526 271.415 43.5195 270.263 43.5195C269.112 43.5195 268.179 44.4526 268.179 45.6036C268.179 46.7546 269.112 47.6876 270.263 47.6876Z" fill="#DADDF1"/>
<path d="M271.713 30.519H268.818V41.998H271.713V30.519Z" fill="#DADDF1"/>
<path d="M298.133 107.502L305.194 114.563" stroke="#DADDF1" stroke-width="1.19225"/>
<path d="M305.194 107.502L298.133 114.563" stroke="#DADDF1" stroke-width="1.19225"/>
<path d="M72.2715 167.108L79.7683 174.607" stroke="#DADDF1" stroke-width="1.19225"/>
<path d="M79.7683 167.108L72.2715 174.607" stroke="#DADDF1" stroke-width="1.19225"/>
<path d="M0.698242 140.137L8.1951 147.636" stroke="#DADDF1" stroke-width="1.19225"/>
<path d="M8.1951 140.137L0.698242 147.636" stroke="#DADDF1" stroke-width="1.19225"/>
<path d="M93.3672 104.052L97.7404 108.425" stroke="#DADDF1" stroke-width="1.19225"/>
<path d="M97.7404 104.052L93.3672 108.425" stroke="#DADDF1" stroke-width="1.19225"/>
<path d="M259.235 52.645L264.414 57.8241" stroke="#DADDF1" stroke-width="1.19225"/>
<path d="M264.414 52.645L259.235 57.8241" stroke="#DADDF1" stroke-width="1.19225"/>
<path d="M250.124 162.656L265.792 178.324" stroke="#DADDF1" stroke-width="1.19225"/>
<path d="M265.792 162.656L250.124 178.324" stroke="#DADDF1" stroke-width="1.19225"/>
<path d="M127.582 94.6236L128.929 94.607C135.606 94.533 140.539 88.0257 139.223 81.063L137.692 72.9557C136.671 67.5572 132.162 63.7087 126.998 63.8279C121.12 63.9614 116.47 69.1453 116.613 75.4046L116.799 83.5119C116.94 89.7283 121.749 94.6761 127.582 94.6236Z" fill="#F9D0B5"/>
<path d="M131.829 77.1338L133.431 83.5576L131.149 84.1394" stroke="#252B2D" stroke-width="0.715349"/>
<path d="M121.166 83.8388L122.835 71.5945L123.233 68.6878C124.03 69.354 124.931 69.8833 125.901 70.2544C129.426 71.6207 139.295 69.6702 139.803 62.5167C140.218 56.6818 134.581 60.7092 131.44 60.7379C126.507 60.7855 122.77 58.3534 116.564 62.7718C109.131 68.0749 114.222 78.1709 114.222 78.1709C114.222 78.1709 117.57 76.3754 121.166 83.8388Z" fill="#081638"/>
<path d="M127.067 79.6704C127.711 79.6704 128.233 79.1484 128.233 78.5044C128.233 77.8603 127.711 77.3384 127.067 77.3384C126.423 77.3384 125.901 77.8603 125.901 78.5044C125.901 79.1484 126.423 79.6704 127.067 79.6704Z" fill="#081638"/>
<path d="M134.242 78.9028C134.886 78.9028 135.408 78.3809 135.408 77.7368C135.408 77.0928 134.886 76.5708 134.242 76.5708C133.598 76.5708 133.076 77.0928 133.076 77.7368C133.076 78.3809 133.598 78.9028 134.242 78.9028Z" fill="#081638"/>
<path d="M129.453 87.6394C129.453 87.6394 131.392 89.1029 133.417 87.2803" stroke="#252B2D" stroke-width="0.715349"/>
<path d="M116.022 87.2608C117.463 89.058 120.087 89.3477 121.884 87.9077C123.681 86.4677 123.969 83.8433 122.529 82.0459L120.004 78.8957C118.564 77.0985 115.94 76.8088 114.143 78.2488C112.346 79.6891 112.057 82.3132 113.498 84.1106L116.022 87.2608Z" fill="#F9D0B5"/>
<path d="M115.057 80.8345L118.812 83.9272" stroke="#252B2D" stroke-width="0.715349"/>
<path d="M103.701 37.3267L108.88 42.5058" stroke="#DADDF1" stroke-width="1.19225"/>
<path d="M108.88 37.3267L103.701 42.5058" stroke="#DADDF1" stroke-width="1.19225"/>
<path d="M130.186 94.5044L127.346 95.1077L129.926 96.9366L130.186 94.5044Z" fill="#081638"/>
<path d="M163.235 123.992C163.235 123.992 169.693 122.277 173.789 126.676" stroke="white" stroke-width="0.715349" stroke-linecap="square"/>
<path d="M145.258 185.812L154.05 194.604L171.034 177.62" stroke="#DADDF1" stroke-width="1.13033"/>
<path d="M184.254 49.6074L193.046 58.3993L210.031 41.415" stroke="#DADDF1" stroke-width="1.13033"/>
<path d="M43.5283 70.5186L52.3202 79.3105L69.3046 62.3261" stroke="#DADDF1" stroke-width="1.13033"/>
<path d="M66.7002 137.208L75.4921 146L92.4765 129.016" stroke="#DADDF1" stroke-width="1.13033"/>
</g>
</svg>
