<svg width="250" height="181" viewBox="0 0 250 181" fill="none" xmlns="http://www.w3.org/2000/svg">
<path d="M21.9995 61.7134C21.7856 63.9576 20.8534 66.0728 19.3413 67.7448C17.829 69.4168 15.8177 70.5561 13.6063 70.9935C11.3948 71.4311 9.1012 71.1433 7.06638 70.1728C5.03155 69.2026 3.36413 67.6016 2.31196 65.6078C2.08589 65.1796 1.88911 64.7364 1.72299 64.2814C1.18863 62.8044 0.993288 61.2261 1.15143 59.6634C1.30957 58.1007 1.81714 56.5935 2.63657 55.2536C3.45602 53.9136 4.56632 52.775 5.88532 51.9222C7.20432 51.0692 8.69826 50.5239 10.2565 50.3267C11.8148 50.1293 13.3974 50.2849 14.8874 50.7821C16.3774 51.2792 17.7365 52.1049 18.864 53.1983C19.9918 54.2918 20.8591 55.6247 21.4017 57.0986C21.9445 58.5727 22.1488 60.1498 21.9995 61.7134Z" fill="white" stroke="#DADDF1"/>
<path d="M129.566 135.172C129.43 136.61 128.997 138.004 128.295 139.266C127.593 140.528 126.637 141.63 125.487 142.504C125.11 142.791 124.714 143.053 124.302 143.287C122.263 144.444 119.894 144.883 117.576 144.534C115.257 144.185 113.123 143.068 111.515 141.362C109.907 139.656 108.917 137.459 108.705 135.124C108.494 132.789 109.071 130.45 110.346 128.483C111.621 126.515 113.52 125.032 115.738 124.272C117.955 123.511 120.364 123.516 122.579 124.287C124.793 125.058 126.684 126.55 127.95 128.523C129.216 130.497 129.783 132.838 129.561 135.172H129.566Z" fill="white" stroke="#DADDF1"/>
<path d="M248.958 167.701C248.822 169.138 248.39 170.533 247.687 171.794C246.985 173.057 246.029 174.16 244.879 175.033C244.502 175.32 244.106 175.583 243.694 175.818C241.732 176.933 239.461 177.384 237.221 177.102C234.979 176.819 232.891 175.821 231.266 174.253C230.109 173.14 229.223 171.778 228.676 170.269C228.141 168.792 227.947 167.213 228.105 165.651C228.264 164.088 228.771 162.581 229.59 161.241C230.409 159.901 231.52 158.762 232.838 157.909C234.158 157.057 235.651 156.511 237.209 156.314C238.767 156.117 240.352 156.272 241.841 156.769C243.331 157.266 244.69 158.092 245.817 159.186C246.944 160.279 247.812 161.612 248.356 163.086C248.897 164.56 249.101 166.137 248.953 167.701H248.958Z" fill="white" stroke="#DADDF1"/>
<path fill-rule="evenodd" clip-rule="evenodd" d="M13.434 162.324L45.5619 137.368L13.434 162.324Z" fill="#F6F8FF"/>
<path d="M13.434 162.324L45.5619 137.368" stroke="#DADDF1" stroke-width="0.8"/>
<path fill-rule="evenodd" clip-rule="evenodd" d="M140.2 168.455L191.915 137.674L140.2 168.455Z" fill="#F6F8FF"/>
<path d="M140.2 168.455L191.915 137.674" stroke="#DADDF1" stroke-width="0.8"/>
<path fill-rule="evenodd" clip-rule="evenodd" d="M92.55 70.0986L78.0931 91.9871L92.55 70.0986Z" fill="#F6F8FF"/>
<path d="M92.55 70.0986L78.0931 91.9871" stroke="#DADDF1" stroke-width="0.8"/>
<path fill-rule="evenodd" clip-rule="evenodd" d="M232.564 59.1235L218.108 94.8914L232.564 59.1235Z" fill="#F6F8FF"/>
<path d="M232.564 59.1235L218.108 94.8914" stroke="#DADDF1" stroke-width="0.8"/>
<path fill-rule="evenodd" clip-rule="evenodd" d="M176.345 22.251L231.768 55.6841L176.345 22.251Z" fill="#F6F8FF"/>
<path d="M176.345 22.251L231.768 55.6841" stroke="#DADDF1" stroke-width="0.8"/>
<path fill-rule="evenodd" clip-rule="evenodd" d="M39.3378 12.8408L92.3492 30.9442L39.3378 12.8408Z" fill="#F6F8FF"/>
<path d="M39.3378 12.8408L92.3492 30.9442" stroke="#DADDF1" stroke-width="0.8"/>
<path d="M21.9996 164.523C21.865 165.962 21.433 167.359 20.731 168.621C20.0288 169.886 19.0719 170.99 17.9208 171.865C17.5439 172.152 17.1481 172.413 16.7363 172.648C15.5166 173.34 14.1706 173.779 12.7779 173.94C11.3852 174.102 9.9742 173.983 8.62857 173.589C7.28296 173.195 6.03008 172.536 4.94422 171.648C3.85836 170.762 2.96163 169.666 2.30714 168.426C2.08075 167.998 1.88398 167.554 1.71816 167.099C1.18381 165.623 0.988467 164.043 1.14661 162.482C1.30475 160.919 1.81232 159.411 2.63177 158.071C3.4512 156.731 4.56151 155.593 5.88052 154.74C7.19952 153.887 8.69344 153.342 10.2517 153.145C11.8099 152.947 13.3926 153.103 14.8826 153.6C16.3725 154.097 17.7317 154.923 18.8593 156.016C19.987 157.11 20.8541 158.443 21.3969 159.917C21.9398 161.391 22.144 162.968 21.9947 164.531L21.9996 164.523Z" fill="white" stroke="#DADDF1"/>
<path d="M51.5173 14.1082C51.3031 16.3522 50.3707 18.4673 48.8584 20.1389C47.3461 21.8108 45.3348 22.9499 43.1233 23.3871C40.9119 23.8244 38.6185 23.5364 36.5838 22.566C34.5492 21.5957 32.8817 19.9947 31.8297 18.001C31.603 17.5732 31.4067 17.1299 31.2424 16.6746C30.7087 15.1979 30.5139 13.62 30.6725 12.0578C30.8311 10.4957 31.3388 8.98915 32.1583 7.64974C32.9778 6.31034 34.0879 5.17236 35.4067 4.31997C36.7253 3.4676 38.2188 2.92265 39.7765 2.72549C41.3343 2.5283 42.9166 2.68393 44.406 3.18084C45.8956 3.67775 47.2541 4.50326 48.3815 5.59623C49.5089 6.6892 50.376 8.02169 50.9189 9.49509C51.4617 10.9685 51.6661 12.5451 51.5173 14.1082Z" fill="white" stroke="#DADDF1"/>
<path d="M147.03 171.018C146.844 172.979 146.108 174.848 144.909 176.41C143.708 177.973 142.091 179.164 140.244 179.847C138.396 180.533 136.394 180.681 134.465 180.278C132.537 179.875 130.76 178.937 129.342 177.57C128.187 176.457 127.301 175.095 126.755 173.586C126.221 172.109 126.026 170.531 126.185 168.968C126.344 167.407 126.851 165.9 127.67 164.561C128.489 163.221 129.6 162.083 130.918 161.231C132.237 160.379 133.73 159.833 135.288 159.636C136.846 159.439 138.428 159.594 139.918 160.091C141.407 160.588 142.765 161.413 143.892 162.506C145.02 163.599 145.888 164.931 146.431 166.405C146.974 167.878 147.178 169.455 147.03 171.018Z" fill="white" stroke="#DADDF1"/>
<path d="M243.805 57.0186C243.592 59.2627 242.658 61.378 241.148 63.05C239.635 64.7218 237.624 65.8613 235.413 66.2987C233.201 66.7362 230.907 66.4483 228.872 65.478C226.838 64.5077 225.17 62.9067 224.118 60.913C223.891 60.4849 223.695 60.0416 223.529 59.5866C222.994 58.1096 222.8 56.5312 222.958 54.9686C223.116 53.4059 223.624 51.8987 224.443 50.5587C225.262 49.2188 226.373 48.0801 227.691 47.2273C229.011 46.3744 230.504 45.8291 232.062 45.6319C233.621 45.4345 235.204 45.5901 236.694 46.0872C238.183 46.5842 239.542 47.4101 240.67 48.5035C241.797 49.597 242.665 50.9299 243.208 52.4038C243.75 53.8779 243.954 55.4549 243.805 57.0186Z" fill="white" stroke="#DADDF1"/>
<path d="M183.794 21.0454C183.659 22.4831 183.227 23.8771 182.523 25.139C181.822 26.4012 180.866 27.5038 179.716 28.3774C179.339 28.6656 178.944 28.9273 178.531 29.1606C176.568 30.2759 174.297 30.7263 172.057 30.4446C169.817 30.163 167.727 29.1642 166.102 27.5976C164.947 26.4847 164.061 25.1217 163.515 23.6134C162.981 22.1367 162.787 20.559 162.945 18.9968C163.103 17.4347 163.611 15.9282 164.43 14.5887C165.249 13.2493 166.36 12.1113 167.678 11.2588C168.996 10.4064 170.491 9.86136 172.047 9.66406C173.605 9.46677 175.188 9.62225 176.678 10.119C178.167 10.6158 179.525 11.4411 180.654 12.534C181.781 13.6268 182.647 14.9592 183.191 16.4325C183.734 17.9058 183.938 19.4823 183.789 21.0454H183.794Z" fill="white" stroke="#DADDF1"/>
<path d="M71.9782 107.216L68.0577 107.507L72.1561 110.362L71.9782 107.216Z" fill="#F6F8FF"/>
<path d="M100.419 119.273C99.5014 128.996 94.933 138.01 87.6339 144.498C86.9007 145.151 86.1443 145.774 85.3645 146.368C83.9725 147.43 82.5106 148.397 80.9887 149.262C74.1647 153.145 66.3166 154.85 58.4966 154.147L58.2209 154.122C52.2532 153.553 46.4994 151.606 41.4131 148.433C36.3268 145.26 32.0474 140.949 28.9122 135.839C28.4771 135.128 28.0622 134.402 27.6674 133.661C24.8639 128.34 23.3368 122.44 23.2068 116.427C23.0769 110.414 24.3476 104.453 26.9185 99.016C33.6991 84.7141 48.9032 75.483 65.5709 77.0737C86.8524 79.1033 102.45 97.998 100.419 119.273Z" fill="white" stroke="#DADDF1"/>
<path d="M238.354 125.727C237.813 131.346 236.047 136.778 233.182 141.642C230.319 146.506 226.426 150.685 221.776 153.886C217.126 157.086 211.832 159.231 206.265 160.169C200.7 161.107 194.997 160.816 189.554 159.316C184.113 157.816 179.065 155.144 174.764 151.487C170.465 147.83 167.016 143.277 164.662 138.146C162.309 133.015 161.105 127.432 161.138 121.787C161.17 116.143 162.436 110.573 164.849 105.47C171.63 91.1682 186.834 81.9371 203.502 83.5278C224.783 85.5574 240.389 104.452 238.354 125.727Z" fill="white" stroke="#DADDF1"/>
<path d="M148.322 42.877C147.781 48.497 146.017 53.9306 143.154 58.7968C140.291 63.6628 136.397 67.8434 131.747 71.0451C127.097 74.2469 121.802 76.3924 116.235 77.3312C110.668 78.2698 104.962 77.9789 99.5194 76.4787C94.0763 74.9785 89.0275 72.3056 84.727 68.6474C80.4266 64.989 76.9788 60.4342 74.6254 55.3021C72.272 50.1701 71.07 44.5853 71.104 38.9394C71.1379 33.2935 72.4067 27.7235 74.8216 22.6201C81.6022 8.31492 96.8047 -0.91296 113.474 0.677773C134.751 2.70738 150.353 21.602 148.322 42.877Z" fill="white" stroke="#DADDF1"/>
<path d="M162.239 102.279L163.236 100.466C163.655 99.5615 164.027 98.6358 164.352 97.6928C164.854 96.213 164.678 94.1035 166.879 92.1114C169.08 90.1193 165.825 90.6691 164.725 91.5877C163.808 92.3528 163.063 94.5244 162.151 95.0138C161.942 94.719 161.777 94.396 161.661 94.0545L159.668 84.7124C159.638 84.5628 159.557 84.4285 159.437 84.3344C159.317 84.2404 159.167 84.1926 159.015 84.2001L158.649 84.2115C158.561 84.2163 158.475 84.2394 158.395 84.2796C158.317 84.3197 158.246 84.3758 158.191 84.4445C158.134 84.5132 158.093 84.5928 158.07 84.6783C158.046 84.7638 158.041 84.8532 158.054 84.9408C158.361 86.9395 159.426 92.8863 159.318 92.8896L159.098 92.994L156.041 83.5312C155.998 83.3818 155.902 83.2534 155.771 83.1701C155.639 83.0871 155.483 83.0553 155.329 83.0809L154.84 83.1625C154.755 83.1759 154.673 83.2064 154.602 83.2524C154.528 83.2982 154.466 83.3584 154.417 83.4294C154.37 83.5002 154.336 83.5803 154.319 83.6647C154.303 83.7488 154.305 83.8356 154.323 83.9195C154.793 86.096 156.99 93.3383 156.879 93.3448L156.61 93.4362L153.293 85.6049C153.247 85.4489 153.143 85.3166 153.001 85.2352C152.861 85.1538 152.694 85.1296 152.536 85.1676L152.146 85.2639C152.065 85.2838 151.988 85.3195 151.921 85.3689C151.854 85.4184 151.797 85.4807 151.753 85.5522C151.711 85.6238 151.681 85.7031 151.668 85.7858C151.655 85.8684 151.66 85.9527 151.68 86.034L154.664 93.738L154.39 93.9109L151.264 88.3458C151.203 88.2026 151.092 88.0864 150.952 88.019C150.813 87.9516 150.653 87.9379 150.503 87.9804L150.317 88.0358C150.157 88.0827 150.024 88.1895 149.942 88.3339C149.86 88.4783 149.838 88.6488 149.88 88.8092C150.18 89.9512 151.675 92.3479 152.544 94.8458C153.225 96.7808 153.272 98.3307 154.394 100.674C154.868 101.667 155.768 102.847 156.259 103.504" fill="#DADDF1"/>
<path d="M218.924 155.716C211.669 159.83 203.278 161.49 195.001 160.448C186.726 159.407 179.007 155.72 172.997 149.937L173.463 137.973L158.486 135.5C156.275 134.892 154.353 133.517 153.066 131.621C151.779 129.724 151.21 127.431 151.461 125.153L152.686 101.668L164.519 102.484L164.846 105.473L166.675 121.247C166.675 121.247 179.055 122.795 195.949 127.12C212.395 131.331 217.239 145.935 218.924 155.716Z" fill="#081638"/>
<path d="M206.039 112.476C210.574 106.694 209.928 98.6154 204.595 94.4323C199.263 90.2493 191.262 91.5458 186.726 97.3283C182.191 103.111 182.837 111.189 188.17 115.372C193.504 119.555 201.503 118.259 206.039 112.476Z" fill="#1758FE"/>
<path d="M188.159 131.796C187.268 131.152 186.613 130.234 186.291 129.183C185.968 128.132 185.998 127.005 186.373 125.972L192.263 109.8C192.463 109.144 192.796 108.536 193.24 108.012C193.682 107.489 194.229 107.061 194.842 106.755C195.457 106.449 196.126 106.271 196.811 106.232C197.496 106.193 198.182 106.294 198.826 106.529C199.472 106.763 200.061 107.126 200.562 107.596C201.061 108.066 201.461 108.633 201.735 109.262C202.009 109.891 202.153 110.569 202.156 111.255C202.159 111.941 202.024 112.621 201.756 113.253L195.865 129.426C195.596 130.159 195.162 130.82 194.596 131.357C194.03 131.895 193.346 132.293 192.6 132.523C191.853 132.752 191.063 132.805 190.293 132.678C189.523 132.551 188.792 132.248 188.159 131.792V131.796Z" fill="#DADDF1"/>
<path d="M189.159 122.779L188.18 122.415C187.041 121.993 186.01 121.324 185.16 120.458C184.308 119.591 183.661 118.548 183.258 117.402C182.856 116.256 182.713 115.036 182.837 113.828C182.961 112.62 183.349 111.455 183.974 110.414L187.074 105.258C188.074 103.593 189.629 102.334 191.466 101.701C193.301 101.069 195.301 101.104 197.116 101.799C199.162 102.585 200.811 104.15 201.704 106.152C202.594 108.154 202.655 110.428 201.87 112.474L199.749 117.994C198.969 120.025 197.421 121.667 195.437 122.563C193.455 123.459 191.198 123.537 189.159 122.779Z" fill="#DADDF1"/>
<path d="M189.941 108.184L185.697 111.629L187.363 112.881" stroke="white" stroke-width="0.8" stroke-linecap="square"/>
<path d="M191.019 110.618C191.514 110.618 191.915 110.217 191.915 109.722C191.915 109.227 191.514 108.826 191.019 108.826C190.525 108.826 190.124 109.227 190.124 109.722C190.124 110.217 190.525 110.618 191.019 110.618Z" fill="white"/>
<path d="M187.294 108.733C187.789 108.733 188.19 108.332 188.19 107.838C188.19 107.343 187.789 106.942 187.294 106.942C186.8 106.942 186.399 107.343 186.399 107.838C186.399 108.332 186.8 108.733 187.294 108.733Z" fill="white"/>
<path d="M214.448 136.511C214.448 136.511 210.317 146.853 202.27 142.259C188.949 134.651 191.685 124.647 195.441 120.07C196.937 118.248 199.03 117.44 201.215 116.778C194.863 111.177 197.986 106.716 197.986 106.716C197.986 106.716 180.999 105.625 186.492 97.5668C191.985 89.5088 201.797 90.5643 206.999 94.064C219.088 102.202 214.973 110.497 217.732 113.551C233.374 130.882 214.448 136.511 214.448 136.511Z" fill="#1758FE"/>
<path d="M203 117.488C204.757 116.42 205.315 114.131 204.246 112.375C203.179 110.618 200.89 110.06 199.133 111.128L196.242 112.886C194.486 113.954 193.928 116.243 194.995 117.999C196.064 119.756 198.353 120.314 200.109 119.246L203 117.488Z" fill="#DADDF1"/>
<path d="M202.21 113.773L198.108 116.264" stroke="white" stroke-width="0.8" stroke-linecap="square"/>
<path d="M189.835 115.404C189.877 115.974 189.693 116.538 189.321 116.972C188.947 117.406 188.418 117.674 187.847 117.717C187.278 117.76 186.713 117.575 186.281 117.203C185.847 116.83 185.578 116.301 185.535 115.731C185.444 114.543 186.647 114.554 187.833 114.463C189.019 114.371 189.743 114.216 189.835 115.404Z" fill="white"/>
<path d="M134.612 68.8967L133.268 69.9719C131.876 71.0339 130.414 72.0009 128.892 72.8662C124.385 75.4209 119.411 77.0447 114.264 77.6417C109.117 78.2385 103.903 77.7962 98.931 76.3409C93.9585 74.8856 89.3289 72.4471 85.3162 69.1695C81.3036 65.8921 77.9897 61.8425 75.5709 57.2607C81.7152 52.7447 92.002 47.3492 105.16 48.4505C127.169 50.3023 134.612 68.8967 134.612 68.8967Z" fill="#081638"/>
<path d="M113.578 45.0042L114.893 45.151C116.422 45.3235 117.971 45.1567 119.428 44.6627C120.886 44.1687 122.216 43.3596 123.325 42.2928C124.434 41.2261 125.295 39.928 125.845 38.4908C126.396 37.0538 126.622 35.5132 126.51 33.9784L125.952 26.3755C125.771 23.9201 124.732 21.6066 123.015 19.8414C121.299 18.0763 119.015 16.9722 116.566 16.7234C113.802 16.4431 111.041 17.2719 108.889 19.0276C106.736 20.7833 105.37 23.3219 105.089 26.0851L104.332 33.5395C104.054 36.2829 104.868 39.0253 106.599 41.1718C108.33 43.3182 110.838 44.6952 113.578 45.0042Z" fill="#DADDF1"/>
<path d="M108.389 57.6241C108.141 57.6248 107.894 57.6101 107.648 57.5801C106.015 57.3856 104.527 56.5507 103.51 55.2589C102.493 53.9672 102.031 52.3244 102.225 50.6918L105.161 25.9889C105.356 24.3561 106.191 22.8675 107.484 21.8506C108.124 21.3471 108.856 20.9746 109.64 20.7542C110.424 20.5339 111.244 20.4702 112.052 20.5666C112.861 20.663 113.642 20.9177 114.352 21.3163C115.062 21.7147 115.687 22.2492 116.19 22.8889C116.694 23.5288 117.066 24.2616 117.287 25.0454C117.507 25.8292 117.571 26.6489 117.475 27.4573L114.538 52.1602C114.358 53.6652 113.633 55.052 112.5 56.0588C111.367 57.0656 109.904 57.6225 108.389 57.6241Z" fill="#DADDF1"/>
<path d="M107.487 36.9231L107.489 36.9222C109.3 35.808 109.865 33.4364 108.751 31.6251L107.606 29.7645C106.492 27.9534 104.12 27.3884 102.309 28.5025L102.307 28.5033C100.496 29.6177 99.9312 31.9893 101.045 33.8004L102.19 35.6612C103.305 37.4723 105.676 38.0373 107.487 36.9231Z" fill="#DADDF1"/>
<path d="M102.742 31.5122L105.829 34.7752" stroke="white" stroke-width="0.8" stroke-linecap="square"/>
<path d="M121.097 27.3413L121.314 33.4514L119.141 33.5395" stroke="white" stroke-width="0.8" stroke-linecap="square"/>
<path d="M114.623 35.4374C114.443 35.7694 114.331 36.1337 114.292 36.5093C114.253 36.8849 114.288 37.2644 114.396 37.6262C114.504 37.9881 114.682 38.3252 114.92 38.6182C115.158 38.9114 115.451 39.1547 115.783 39.3343C116.116 39.5139 116.48 39.6265 116.855 39.6653C117.231 39.7042 117.61 39.6687 117.972 39.5609C118.334 39.4532 118.671 39.2751 118.964 39.037C119.257 38.799 119.501 38.5056 119.68 38.1735C120.436 36.7752 118.966 36.1373 117.559 35.3819C116.153 34.6265 115.378 34.0408 114.623 35.4374Z" fill="white"/>
<path d="M108.296 34.3321L111.233 23.3014L111.93 20.6909C112.584 21.3925 113.351 21.9808 114.197 22.4318C117.271 24.0861 126.538 23.427 127.822 16.9287C128.87 11.6295 123.243 14.6755 120.361 14.3443C115.834 13.8222 112.693 11.158 106.493 14.5075C99.0782 18.5194 102.591 28.3542 102.591 28.3542C102.591 28.3542 105.854 27.0767 108.296 34.3321Z" fill="#FEA217"/>
<path d="M116.911 30.6417C117.507 30.6417 117.99 30.159 117.99 29.5633C117.99 28.9676 117.507 28.4849 116.911 28.4849C116.316 28.4849 115.833 28.9676 115.833 29.5633C115.833 30.159 116.316 30.6417 116.911 30.6417Z" fill="white"/>
<path d="M123.345 30.6417C123.941 30.6417 124.423 30.159 124.423 29.5633C124.423 28.9676 123.941 28.4849 123.345 28.4849C122.749 28.4849 122.266 28.9676 122.266 29.5633C122.266 30.159 122.749 30.6417 123.345 30.6417Z" fill="white"/>
<path d="M93.7439 137.593C91.9882 140.129 89.9372 142.447 87.6338 144.498C86.9006 145.15 86.1442 145.774 85.3644 146.368C83.9724 147.43 82.5105 148.397 80.9886 149.262C78.7195 150.553 76.3252 151.61 73.8426 152.417L58.4965 154.147L58.2207 154.122C52.2531 153.553 46.4993 151.606 41.413 148.433C36.3267 145.26 32.0472 140.949 28.9121 135.839C34.7122 125.204 45.074 114.251 63.471 111.606C81.0098 109.086 90.6489 129.521 93.7439 137.593Z" fill="#081638"/>
<path d="M65.8175 120.756L65.6217 120.769C63.7539 120.855 61.9287 120.195 60.5475 118.935C59.1661 117.675 58.3417 115.918 58.2554 114.051L57.1133 89.2777C57.0704 88.3529 57.21 87.4287 57.5244 86.5578C57.8388 85.687 58.3216 84.8866 58.9452 84.2023C60.2047 82.8204 61.9617 81.9956 63.8294 81.9089C65.6972 81.8224 67.5229 82.4814 68.9048 83.741C70.2867 85.0005 71.1116 86.7573 71.1982 88.6251L72.3403 113.396C72.4259 115.231 71.7922 117.027 70.574 118.401C69.3557 119.776 67.6492 120.621 65.8175 120.756Z" fill="#DADDF1"/>
<path d="M69.9893 107.802L71.2668 107.476C72.751 107.089 74.1319 106.381 75.3113 105.4C76.4908 104.42 77.4398 103.192 78.0908 101.803C78.7419 100.414 79.079 98.8992 79.0782 97.3654C79.0775 95.8318 78.7388 94.3171 78.0865 92.929L74.8512 86.0522C73.8058 83.8323 72.0121 82.0514 69.7846 81.0222C67.5572 79.9929 65.0385 79.7809 62.6703 80.4234C59.9984 81.149 57.724 82.9058 56.3472 85.3079C54.9705 87.7098 54.6039 90.5604 55.3285 93.2325L57.2863 100.441C58.0086 103.092 59.7474 105.353 62.1255 106.731C64.5036 108.109 67.3293 108.494 69.9893 107.802Z" fill="#DADDF1"/>
<path d="M56.0548 103.164C57.739 104.452 60.1485 104.131 61.4364 102.447C62.7245 100.763 62.4034 98.3537 60.7193 97.0657L58.9906 95.7435C57.3065 94.4554 54.8971 94.7765 53.609 96.4605C52.3209 98.1446 52.642 100.554 54.3261 101.842L56.0548 103.164Z" fill="#DADDF1"/>
<path d="M80.0349 100.085C81.0301 104.221 80.3612 110.287 75.3524 111.555C70.3436 112.822 64.1259 108.817 63.0817 104.689C62.0376 100.562 63.1813 98.2562 68.1933 96.9869C73.2053 95.7175 78.7345 94.6897 80.0349 100.085Z" fill="#081638"/>
<path d="M55.0851 99.1147L58.3759 101.056" stroke="white" stroke-width="0.8" stroke-linecap="square"/>
<path d="M67.6004 100.723C67.5182 101.47 67.7319 102.218 68.1956 102.808C68.6591 103.398 69.3358 103.783 70.0801 103.88C70.8244 103.977 71.5769 103.778 72.1762 103.326C72.7752 102.874 73.1732 102.205 73.2846 101.463C73.4885 99.893 71.8913 99.831 70.3218 99.6189C68.7522 99.4068 67.8043 99.1539 67.6004 100.723Z" fill="white"/>
<path d="M67.1174 94.5133C67.7103 94.5133 68.191 94.0326 68.191 93.4398C68.191 92.8469 67.7103 92.3662 67.1174 92.3662C66.5245 92.3662 66.0439 92.8469 66.0439 93.4398C66.0439 94.0326 66.5245 94.5133 67.1174 94.5133Z" fill="white"/>
<path d="M74.6273 92.3927C75.2201 92.3927 75.7008 91.912 75.7008 91.3191C75.7008 90.7263 75.2201 90.2456 74.6273 90.2456C74.0344 90.2456 73.5537 90.7263 73.5537 91.3191C73.5537 91.912 74.0344 92.3927 74.6273 92.3927Z" fill="white"/>
<path d="M55.411 153.312L59.7052 156.191C59.7052 156.191 59.5143 166.434 64.0189 165.887C64.0189 165.887 64.0369 167.506 64.9521 167.661C65.8674 167.816 68.362 163.995 68.362 163.995C68.362 163.995 71.7882 162.703 72.4653 159.394C73.1424 156.085 73.2664 148.27 72.2091 147.681C71.1519 147.092 60.7216 146.834 60.7216 146.834C60.7216 146.834 56.3916 147.36 55.411 153.312Z" fill="#DADDF1"/>
<path d="M62.6551 145.526L45.3398 139.134" stroke="white" stroke-width="0.8" stroke-linecap="square"/>
<path d="M48.7776 140.089L58.4933 128.264" stroke="white" stroke-width="0.8" stroke-linecap="square"/>
<path d="M55.3851 153.755C55.3851 153.755 54.9332 147.537 62.9701 145.622" stroke="white" stroke-width="0.8" stroke-linecap="square"/>
<path d="M71.5777 89.6709L73.9597 95.2784L71.9693 96.1366" stroke="white" stroke-width="0.8" stroke-linecap="square"/>
</svg>
