<svg width="250" height="182" viewBox="0 0 250 182" fill="none" xmlns="http://www.w3.org/2000/svg">
<path d="M21.9996 62.2134C21.7857 64.4576 20.8534 66.5728 19.3413 68.2448C17.8291 69.9168 15.8177 71.0561 13.6063 71.4935C11.3948 71.9311 9.10124 71.6433 7.06642 70.6728C5.03159 69.7026 3.36418 68.1016 2.31201 66.1078C2.08593 65.6796 1.88915 65.2364 1.72303 64.7814C1.18868 63.3044 0.993334 61.7261 1.15148 60.1634C1.30962 58.6007 1.81719 57.0935 2.63662 55.7536C3.45607 54.4136 4.56636 53.275 5.88537 52.4222C7.20437 51.5692 8.6983 51.0239 10.2566 50.8267C11.8148 50.6293 13.3975 50.7849 14.8875 51.2821C16.3775 51.7792 17.7366 52.6049 18.8641 53.6983C19.9918 54.7918 20.8591 56.1247 21.4018 57.5986C21.9446 59.0727 22.1488 60.6498 21.9996 62.2134V62.2134Z" fill="#1758FE" stroke="#DADDF1"/>
<path d="M129.566 135.672C129.43 137.11 128.997 138.504 128.295 139.766C127.593 141.028 126.637 142.13 125.487 143.004C125.11 143.291 124.714 143.553 124.302 143.787C122.263 144.944 119.894 145.383 117.576 145.034C115.257 144.685 113.123 143.568 111.515 141.862C109.907 140.156 108.917 137.959 108.705 135.624C108.494 133.289 109.071 130.95 110.346 128.983C111.621 127.015 113.52 125.532 115.738 124.772C117.955 124.011 120.364 124.016 122.579 124.787C124.793 125.558 126.684 127.05 127.95 129.023C129.216 130.997 129.783 133.338 129.561 135.672H129.566Z" fill="#1758FE" stroke="#DADDF1"/>
<path d="M248.958 168.201C248.822 169.638 248.39 171.033 247.687 172.294C246.985 173.557 246.029 174.66 244.879 175.533C244.502 175.82 244.106 176.083 243.694 176.318C241.732 177.433 239.461 177.884 237.221 177.602C234.979 177.319 232.891 176.321 231.266 174.753C230.109 173.64 229.223 172.278 228.676 170.769C228.141 169.292 227.947 167.713 228.105 166.151C228.264 164.588 228.771 163.081 229.59 161.741C230.409 160.401 231.52 159.262 232.838 158.409C234.158 157.557 235.651 157.011 237.209 156.814C238.767 156.617 240.352 156.772 241.841 157.269C243.331 157.766 244.69 158.592 245.817 159.686C246.944 160.779 247.812 162.112 248.356 163.586C248.897 165.06 249.101 166.637 248.953 168.201H248.958Z" fill="#1758FE" stroke="#DADDF1"/>
<path fill-rule="evenodd" clip-rule="evenodd" d="M13.434 162.824L45.5619 137.868Z" fill="#F6F8FF"/>
<path d="M13.434 162.824L45.5619 137.868" stroke="#DADDF1" stroke-width="0.8"/>
<path fill-rule="evenodd" clip-rule="evenodd" d="M140.201 168.955L191.915 138.174Z" fill="#F6F8FF"/>
<path d="M140.201 168.955L191.915 138.174" stroke="#DADDF1" stroke-width="0.8"/>
<path fill-rule="evenodd" clip-rule="evenodd" d="M92.55 70.5986L78.0931 92.4871Z" fill="#F6F8FF"/>
<path d="M92.55 70.5986L78.0931 92.4871" stroke="#DADDF1" stroke-width="0.8"/>
<path fill-rule="evenodd" clip-rule="evenodd" d="M232.564 59.6235L218.109 95.3914Z" fill="#F6F8FF"/>
<path d="M232.564 59.6235L218.109 95.3914" stroke="#DADDF1" stroke-width="0.8"/>
<path fill-rule="evenodd" clip-rule="evenodd" d="M176.345 22.751L231.768 56.1841Z" fill="#F6F8FF"/>
<path d="M176.345 22.751L231.768 56.1841" stroke="#DADDF1" stroke-width="0.8"/>
<path fill-rule="evenodd" clip-rule="evenodd" d="M39.3379 13.3408L92.3492 31.4442Z" fill="#F6F8FF"/>
<path d="M39.3379 13.3408L92.3492 31.4442" stroke="#DADDF1" stroke-width="0.8"/>
<path d="M21.9997 165.023C21.8651 166.462 21.433 167.859 20.731 169.121C20.0288 170.386 19.0719 171.49 17.9209 172.365C17.544 172.652 17.1482 172.913 16.7364 173.148C15.5167 173.84 14.1706 174.279 12.7779 174.44C11.3852 174.602 9.97423 174.483 8.6286 174.089C7.28299 173.695 6.03011 173.036 4.94425 172.148C3.85839 171.262 2.96166 170.166 2.30717 168.926C2.08078 168.498 1.88401 168.054 1.71819 167.599C1.18384 166.123 0.988497 164.543 1.14664 162.982C1.30478 161.419 1.81235 159.911 2.6318 158.571C3.45123 157.231 4.56154 156.093 5.88055 155.24C7.19955 154.387 8.69347 153.842 10.2517 153.645C11.81 153.447 13.3927 153.603 14.8826 154.1C16.3725 154.597 17.7318 155.423 18.8593 156.516C19.987 157.61 20.8542 158.943 21.397 160.417C21.9398 161.891 22.1441 163.468 21.9948 165.031L21.9997 165.023Z" fill="#1758FE" stroke="#DADDF1"/>
<path d="M51.5173 14.6082C51.3031 16.8522 50.3707 18.9673 48.8584 20.6389C47.3462 22.3108 45.3348 23.4499 43.1233 23.8871C40.9119 24.3244 38.6185 24.0364 36.5839 23.066C34.5492 22.0957 32.8818 20.4947 31.8298 18.501C31.603 18.0732 31.4067 17.6299 31.2424 17.1746C30.7087 15.6979 30.5139 14.12 30.6725 12.5578C30.8311 10.9957 31.3388 9.48915 32.1584 8.14974C32.9779 6.81034 34.088 5.67236 35.4067 4.81997C36.7253 3.9676 38.2188 3.42265 39.7766 3.22549C41.3344 3.0283 42.9166 3.18393 44.406 3.68084C45.8956 4.17775 47.2542 5.00326 48.3815 6.09623C49.5089 7.1892 50.3761 8.52169 50.9189 9.99509C51.4617 11.4685 51.6661 13.0451 51.5173 14.6082V14.6082Z" fill="#1758FE" stroke="#DADDF1"/>
<path d="M147.03 171.518C146.844 173.479 146.108 175.348 144.909 176.91C143.708 178.473 142.091 179.664 140.244 180.347C138.396 181.033 136.394 181.181 134.465 180.778C132.537 180.375 130.76 179.437 129.342 178.07C128.187 176.957 127.301 175.595 126.755 174.086C126.221 172.609 126.026 171.031 126.185 169.468C126.344 167.907 126.851 166.4 127.67 165.061C128.489 163.721 129.6 162.583 130.918 161.731C132.237 160.879 133.73 160.333 135.288 160.136C136.846 159.939 138.428 160.094 139.918 160.591C141.407 161.088 142.765 161.913 143.892 163.006C145.02 164.099 145.888 165.431 146.431 166.905C146.974 168.378 147.178 169.955 147.03 171.518V171.518Z" fill="#1758FE" stroke="#DADDF1"/>
<path d="M243.805 57.5186C243.592 59.7627 242.658 61.878 241.148 63.55C239.635 65.2218 237.624 66.3613 235.413 66.7987C233.201 67.2362 230.907 66.9483 228.872 65.978C226.838 65.0077 225.17 63.4067 224.118 61.413C223.891 60.9849 223.695 60.5416 223.529 60.0866C222.994 58.6096 222.8 57.0312 222.958 55.4686C223.116 53.9059 223.624 52.3987 224.443 51.0587C225.262 49.7188 226.373 48.5801 227.691 47.7273C229.011 46.8744 230.504 46.3291 232.062 46.1319C233.622 45.9345 235.204 46.0901 236.694 46.5872C238.183 47.0842 239.542 47.9101 240.67 49.0035C241.797 50.097 242.665 51.4299 243.208 52.9038C243.75 54.3779 243.954 55.9549 243.805 57.5186V57.5186Z" fill="#1758FE" stroke="#DADDF1"/>
<path d="M183.794 21.5454C183.659 22.9831 183.227 24.3771 182.523 25.639C181.822 26.9012 180.866 28.0038 179.716 28.8774C179.339 29.1656 178.944 29.4273 178.531 29.6606C176.568 30.7759 174.297 31.2263 172.057 30.9446C169.817 30.663 167.727 29.6642 166.102 28.0976C164.947 26.9847 164.061 25.6217 163.515 24.1134C162.981 22.6367 162.787 21.059 162.945 19.4968C163.103 17.9347 163.611 16.4282 164.43 15.0887C165.249 13.7493 166.36 12.6113 167.678 11.7588C168.996 10.9064 170.491 10.3614 172.047 10.1641C173.605 9.96677 175.188 10.1222 176.678 10.619C178.167 11.1158 179.525 11.9411 180.654 13.034C181.781 14.1268 182.647 15.4592 183.191 16.9325C183.734 18.4058 183.938 19.9823 183.789 21.5454H183.794Z" fill="#1758FE" stroke="#DADDF1"/>
<path d="M71.9783 107.716L68.0577 108.007L72.1561 110.862L71.9783 107.716Z" fill="#F6F8FF"/>
<path d="M100.419 119.773C99.5015 129.496 94.933 138.51 87.6339 144.998C86.9007 145.651 86.1444 146.274 85.3645 146.868C83.9725 147.93 82.5106 148.897 80.9888 149.762C74.1648 153.645 66.3167 155.35 58.4966 154.647L58.2209 154.622C52.2533 154.053 46.4994 152.106 41.4131 148.933C36.3269 145.76 32.0474 141.449 28.9123 136.339C28.4771 135.628 28.0622 134.902 27.6674 134.161C24.864 128.84 23.3369 122.94 23.2068 116.927C23.077 110.914 24.3476 104.953 26.9185 99.516C33.6991 85.2141 48.9033 75.983 65.5709 77.5737C86.8524 79.6033 102.45 98.498 100.419 119.773Z" fill="#1758FE" stroke="#DADDF1"/>
<path d="M238.354 126.227C237.813 131.846 236.047 137.278 233.182 142.142C230.319 147.006 226.426 151.185 221.776 154.386C217.126 157.586 211.832 159.731 206.265 160.669C200.7 161.607 194.997 161.316 189.554 159.816C184.113 158.316 179.065 155.644 174.764 151.987C170.465 148.33 167.016 143.777 164.662 138.646C162.309 133.515 161.105 127.932 161.138 122.287C161.17 116.643 162.436 111.073 164.849 105.97C171.63 91.6682 186.834 82.4371 203.502 84.0278C224.783 86.0574 240.389 104.952 238.354 126.227Z" fill="#1758FE" stroke="#DADDF1"/>
<path d="M148.322 43.377C147.781 48.997 146.017 54.4306 143.154 59.2968C140.291 64.1628 136.397 68.3434 131.747 71.5451C127.097 74.7469 121.802 76.8924 116.235 77.8312C110.668 78.7698 104.962 78.4789 99.5194 76.9787C94.0763 75.4785 89.0276 72.8056 84.727 69.1474C80.4267 65.489 76.9788 60.9342 74.6255 55.8021C72.272 50.6701 71.0701 45.0852 71.104 39.4394C71.1379 33.7935 72.4068 28.2235 74.8216 23.1201C81.6022 8.81492 96.8047 -0.41296 113.474 1.17777C134.751 3.20738 150.353 22.102 148.322 43.377Z" fill="#1758FE" stroke="#DADDF1"/>
<path d="M162.239 102.779L163.236 100.966C163.655 100.062 164.027 99.1358 164.352 98.1928C164.854 96.713 164.678 94.6035 166.879 92.6114C169.08 90.6193 165.825 91.1691 164.725 92.0877C163.808 92.8528 163.063 95.0244 162.151 95.5138C161.942 95.219 161.777 94.896 161.661 94.5545L159.668 85.2124C159.638 85.0628 159.557 84.9285 159.438 84.8344C159.317 84.7404 159.167 84.6926 159.015 84.7001L158.649 84.7115C158.561 84.7163 158.475 84.7394 158.395 84.7796C158.317 84.8197 158.247 84.8758 158.191 84.9445C158.134 85.0132 158.093 85.0928 158.07 85.1783C158.046 85.2638 158.041 85.3532 158.054 85.4408C158.361 87.4395 159.426 93.3863 159.318 93.3896L159.098 93.494L156.041 84.0312C155.998 83.8818 155.902 83.7534 155.771 83.6701C155.639 83.5871 155.483 83.5553 155.329 83.5809L154.84 83.6625C154.755 83.6759 154.673 83.7064 154.602 83.7524C154.528 83.7982 154.466 83.8584 154.417 83.9294C154.37 84.0002 154.336 84.0803 154.319 84.1647C154.303 84.2488 154.305 84.3356 154.323 84.4195C154.793 86.596 156.99 93.8383 156.879 93.8448L156.61 93.9362L153.293 86.1049C153.248 85.9489 153.143 85.8166 153.001 85.7352C152.861 85.6538 152.694 85.6296 152.536 85.6676L152.146 85.7639C152.065 85.7838 151.988 85.8195 151.921 85.8689C151.854 85.9184 151.797 85.9807 151.753 86.0522C151.711 86.1238 151.681 86.2031 151.668 86.2858C151.655 86.3684 151.66 86.4527 151.68 86.534L154.664 94.238L154.39 94.4109L151.264 88.8458C151.203 88.7026 151.092 88.5864 150.952 88.519C150.813 88.4516 150.653 88.4379 150.503 88.4804L150.317 88.5358C150.157 88.5827 150.024 88.6895 149.942 88.8339C149.86 88.9783 149.838 89.1488 149.88 89.3092C150.18 90.4512 151.675 92.8479 152.544 95.3458C153.225 97.2808 153.272 98.8307 154.394 101.174C154.868 102.167 155.768 103.347 156.259 104.004" fill="#DADDF1"/>
<path d="M218.924 156.216C211.669 160.33 203.278 161.99 195.001 160.948C186.726 159.907 179.007 156.22 172.997 150.437L173.464 138.473L158.486 136C156.275 135.392 154.354 134.017 153.066 132.121C151.779 130.224 151.21 127.931 151.461 125.653L152.686 102.168L164.52 102.984L164.846 105.973L166.675 121.747C166.675 121.747 179.055 123.295 195.949 127.62C212.395 131.831 217.239 146.435 218.924 156.216Z" fill="#081638"/>
<path d="M206.039 112.976C210.574 107.194 209.928 99.1154 204.595 94.9323C199.263 90.7493 191.262 92.0458 186.727 97.8283C182.191 103.611 182.837 111.689 188.17 115.872C193.504 120.055 201.503 118.759 206.039 112.976Z" fill="#1758FE"/>
<path d="M188.159 132.296C187.269 131.652 186.613 130.734 186.291 129.683C185.968 128.632 185.998 127.505 186.373 126.472L192.263 110.3C192.463 109.644 192.796 109.036 193.24 108.512C193.682 107.989 194.229 107.561 194.842 107.255C195.457 106.949 196.126 106.771 196.811 106.732C197.497 106.693 198.182 106.794 198.826 107.029C199.472 107.263 200.061 107.626 200.562 108.096C201.061 108.566 201.461 109.133 201.735 109.762C202.009 110.391 202.153 111.069 202.156 111.755C202.159 112.441 202.024 113.121 201.756 113.753L195.865 129.926C195.596 130.659 195.162 131.32 194.596 131.857C194.03 132.395 193.346 132.793 192.6 133.023C191.853 133.252 191.063 133.305 190.293 133.178C189.523 133.051 188.792 132.748 188.159 132.292V132.296Z" fill="#DADDF1"/>
<path d="M189.159 123.279L188.18 122.915C187.041 122.493 186.01 121.824 185.16 120.958C184.308 120.091 183.661 119.048 183.258 117.902C182.856 116.756 182.713 115.536 182.837 114.328C182.961 113.12 183.349 111.955 183.974 110.914L187.074 105.758C188.074 104.093 189.629 102.834 191.466 102.201C193.301 101.569 195.301 101.604 197.116 102.299V102.299C199.162 103.085 200.811 104.65 201.704 106.652C202.594 108.654 202.655 110.928 201.87 112.974L199.749 118.494C198.969 120.525 197.421 122.167 195.437 123.063C193.455 123.959 191.198 124.037 189.159 123.279Z" fill="#DADDF1"/>
<path d="M189.941 108.684L185.697 112.129L187.363 113.381" stroke="#1758FE" stroke-width="0.8" stroke-linecap="square"/>
<path d="M191.019 111.118C191.514 111.118 191.915 110.717 191.915 110.222C191.915 109.727 191.514 109.326 191.019 109.326C190.525 109.326 190.124 109.727 190.124 110.222C190.124 110.717 190.525 111.118 191.019 111.118Z" fill="#1758FE"/>
<path d="M187.294 109.233C187.789 109.233 188.19 108.832 188.19 108.338C188.19 107.843 187.789 107.442 187.294 107.442C186.8 107.442 186.399 107.843 186.399 108.338C186.399 108.832 186.8 109.233 187.294 109.233Z" fill="#1758FE"/>
<path d="M214.448 137.011C214.448 137.011 210.317 147.353 202.271 142.759C188.949 135.151 191.685 125.147 195.441 120.57C196.937 118.748 199.03 117.94 201.215 117.278C194.863 111.677 197.986 107.216 197.986 107.216C197.986 107.216 180.999 106.125 186.492 98.0668C191.985 90.0088 201.797 91.0643 206.999 94.564C219.088 102.702 214.974 110.997 217.732 114.051C233.374 131.382 214.448 137.011 214.448 137.011Z" fill="#1758FE"/>
<path d="M203 117.988C204.757 116.92 205.315 114.631 204.246 112.875C203.179 111.118 200.89 110.56 199.133 111.628L196.242 113.386C194.486 114.454 193.928 116.743 194.995 118.499C196.064 120.256 198.353 120.814 200.109 119.746L203 117.988Z" fill="#DADDF1"/>
<path d="M202.21 114.273L198.108 116.764" stroke="#1758FE" stroke-width="0.8" stroke-linecap="square"/>
<path d="M189.835 115.904C189.877 116.474 189.693 117.038 189.321 117.472C188.947 117.906 188.418 118.174 187.847 118.217C187.278 118.26 186.713 118.075 186.281 117.703C185.847 117.33 185.578 116.801 185.535 116.231C185.444 115.043 186.647 115.054 187.833 114.963C189.019 114.871 189.743 114.716 189.835 115.904Z" fill="#1758FE"/>
<path d="M134.612 69.3967L133.268 70.4719C131.876 71.5339 130.414 72.5009 128.892 73.3662C124.385 75.9209 119.411 77.5447 114.264 78.1417C109.117 78.7385 103.903 78.2962 98.9311 76.8409C93.9585 75.3856 89.3289 72.9471 85.3162 69.6695C81.3036 66.3921 77.9897 62.3425 75.571 57.7607C81.7153 53.2447 92.002 47.8492 105.16 48.9505C127.169 50.8023 134.612 69.3967 134.612 69.3967Z" fill="#081638"/>
<path d="M113.578 45.5042L114.893 45.651C116.422 45.8235 117.971 45.6567 119.428 45.1627C120.886 44.6687 122.216 43.8596 123.325 42.7928C124.434 41.7261 125.295 40.428 125.845 38.9908C126.396 37.5538 126.623 36.0132 126.51 34.4784L125.952 26.8755C125.771 24.4201 124.732 22.1066 123.015 20.3414C121.299 18.5763 119.015 17.4722 116.566 17.2234V17.2234C113.802 16.9431 111.041 17.7719 108.889 19.5276C106.737 21.2833 105.37 23.8219 105.09 26.5851L104.333 34.0395C104.054 36.7829 104.868 39.5253 106.6 41.6718C108.331 43.8182 110.838 45.1952 113.578 45.5042Z" fill="#DADDF1"/>
<path d="M108.389 58.1241C108.141 58.1248 107.894 58.1101 107.648 58.0801C106.015 57.8856 104.527 57.0507 103.51 55.7589C102.493 54.4672 102.031 52.8244 102.225 51.1918L105.161 26.4889C105.356 24.8561 106.191 23.3675 107.484 22.3506C108.124 21.8471 108.856 21.4746 109.64 21.2542C110.424 21.0339 111.244 20.9702 112.052 21.0666C112.861 21.163 113.642 21.4177 114.352 21.8163C115.062 22.2147 115.687 22.7492 116.19 23.3889C116.694 24.0288 117.067 24.7616 117.287 25.5454C117.507 26.3292 117.571 27.1489 117.475 27.9573L114.538 52.6602C114.358 54.1652 113.633 55.552 112.5 56.5588C111.367 57.5656 109.904 58.1225 108.389 58.1241V58.1241Z" fill="#DADDF1"/>
<path d="M107.487 37.4231L107.489 37.4222C109.3 36.308 109.865 33.9364 108.751 32.1251L107.606 30.2645C106.492 28.4534 104.12 27.8884 102.309 29.0025L102.307 29.0033C100.496 30.1177 99.9313 32.4893 101.046 34.3004L102.19 36.1612C103.305 37.9723 105.676 38.5373 107.487 37.4231Z" fill="#DADDF1"/>
<path d="M102.742 32.0122L105.829 35.2752" stroke="#1758FE" stroke-width="0.8" stroke-linecap="square"/>
<path d="M121.097 27.8413L121.314 33.9514L119.141 34.0395" stroke="#1758FE" stroke-width="0.8" stroke-linecap="square"/>
<path d="M114.623 35.9374C114.443 36.2694 114.331 36.6337 114.292 37.0093C114.253 37.3849 114.288 37.7644 114.396 38.1262C114.504 38.4881 114.682 38.8252 114.92 39.1182C115.158 39.4114 115.451 39.6547 115.783 39.8343C116.116 40.0139 116.48 40.1265 116.855 40.1653C117.231 40.2042 117.61 40.1687 117.972 40.0609C118.334 39.9532 118.671 39.7751 118.964 39.537C119.257 39.299 119.501 39.0056 119.68 38.6735C120.436 37.2752 118.966 36.6373 117.559 35.8819C116.153 35.1265 115.378 34.5408 114.623 35.9374Z" fill="#1758FE"/>
<path d="M108.296 34.8321L111.233 23.8014L111.93 21.1909C112.584 21.8925 113.351 22.4808 114.197 22.9318C117.271 24.5861 126.538 23.927 127.822 17.4287C128.87 12.1295 123.243 15.1755 120.361 14.8443C115.834 14.3222 112.693 11.658 106.493 15.0075C99.0782 19.0194 102.591 28.8542 102.591 28.8542C102.591 28.8542 105.854 27.5767 108.296 34.8321Z" fill="#FEA217"/>
<path d="M116.911 31.1417C117.507 31.1417 117.99 30.659 117.99 30.0633C117.99 29.4676 117.507 28.9849 116.911 28.9849C116.316 28.9849 115.833 29.4676 115.833 30.0633C115.833 30.659 116.316 31.1417 116.911 31.1417Z" fill="#1758FE"/>
<path d="M123.345 31.1417C123.941 31.1417 124.423 30.659 124.423 30.0633C124.423 29.4676 123.941 28.9849 123.345 28.9849C122.749 28.9849 122.266 29.4676 122.266 30.0633C122.266 30.659 122.749 31.1417 123.345 31.1417Z" fill="#1758FE"/>
<path d="M93.7439 138.093C91.9882 140.629 89.9372 142.947 87.6338 144.998C86.9006 145.65 86.1443 146.274 85.3644 146.868C83.9724 147.93 82.5105 148.897 80.9887 149.762C78.7195 151.053 76.3253 152.11 73.8426 152.917L58.4965 154.647L58.2208 154.622C52.2532 154.053 46.4993 152.106 41.413 148.933C36.3267 145.76 32.0473 141.449 28.9121 136.339C34.7122 125.704 45.074 114.751 63.471 112.106C81.0099 109.586 90.6489 130.021 93.7439 138.093Z" fill="#081638"/>
<path d="M65.8175 121.256L65.6217 121.269C63.7539 121.355 61.9287 120.695 60.5475 119.435C59.1661 118.175 58.3417 116.418 58.2554 114.551L57.1133 89.7777C57.0704 88.8529 57.21 87.9287 57.5244 87.0578C57.8388 86.187 58.3216 85.3866 58.9452 84.7023C60.2047 83.3204 61.9617 82.4956 63.8294 82.4089C65.6972 82.3224 67.5229 82.9814 68.9048 84.241C70.2867 85.5005 71.1116 87.2573 71.1982 89.1251L72.3403 113.896C72.4259 115.731 71.7922 117.527 70.574 118.901C69.3557 120.276 67.6492 121.121 65.8175 121.256V121.256Z" fill="#DADDF1"/>
<path d="M69.9893 108.302L71.2668 107.976C72.751 107.589 74.1319 106.881 75.3114 105.9C76.4908 104.92 77.4398 103.692 78.0908 102.303C78.742 100.914 79.079 99.3992 79.0782 97.8655C79.0776 96.3318 78.7389 94.8171 78.0866 93.429L74.8513 86.5522C73.8058 84.3323 72.0121 82.5514 69.7846 81.5222C67.5572 80.4929 65.0385 80.2809 62.6703 80.9234V80.9234C59.9984 81.649 57.7241 83.4058 56.3472 85.8079C54.9705 88.2098 54.6039 91.0604 55.3285 93.7325L57.2863 100.941C58.0086 103.592 59.7475 105.853 62.1256 107.231C64.5037 108.609 67.3293 108.994 69.9893 108.302V108.302Z" fill="#DADDF1"/>
<path d="M56.0548 103.664C57.739 104.952 60.1485 104.631 61.4364 102.947C62.7245 101.263 62.4034 98.8537 60.7193 97.5657L58.9906 96.2435C57.3065 94.9554 54.8971 95.2765 53.609 96.9605C52.3209 98.6446 52.642 101.054 54.3261 102.342L56.0548 103.664Z" fill="#DADDF1"/>
<path d="M80.0349 100.585C81.0301 104.721 80.3612 110.787 75.3524 112.055C70.3436 113.322 64.1259 109.317 63.0817 105.189C62.0376 101.062 63.1813 98.7562 68.1933 97.4869C73.2053 96.2175 78.7345 95.1897 80.0349 100.585Z" fill="#081638"/>
<path d="M55.0852 99.6147L58.376 101.556" stroke="#1758FE" stroke-width="0.8" stroke-linecap="square"/>
<path d="M67.6004 101.223C67.5182 101.97 67.7319 102.718 68.1956 103.308C68.6591 103.898 69.3359 104.283 70.0802 104.38C70.8245 104.477 71.5769 104.278 72.1762 103.826C72.7753 103.374 73.1732 102.705 73.2846 101.963C73.4886 100.393 71.8913 100.331 70.3218 100.119C68.7523 99.9068 67.8044 99.6539 67.6004 101.223Z" fill="#1758FE"/>
<path d="M67.1175 95.0133C67.7104 95.0133 68.191 94.5326 68.191 93.9398C68.191 93.3469 67.7104 92.8662 67.1175 92.8662C66.5246 92.8662 66.0439 93.3469 66.0439 93.9398C66.0439 94.5326 66.5246 95.0133 67.1175 95.0133Z" fill="#1758FE"/>
<path d="M74.6273 92.8927C75.2202 92.8927 75.7008 92.412 75.7008 91.8191C75.7008 91.2263 75.2202 90.7456 74.6273 90.7456C74.0344 90.7456 73.5537 91.2263 73.5537 91.8191C73.5537 92.412 74.0344 92.8927 74.6273 92.8927Z" fill="#1758FE"/>
<path d="M55.411 153.812L59.7052 156.691C59.7052 156.691 59.5143 166.934 64.0189 166.387C64.0189 166.387 64.0369 168.006 64.9522 168.161C65.8675 168.316 68.3621 164.495 68.3621 164.495C68.3621 164.495 71.7882 163.203 72.4653 159.894C73.1424 156.585 73.2664 148.77 72.2092 148.181C71.152 147.592 60.7216 147.334 60.7216 147.334C60.7216 147.334 56.3916 147.86 55.411 153.812Z" fill="#DADDF1"/>
<path d="M62.6552 146.026L45.3398 139.634" stroke="#1758FE" stroke-width="0.8" stroke-linecap="square"/>
<path d="M48.7776 140.589L58.4933 128.764" stroke="#1758FE" stroke-width="0.8" stroke-linecap="square"/>
<path d="M55.3851 154.255C55.3851 154.255 54.9332 148.037 62.9701 146.122" stroke="#1758FE" stroke-width="0.8" stroke-linecap="square"/>
<path d="M71.5778 90.1709L73.9598 95.7784L71.9693 96.6366" stroke="#1758FE" stroke-width="0.8" stroke-linecap="square"/>
</svg>
