<svg width="89" height="24" viewBox="0 0 89 24" fill="none" xmlns="http://www.w3.org/2000/svg">
<rect x="0.4" y="0.4" width="87.7006" height="23.2" rx="7.6" fill="#C4FFBA"/>
<path d="M26.5006 14.7411L25.8897 12.4615L20.7476 13.8393L20.1645 11.6634C19.3316 8.55479 16.7773 6.90699 13.727 7.72431L13.0215 7.91335C9.97125 8.73067 8.58305 11.4349 9.41599 14.5434L10.6099 18.999L26.5006 14.7411Z" fill="#2DC115"/>
<path d="M37.7525 16L34.6805 7.6H36.3245L38.7005 14.428L41.0885 7.6H42.7085L39.6365 16H37.7525ZM45.8483 16.144C45.2483 16.144 44.7163 16.016 44.2523 15.76C43.7883 15.504 43.4243 15.144 43.1603 14.68C42.8963 14.216 42.7643 13.68 42.7643 13.072C42.7643 12.456 42.8923 11.908 43.1483 11.428C43.4123 10.948 43.7723 10.576 44.2283 10.312C44.6923 10.04 45.2363 9.904 45.8603 9.904C46.4443 9.904 46.9603 10.032 47.4083 10.288C47.8563 10.544 48.2043 10.896 48.4523 11.344C48.7083 11.784 48.8363 12.276 48.8363 12.82C48.8363 12.908 48.8323 13 48.8243 13.096C48.8243 13.192 48.8203 13.292 48.8123 13.396H44.2883C44.3203 13.86 44.4803 14.224 44.7683 14.488C45.0643 14.752 45.4203 14.884 45.8363 14.884C46.1483 14.884 46.4083 14.816 46.6163 14.68C46.8323 14.536 46.9923 14.352 47.0963 14.128H48.6563C48.5443 14.504 48.3563 14.848 48.0923 15.16C47.8363 15.464 47.5163 15.704 47.1323 15.88C46.7563 16.056 46.3283 16.144 45.8483 16.144ZM45.8603 11.152C45.4843 11.152 45.1523 11.26 44.8643 11.476C44.5763 11.684 44.3923 12.004 44.3123 12.436H47.2763C47.2523 12.044 47.1083 11.732 46.8443 11.5C46.5803 11.268 46.2523 11.152 45.8603 11.152ZM50.1282 16V10.048H51.4962L51.6402 11.164C51.8562 10.78 52.1482 10.476 52.5162 10.252C52.8922 10.02 53.3322 9.904 53.8362 9.904V11.524H53.4042C53.0682 11.524 52.7682 11.576 52.5042 11.68C52.2402 11.784 52.0322 11.964 51.8802 12.22C51.7362 12.476 51.6642 12.832 51.6642 13.288V16H50.1282ZM55.714 9.124C55.434 9.124 55.202 9.04 55.018 8.872C54.842 8.704 54.754 8.492 54.754 8.236C54.754 7.98 54.842 7.772 55.018 7.612C55.202 7.444 55.434 7.36 55.714 7.36C55.994 7.36 56.222 7.444 56.398 7.612C56.582 7.772 56.674 7.98 56.674 8.236C56.674 8.492 56.582 8.704 56.398 8.872C56.222 9.04 55.994 9.124 55.714 9.124ZM54.946 16V10.048H56.482V16H54.946ZM58.3612 16V11.332H57.5452V10.048H58.3612V9.352C58.3612 8.632 58.5412 8.12 58.9012 7.816C59.2692 7.512 59.7652 7.36 60.3892 7.36H61.0492V8.668H60.6292C60.3652 8.668 60.1772 8.72 60.0652 8.824C59.9532 8.928 59.8972 9.104 59.8972 9.352V10.048H63.7372V16H62.2012V11.332H59.8972V16H58.3612ZM62.9812 9.196C62.7012 9.196 62.4692 9.112 62.2852 8.944C62.1092 8.776 62.0212 8.564 62.0212 8.308C62.0212 8.052 62.1092 7.844 62.2852 7.684C62.4692 7.516 62.7012 7.432 62.9812 7.432C63.2612 7.432 63.4892 7.516 63.6652 7.684C63.8492 7.844 63.9412 8.052 63.9412 8.308C63.9412 8.564 63.8492 8.776 63.6652 8.944C63.4892 9.112 63.2612 9.196 62.9812 9.196ZM68.2546 16.144C67.6546 16.144 67.1226 16.016 66.6586 15.76C66.1946 15.504 65.8306 15.144 65.5666 14.68C65.3026 14.216 65.1706 13.68 65.1706 13.072C65.1706 12.456 65.2986 11.908 65.5546 11.428C65.8186 10.948 66.1786 10.576 66.6346 10.312C67.0986 10.04 67.6426 9.904 68.2666 9.904C68.8506 9.904 69.3666 10.032 69.8146 10.288C70.2626 10.544 70.6106 10.896 70.8586 11.344C71.1146 11.784 71.2426 12.276 71.2426 12.82C71.2426 12.908 71.2386 13 71.2306 13.096C71.2306 13.192 71.2266 13.292 71.2186 13.396H66.6946C66.7266 13.86 66.8866 14.224 67.1746 14.488C67.4706 14.752 67.8266 14.884 68.2426 14.884C68.5546 14.884 68.8146 14.816 69.0226 14.68C69.2386 14.536 69.3986 14.352 69.5026 14.128H71.0626C70.9506 14.504 70.7626 14.848 70.4986 15.16C70.2426 15.464 69.9226 15.704 69.5386 15.88C69.1626 16.056 68.7346 16.144 68.2546 16.144ZM68.2666 11.152C67.8906 11.152 67.5586 11.26 67.2706 11.476C66.9826 11.684 66.7986 12.004 66.7186 12.436H69.6826C69.6586 12.044 69.5146 11.732 69.2506 11.5C68.9866 11.268 68.6586 11.152 68.2666 11.152ZM75.2705 16.144C74.7105 16.144 74.2105 16.008 73.7705 15.736C73.3305 15.464 72.9825 15.092 72.7265 14.62C72.4705 14.148 72.3425 13.612 72.3425 13.012C72.3425 12.412 72.4705 11.88 72.7265 11.416C72.9825 10.944 73.3305 10.576 73.7705 10.312C74.2105 10.04 74.7105 9.904 75.2705 9.904C75.7185 9.904 76.1105 9.988 76.4465 10.156C76.7825 10.324 77.0545 10.56 77.2625 10.864V7.36H78.7985V16H77.4305L77.2625 15.148C77.0705 15.412 76.8145 15.644 76.4945 15.844C76.1825 16.044 75.7745 16.144 75.2705 16.144ZM75.5945 14.8C76.0905 14.8 76.4945 14.636 76.8065 14.308C77.1265 13.972 77.2865 13.544 77.2865 13.024C77.2865 12.504 77.1265 12.08 76.8065 11.752C76.4945 11.416 76.0905 11.248 75.5945 11.248C75.1065 11.248 74.7025 11.412 74.3825 11.74C74.0625 12.068 73.9025 12.492 73.9025 13.012C73.9025 13.532 74.0625 13.96 74.3825 14.296C74.7025 14.632 75.1065 14.8 75.5945 14.8Z" fill="#2DC115"/>
<rect x="0.4" y="0.4" width="87.7006" height="23.2" rx="7.6" stroke="#2DC115" stroke-width="0.8"/>
</svg>
