<svg width="814" height="645" viewBox="0 0 814 645" fill="none" xmlns="http://www.w3.org/2000/svg">
<path d="M810.519 488.134C808.936 489.016 646.048 582.746 633.109 590.186C632.934 516.223 630.277 487.612 638.068 462.874C642.539 448.833 651.256 436.526 663.016 427.648C695.105 402.332 783.671 358.537 812.8 344.148C815.469 342.826 813.227 338.817 810.54 340.139C801.128 344.79 743.641 374.171 724.276 384.636C615.293 443.637 628.193 447.381 628.514 590.07C620.047 584.936 548.762 541.697 542.186 537.846C545.527 527.484 551.547 513.989 558.598 506.699C561.107 503.802 564.473 501.779 568.208 500.923C569.139 500.705 570.109 500.714 571.037 500.949C571.964 501.183 572.822 501.636 573.538 502.27C574.254 502.904 574.808 503.7 575.154 504.592C575.499 505.484 575.627 506.445 575.524 507.396C575.229 512.334 573.347 517.143 575.721 521.943C576.854 524.166 578.507 526.082 580.539 527.529C582.571 528.976 584.922 529.912 587.393 530.256C598.688 531.968 608.508 522.983 613.227 513.296C618.15 502.968 620.055 491.458 618.72 480.095C618.796 473.512 616.751 467.08 612.888 461.749C609.026 456.418 603.551 452.471 597.272 450.491C600.685 444.218 602.631 437.252 602.965 430.118C603.298 422.984 602.01 415.867 599.198 409.302C590.512 389.257 564.113 379.72 542.481 390.048C544.521 381.409 548.202 373.241 553.323 365.99C558.847 358.139 570.758 353.317 577.591 360C575.743 363.251 574.817 366.945 574.915 370.684C575.012 374.422 576.128 378.063 578.143 381.213C581.777 386.701 586.898 391.04 592.908 393.724C599.93 396.948 607.556 398.647 615.282 398.71C623.009 398.772 630.661 397.197 637.734 394.087C649.667 388.85 660.513 376.195 657.099 363.034C655.779 358.987 653.551 355.294 650.587 352.239C649.141 350.688 647.59 349.239 645.945 347.901C639.013 342.511 630.443 339.661 621.664 339.827C619.474 329.212 614.88 319.24 608.234 310.677C614.292 313.732 617.184 315.217 618.733 316.017C622.323 317.865 622.708 318.289 626.704 315.978C627.911 315.272 669.597 294.372 677.456 290.397C677.981 290.083 678.36 289.574 678.51 288.982C678.661 288.389 678.571 287.762 678.261 287.235C678.03 286.533 678.47 286.94 623.791 259.425C623.438 259.274 623.058 259.197 622.674 259.197C622.29 259.197 621.91 259.274 621.557 259.425L569.41 285.652C565.643 284.726 561.807 284.11 557.939 283.808C575.015 274.951 602.282 261.461 609.971 257.516C610.317 257.309 610.603 257.015 610.8 256.663C610.998 256.311 611.1 255.914 611.096 255.511C611.093 255.107 610.984 254.712 610.781 254.363C610.577 254.015 610.286 253.726 609.937 253.524L556.301 226.57C555.948 226.419 555.569 226.342 555.186 226.342C554.803 226.342 554.424 226.419 554.072 226.57L500.432 253.546C500.085 253.753 499.799 254.046 499.602 254.398C499.404 254.749 499.302 255.146 499.306 255.549C499.309 255.953 499.418 256.348 499.621 256.696C499.825 257.044 500.116 257.333 500.466 257.533C501.886 258.248 545.716 280.415 552.236 283.633C548.157 283.667 544.09 284.074 540.085 284.848C462.712 267.532 463.328 267.361 462.147 268.101C461.731 268.29 461.393 268.618 461.192 269.029C460.991 269.439 460.94 269.908 461.048 270.352C461.125 270.912 475.8 312.932 477.755 318.212C462.029 328.99 446.903 340.619 432.446 353.048C408.264 373.719 389.326 399.827 377.184 429.231C366.659 421.731 351.816 412.117 337.278 403.325C337.252 398.37 336.726 378.081 336.709 372.9C345.677 369.047 354.636 365.177 363.587 361.292C363.475 363.958 363.356 366.525 363.313 369.062C363.036 371.182 363.404 373.337 364.37 375.245C365.365 376.735 366.78 377.897 368.436 378.582C370.092 379.268 371.914 379.446 373.671 379.095C378.985 378.043 380.033 371.531 380.226 369.563C381.432 357.279 379.875 321.288 381.702 306.895C382.745 299.46 385.462 292.358 389.649 286.126C393.835 279.894 399.382 274.693 405.872 270.917C410.064 268.444 414.591 266.287 418.968 264.204C420.804 263.348 675.724 145.611 677.392 144.862C680.13 143.651 677.871 139.634 675.172 140.832C670.204 143.04 602.903 173.268 590.884 178.706C590.961 176.656 591.261 168.168 591.261 168.168C591.673 168.271 592.108 168.23 592.493 168.052C608.726 161.664 645.119 145.936 664.073 137.649C666.82 136.455 664.578 132.429 661.861 133.618C654.404 136.883 593.721 162.575 591.423 163.615C592.279 139.698 592.057 141.795 592.484 141.623C604.131 137.157 619.011 130.837 636.707 122.845C639.416 121.613 637.187 117.587 634.483 118.815C620.612 125.091 605.324 131.595 592.39 136.725C592.467 134.585 595.835 47.9789 595.753 39.1266C595.646 28.2335 594.157 12.8093 582.464 4.66298C568.217 -5.25896 547.449 2.68629 529.119 9.7031C526.265 10.7941 251.643 112.161 245.957 114.857C237.97 118.582 231.526 124.967 227.73 132.921C224.292 141.852 222.948 151.452 223.802 160.984C223.802 162.605 223.845 188.2 223.845 188.2C184.6 192.752 147.024 206.666 114.279 228.771C81.5337 250.876 54.5788 280.525 35.6833 315.221C5.7335 371.907 3.32896 430.742 0.774665 493.067C-0.936753 534.65 0.603523 568.759 1.425 641.935C1.43171 642.544 1.67711 643.125 2.10838 643.555C2.53966 643.985 3.12237 644.228 3.73114 644.232H348.423C349.034 644.23 349.619 643.986 350.05 643.552C350.481 643.119 350.722 642.533 350.721 641.922C350.458 632.397 347.788 623.093 342.96 614.877C321.867 577.817 276.775 549.707 222.241 539.575C222.241 539.575 228 529.409 230.562 524.895C237.789 512.171 247.677 494.74 236.907 480.557C227.495 468.183 209.148 463.49 186.904 478.315C182.959 480.946 171.647 488.271 169.978 489.358C167.802 468.483 168.902 447.396 173.238 426.861C180.94 393.891 200.369 365.849 225.334 351.649C225.415 383.083 224.906 385.731 226.404 392.444C226.95 395.613 228.212 398.615 230.095 401.221C231.978 403.827 234.431 405.969 237.267 407.484C245.824 411.493 254.638 407.8 262.429 404.54C262.429 404.54 318.829 380.58 332.118 374.86C332.165 380.131 332.657 402.204 332.67 402.794C332.097 406.375 334.039 406.726 335.798 407.804C350.233 416.567 364.648 425.95 375.421 433.596C348.038 503.956 357.263 571.198 363.261 641.926C363.274 642.532 363.52 643.11 363.95 643.538C364.379 643.965 364.957 644.21 365.563 644.22H533.992C534.597 644.209 535.174 643.964 535.602 643.536C536.03 643.108 536.275 642.531 536.286 641.926C536.855 616.88 530.103 583.054 540.851 542.463C566.274 557.832 629.635 596.056 629.635 596.056C630.782 596.702 630.978 596.634 632.202 595.936C825.323 484.318 813.531 492.177 813.878 490.684C813.981 490.25 813.955 489.794 813.804 489.374C813.653 488.954 813.384 488.586 813.028 488.316C812.672 488.046 812.246 487.885 811.801 487.853C811.355 487.821 810.91 487.918 810.519 488.134ZM506.691 255.557L555.176 231.169L603.66 255.557L555.176 279.944L506.691 255.557ZM580.8 363.834C582.076 365.734 583.22 367.719 584.223 369.777C586.104 373.836 588.844 377.439 592.253 380.336C600.541 386.382 612.281 382.223 617.925 373.918C622.738 366.837 624.261 356.907 622.456 344.396C629.778 344.482 636.886 346.878 642.766 351.242C650.647 357.703 654.006 363.898 653.034 370.2C652.174 374.048 650.477 377.659 648.063 380.776C645.649 383.894 642.579 386.442 639.069 388.239C616.17 401.652 586.781 390.904 580.731 376.259C579.907 374.289 579.489 372.173 579.502 370.038C579.516 367.903 579.96 365.793 580.808 363.834H580.8ZM617.997 360.77C616.692 371.296 608.858 380.332 598.517 378.291C596.571 377.604 594.785 376.53 593.266 375.133C591.747 373.735 590.528 372.044 589.682 370.162C587.719 366.182 585.43 362.373 582.836 358.772C579.808 355.359 575.655 353.146 571.133 352.536C566.611 351.927 562.02 352.962 558.196 355.452C549.772 360.184 544.984 369.828 541.082 379.549C539.191 384.159 537.861 388.98 537.12 393.908C537.019 394.348 537.049 394.808 537.206 395.232C537.363 395.655 537.641 396.024 538.004 396.292C538.368 396.56 538.802 396.716 539.253 396.741C539.704 396.766 540.152 396.658 540.543 396.432C546.436 392.73 553.208 390.665 560.164 390.448C567.119 390.23 574.007 391.869 580.119 395.196C599.565 405.695 603.57 432.479 591.89 450.59C591.706 450.895 591.595 451.238 591.565 451.593C591.536 451.948 591.588 452.305 591.719 452.636C591.85 452.967 592.055 453.263 592.319 453.502C592.583 453.741 592.899 453.916 593.242 454.013C598.6 455.149 603.465 457.944 607.144 462.001C610.824 466.059 613.132 471.173 613.74 476.616C615.593 487.837 614.239 499.354 609.834 509.839C606.21 517.968 596.404 529.255 585.549 525.015C583.396 524.286 581.576 522.808 580.421 520.851C579.265 518.893 578.85 516.586 579.251 514.349C579.679 510.07 581.587 504.641 578.506 500.683C574.228 495.168 565.316 493.837 556.48 502.394C550.422 508.787 545.637 516.275 542.383 524.459C523.921 566.324 531.943 611.561 531.721 639.62H367.668C361.251 563.74 352.15 498.184 383.17 426.84C402.085 383.34 431.051 356.915 474.692 325.977C484.139 319.281 493.898 312.551 503.696 305.975C513.318 299.313 523.897 294.152 535.071 290.671C579.508 277.42 623.572 315.854 618.006 360.77H617.997ZM481.546 315.148C480.733 312.821 467.97 276.449 466.828 273.176L530.399 287.411C509.519 294.316 491.4 309.531 481.546 315.148ZM575.815 287.59L622.67 264.028L671.154 288.416L622.67 312.804L598.868 300.854C592.095 295.009 584.272 290.508 575.815 287.59ZM367.938 367.479C367.985 365.836 368.165 361.571 368.165 361.571L375.93 357.797C375.93 360.715 375.887 363.731 375.802 366.692C375.738 368.964 375.622 373.76 372.982 374.569C372.07 374.83 371.096 374.779 370.217 374.422C369.337 374.065 368.603 373.424 368.13 372.601C367.713 370.925 367.647 369.181 367.938 367.479ZM180.332 336.674C177.65 337.987 179.904 341.996 182.587 340.687C196.706 333.777 225.163 319.872 225.227 319.855V346.506C206.788 356.815 191.787 372.319 182.091 391.088C166.872 418.993 161.798 450.201 165.636 492.254C159.192 496.486 154.764 499.459 148.949 503.648C142.001 503.648 5.93887 503.533 5.01898 503.537C5.78056 477.374 7.77436 438.332 10.9148 413.512C18.9157 350.344 40.8646 302.535 80.009 263.053C118.371 223.665 169.229 198.834 223.879 192.808V256.579C203.963 260.856 184.496 267.008 165.738 274.951C162.996 276.145 165.229 280.167 167.95 278.986C185.971 271.323 204.68 265.392 223.824 261.273C236.698 258.278 253.286 261.791 258.655 274.181C262.87 283.902 257.5 294.183 242.696 304.747C234.405 310.652 197.233 328.36 180.332 336.639V336.674ZM229.963 362.063C229.998 347.58 230.276 332.459 229.938 317.566C235.031 315.01 239.968 312.153 244.72 309.009C250.83 305.088 256.137 300.039 260.358 294.132C262.313 291.329 263.626 288.129 264.203 284.761C264.78 281.393 264.608 277.939 263.699 274.644C262.79 271.35 261.165 268.297 258.942 265.702C256.718 263.107 253.95 261.034 250.834 259.63C243.821 256.491 236.118 255.209 228.466 255.908V151.473C228.163 142.147 231.505 133.071 237.785 126.169C246.5 116.915 255.814 114.485 538.113 11.4402C552.211 6.30594 568.174 0.418665 580.042 8.61208C589.455 15.1155 590.91 27.7928 591.107 38.1084C591.205 43.2426 586.708 166.332 586.174 180.841C554.085 195.388 434.23 251.124 406.167 265.513C398.682 269.394 392.193 274.949 387.205 281.747C382.217 288.544 378.864 296.4 377.406 304.704C169.071 385.877 272.342 345.74 229.951 362.028L229.963 362.063ZM189.317 482.29C196.27 477.102 204.592 474.068 213.251 473.561C225.381 473.561 236.912 482.431 237.109 494.928C237.288 506.053 232.004 513.189 203.184 563.851C188.979 588.825 174.347 614.685 145.424 622.296C124.134 627.906 101.919 618.018 94.8556 599.77C92.3226 593.038 91.5854 585.763 92.7163 578.659C94.6887 565.593 101.551 552.988 113.681 540.153C141.56 510.631 170.466 495.305 189.292 482.268L189.317 482.29ZM4.90346 508.243H142.758C133.209 515.477 124.122 523.302 115.551 531.673C106.724 540.307 94.4406 553.741 89.717 570.65C87.3534 577.887 86.87 585.606 88.3123 593.081C89.7547 600.557 93.0753 607.542 97.9618 613.38C102.837 618.678 108.865 622.785 115.581 625.381C122.297 627.978 129.52 628.995 136.691 628.355C170.603 625.261 188.427 598.859 203.774 572.079C209.11 562.773 214.514 553.279 219.836 543.841C271.067 552.984 314.781 578.985 336.816 613.444C341.993 621.284 345.155 630.282 346.019 639.637C331.789 639.637 10.3372 639.543 6.00732 639.586C5.96026 633.947 4.81789 516.372 4.90346 508.243ZM376.79 309.976C376.144 316.984 376.243 323.628 375.969 350.968C357.203 359.123 256.888 401.883 256.888 401.883C253.024 403.695 248.812 404.644 244.545 404.664C241.888 404.461 239.34 403.523 237.186 401.956C235.032 400.388 233.356 398.252 232.347 395.786C229.155 388.303 229.921 380.246 229.933 367.12C237.511 364.155 365.379 314.382 376.79 309.954V309.976Z" fill="url(#paint0_linear_494_22)"/>
<path d="M703.335 290.414C704.726 291.116 755.251 316.671 756.92 317.369C758.588 318.066 760.561 316.864 762.088 315.983C763.402 315.221 810.864 291.407 812.84 290.401C813.185 290.194 813.47 289.9 813.667 289.548C813.864 289.197 813.965 288.8 813.962 288.398C813.959 287.995 813.85 287.6 813.647 287.252C813.445 286.904 813.155 286.615 812.806 286.414L759.17 259.433C758.817 259.283 758.437 259.205 758.053 259.205C757.67 259.205 757.29 259.283 756.937 259.433L703.297 286.409C702.948 286.616 702.659 286.911 702.46 287.264C702.261 287.618 702.158 288.017 702.162 288.423C702.166 288.828 702.277 289.226 702.482 289.575C702.688 289.925 702.982 290.214 703.335 290.414ZM709.586 288.412L758.071 264.024L806.555 288.412L758.071 312.799L709.586 288.412Z" fill="url(#paint1_linear_494_22)"/>
<path d="M677.438 224.174C677.784 223.967 678.07 223.673 678.268 223.322C678.466 222.97 678.568 222.573 678.564 222.17C678.561 221.767 678.452 221.372 678.248 221.024C678.045 220.676 677.754 220.387 677.404 220.186L623.772 193.21C623.419 193.059 623.04 192.982 622.656 192.982C622.272 192.982 621.892 193.059 621.539 193.21L567.899 220.165C567.553 220.372 567.267 220.666 567.069 221.018C566.872 221.37 566.77 221.767 566.774 222.17C566.777 222.574 566.886 222.969 567.089 223.318C567.293 223.666 567.584 223.955 567.933 224.157C569.311 224.85 619.849 250.41 621.522 251.111C623.195 251.813 625.154 250.615 626.686 249.725C627.773 249.122 677.01 224.388 677.438 224.174ZM671.153 222.188L622.669 246.576L574.184 222.188L622.669 197.801L671.153 222.188Z" fill="url(#paint2_linear_494_22)"/>
<path d="M634.431 257.55C634.431 257.55 686.373 283.821 688.037 284.505C689.702 285.19 691.67 284.005 693.201 283.115C694.583 282.315 741.579 258.753 743.954 257.537C744.478 257.223 744.857 256.715 745.007 256.122C745.158 255.53 745.068 254.902 744.758 254.376C744.527 253.678 745.006 254.098 690.284 226.565C689.93 226.415 689.551 226.337 689.167 226.337C688.783 226.337 688.403 226.415 688.05 226.565L634.414 253.541C634.063 253.746 633.772 254.039 633.571 254.392C633.369 254.745 633.264 255.144 633.266 255.551C633.267 255.957 633.376 256.356 633.581 256.707C633.785 257.058 634.079 257.349 634.431 257.55ZM640.699 255.557L689.184 231.169L737.668 255.557L689.184 279.944L640.699 255.557Z" fill="url(#paint3_linear_494_22)"/>
<path d="M690.282 295.137C689.929 294.988 689.549 294.911 689.166 294.911C688.782 294.911 688.402 294.988 688.049 295.137L634.413 322.126C634.067 322.333 633.781 322.627 633.583 322.978C633.386 323.33 633.284 323.727 633.287 324.13C633.291 324.533 633.4 324.929 633.603 325.277C633.807 325.625 634.098 325.913 634.447 326.114C689.992 354.091 687.904 353.266 689.089 353.266C690.934 352.93 692.685 352.2 694.223 351.126L743.965 326.106C744.31 325.898 744.595 325.604 744.792 325.253C744.989 324.901 745.091 324.505 745.087 324.102C745.084 323.699 744.975 323.304 744.773 322.957C744.57 322.609 744.28 322.32 743.931 322.118L690.282 295.137ZM737.667 324.116L689.183 348.504L640.698 324.116L689.183 299.728L737.667 324.116Z" fill="url(#paint4_linear_494_22)"/>
<path d="M112.733 148.555H184.942C185.553 148.555 186.138 148.312 186.57 147.881C187.002 147.449 187.244 146.864 187.244 146.253C187.244 145.643 187.002 145.057 186.57 144.625C186.138 144.194 185.553 143.951 184.942 143.951H112.712C112.102 143.951 111.516 144.194 111.084 144.625C110.653 145.057 110.41 145.643 110.41 146.253C110.41 146.864 110.653 147.449 111.084 147.881C111.516 148.312 112.102 148.555 112.712 148.555H112.733Z" fill="url(#paint5_linear_494_22)"/>
<path d="M130.872 67.8485C193.587 121.014 189.916 118.335 191.17 118.335C191.633 118.368 192.096 118.256 192.493 118.014C192.89 117.773 193.202 117.414 193.386 116.988C193.57 116.561 193.617 116.088 193.521 115.633C193.424 115.179 193.189 114.765 192.847 114.45L134.064 64.5327C131.788 62.603 128.605 65.9232 130.872 67.8485Z" fill="url(#paint6_linear_494_22)"/>
<path d="M211.876 100.558H211.961C212.547 100.535 213.102 100.291 213.514 99.8746C213.927 99.4587 214.167 98.9019 214.186 98.3163V29.128C214.161 28.5341 213.907 27.973 213.477 27.5619C213.048 27.1507 212.477 26.9211 211.882 26.9211C211.288 26.9211 210.716 27.1507 210.287 27.5619C209.858 27.973 209.604 28.5341 209.578 29.128V98.3334C209.598 98.9297 209.849 99.495 210.277 99.91C210.706 100.325 211.279 100.557 211.876 100.558Z" fill="url(#paint7_linear_494_22)"/>
<path d="M470.072 361.489C462.322 363.278 455.531 367.922 451.054 374.496C449.368 376.956 453.3 379.339 454.986 376.888C458.836 371.324 464.641 367.415 471.244 365.939C474.137 365.28 473.007 360.817 470.072 361.489Z" fill="url(#paint8_linear_494_22)"/>
<path d="M512.251 429.668C508.182 430.318 504.35 432.008 501.127 434.575C497.903 437.141 495.398 440.498 493.853 444.318C492.728 447.082 497.109 448.391 498.251 445.665C499.565 442.607 501.644 439.94 504.289 437.92C506.934 435.9 510.055 434.597 513.35 434.135C516.307 433.715 515.207 429.21 512.251 429.668Z" fill="url(#paint9_linear_494_22)"/>
<path d="M681.97 441.07L705.737 477.703C707.346 480.18 711.321 477.857 709.686 475.337L685.919 438.704C684.31 436.239 680.327 438.55 681.97 441.07Z" fill="url(#paint10_linear_494_22)"/>
<path d="M731.771 461.239C732.258 461.193 732.719 460.999 733.093 460.683C733.467 460.368 733.735 459.945 733.862 459.473C733.989 459.001 733.969 458.501 733.804 458.04C733.639 457.58 733.337 457.18 732.939 456.896L695.985 431.122C693.529 429.411 691.159 433.351 693.594 435.05C733.88 463.147 730.847 461.239 731.771 461.239Z" fill="url(#paint11_linear_494_22)"/>
<defs>
<linearGradient id="paint0_linear_494_22" x1="407" y1="0" x2="407" y2="644.232" gradientUnits="userSpaceOnUse">
<stop stop-color="#0F3EB7"/>
<stop offset="1" stop-color="#0F3EB7"/>
</linearGradient>
<linearGradient id="paint1_linear_494_22" x1="758.062" y1="259.205" x2="758.062" y2="317.577" gradientUnits="userSpaceOnUse">
<stop stop-color="#0F3EB7"/>
<stop offset="1" stop-color="#0F3EB7"/>
</linearGradient>
<linearGradient id="paint2_linear_494_22" x1="622.669" y1="192.982" x2="622.669" y2="251.323" gradientUnits="userSpaceOnUse">
<stop stop-color="#0F3EB7"/>
<stop offset="1" stop-color="#0F3EB7"/>
</linearGradient>
<linearGradient id="paint3_linear_494_22" x1="689.172" y1="226.337" x2="689.172" y2="284.709" gradientUnits="userSpaceOnUse">
<stop stop-color="#0F3EB7"/>
<stop offset="1" stop-color="#0F3EB7"/>
</linearGradient>
<linearGradient id="paint4_linear_494_22" x1="689.187" y1="294.911" x2="689.187" y2="353.268" gradientUnits="userSpaceOnUse">
<stop stop-color="#0F3EB7"/>
<stop offset="1" stop-color="#0F3EB7"/>
</linearGradient>
<linearGradient id="paint5_linear_494_22" x1="111" y1="147" x2="187" y2="147" gradientUnits="userSpaceOnUse">
<stop stop-color="#0F3EB7"/>
<stop offset="1" stop-color="#0F3EB7" stop-opacity="0"/>
</linearGradient>
<linearGradient id="paint6_linear_494_22" x1="130" y1="64" x2="190.5" y2="116.5" gradientUnits="userSpaceOnUse">
<stop stop-color="#0F3EB7"/>
<stop offset="1" stop-color="#0F3EB7" stop-opacity="0"/>
</linearGradient>
<linearGradient id="paint7_linear_494_22" x1="211.882" y1="26.9211" x2="211.882" y2="100.558" gradientUnits="userSpaceOnUse">
<stop stop-color="#0F3EB7"/>
<stop offset="1" stop-color="#0F3EB7" stop-opacity="0"/>
</linearGradient>
<linearGradient id="paint8_linear_494_22" x1="461.785" y1="361.42" x2="461.785" y2="377.917" gradientUnits="userSpaceOnUse">
<stop stop-color="#0F3EB7"/>
<stop offset="1" stop-color="#0F3EB7" stop-opacity="0"/>
</linearGradient>
<linearGradient id="paint9_linear_494_22" x1="504.381" y1="429.635" x2="504.381" y2="447.166" gradientUnits="userSpaceOnUse">
<stop stop-color="#0F3EB7"/>
<stop offset="1" stop-color="#0F3EB7" stop-opacity="0"/>
</linearGradient>
<linearGradient id="paint10_linear_494_22" x1="695.826" y1="437.652" x2="695.826" y2="478.761" gradientUnits="userSpaceOnUse">
<stop stop-color="#0F3EB7"/>
<stop offset="1" stop-color="#0F3EB7" stop-opacity="0"/>
</linearGradient>
<linearGradient id="paint11_linear_494_22" x1="713.258" y1="430.701" x2="713.258" y2="461.266" gradientUnits="userSpaceOnUse">
<stop stop-color="#0F3EB7"/>
<stop offset="1" stop-color="#0F3EB7" stop-opacity="0"/>
</linearGradient>
</defs>
</svg>
