<svg width="123" height="24" viewBox="0 0 123 24" fill="none" xmlns="http://www.w3.org/2000/svg">
<g clip-path="url(#clip0_279_35979)">
<path d="M74.6991 11.7748C74.6991 15.6498 73.5994 18.6177 71.4 20.6784C69.2005 22.7391 66.023 23.7694 61.8674 23.7694H55.2148V0.231445H62.5894C66.4222 0.231445 69.3978 1.24559 71.5164 3.27388C73.6349 5.30217 74.6958 8.1358 74.6991 11.7748ZM69.5272 11.9032C69.5272 6.84543 67.3 4.31655 62.8455 4.31655H60.1955V19.6474H62.3303C67.1282 19.6474 69.5272 17.066 69.5272 11.9032Z" fill="white"/>
<path d="M93.6817 23.7694L91.9904 18.1894H83.4641L81.7689 23.7694H76.4263L84.6799 0.231445H90.7425L99.0282 23.7694H93.6817ZM90.8027 14.0206C89.2353 8.96288 88.3526 6.1033 88.1546 5.4419C87.9567 4.7805 87.8157 4.2569 87.7316 3.87108C87.3797 5.23927 86.3734 8.62245 84.7129 14.0206H90.8027Z" fill="white"/>
<path d="M123 11.9917C123 15.8512 122.046 18.8174 120.137 20.8905C118.228 22.9635 115.492 24.001 111.928 24.0029C108.365 24.0029 105.629 22.9654 103.72 20.8905C101.811 18.8155 100.856 15.8385 100.856 11.9596C100.856 8.07944 101.814 5.11611 103.728 3.06967C105.642 1.02322 108.386 0 111.96 0C115.534 0 118.268 1.03133 120.161 3.09398C122.055 5.15664 123.001 8.12256 123 11.9917ZM106.026 11.9917C106.026 14.5965 106.52 16.558 107.506 17.8762C108.493 19.1945 109.967 19.8536 111.928 19.8536C115.864 19.8536 117.831 17.233 117.83 11.9917C117.83 6.73946 115.874 4.11332 111.96 4.11332C109.998 4.11332 108.518 4.77504 107.522 6.09848C106.525 7.42193 106.026 9.38635 106.026 11.9917Z" fill="white"/>
<path d="M0 23.7685L17.2525 0.230469H0V23.7685Z" fill="url(#paint0_linear_279_35979)"/>
<path d="M24.8464 0.230469L7.61816 23.7685H24.8464V0.230469Z" fill="url(#paint1_linear_279_35979)"/>
<path d="M48.5571 0.289795L39.1274 10.5006L48.5697 23.7685L48.5571 0.289795Z" fill="url(#paint2_linear_279_35979)"/>
<path d="M31.5242 0.230469L31.498 10.4082L40.9636 0.230469H31.5242Z" fill="url(#paint3_linear_279_35979)"/>
<path d="M40.9761 23.7684L31.4979 10.4082L31.4766 23.7684" fill="url(#paint4_linear_279_35979)"/>
</g>
<defs>
<linearGradient id="paint0_linear_279_35979" x1="0" y1="11.9995" x2="48.5699" y2="11.9995" gradientUnits="userSpaceOnUse">
<stop stop-color="#8C8DFC"/>
<stop offset="1" stop-color="#4E529A"/>
</linearGradient>
<linearGradient id="paint1_linear_279_35979" x1="0.000104938" y1="11.9995" x2="48.57" y2="11.9995" gradientUnits="userSpaceOnUse">
<stop stop-color="#8C8DFC"/>
<stop offset="1" stop-color="#4E529A"/>
</linearGradient>
<linearGradient id="paint2_linear_279_35979" x1="-0.000155825" y1="11.9995" x2="48.5697" y2="11.9995" gradientUnits="userSpaceOnUse">
<stop stop-color="#8C8DFC"/>
<stop offset="1" stop-color="#4E529A"/>
</linearGradient>
<linearGradient id="paint3_linear_279_35979" x1="0.000160584" y1="11.9995" x2="48.57" y2="11.9995" gradientUnits="userSpaceOnUse">
<stop stop-color="#8C8DFC"/>
<stop offset="1" stop-color="#4E529A"/>
</linearGradient>
<linearGradient id="paint4_linear_279_35979" x1="2.88711e-05" y1="11.9994" x2="48.5699" y2="11.9994" gradientUnits="userSpaceOnUse">
<stop stop-color="#8C8DFC"/>
<stop offset="1" stop-color="#4E529A"/>
</linearGradient>
<clipPath id="clip0_279_35979">
<rect width="123" height="24" fill="white"/>
</clipPath>
</defs>
</svg>
