<svg width="360" height="373" viewBox="0 0 360 373" fill="none" xmlns="http://www.w3.org/2000/svg">
<g filter="url(#filter0_d_1039_342)">
<g clip-path="url(#clip0_1039_342)">
<rect x="12" y="0.599854" width="336" height="344" rx="16" fill="#081638"/>
<rect width="336" height="320" transform="translate(12 0.599854)" fill="#081638"/>
<path d="M115.154 211.059L123.147 211.952C132.441 213 141.853 211.986 150.711 208.984C159.569 205.981 167.657 201.063 174.398 194.579C181.139 188.095 186.369 180.206 189.714 171.47C193.059 162.736 194.438 153.371 193.753 144.043L190.362 97.8316C189.265 82.9071 182.946 68.8453 172.513 58.1166C162.08 47.3878 148.199 40.6772 133.312 39.165C116.516 37.4613 99.732 42.4989 86.65 53.1702C73.569 63.8414 65.2629 79.2717 63.5582 96.0664L58.9569 141.375C57.2632 158.05 62.2145 174.719 72.736 187.765C83.2575 200.811 98.4993 209.181 115.154 211.059Z" fill="#19F0FE"/>
<path d="M243 356.281L234.828 362.816C226.367 369.27 217.482 375.148 208.232 380.408C180.835 395.935 150.601 405.805 119.319 409.434C88.0378 413.061 56.3464 410.373 26.1236 401.527C-4.10026 392.682 -32.2396 377.86 -56.6295 357.939C-81.0184 338.018 -101.161 313.404 -115.862 285.555C-78.5164 258.106 -15.9922 225.312 63.9851 232.006C197.76 243.261 243 356.281 243 356.281Z" fill="#FE6A17"/>
<path d="M83.6106 287.764C82.1052 287.768 80.6019 287.679 79.1084 287.496C69.1849 286.314 60.138 281.24 53.957 273.388C47.775 265.537 44.9656 255.552 46.1457 245.628L63.9955 95.4812C65.1786 85.5567 70.2559 76.5088 78.1108 70.3278C82.0001 67.2675 86.4537 65.0035 91.2176 63.6638C95.9825 62.3251 100.964 61.9373 105.878 62.5234C110.792 63.1095 115.543 64.6575 119.859 67.0801C124.174 69.5017 127.97 72.7504 131.031 76.6387C134.091 80.528 136.356 84.9825 137.695 89.7464C139.034 94.5104 139.422 99.4925 138.836 104.406L120.986 254.553C119.892 263.701 115.486 272.131 108.599 278.25C101.712 284.37 92.8231 287.754 83.6106 287.764Z" fill="#19F0FE"/>
<path d="M78.1303 161.942L78.1382 161.936C89.1476 155.164 92.5817 140.749 85.8087 129.739L78.8512 118.431C72.0782 107.422 57.6634 103.988 46.655 110.76L46.6461 110.765C35.6377 117.538 32.2035 131.953 38.9766 142.961L45.9341 154.271C52.7071 165.28 67.1209 168.714 78.1303 161.942Z" fill="#19F0FE"/>
<path d="M49.2891 129.051L68.0513 148.884" stroke="white" stroke-width="2" stroke-linecap="square"/>
<path d="M160.852 103.701L162.171 140.839L148.962 141.375" stroke="white" stroke-width="2" stroke-linecap="square"/>
<path d="M121.5 152.911C120.409 154.929 119.725 157.143 119.488 159.426C119.252 161.709 119.467 164.015 120.123 166.215C120.777 168.414 121.86 170.463 123.307 172.244C124.754 174.026 126.538 175.505 128.556 176.596C130.575 177.688 132.788 178.372 135.071 178.608C137.354 178.844 139.661 178.629 141.86 177.974C144.06 177.319 146.108 176.236 147.889 174.79C149.671 173.343 151.15 171.56 152.242 169.541C156.833 161.042 147.898 157.165 139.35 152.573C130.802 147.982 126.092 144.422 121.5 152.911Z" fill="#081638"/>
<path d="M83.046 146.194L100.896 79.1478L105.13 63.2813C109.109 67.5454 113.767 71.1213 118.914 73.8623C137.597 83.9177 193.924 79.9114 201.728 40.4136C208.094 8.20448 173.892 26.7188 156.379 24.7057C128.861 21.5324 109.771 5.33858 72.0882 25.6974C27.0173 50.0823 48.3677 109.86 48.3677 109.86C48.3677 109.86 68.2009 102.095 83.046 146.194Z" fill="#1758FE"/>
<path d="M125.139 212.152L101.27 209.98L123.066 231.252L125.139 212.152Z" fill="#1758FE"/>
<path d="M135.413 123.764C139.033 123.764 141.968 120.83 141.968 117.209C141.968 113.589 139.033 110.654 135.413 110.654C131.793 110.654 128.858 113.589 128.858 117.209C128.858 120.83 131.793 123.764 135.413 123.764Z" fill="white"/>
<path d="M174.516 123.764C178.136 123.764 181.071 120.83 181.071 117.209C181.071 113.589 178.136 110.654 174.516 110.654C170.895 110.654 167.961 113.589 167.961 117.209C167.961 120.83 170.895 123.764 174.516 123.764Z" fill="white"/>
<g filter="url(#filter1_d_1039_342)">
<rect x="251" y="15.5999" width="81" height="32" rx="8" fill="#081638"/>
<path d="M263.284 34.1999H268.388V36.5999H260.724V25.3999H263.284V34.1999ZM277.086 33.0159H271.374C271.438 33.5599 271.635 33.9759 271.966 34.2639C272.297 34.5412 272.702 34.6799 273.182 34.6799C273.63 34.6799 274.003 34.5999 274.302 34.4399C274.601 34.2692 274.878 33.9545 275.134 33.4959L277.086 34.5999C276.691 35.3359 276.147 35.8959 275.454 36.2799C274.771 36.6532 274.025 36.8399 273.214 36.8399C271.945 36.8399 270.915 36.4452 270.126 35.6559C269.347 34.8772 268.958 33.9012 268.958 32.7279V32.1679C268.958 31.0052 269.363 30.0345 270.174 29.2559C270.995 28.4665 271.977 28.0719 273.118 28.0719C274.323 28.0719 275.289 28.4505 276.014 29.2079C276.729 29.9545 277.086 30.9359 277.086 32.1519V33.0159ZM274.606 31.3039C274.585 30.9305 274.446 30.6319 274.19 30.4079C273.934 30.1732 273.582 30.0559 273.134 30.0559C272.238 30.0559 271.673 30.4719 271.438 31.3039H274.606ZM282.336 28.0719C283.381 28.0719 284.235 28.3439 284.896 28.8879C285.557 29.4212 285.888 30.2372 285.888 31.3359V36.5999H283.52V35.4959C283.328 35.8692 283.024 36.1892 282.608 36.4559C282.203 36.7119 281.696 36.8399 281.088 36.8399C280.32 36.8399 279.675 36.6265 279.152 36.1999C278.64 35.7732 278.384 35.1919 278.384 34.4559V34.1679C278.384 33.4639 278.645 32.9252 279.168 32.5519C279.691 32.1785 280.384 31.9492 281.248 31.8639L282.64 31.7199C283.227 31.6559 283.52 31.4692 283.52 31.1599V31.0319C283.52 30.7865 283.397 30.5945 283.152 30.4559C282.907 30.3065 282.597 30.2319 282.224 30.2319C281.744 30.2319 281.312 30.3332 280.928 30.5359C280.555 30.7279 280.283 30.9625 280.112 31.2399L278.272 30.1839C278.592 29.5332 279.104 29.0212 279.808 28.6479C280.523 28.2639 281.365 28.0719 282.336 28.0719ZM281.76 34.9199C282.005 34.9199 282.235 34.8772 282.448 34.7919C282.661 34.7065 282.848 34.5892 283.008 34.4399C283.168 34.2799 283.291 34.0985 283.376 33.8959C283.472 33.6825 283.52 33.4479 283.52 33.1919V33.0639C283.392 33.2025 283.141 33.2985 282.768 33.3519L281.888 33.4799C281.227 33.5972 280.896 33.8212 280.896 34.1519V34.2639C280.896 34.4772 280.976 34.6425 281.136 34.7599C281.296 34.8665 281.504 34.9199 281.76 34.9199ZM291.718 30.4399C291.291 30.4399 290.934 30.6105 290.646 30.9519C290.368 31.2932 290.23 31.7412 290.23 32.2959V36.5999H287.75V28.3119H290.23V29.4319C290.464 29.0372 290.79 28.7119 291.206 28.4559C291.622 28.1999 292.107 28.0719 292.662 28.0719C293.536 28.0719 294.23 28.3865 294.742 29.0159C295.264 29.6345 295.526 30.5039 295.526 31.6239V36.5999H293.046V32.1839C293.046 31.0212 292.603 30.4399 291.718 30.4399ZM300.733 36.8399C299.666 36.8399 298.776 36.4505 298.061 35.6719C297.357 34.8932 297.005 33.9012 297.005 32.6959V32.2479C297.005 31.0319 297.357 30.0292 298.061 29.2399C298.765 28.4612 299.656 28.0719 300.733 28.0719C301.309 28.0719 301.821 28.1945 302.269 28.4399C302.717 28.6852 303.053 29.0052 303.277 29.3999V25.3999H305.757V36.5999H303.277V35.5119C303.053 35.9065 302.717 36.2265 302.269 36.4719C301.821 36.7172 301.309 36.8399 300.733 36.8399ZM303.181 32.2799C303.181 31.6719 303.01 31.1919 302.669 30.8399C302.338 30.4879 301.901 30.3119 301.357 30.3119C300.813 30.3119 300.37 30.4879 300.029 30.8399C299.698 31.1919 299.533 31.6719 299.533 32.2799V32.6319C299.533 33.2399 299.698 33.7199 300.029 34.0719C300.37 34.4239 300.813 34.5999 301.357 34.5999C301.901 34.5999 302.338 34.4239 302.669 34.0719C303.01 33.7092 303.181 33.2399 303.181 32.6639V32.2799ZM312.39 28.0719C312.902 28.0719 313.345 28.1892 313.718 28.4239L313.158 30.8239C312.838 30.6852 312.486 30.6159 312.102 30.6159C311.526 30.6159 311.068 30.7919 310.726 31.1439C310.385 31.4852 310.214 32.0132 310.214 32.7279V36.5999H307.734V28.3119H310.214V29.6719C310.673 28.6052 311.398 28.0719 312.39 28.0719ZM314.286 32.1839C314.286 30.9572 314.692 29.9705 315.502 29.2239C316.313 28.4559 317.353 28.0719 318.622 28.0719C319.881 28.0719 320.921 28.4559 321.742 29.2239C322.553 29.9705 322.958 30.9572 322.958 32.1839V32.7279C322.958 33.9439 322.553 34.9359 321.742 35.7039C320.921 36.4612 319.881 36.8399 318.622 36.8399C317.364 36.8399 316.324 36.4612 315.502 35.7039C314.692 34.9359 314.286 33.9439 314.286 32.7279V32.1839ZM320.43 32.2159C320.43 31.6399 320.26 31.1812 319.918 30.8399C319.577 30.4879 319.145 30.3119 318.622 30.3119C318.1 30.3119 317.668 30.4879 317.326 30.8399C316.985 31.1812 316.814 31.6399 316.814 32.2159V32.6959C316.814 33.2719 316.985 33.7359 317.326 34.0879C317.668 34.4292 318.1 34.5999 318.622 34.5999C319.145 34.5999 319.577 34.4292 319.918 34.0879C320.26 33.7359 320.43 33.2719 320.43 32.6959V32.2159Z" fill="white"/>
</g>
</g>
</g>
<defs>
<filter id="filter0_d_1039_342" x="0" y="0.599854" width="360" height="372" filterUnits="userSpaceOnUse" color-interpolation-filters="sRGB">
<feFlood flood-opacity="0" result="BackgroundImageFix"/>
<feColorMatrix in="SourceAlpha" type="matrix" values="0 0 0 0 0 0 0 0 0 0 0 0 0 0 0 0 0 0 127 0" result="hardAlpha"/>
<feMorphology radius="8" operator="erode" in="SourceAlpha" result="effect1_dropShadow_1039_342"/>
<feOffset dy="16"/>
<feGaussianBlur stdDeviation="10"/>
<feComposite in2="hardAlpha" operator="out"/>
<feColorMatrix type="matrix" values="0 0 0 0 0.0666667 0 0 0 0 0.0470588 0 0 0 0 0.133333 0 0 0 0.1 0"/>
<feBlend mode="normal" in2="BackgroundImageFix" result="effect1_dropShadow_1039_342"/>
<feBlend mode="normal" in="SourceGraphic" in2="effect1_dropShadow_1039_342" result="shape"/>
</filter>
<filter id="filter1_d_1039_342" x="250" y="15.5999" width="83" height="34" filterUnits="userSpaceOnUse" color-interpolation-filters="sRGB">
<feFlood flood-opacity="0" result="BackgroundImageFix"/>
<feColorMatrix in="SourceAlpha" type="matrix" values="0 0 0 0 0 0 0 0 0 0 0 0 0 0 0 0 0 0 127 0" result="hardAlpha"/>
<feMorphology radius="1" operator="erode" in="SourceAlpha" result="effect1_dropShadow_1039_342"/>
<feOffset dy="1"/>
<feGaussianBlur stdDeviation="1"/>
<feComposite in2="hardAlpha" operator="out"/>
<feColorMatrix type="matrix" values="0 0 0 0 0.0666667 0 0 0 0 0.0470588 0 0 0 0 0.133333 0 0 0 0.08 0"/>
<feBlend mode="normal" in2="BackgroundImageFix" result="effect1_dropShadow_1039_342"/>
<feBlend mode="normal" in="SourceGraphic" in2="effect1_dropShadow_1039_342" result="shape"/>
</filter>
<clipPath id="clip0_1039_342">
<rect x="12" y="0.599854" width="336" height="344" rx="16" fill="white"/>
</clipPath>
</defs>
</svg>
