<svg width="348" height="373" viewBox="0 0 348 373" fill="none" xmlns="http://www.w3.org/2000/svg">
<g filter="url(#filter0_d_1039_322)">
<g clip-path="url(#clip0_1039_322)">
<rect y="0.599854" width="336" height="344" rx="16" fill="#081638"/>
<rect width="336" height="320" transform="translate(0 0.599854)" fill="#081638"/>
<path d="M250 383.707C240.288 397.734 228.943 410.556 216.201 421.901C212.145 425.511 207.961 428.959 203.647 432.244C195.947 438.118 187.861 443.468 179.442 448.255C166.89 455.396 153.646 461.244 139.912 465.709L55.0217 475.276L53.4964 475.14C20.4853 471.993 -11.3436 461.219 -39.4795 443.668C-67.6153 426.117 -91.2882 402.269 -108.631 374.005C-76.5465 315.17 -19.228 254.584 82.5393 239.955C179.559 226.011 232.88 339.051 250 383.707Z" fill="#1758FE"/>
<path d="M95.519 290.57L94.436 290.642C84.1041 291.115 74.0077 287.465 66.367 280.496C58.7254 273.527 54.165 263.808 53.6876 253.477L47.37 116.439C47.1327 111.324 47.9052 106.211 49.6444 101.393C51.3835 96.5767 54.054 92.149 57.5034 88.3638C64.4708 80.7195 74.19 76.1564 84.5219 75.6772C94.8539 75.1989 104.953 78.8441 112.597 85.8115C120.242 92.7789 124.805 102.497 125.284 112.829L131.601 249.858C132.075 260.007 128.57 269.94 121.831 277.544C115.092 285.148 105.652 289.822 95.519 290.57V290.57Z" fill="#19F0FE"/>
<path d="M118.596 218.909L125.663 217.104C133.873 214.967 141.512 211.048 148.036 205.624C154.56 200.2 159.81 193.406 163.411 185.725C167.013 178.043 168.878 169.662 168.873 161.177C168.869 152.694 166.996 144.315 163.388 136.636L145.491 98.5954C139.708 86.3159 129.785 76.464 117.463 70.771C105.142 65.077 91.2092 63.9047 78.1093 67.4588V67.4588C63.3288 71.4722 50.7478 81.1905 43.1315 94.4782C35.5161 107.765 33.4882 123.534 37.4962 138.315L48.3264 178.188C52.3218 192.857 61.9408 205.361 75.0958 212.984C88.2508 220.608 103.881 222.737 118.596 218.909V218.909Z" fill="#19F0FE"/>
<path d="M64.8918 180.626L74.9985 120.199L77.4086 105.917C81.1745 109.351 85.4722 112.123 90.1275 114.121C107.013 121.468 154.406 118.469 158.029 83.0986C158.371 79.7027 139.837 81.9084 139.371 79.7345C136.09 63.3742 131.985 68.1823 118.52 67.8649C94.5433 67.2778 76.7866 54.5672 45.9223 75.5135C8.97833 100.586 32.0838 151.46 32.0838 151.46C32.0838 151.46 48.6278 143.033 64.8918 180.626Z" fill="#DADDF1"/>
<path fill-rule="evenodd" clip-rule="evenodd" d="M19.625 127.392L205.945 68.8343Z" fill="#1758FE"/>
<path d="M17.7135 111.421C11.8406 92.7931 13.5996 72.5925 22.6055 55.2629C31.6098 37.9332 47.1228 24.8948 65.7305 19.0154C84.3382 13.136 104.516 14.8969 121.827 23.9128C139.137 32.9271 152.161 48.4574 158.034 67.0857" fill="#1758FE"/>
<path fill-rule="evenodd" clip-rule="evenodd" d="M207.403 63.7936C207.968 65.5925 208.251 66.4919 207.867 67.2264C207.484 67.9609 206.585 68.2435 204.786 68.8089L26.0982 124.968C24.2994 125.533 23.3999 125.816 22.6655 125.433C21.931 125.05 21.6483 124.15 21.083 122.351L15.5011 104.591C14.9357 102.792 14.653 101.892 15.0362 101.158C15.4194 100.423 16.3189 100.141 18.1177 99.5753L196.805 43.4163C198.604 42.851 199.504 42.5683 200.238 42.9515C200.973 43.3347 201.255 44.2341 201.821 46.033L207.403 63.7936Z" fill="#1758FE"/>
<path d="M41.516 193.253C50.8327 200.378 64.161 198.602 71.2854 189.287C78.4107 179.971 76.6346 166.642 67.3188 159.517L57.7558 152.203C48.4401 145.078 35.1118 146.854 27.9865 156.17C20.8611 165.485 22.6373 178.814 31.953 185.939L41.516 193.253Z" fill="#19F0FE"/>
<path d="M174.163 176.222C179.668 199.101 175.968 232.656 148.261 239.669C120.553 246.681 86.1588 224.525 80.3827 201.691C74.6066 178.857 80.9332 166.105 108.658 159.083C136.384 152.062 166.97 146.376 174.163 176.222Z" fill="#DADDF1"/>
<path d="M36.1514 170.851L54.355 181.591" stroke="white" stroke-width="2" stroke-linecap="square"/>
<path d="M105.384 179.751C104.929 183.878 106.111 188.018 108.676 191.283C111.24 194.548 114.984 196.677 119.101 197.212C123.218 197.747 127.38 196.647 130.695 194.146C134.009 191.646 136.211 187.945 136.827 183.839C137.955 175.157 129.12 174.814 120.437 173.641C111.755 172.468 106.512 171.069 105.384 179.751Z" fill="#081638"/>
<path d="M102.712 145.399C105.992 145.399 108.65 142.741 108.65 139.461C108.65 136.181 105.992 133.522 102.712 133.522C99.4322 133.522 96.7734 136.181 96.7734 139.461C96.7734 142.741 99.4322 145.399 102.712 145.399Z" fill="white"/>
<path d="M144.254 133.669C147.534 133.669 150.192 131.01 150.192 127.73C150.192 124.45 147.534 121.791 144.254 121.791C140.974 121.791 138.315 124.45 138.315 127.73C138.315 131.01 140.974 133.669 144.254 133.669Z" fill="white"/>
<path d="M127.389 118.614L140.565 149.633L129.555 154.381" stroke="white" stroke-width="2" stroke-linecap="square"/>
<g filter="url(#filter1_d_1039_322)">
<rect x="258" y="15.5999" width="62" height="32" rx="8" fill="#081638"/>
<path d="M276.565 25.3999H280.309V36.5999H277.797L277.861 28.6799L275.365 36.5999H272.293L269.813 28.4879L269.877 36.5999H267.365V25.3999H271.253L273.861 34.0559L276.565 25.3999ZM286.024 28.0719C287.069 28.0719 287.922 28.3439 288.584 28.8879C289.245 29.4212 289.576 30.2372 289.576 31.3359V36.5999H287.208V35.4959C287.016 35.8692 286.712 36.1892 286.296 36.4559C285.89 36.7119 285.384 36.8399 284.776 36.8399C284.008 36.8399 283.362 36.6265 282.84 36.1999C282.328 35.7732 282.072 35.1919 282.072 34.4559V34.1679C282.072 33.4639 282.333 32.9252 282.856 32.5519C283.378 32.1785 284.072 31.9492 284.936 31.8639L286.328 31.7199C286.914 31.6559 287.208 31.4692 287.208 31.1599V31.0319C287.208 30.7865 287.085 30.5945 286.84 30.4559C286.594 30.3065 286.285 30.2319 285.912 30.2319C285.432 30.2319 285 30.3332 284.616 30.5359C284.242 30.7279 283.97 30.9625 283.8 31.2399L281.96 30.1839C282.28 29.5332 282.792 29.0212 283.496 28.6479C284.21 28.2639 285.053 28.0719 286.024 28.0719ZM285.448 34.9199C285.693 34.9199 285.922 34.8772 286.136 34.7919C286.349 34.7065 286.536 34.5892 286.696 34.4399C286.856 34.2799 286.978 34.0985 287.064 33.8959C287.16 33.6825 287.208 33.4479 287.208 33.1919V33.0639C287.08 33.2025 286.829 33.2985 286.456 33.3519L285.576 33.4799C284.914 33.5972 284.584 33.8212 284.584 34.1519V34.2639C284.584 34.4772 284.664 34.6425 284.824 34.7599C284.984 34.8665 285.192 34.9199 285.448 34.9199ZM296.093 28.0719C296.605 28.0719 297.048 28.1892 297.421 28.4239L296.861 30.8239C296.541 30.6852 296.189 30.6159 295.805 30.6159C295.229 30.6159 294.771 30.7919 294.429 31.1439C294.088 31.4852 293.917 32.0132 293.917 32.7279V36.5999H291.437V28.3119H293.917V29.6719C294.376 28.6052 295.101 28.0719 296.093 28.0719ZM298.401 26.3439C298.401 25.9919 298.539 25.7092 298.817 25.4959C299.105 25.2719 299.451 25.1599 299.857 25.1599C300.262 25.1599 300.603 25.2719 300.881 25.4959C301.158 25.7092 301.297 25.9919 301.297 26.3439V26.4559C301.297 26.8079 301.158 27.0959 300.881 27.3199C300.603 27.5332 300.262 27.6399 299.857 27.6399C299.451 27.6399 299.105 27.5332 298.817 27.3199C298.539 27.0959 298.401 26.8079 298.401 26.4559V26.3439ZM301.105 28.3119V36.5999H298.625V28.3119H301.105ZM302.646 32.1839C302.646 30.9572 303.051 29.9705 303.862 29.2239C304.672 28.4559 305.712 28.0719 306.982 28.0719C308.24 28.0719 309.28 28.4559 310.102 29.2239C310.912 29.9705 311.318 30.9572 311.318 32.1839V32.7279C311.318 33.9439 310.912 34.9359 310.102 35.7039C309.28 36.4612 308.24 36.8399 306.982 36.8399C305.723 36.8399 304.683 36.4612 303.862 35.7039C303.051 34.9359 302.646 33.9439 302.646 32.7279V32.1839ZM308.79 32.2159C308.79 31.6399 308.619 31.1812 308.278 30.8399C307.936 30.4879 307.504 30.3119 306.982 30.3119C306.459 30.3119 306.027 30.4879 305.686 30.8399C305.344 31.1812 305.174 31.6399 305.174 32.2159V32.6959C305.174 33.2719 305.344 33.7359 305.686 34.0879C306.027 34.4292 306.459 34.5999 306.982 34.5999C307.504 34.5999 307.936 34.4292 308.278 34.0879C308.619 33.7359 308.79 33.2719 308.79 32.6959V32.2159Z" fill="white"/>
</g>
</g>
</g>
<defs>
<filter id="filter0_d_1039_322" x="-12" y="0.599854" width="360" height="372" filterUnits="userSpaceOnUse" color-interpolation-filters="sRGB">
<feFlood flood-opacity="0" result="BackgroundImageFix"/>
<feColorMatrix in="SourceAlpha" type="matrix" values="0 0 0 0 0 0 0 0 0 0 0 0 0 0 0 0 0 0 127 0" result="hardAlpha"/>
<feMorphology radius="8" operator="erode" in="SourceAlpha" result="effect1_dropShadow_1039_322"/>
<feOffset dy="16"/>
<feGaussianBlur stdDeviation="10"/>
<feComposite in2="hardAlpha" operator="out"/>
<feColorMatrix type="matrix" values="0 0 0 0 0.0666667 0 0 0 0 0.0470588 0 0 0 0 0.133333 0 0 0 0.1 0"/>
<feBlend mode="normal" in2="BackgroundImageFix" result="effect1_dropShadow_1039_322"/>
<feBlend mode="normal" in="SourceGraphic" in2="effect1_dropShadow_1039_322" result="shape"/>
</filter>
<filter id="filter1_d_1039_322" x="257" y="15.5999" width="64" height="34" filterUnits="userSpaceOnUse" color-interpolation-filters="sRGB">
<feFlood flood-opacity="0" result="BackgroundImageFix"/>
<feColorMatrix in="SourceAlpha" type="matrix" values="0 0 0 0 0 0 0 0 0 0 0 0 0 0 0 0 0 0 127 0" result="hardAlpha"/>
<feMorphology radius="1" operator="erode" in="SourceAlpha" result="effect1_dropShadow_1039_322"/>
<feOffset dy="1"/>
<feGaussianBlur stdDeviation="1"/>
<feComposite in2="hardAlpha" operator="out"/>
<feColorMatrix type="matrix" values="0 0 0 0 0.0666667 0 0 0 0 0.0470588 0 0 0 0 0.133333 0 0 0 0.08 0"/>
<feBlend mode="normal" in2="BackgroundImageFix" result="effect1_dropShadow_1039_322"/>
<feBlend mode="normal" in="SourceGraphic" in2="effect1_dropShadow_1039_322" result="shape"/>
</filter>
<clipPath id="clip0_1039_322">
<rect y="0.599854" width="336" height="344" rx="16" fill="white"/>
</clipPath>
</defs>
</svg>
