<svg width="360" height="372" viewBox="0 0 360 372" fill="none" xmlns="http://www.w3.org/2000/svg">
<g filter="url(#filter0_d_1134_100)">
<g clip-path="url(#clip0_1134_100)">
<rect x="12" width="336" height="344" rx="16" fill="#081638"/>
<rect width="336" height="320" transform="translate(12)" fill="#081638"/>
<path d="M7.9787 379.709L124.399 363.639L140.985 439.09L16.6691 482.222C-25.8761 496.994 -69.2025 462.023 -63.7065 417.316C-58.2105 372.608 -52.3379 328.389 -49.8828 322.628C-44.7355 310.604 -26.6852 259.968 82.3282 255.379C191.342 250.79 244 350.959 244 350.959L18.6638 552.4" fill="#19F0FE"/>
<path d="M67.0955 125.375C59.3955 77.0976 89.2329 32.1978 133.759 25.0892C178.299 17.9807 220.635 51.3557 228.349 99.634C236.052 147.912 206.197 192.811 161.671 199.919C117.145 207.028 74.8094 173.653 67.0955 125.375Z" fill="#1758FE"/>
<path d="M108.622 295.567C115.876 294.692 122.655 291.476 127.928 286.404C133.187 281.332 136.66 274.681 137.804 267.459L155.757 154.373C156.552 149.97 156.454 145.453 155.478 141.089C154.501 136.723 152.66 132.596 150.065 128.951C147.471 125.306 144.179 122.215 140.385 119.859C136.576 117.503 132.336 115.931 127.928 115.234C123.506 114.536 118.986 114.729 114.648 115.799C110.31 116.867 106.223 118.794 102.624 121.463C99.0391 124.133 96.026 127.492 93.7523 131.345C91.4786 135.196 89.986 139.465 89.3862 143.897L71.3916 256.886C70.6942 261.243 70.8755 265.695 71.8938 269.985C72.9261 274.276 74.7813 278.323 77.3759 281.894C79.9704 285.465 83.2346 288.492 87.0009 290.799C90.7532 293.106 94.938 294.652 99.2901 295.344C102.373 295.847 105.512 295.921 108.622 295.567Z" fill="#DADDF1"/>
<path d="M131.931 239.895L138.794 240.942C146.773 242.158 154.933 241.599 162.675 239.307C170.417 237.013 177.573 233.042 183.599 227.676C189.639 222.308 194.41 215.678 197.604 208.254C200.785 200.831 202.291 192.799 202.012 184.726L200.617 144.734C200.185 131.819 195.205 119.472 186.556 109.863C177.922 100.255 166.163 94.0016 153.371 92.2007C146.229 91.1894 138.948 91.5967 131.959 93.399C124.97 95.1998 118.414 98.3607 112.639 102.7C106.878 107.04 102.024 112.473 98.3553 118.69C94.6866 124.906 92.2734 131.785 91.2691 138.931L85.7731 177.877C83.7504 192.21 87.4609 206.762 96.1095 218.374C104.744 229.986 117.619 237.719 131.931 239.895Z" fill="#DADDF1"/>
<path d="M174.476 152.475L188.035 186.219L174.309 188.13" stroke="#1758FE" stroke-width="3"/>
<path d="M158.7 168.057C154.99 168.057 151.977 165.046 151.977 161.333C151.977 157.62 154.99 154.61 158.7 154.61C162.411 154.61 165.424 157.62 165.424 161.333C165.424 165.046 162.411 168.057 158.7 168.057Z" fill="#1758FE"/>
<path d="M190.798 164.234C187.087 164.234 184.074 161.224 184.074 157.511C184.074 153.798 187.087 150.787 190.798 150.787C194.508 150.787 197.521 153.798 197.521 157.511C197.521 161.224 194.508 164.234 190.798 164.234Z" fill="#1758FE"/>
<path d="M133.947 191.522C132.424 194.337 131.471 197.426 131.14 200.61C130.811 203.794 131.111 207.012 132.025 210.08C132.938 213.148 134.449 216.006 136.467 218.49C138.485 220.976 140.974 223.039 143.789 224.562C146.605 226.085 149.693 227.039 152.877 227.368C156.062 227.698 159.279 227.397 162.347 226.483C165.415 225.57 168.273 224.06 170.758 222.041C173.243 220.023 175.306 217.536 176.829 214.72C183.234 202.865 170.77 197.456 158.846 191.051C146.922 184.647 140.352 179.681 133.947 191.522Z" fill="#081638"/>
<path d="M-59.48 238.124C-59.48 238.124 -68.8539 311.608 -7.21216 310.869C94.8266 309.628 111.203 242.601 104.131 203.878C101.341 188.45 91.7857 177.026 81.1703 166.09C136.2 154.024 132.448 118.007 132.448 118.007C132.448 118.007 234.765 166.494 228.823 101.895C222.881 37.2963 162.425 11.7553 120.87 15.3263C24.2852 23.6121 21.4396 85.1423 -4.4781 94C-151.392 144.273 -59.48 238.124 -59.48 238.124Z" fill="#1758FE"/>
<path d="M68.3367 164.342C61.5713 152.46 65.7142 137.342 77.599 130.575C89.4837 123.807 104.605 127.955 111.37 139.837L122.502 159.39C129.267 171.272 125.124 186.391 113.239 193.158C101.355 199.925 86.2336 195.778 79.4682 183.895L68.3367 164.342Z" fill="#DADDF1"/>
<path d="M85.0764 145.375L100.881 173.12" stroke="#1758FE" stroke-width="3"/>
<g filter="url(#filter1_d_1134_100)">
<rect x="252" y="15" width="80" height="32" rx="8" fill="#081638"/>
<path d="M270.471 24.8H274.215V36H271.703L271.767 28.08L269.271 36H266.199L263.719 27.888L263.783 36H261.271V24.8H265.159L267.767 33.456L270.471 24.8ZM279.93 27.472C280.975 27.472 281.828 27.744 282.49 28.288C283.151 28.8213 283.482 29.6373 283.482 30.736V36H281.114V34.896C280.922 35.2693 280.618 35.5893 280.202 35.856C279.796 36.112 279.29 36.24 278.682 36.24C277.914 36.24 277.268 36.0267 276.746 35.6C276.234 35.1733 275.978 34.592 275.978 33.856V33.568C275.978 32.864 276.239 32.3253 276.762 31.952C277.284 31.5787 277.978 31.3493 278.842 31.264L280.234 31.12C280.82 31.056 281.114 30.8693 281.114 30.56V30.432C281.114 30.1867 280.991 29.9947 280.746 29.856C280.5 29.7067 280.191 29.632 279.818 29.632C279.338 29.632 278.906 29.7333 278.522 29.936C278.148 30.128 277.876 30.3627 277.706 30.64L275.866 29.584C276.186 28.9333 276.698 28.4213 277.402 28.048C278.116 27.664 278.959 27.472 279.93 27.472ZM279.354 34.32C279.599 34.32 279.828 34.2773 280.042 34.192C280.255 34.1067 280.442 33.9893 280.602 33.84C280.762 33.68 280.884 33.4987 280.97 33.296C281.066 33.0827 281.114 32.848 281.114 32.592V32.464C280.986 32.6027 280.735 32.6987 280.362 32.752L279.482 32.88C278.82 32.9973 278.49 33.2213 278.49 33.552V33.664C278.49 33.8773 278.57 34.0427 278.73 34.16C278.89 34.2667 279.098 34.32 279.354 34.32ZM290 27.472C290.512 27.472 290.954 27.5893 291.328 27.824L290.768 30.224C290.448 30.0853 290.096 30.016 289.712 30.016C289.136 30.016 288.677 30.192 288.336 30.544C287.994 30.8853 287.824 31.4133 287.824 32.128V36H285.344V27.712H287.824V29.072C288.282 28.0053 289.008 27.472 290 27.472ZM292.307 25.744C292.307 25.392 292.446 25.1093 292.723 24.896C293.011 24.672 293.358 24.56 293.763 24.56C294.168 24.56 294.51 24.672 294.787 24.896C295.064 25.1093 295.203 25.392 295.203 25.744V25.856C295.203 26.208 295.064 26.496 294.787 26.72C294.51 26.9333 294.168 27.04 293.763 27.04C293.358 27.04 293.011 26.9333 292.723 26.72C292.446 26.496 292.307 26.208 292.307 25.856V25.744ZM295.011 27.712V36H292.531V27.712H295.011ZM300.68 27.472C301.725 27.472 302.578 27.744 303.24 28.288C303.901 28.8213 304.232 29.6373 304.232 30.736V36H301.864V34.896C301.672 35.2693 301.368 35.5893 300.952 35.856C300.546 36.112 300.04 36.24 299.432 36.24C298.664 36.24 298.018 36.0267 297.496 35.6C296.984 35.1733 296.728 34.592 296.728 33.856V33.568C296.728 32.864 296.989 32.3253 297.512 31.952C298.034 31.5787 298.728 31.3493 299.592 31.264L300.984 31.12C301.57 31.056 301.864 30.8693 301.864 30.56V30.432C301.864 30.1867 301.741 29.9947 301.496 29.856C301.25 29.7067 300.941 29.632 300.568 29.632C300.088 29.632 299.656 29.7333 299.272 29.936C298.898 30.128 298.626 30.3627 298.456 30.64L296.616 29.584C296.936 28.9333 297.448 28.4213 298.152 28.048C298.866 27.664 299.709 27.472 300.68 27.472ZM300.104 34.32C300.349 34.32 300.578 34.2773 300.792 34.192C301.005 34.1067 301.192 33.9893 301.352 33.84C301.512 33.68 301.634 33.4987 301.72 33.296C301.816 33.0827 301.864 32.848 301.864 32.592V32.464C301.736 32.6027 301.485 32.6987 301.112 32.752L300.232 32.88C299.57 32.9973 299.24 33.2213 299.24 33.552V33.664C299.24 33.8773 299.32 34.0427 299.48 34.16C299.64 34.2667 299.848 34.32 300.104 34.32ZM310.062 29.84C309.635 29.84 309.278 30.0107 308.99 30.352C308.712 30.6933 308.574 31.1413 308.574 31.696V36H306.094V27.712H308.574V28.832C308.808 28.4373 309.134 28.112 309.55 27.856C309.966 27.6 310.451 27.472 311.006 27.472C311.88 27.472 312.574 27.7867 313.086 28.416C313.608 29.0347 313.87 29.904 313.87 31.024V36H311.39V31.584C311.39 30.4213 310.947 29.84 310.062 29.84ZM319.477 27.472C320.522 27.472 321.375 27.744 322.037 28.288C322.698 28.8213 323.029 29.6373 323.029 30.736V36H320.661V34.896C320.469 35.2693 320.165 35.5893 319.749 35.856C319.343 36.112 318.837 36.24 318.229 36.24C317.461 36.24 316.815 36.0267 316.293 35.6C315.781 35.1733 315.525 34.592 315.525 33.856V33.568C315.525 32.864 315.786 32.3253 316.309 31.952C316.831 31.5787 317.525 31.3493 318.389 31.264L319.781 31.12C320.367 31.056 320.661 30.8693 320.661 30.56V30.432C320.661 30.1867 320.538 29.9947 320.293 29.856C320.047 29.7067 319.738 29.632 319.365 29.632C318.885 29.632 318.453 29.7333 318.069 29.936C317.695 30.128 317.423 30.3627 317.253 30.64L315.413 29.584C315.733 28.9333 316.245 28.4213 316.949 28.048C317.663 27.664 318.506 27.472 319.477 27.472ZM318.901 34.32C319.146 34.32 319.375 34.2773 319.589 34.192C319.802 34.1067 319.989 33.9893 320.149 33.84C320.309 33.68 320.431 33.4987 320.517 33.296C320.613 33.0827 320.661 32.848 320.661 32.592V32.464C320.533 32.6027 320.282 32.6987 319.909 32.752L319.029 32.88C318.367 32.9973 318.037 33.2213 318.037 33.552V33.664C318.037 33.8773 318.117 34.0427 318.277 34.16C318.437 34.2667 318.645 34.32 318.901 34.32Z" fill="white"/>
</g>
</g>
</g>
<defs>
<filter id="filter0_d_1134_100" x="0" y="0" width="360" height="372" filterUnits="userSpaceOnUse" color-interpolation-filters="sRGB">
<feFlood flood-opacity="0" result="BackgroundImageFix"/>
<feColorMatrix in="SourceAlpha" type="matrix" values="0 0 0 0 0 0 0 0 0 0 0 0 0 0 0 0 0 0 127 0" result="hardAlpha"/>
<feMorphology radius="8" operator="erode" in="SourceAlpha" result="effect1_dropShadow_1134_100"/>
<feOffset dy="16"/>
<feGaussianBlur stdDeviation="10"/>
<feComposite in2="hardAlpha" operator="out"/>
<feColorMatrix type="matrix" values="0 0 0 0 0.0666667 0 0 0 0 0.0470588 0 0 0 0 0.133333 0 0 0 0.1 0"/>
<feBlend mode="normal" in2="BackgroundImageFix" result="effect1_dropShadow_1134_100"/>
<feBlend mode="normal" in="SourceGraphic" in2="effect1_dropShadow_1134_100" result="shape"/>
</filter>
<filter id="filter1_d_1134_100" x="251" y="15" width="82" height="34" filterUnits="userSpaceOnUse" color-interpolation-filters="sRGB">
<feFlood flood-opacity="0" result="BackgroundImageFix"/>
<feColorMatrix in="SourceAlpha" type="matrix" values="0 0 0 0 0 0 0 0 0 0 0 0 0 0 0 0 0 0 127 0" result="hardAlpha"/>
<feMorphology radius="1" operator="erode" in="SourceAlpha" result="effect1_dropShadow_1134_100"/>
<feOffset dy="1"/>
<feGaussianBlur stdDeviation="1"/>
<feComposite in2="hardAlpha" operator="out"/>
<feColorMatrix type="matrix" values="0 0 0 0 0.0666667 0 0 0 0 0.0470588 0 0 0 0 0.133333 0 0 0 0.08 0"/>
<feBlend mode="normal" in2="BackgroundImageFix" result="effect1_dropShadow_1134_100"/>
<feBlend mode="normal" in="SourceGraphic" in2="effect1_dropShadow_1134_100" result="shape"/>
</filter>
<clipPath id="clip0_1134_100">
<rect x="12" width="336" height="344" rx="16" fill="white"/>
</clipPath>
</defs>
</svg>
