<svg width="360" height="372" viewBox="0 0 360 372" fill="none" xmlns="http://www.w3.org/2000/svg">
<g filter="url(#filter0_d_1134_119)">
<g clip-path="url(#clip0_1134_119)">
<rect x="12" width="336" height="344" rx="16" fill="#081638"/>
<rect width="336" height="320" transform="translate(12)" fill="#081638"/>
<path d="M128.817 207.882L137.769 208.882C148.177 210.056 158.719 208.921 168.64 205.558C178.56 202.195 187.619 196.687 195.169 189.425C202.719 182.163 208.576 173.327 212.322 163.543C216.069 153.761 217.614 143.273 216.846 132.825L213.048 81.0696C211.819 64.3545 204.742 48.6056 193.057 36.5896C181.372 24.5736 165.827 17.0579 149.153 15.3642C130.342 13.4561 111.544 19.0982 96.8926 31.0498C82.2422 43.0014 72.9394 60.2829 71.0303 79.0927L65.8769 129.838C63.9799 148.513 69.5253 167.182 81.3092 181.794C93.0931 196.405 110.164 205.779 128.817 207.882Z" fill="#1758FE"/>
<path d="M272 370.528L262.849 377.847C253.373 385.076 243.421 391.659 233.061 397.549C202.378 414.94 168.515 425.994 133.48 430.058C98.4462 434.121 62.9523 431.11 29.1034 421.203C-4.74669 411.296 -36.2622 394.696 -63.5784 372.385C-90.8934 350.074 -113.453 322.507 -129.918 291.317C-88.0913 260.574 -18.0655 223.845 71.5076 231.342C221.333 243.948 272 370.528 272 370.528Z" fill="#B5D6F4"/>
<path d="M93.4879 293.79C91.8019 293.795 90.1182 293.695 88.4456 293.49C77.3314 292.167 67.199 286.483 60.2764 277.689C53.3527 268.896 50.2062 257.713 51.5279 246.599L71.5194 78.4373C72.8444 67.322 78.5309 57.1885 87.3283 50.2659C91.6842 46.8385 96.6721 44.3029 102.008 42.8024C107.344 41.3031 112.923 40.8688 118.427 41.5252C123.93 42.1816 129.252 43.9153 134.085 46.6286C138.919 49.3408 143.17 52.9792 146.598 57.334C150.025 61.69 152.562 66.6789 154.061 72.0145C155.561 77.35 155.996 82.9298 155.339 88.433L135.348 256.595C134.123 266.841 129.188 276.281 121.475 283.135C113.761 289.989 103.806 293.779 93.4879 293.79Z" fill="#1758FE"/>
<path d="M213.517 165.171C219.683 190.795 215.539 228.376 184.507 236.23C153.476 244.084 114.955 219.269 108.486 193.696C102.016 168.123 109.102 153.84 140.154 145.976C171.205 138.112 205.461 131.744 213.517 165.171Z" fill="#DADDF1"/>
<path d="M150.365 172.538C150.67 176.11 151.678 179.587 153.327 182.771C154.977 185.954 157.237 188.781 159.979 191.091C162.721 193.401 165.892 195.147 169.309 196.232C172.727 197.317 176.325 197.717 179.896 197.412C183.469 197.105 186.946 196.1 190.129 194.45C193.312 192.8 196.139 190.54 198.449 187.797C200.759 185.056 202.505 181.884 203.59 178.467C204.675 175.049 205.076 171.453 204.77 167.88C203.474 152.845 188.482 155.447 173.382 156.785C158.282 158.124 149.078 157.516 150.365 172.538Z" fill="#081638"/>
<path d="M87.3502 152.872L87.3591 152.865C99.6894 145.28 103.536 129.136 95.9499 116.806L88.1576 104.14C80.572 91.8108 64.4277 87.9647 52.0985 95.5492L52.0885 95.5548C39.7593 103.14 35.9131 119.285 43.4988 131.614L51.2911 144.281C58.8767 156.61 75.0199 160.456 87.3502 152.872Z" fill="#1758FE"/>
<path d="M55.0479 116.034L76.0612 138.247" stroke="white" stroke-width="2" stroke-linecap="square"/>
<path d="M179.996 87.6437L181.473 129.237L166.68 129.837" stroke="white" stroke-width="2" stroke-linecap="square"/>
<path d="M151.505 110.114C155.559 110.114 158.847 106.827 158.847 102.772C158.847 98.7174 155.559 95.431 151.505 95.431C147.45 95.431 144.164 98.7174 144.164 102.772C144.164 106.827 147.45 110.114 151.505 110.114Z" fill="white"/>
<path d="M195.299 110.114C199.354 110.114 202.641 106.827 202.641 102.772C202.641 98.7174 199.354 95.431 195.299 95.431C191.244 95.431 187.958 98.7174 187.958 102.772C187.958 106.827 191.244 110.114 195.299 110.114Z" fill="white"/>
<g filter="url(#filter1_d_1134_119)">
<rect x="280" y="15" width="52" height="32" rx="8" fill="#081638"/>
<path d="M296.746 24.8H299.306V36H296.09L291.978 28.272L292.026 36H289.466V24.8H292.794L296.778 32.32L296.746 24.8ZM301.284 25.744C301.284 25.392 301.422 25.1093 301.7 24.896C301.988 24.672 302.334 24.56 302.74 24.56C303.145 24.56 303.486 24.672 303.764 24.896C304.041 25.1093 304.18 25.392 304.18 25.744V25.856C304.18 26.208 304.041 26.496 303.764 26.72C303.486 26.9333 303.145 27.04 302.74 27.04C302.334 27.04 301.988 26.9333 301.7 26.72C301.422 26.496 301.284 26.208 301.284 25.856V25.744ZM303.988 27.712V36H301.508V27.712H303.988ZM309.896 36.24C308.616 36.24 307.566 35.8453 306.744 35.056C305.934 34.2773 305.528 33.3013 305.528 32.128V31.584C305.528 30.4107 305.934 29.4347 306.744 28.656C307.566 27.8667 308.616 27.472 309.896 27.472C310.707 27.472 311.448 27.664 312.12 28.048C312.792 28.4213 313.326 28.976 313.72 29.712L311.768 30.816C311.299 30.08 310.67 29.712 309.88 29.712C309.368 29.712 308.936 29.8773 308.584 30.208C308.232 30.528 308.056 30.992 308.056 31.6V32.112C308.056 32.72 308.227 33.1893 308.568 33.52C308.91 33.84 309.336 34 309.848 34C310.275 34 310.638 33.92 310.936 33.76C311.235 33.5893 311.512 33.3013 311.768 32.896L313.72 34C313.326 34.736 312.792 35.296 312.12 35.68C311.448 36.0533 310.707 36.24 309.896 36.24ZM314.544 31.584C314.544 30.3573 314.949 29.3707 315.76 28.624C316.571 27.856 317.611 27.472 318.88 27.472C320.139 27.472 321.179 27.856 322 28.624C322.811 29.3707 323.216 30.3573 323.216 31.584V32.128C323.216 33.344 322.811 34.336 322 35.104C321.179 35.8613 320.139 36.24 318.88 36.24C317.621 36.24 316.581 35.8613 315.76 35.104C314.949 34.336 314.544 33.344 314.544 32.128V31.584ZM320.688 31.616C320.688 31.04 320.517 30.5813 320.176 30.24C319.835 29.888 319.403 29.712 318.88 29.712C318.357 29.712 317.925 29.888 317.584 30.24C317.243 30.5813 317.072 31.04 317.072 31.616V32.096C317.072 32.672 317.243 33.136 317.584 33.488C317.925 33.8293 318.357 34 318.88 34C319.403 34 319.835 33.8293 320.176 33.488C320.517 33.136 320.688 32.672 320.688 32.096V31.616Z" fill="white"/>
</g>
</g>
</g>
<defs>
<filter id="filter0_d_1134_119" x="0" y="0" width="360" height="372" filterUnits="userSpaceOnUse" color-interpolation-filters="sRGB">
<feFlood flood-opacity="0" result="BackgroundImageFix"/>
<feColorMatrix in="SourceAlpha" type="matrix" values="0 0 0 0 0 0 0 0 0 0 0 0 0 0 0 0 0 0 127 0" result="hardAlpha"/>
<feMorphology radius="8" operator="erode" in="SourceAlpha" result="effect1_dropShadow_1134_119"/>
<feOffset dy="16"/>
<feGaussianBlur stdDeviation="10"/>
<feComposite in2="hardAlpha" operator="out"/>
<feColorMatrix type="matrix" values="0 0 0 0 0.0666667 0 0 0 0 0.0470588 0 0 0 0 0.133333 0 0 0 0.1 0"/>
<feBlend mode="normal" in2="BackgroundImageFix" result="effect1_dropShadow_1134_119"/>
<feBlend mode="normal" in="SourceGraphic" in2="effect1_dropShadow_1134_119" result="shape"/>
</filter>
<filter id="filter1_d_1134_119" x="279" y="15" width="54" height="34" filterUnits="userSpaceOnUse" color-interpolation-filters="sRGB">
<feFlood flood-opacity="0" result="BackgroundImageFix"/>
<feColorMatrix in="SourceAlpha" type="matrix" values="0 0 0 0 0 0 0 0 0 0 0 0 0 0 0 0 0 0 127 0" result="hardAlpha"/>
<feMorphology radius="1" operator="erode" in="SourceAlpha" result="effect1_dropShadow_1134_119"/>
<feOffset dy="1"/>
<feGaussianBlur stdDeviation="1"/>
<feComposite in2="hardAlpha" operator="out"/>
<feColorMatrix type="matrix" values="0 0 0 0 0.0666667 0 0 0 0 0.0470588 0 0 0 0 0.133333 0 0 0 0.08 0"/>
<feBlend mode="normal" in2="BackgroundImageFix" result="effect1_dropShadow_1134_119"/>
<feBlend mode="normal" in="SourceGraphic" in2="effect1_dropShadow_1134_119" result="shape"/>
</filter>
<clipPath id="clip0_1134_119">
<rect x="12" width="336" height="344" rx="16" fill="white"/>
</clipPath>
</defs>
</svg>
