<svg width="189" height="50" viewBox="0 0 189 50" fill="none" xmlns="http://www.w3.org/2000/svg">
<rect y="8.55005" width="32.9" height="32.9" rx="5.84889" fill="#081638"/>
<path d="M27.1888 27.0908L26.4788 24.4411L20.502 26.0426L19.8243 23.5134C18.8562 19.9003 15.8873 17.985 12.3419 18.935L11.5219 19.1547C7.97648 20.1047 6.36295 23.2478 7.33109 26.861L8.71875 32.0398L27.1888 27.0908Z" fill="white"/>
<path d="M49.471 35.5V32.1039H56.5349C58.4027 32.1039 59.3536 31.5945 59.3536 30.5417V30.338C59.3536 29.6588 58.6744 29.0814 57.282 28.7758L53.9878 28.0286C50.6936 27.2815 49.0635 25.6514 49.0635 23.1383V22.6968C49.0635 19.5045 51.8822 17.9083 55.0746 17.9083H62.1384V21.3044H55.3123C53.6482 21.3044 52.7992 21.7459 52.7992 22.6628V22.8666C52.7992 23.8175 53.4784 24.259 55.0066 24.5986L58.7084 25.4476C61.6969 26.1268 63.0893 27.8249 63.0893 29.9644V30.4059C63.0893 33.5303 60.6781 35.5 56.3651 35.5H49.471ZM65.2344 27.2815V26.1268C65.2344 23.6477 66.0495 21.5761 67.7135 19.946C69.3776 18.3159 71.4152 17.5008 73.8944 17.5008C76.3396 17.5008 78.4112 18.3159 80.0752 19.946C81.7393 21.5761 82.5544 23.6477 82.5544 26.1268V27.2815C82.5544 29.7606 81.7393 31.8322 80.0752 33.4624C78.4112 35.0925 76.3396 35.9075 73.8944 35.9075C71.4152 35.9075 69.3776 35.0925 67.7135 33.4624C66.0495 31.8322 65.2344 29.7606 65.2344 27.2815ZM78.7508 27.2136V26.1948C78.7508 22.9345 76.9169 20.8969 73.8944 20.8969C70.8719 20.8969 69.038 22.9345 69.038 26.1948V27.2136C69.038 30.4738 70.8719 32.5115 73.8944 32.5115C76.9169 32.5115 78.7508 30.4738 78.7508 27.2136ZM93.7773 35.5C88.6832 35.5 85.1173 32.2737 85.1173 27.2815V26.1268C85.1173 21.1346 88.6832 17.9083 93.7773 17.9083H98.0904V21.3044H93.8113C90.8228 21.3044 88.921 22.7987 88.921 26.1948V27.2136C88.921 30.6097 90.8228 32.1039 93.8113 32.1039H98.0904V35.5H93.7773ZM101.277 35.5V17.9083H105.013V35.5H101.277ZM103.145 15.4971C101.753 15.4971 100.734 14.6141 100.734 13.3576V12.7803C100.734 11.5237 101.753 10.6407 103.145 10.6407C104.504 10.6407 105.522 11.5237 105.522 12.7803V13.3576C105.522 14.6141 104.504 15.4971 103.145 15.4971ZM116.928 35.5C111.834 35.5 108.268 32.2737 108.268 27.2815V26.1268C108.268 21.1346 111.834 17.9083 116.928 17.9083H124.229V35.5H116.928ZM116.962 32.1039H120.494V21.3044H116.962C113.973 21.3044 112.071 22.7987 112.071 26.1948V27.2136C112.071 30.6097 113.973 32.1039 116.962 32.1039ZM128.374 35.5V11.7275H132.11V35.5H128.374ZM144.025 35.5C138.931 35.5 135.365 32.2737 135.365 27.2815V26.1268C135.365 21.1346 138.931 17.9083 144.025 17.9083H148.338V21.3044H144.059C141.07 21.3044 139.168 22.7987 139.168 26.1948V27.2136C139.168 30.6097 141.07 32.1039 144.059 32.1039H148.338V35.5H144.025ZM159.132 35.5C154.038 35.5 150.472 32.2737 150.472 27.2815V26.1268C150.472 21.1346 154.038 17.9083 159.132 17.9083H166.433V35.5H159.132ZM159.166 32.1039H162.698V21.3044H159.166C156.177 21.3044 154.275 22.7987 154.275 26.1948V27.2136C154.275 30.6097 156.177 32.1039 159.166 32.1039ZM170.578 40.1187V17.9083H177.88C182.974 17.9083 186.54 21.1346 186.54 26.1268V27.2815C186.54 32.2737 182.974 35.5 177.88 35.5H174.314V40.1187H170.578ZM177.846 32.1039C180.835 32.1039 182.736 30.6097 182.736 27.2136V26.1948C182.736 22.7987 180.835 21.3044 177.846 21.3044H174.314V32.1039H177.846Z" fill="#081638"/>
</svg>
