<svg width="638" height="446" viewBox="0 0 638 446" fill="none" xmlns="http://www.w3.org/2000/svg">
<mask id="mask0_1083_1630" style="mask-type:alpha" maskUnits="userSpaceOnUse" x="0" y="0" width="638" height="446">
<rect width="638" height="446" fill="#D9D9D9"/>
</mask>
<g mask="url(#mask0_1083_1630)">
<path d="M271.303 365.497H446.707L532.881 322.705L352.702 316.398L271.303 365.497Z" fill="#B5D6F4"/>
<path d="M372.419 218.144H540.072V267.243H372.419V218.144Z" fill="#F6F8FF"/>
<path d="M372.419 157.274H540.072V206.373H372.419V157.274Z" fill="#F6F8FF"/>
<path d="M511.51 289.325V257.592C511.509 256.135 511.116 254.704 510.371 253.451C509.626 252.198 508.557 251.169 507.276 250.472C505.996 249.775 504.551 249.436 503.094 249.491C501.638 249.545 500.222 249.992 498.998 250.783L457.291 277.763C455.886 278.669 454.795 279.988 454.17 281.538C453.544 283.09 453.413 284.796 453.794 286.424C454.177 288.052 455.053 289.522 456.303 290.633C457.554 291.743 459.117 292.439 460.779 292.626L502.485 297.379C503.62 297.508 504.769 297.395 505.857 297.049C506.945 296.703 507.947 296.131 508.8 295.371C509.651 294.611 510.333 293.679 510.8 292.637C511.267 291.595 511.509 290.467 511.51 289.325Z" fill="#FE6A17"/>
<path d="M355.579 261.03L348.28 280.574C347.82 281.8 347.667 283.12 347.838 284.419C348.008 285.718 348.495 286.954 349.256 288.02C350.017 289.086 351.028 289.948 352.201 290.53C353.374 291.113 354.673 291.398 355.981 291.36L382.185 290.641C383.751 290.604 385.272 290.106 386.558 289.21C387.844 288.314 388.838 287.059 389.415 285.603C389.992 284.146 390.128 282.551 389.805 281.017C389.483 279.484 388.715 278.079 387.599 276.979L368.695 258.16C367.748 257.219 366.58 256.53 365.298 256.156C364.016 255.782 362.66 255.736 361.355 256.022C360.051 256.307 358.838 256.915 357.829 257.79C356.82 258.665 356.046 259.778 355.579 261.03Z" fill="#FE6A17"/>
<path d="M488.147 296.768C488.147 287.042 484.284 277.714 477.406 270.836C470.529 263.958 461.201 260.095 451.475 260.095C441.748 260.095 432.42 263.958 425.543 270.836C418.665 277.714 414.802 287.042 414.802 296.768" fill="#19F0FE"/>
<path d="M365.229 284.443H532.881V322.698H365.229V284.443Z" fill="#B5D6F4"/>
<path d="M302.698 279.021H470.351V328.119H302.698V279.021Z" fill="#F6F8FF"/>
<path d="M456.241 252.206C450.988 252.206 446.728 247.947 446.728 242.693C446.728 237.439 450.988 233.18 456.241 233.18C461.496 233.18 465.755 237.439 465.755 242.693C465.755 247.947 461.496 252.206 456.241 252.206Z" fill="#B5D6F4"/>
<path d="M456.241 191.337C450.988 191.337 446.728 187.078 446.728 181.823C446.728 176.569 450.988 172.31 456.241 172.31C461.496 172.31 465.755 176.569 465.755 181.823C465.755 187.078 461.496 191.337 456.241 191.337Z" fill="#B5D6F4"/>
<path d="M345.871 334.785L185.244 795.311" stroke="#081638" stroke-width="7"/>
<path d="M228.806 334.785L68.1783 795.311" stroke="#081638" stroke-width="7"/>
<path d="M336.703 361.902H218.027" stroke="#081638" stroke-width="7"/>
<path d="M289.618 334.757C289.618 334.757 313.153 344.781 318.381 354.474C323.608 364.167 322.695 374.018 316.116 380.181C312.93 383.158 280.737 382.892 280.737 382.892L272.892 349.491L289.618 334.757Z" fill="#19F0FE"/>
<path d="M335.833 361.902H304.69" stroke="#081638" stroke-width="7"/>
<path d="M315 376.107C315 376.107 304.126 350.994 298.861 352.168C293.596 353.342 301.961 377.552 301.961 377.552C301.961 377.552 291.676 350.144 286.639 352.1C282.73 353.631 288.98 377.612 288.98 377.612C288.98 377.612 281.458 356.684 277.053 357.611C272.648 358.537 283.488 382 283.488 382" fill="#F6F8FF"/>
<path d="M258.23 342.12L295.571 378.074C301.67 383.947 305.497 391.787 306.375 400.207C307.254 408.628 305.129 417.089 300.375 424.095L223.901 548.495L172.846 521.091L231.501 417.278L182.374 386.58L150.807 645.959L105.066 654.753L103.161 358.098C103.017 341.189 106.188 324.417 112.509 308.733L121.296 286.895L210.015 284.694L258.23 342.12Z" fill="#081638"/>
<path d="M366.055 178.847C366.386 178.847 378.999 182.32 379.143 176.725C379.286 171.131 364.653 167.981 357.132 167.564C349.61 167.147 341.089 168.204 338.249 163.063C333.798 155.009 340.535 149.235 341.528 142.929C342.52 136.622 340.981 132.969 336.997 133.192C333.014 133.415 332.791 146.934 324.442 152.334C315.662 158.015 309.342 168.923 309.342 168.923L286.547 183.794C286.547 183.794 302.92 206.984 303.589 207.092C304.258 207.2 322.616 191.934 322.616 191.934C322.616 191.934 324.054 196.694 347.503 202.777" fill="#19F0FE"/>
<path d="M203.357 218.266L194.397 278.352C193.484 284.441 194.239 290.662 196.576 296.358C198.913 302.054 202.738 307.013 207.664 310.711L273.28 360.01L298.663 335.231L249.047 276.734C249.047 276.734 273.265 197.003 231.142 175.014C192.995 155.095 175.269 170.426 164.692 186.181C156.437 198.463 148.505 226.823 142.17 240.982C135.835 255.14 121.216 286.945 121.216 286.945L205.679 293.417" fill="#FEA217"/>
<mask id="mask1_1083_1630" style="mask-type:luminance" maskUnits="userSpaceOnUse" x="121" y="165" width="178" height="196">
<path fill-rule="evenodd" clip-rule="evenodd" d="M203.357 218.266L194.397 278.352C193.484 284.441 194.239 290.662 196.576 296.358C198.913 302.054 202.738 307.013 207.664 310.711L273.28 360.01L298.663 335.231L249.047 276.734C249.047 276.734 273.265 197.003 231.142 175.014C192.995 155.095 175.269 170.426 164.692 186.181C156.437 198.463 148.505 226.823 142.17 240.982C135.835 255.14 121.216 286.945 121.216 286.945L205.679 293.417" fill="white"/>
</mask>
<g mask="url(#mask1_1083_1630)">
<path d="M131.392 280.107C119.476 280.107 109.819 270.449 109.819 258.534C109.819 246.62 119.476 236.962 131.392 236.962C143.307 236.962 152.964 246.62 152.964 258.534C152.964 270.449 143.307 280.107 131.392 280.107Z" fill="#FE6A17"/>
<path d="M262.206 238.321C250.292 238.321 240.634 228.663 240.634 216.749C240.634 204.834 250.292 195.176 262.206 195.176C274.12 195.176 283.778 204.834 283.778 216.749C283.778 228.663 274.12 238.321 262.206 238.321Z" fill="#FE6A17"/>
<path d="M189.436 185.807C177.52 185.807 167.863 176.149 167.863 164.235C167.863 152.32 177.52 142.662 189.436 142.662C201.351 142.662 211.008 152.32 211.008 164.235C211.008 176.149 201.351 185.807 189.436 185.807Z" fill="#FE6A17"/>
<path d="M203.393 317.103C191.477 317.103 181.82 307.444 181.82 295.531C181.82 283.616 191.477 273.958 203.393 273.958C215.308 273.958 224.965 283.616 224.965 295.531C224.965 307.444 215.308 317.103 203.393 317.103Z" fill="#FE6A17"/>
<path d="M274.711 327.889C262.797 327.889 253.139 318.231 253.139 306.317C253.139 294.403 262.797 284.745 274.711 284.745C286.625 284.745 296.283 294.403 296.283 306.317C296.283 318.231 286.625 327.889 274.711 327.889Z" fill="#FE6A17"/>
<path d="M194.764 247.079C182.849 247.079 173.191 237.422 173.191 225.507C173.191 213.593 182.849 203.935 194.764 203.935C206.679 203.935 216.336 213.593 216.336 225.507C216.336 237.422 206.679 247.079 194.764 247.079Z" fill="#FE6A17"/>
</g>
<path d="M293.385 164.976L317.575 205.905L236.305 270.22L226.425 205.021L293.385 164.976Z" fill="#FEA217"/>
<mask id="mask2_1083_1630" style="mask-type:luminance" maskUnits="userSpaceOnUse" x="226" y="164" width="92" height="107">
<path fill-rule="evenodd" clip-rule="evenodd" d="M293.385 164.976L317.575 205.905L236.305 270.22L226.425 205.021L293.385 164.976Z" fill="white"/>
</mask>
<g mask="url(#mask2_1083_1630)">
<path d="M262.206 238.321C250.292 238.321 240.634 228.663 240.634 216.749C240.634 204.835 250.292 195.177 262.206 195.177C274.12 195.177 283.778 204.835 283.778 216.749C283.778 228.663 274.12 238.321 262.206 238.321Z" fill="#FE6A17"/>
<path d="M300.144 185.735C288.231 185.735 278.572 176.077 278.572 164.163C278.572 152.249 288.231 142.591 300.144 142.591C312.059 142.591 321.717 152.249 321.717 164.163C321.717 176.077 312.059 185.735 300.144 185.735Z" fill="#FE6A17"/>
</g>
<path fill-rule="evenodd" clip-rule="evenodd" d="M217.774 115.374L201.998 171.052L217.774 115.374Z" fill="#081638"/>
<path d="M217.774 115.374L201.998 171.052" stroke="#081638" stroke-width="40" stroke-linecap="round" stroke-linejoin="round"/>
<path d="M215.301 158.194L218.263 159.021C221.715 159.976 225.332 160.157 228.863 159.555C232.393 158.952 235.742 157.578 238.68 155.532C241.618 153.487 244.068 150.818 245.858 147.717C247.647 144.617 248.731 141.16 249.033 137.593L250.528 119.918C251.012 114.211 249.469 108.518 246.171 103.836C242.872 99.1546 238.03 95.7843 232.494 94.3188C229.402 93.499 226.173 93.297 223.002 93.7234C219.831 94.1505 216.775 95.1975 214.014 96.8054C211.245 98.4132 208.822 100.55 206.88 103.095C204.939 105.639 203.522 108.541 202.703 111.634L198.244 128.482C196.605 134.683 197.475 141.281 200.668 146.844C203.86 152.407 209.117 156.486 215.301 158.194Z" fill="#081638"/>
<path d="M88.6356 125.117C85.371 163.703 122.885 166.974 122.885 166.974C122.885 166.974 102.125 209.321 148.585 205.804C195.045 202.288 207.722 169.132 205.924 150.17C205.205 142.619 201.293 136.766 196.871 131.121C222.334 127.188 221.945 109.65 221.945 109.65C221.945 109.65 262.767 125.577 262.436 94.1606C262.106 62.7441 229.905 52.6771 210.879 53.0078C206.866 53.092 202.897 53.783 199.093 55.0572C186.869 59.0625 177.355 66.3036 161.097 66.5624C116.183 67.2815 111.869 92.6146 111.869 92.6146C111.869 92.6146 90.8503 99.0072 88.6356 125.117Z" fill="#FE6A17"/>
<path d="M251.111 120.22L256.856 139.585L249.263 139.513" fill="#1758FE"/>
<path d="M243.589 127.339C241.623 127.339 240.03 125.745 240.03 123.779C240.03 121.813 241.623 120.22 243.589 120.22C245.555 120.22 247.148 121.813 247.148 123.779C247.148 125.745 245.555 127.339 243.589 127.339Z" fill="white"/>
<path d="M239.419 142.583C239.419 142.583 235.888 142.13 236.269 138.506L239.419 142.583Z" fill="#1758FE"/>
<path d="M239.419 142.583C239.419 142.583 235.888 142.13 236.269 138.506" stroke="white" stroke-width="3" stroke-linecap="square"/>
<path d="M198.755 107.246L198.906 107.184C204.45 104.847 210.835 107.446 213.172 112.99L217.113 122.326C219.45 127.87 216.847 134.259 211.303 136.597L211.159 136.658C205.615 138.996 199.222 136.396 196.885 130.852L192.952 121.516C190.615 115.972 193.218 109.583 198.755 107.246Z" fill="#081638"/>
<path d="M199.921 111.986L206.241 126.958" stroke="white" stroke-width="3" stroke-linecap="square"/>
<path d="M386.528 313.084C381.273 313.084 377.014 308.825 377.014 303.57C377.014 298.316 381.273 294.057 386.528 294.057C391.782 294.057 396.041 298.316 396.041 303.57C396.041 308.825 391.782 313.084 386.528 313.084Z" fill="#B5D6F4"/>
<path d="M362.143 224.652C349.232 224.652 338.766 214.185 338.766 201.274C338.766 188.363 349.232 177.897 362.143 177.897C375.054 177.897 385.521 188.363 385.521 201.274C385.521 214.185 375.054 224.652 362.143 224.652Z" fill="#FE6A17"/>
</g>
</svg>
