<svg width="559" height="389" viewBox="0 0 559 389" fill="none" xmlns="http://www.w3.org/2000/svg">
<path d="M503.39 128.472C513.086 128.472 520.942 120.614 520.942 110.92C520.942 101.227 513.086 93.3687 503.39 93.3687C493.699 93.3687 485.839 101.227 485.839 110.92C485.839 120.614 493.699 128.472 503.39 128.472Z" fill="#F6F8FF"/>
<path d="M169.304 252.012C178.998 252.012 186.856 244.154 186.856 234.46C186.856 224.767 178.998 216.909 169.304 216.909C159.611 216.909 151.753 224.767 151.753 234.46C151.753 244.154 159.611 252.012 169.304 252.012Z" fill="#F6F8FF"/>
<path d="M399.326 0H313.294V121.928H399.326V0Z" fill="#081638"/>
<path d="M313.239 62.7931L297.05 63.4808C297.05 63.4808 303.8 30.1498 313.239 26.5298L313.319 44.9968C316.567 42.284 320.036 39.8326 321.272 40.5077C323.58 41.7481 313.239 62.7931 313.239 62.7931Z" fill="#F9D0B5"/>
<path d="M313.231 26.5088C313.231 26.5088 304.928 27.4032 297.042 63.0252" stroke="white" stroke-width="1.26573" stroke-linecap="square"/>
<path d="M379.674 357.874L379.15 388.5L451.023 369.949L414.161 360.249L379.674 357.874Z" fill="#081638"/>
<path d="M433.202 154.449L457.137 156.213L444.024 90.0781L429.021 132.489L433.202 154.449Z" fill="#081638"/>
<path d="M295.211 247.548C295.916 246.873 303.78 201.888 308.771 172.979C310.002 165.86 313.243 159.242 318.111 153.904C322.98 148.566 329.274 144.733 336.25 142.855L426.59 118.548L441.129 163.727L360.122 191.248L355.19 249.408" fill="#FEA217"/>
<path d="M233.68 253.565L236.962 261.054C240.327 268.72 246 275.146 253.19 279.436C260.379 283.727 268.728 285.667 277.073 284.989L334.419 280.31L369.987 371.7C369.987 371.7 423.472 358.46 421.915 356.384C420.827 354.929 396.238 287.811 381.555 247.595C378.492 239.199 372.653 232.098 365.012 227.465C357.367 222.832 348.372 220.944 339.512 222.111L258.176 232.823" fill="#FEA217"/>
<path d="M239.236 276.921L289.241 256.159L279.094 225.009L224.33 238.245L239.236 276.921Z" fill="#1758FE"/>
<path d="M228.224 207.163L235.794 233.57L278.078 221.887L289.241 256.159L223.292 283.533C220.359 284.753 217.192 285.311 214.017 285.167C210.843 285.022 207.74 284.179 204.929 282.697C202.119 281.215 199.67 279.132 197.757 276.595C195.844 274.057 194.515 271.129 193.864 268.019C186.822 234.102 181.962 175.789 227.824 165.832C239.907 163.208 271.082 113.359 271.082 113.359L279.309 64.8394L315.172 61.1772L310.953 120.76C310.497 127.128 308.273 133.243 304.531 138.417L274.428 180.021L301.43 225.79L232.115 265.247" fill="#1758FE"/>
<mask id="mask0_1083_1183" style="mask-type:luminance" maskUnits="userSpaceOnUse" x="189" y="61" width="127" height="225">
<path fill-rule="evenodd" clip-rule="evenodd" d="M228.224 207.162L235.793 233.57L278.077 221.887L289.24 256.159L223.291 283.532C220.358 284.753 217.191 285.31 214.016 285.166C210.842 285.021 207.739 284.178 204.929 282.697C202.118 281.215 199.669 279.131 197.756 276.594C195.843 274.057 194.514 271.129 193.863 268.019C186.821 234.101 181.961 175.789 227.823 165.832C239.906 163.208 271.081 113.359 271.081 113.359L279.309 64.8389L315.171 61.1768L310.952 120.759C310.496 127.128 308.272 133.243 304.53 138.416L274.427 180.021L301.429 225.79L232.114 265.247" fill="white"/>
</mask>
<g mask="url(#mask0_1083_1183)">
<path d="M215.984 239.35C221.67 239.35 226.279 234.741 226.279 229.055C226.279 223.37 221.67 218.761 215.984 218.761C210.298 218.761 205.689 223.37 205.689 229.055C205.689 234.741 210.298 239.35 215.984 239.35Z" fill="#FEA217"/>
<path d="M257.421 242.717C263.106 242.717 267.715 238.108 267.715 232.422C267.715 226.737 263.106 222.128 257.421 222.128C251.735 222.128 247.126 226.737 247.126 232.422C247.126 238.108 251.735 242.717 257.421 242.717Z" fill="#FEA217"/>
<path d="M298.856 246.088C304.542 246.088 309.151 241.479 309.151 235.793C309.151 230.107 304.542 225.499 298.856 225.499C293.17 225.499 288.562 230.107 288.562 235.793C288.562 241.479 293.17 246.088 298.856 246.088Z" fill="#FEA217"/>
<path d="M239.029 212.394C244.715 212.394 249.324 207.785 249.324 202.099C249.324 196.414 244.715 191.805 239.029 191.805C233.343 191.805 228.734 196.414 228.734 202.099C228.734 207.785 233.343 212.394 239.029 212.394Z" fill="#FEA217"/>
<path d="M280.465 215.765C286.15 215.765 290.759 211.156 290.759 205.471C290.759 199.785 286.15 195.176 280.465 195.176C274.779 195.176 270.17 199.785 270.17 205.471C270.17 211.156 274.779 215.765 280.465 215.765Z" fill="#FEA217"/>
<path d="M321.905 219.132C327.591 219.132 332.2 214.523 332.2 208.837C332.2 203.152 327.591 198.543 321.905 198.543C316.219 198.543 311.61 203.152 311.61 208.837C311.61 214.523 316.219 219.132 321.905 219.132Z" fill="#FEA217"/>
<path d="M197.592 209.027C203.278 209.027 207.887 204.418 207.887 198.733C207.887 193.047 203.278 188.438 197.592 188.438C191.907 188.438 187.298 193.047 187.298 198.733C187.298 204.418 191.907 209.027 197.592 209.027Z" fill="#FEA217"/>
<path d="M234.274 269.664C239.959 269.664 244.569 265.056 244.569 259.37C244.569 253.684 239.959 249.075 234.274 249.075C228.588 249.075 223.979 253.684 223.979 259.37C223.979 265.056 228.588 269.664 234.274 269.664Z" fill="#FEA217"/>
<path d="M275.71 273.031C281.395 273.031 286.004 268.422 286.004 262.737C286.004 257.051 281.395 252.442 275.71 252.442C270.024 252.442 265.415 257.051 265.415 262.737C265.415 268.422 270.024 273.031 275.71 273.031Z" fill="#FEA217"/>
<path d="M317.145 276.402C322.83 276.402 327.44 271.793 327.44 266.108C327.44 260.422 322.83 255.813 317.145 255.813C311.46 255.813 306.851 260.422 306.851 266.108C306.851 271.793 311.46 276.402 317.145 276.402Z" fill="#FEA217"/>
<path d="M192.838 266.293C198.523 266.293 203.132 261.684 203.132 255.998C203.132 250.313 198.523 245.704 192.838 245.704C187.152 245.704 182.543 250.313 182.543 255.998C182.543 261.684 187.152 266.293 192.838 266.293Z" fill="#FEA217"/>
<path d="M225.448 124.805C231.133 124.805 235.743 120.196 235.743 114.511C235.743 108.825 231.133 104.216 225.448 104.216C219.762 104.216 215.153 108.825 215.153 114.511C215.153 120.196 219.762 124.805 225.448 124.805Z" fill="#FEA217"/>
<path d="M266.884 128.176C272.569 128.176 277.178 123.567 277.178 117.882C277.178 112.196 272.569 107.587 266.884 107.587C261.198 107.587 256.589 112.196 256.589 117.882C256.589 123.567 261.198 128.176 266.884 128.176Z" fill="#FEA217"/>
<path d="M308.319 131.543C314.004 131.543 318.614 126.934 318.614 121.248C318.614 115.563 314.004 110.954 308.319 110.954C302.633 110.954 298.024 115.563 298.024 121.248C298.024 126.934 302.633 131.543 308.319 131.543Z" fill="#FEA217"/>
<path d="M184.011 121.438C189.697 121.438 194.306 116.829 194.306 111.144C194.306 105.458 189.697 100.849 184.011 100.849C178.326 100.849 173.717 105.458 173.717 111.144C173.717 116.829 178.326 121.438 184.011 121.438Z" fill="#FEA217"/>
<path d="M243.737 155.12C249.423 155.12 254.032 150.511 254.032 144.825C254.032 139.139 249.423 134.53 243.737 134.53C238.052 134.53 233.442 139.139 233.442 144.825C233.442 150.511 238.052 155.12 243.737 155.12Z" fill="#FEA217"/>
<path d="M285.174 158.491C290.859 158.491 295.468 153.882 295.468 148.196C295.468 142.51 290.859 137.901 285.174 137.901C279.488 137.901 274.879 142.51 274.879 148.196C274.879 153.882 279.488 158.491 285.174 158.491Z" fill="#FEA217"/>
<path d="M202.301 151.753C207.987 151.753 212.596 147.144 212.596 141.458C212.596 135.773 207.987 131.164 202.301 131.164C196.616 131.164 192.007 135.773 192.007 141.458C192.007 147.144 196.616 151.753 202.301 151.753Z" fill="#FEA217"/>
<path d="M248.543 97.8578C254.228 97.8578 258.837 93.2489 258.837 87.5632C258.837 81.8775 254.228 77.2686 248.543 77.2686C242.857 77.2686 238.248 81.8775 238.248 87.5632C238.248 93.2489 242.857 97.8578 248.543 97.8578Z" fill="#FEA217"/>
<path d="M289.979 101.225C295.665 101.225 300.274 96.6158 300.274 90.9301C300.274 85.2445 295.665 80.6355 289.979 80.6355C284.294 80.6355 279.685 85.2445 279.685 90.9301C279.685 96.6158 284.294 101.225 289.979 101.225Z" fill="#FEA217"/>
<path d="M207.107 94.4867C212.793 94.4867 217.402 89.8778 217.402 84.1921C217.402 78.5064 212.793 73.8975 207.107 73.8975C201.421 73.8975 196.812 78.5064 196.812 84.1921C196.812 89.8778 201.421 94.4867 207.107 94.4867Z" fill="#FEA217"/>
<path d="M262.175 185.446C267.861 185.446 272.47 180.837 272.47 175.152C272.47 169.466 267.861 164.857 262.175 164.857C256.49 164.857 251.881 169.466 251.881 175.152C251.881 180.837 256.49 185.446 262.175 185.446Z" fill="#FEA217"/>
<path d="M303.611 188.818C309.296 188.818 313.906 184.209 313.906 178.523C313.906 172.837 309.296 168.229 303.611 168.229C297.925 168.229 293.316 172.837 293.316 178.523C293.316 184.209 297.925 188.818 303.611 188.818Z" fill="#FEA217"/>
<path d="M179.303 178.709C184.989 178.709 189.598 174.1 189.598 168.414C189.598 162.728 184.989 158.119 179.303 158.119C173.618 158.119 169.009 162.728 169.009 168.414C169.009 174.1 173.618 178.709 179.303 178.709Z" fill="#FEA217"/>
</g>
<path d="M228.021 170.228L232.705 130.341" stroke="#F9D0B5" stroke-width="21.5175" stroke-linecap="round"/>
<path d="M341.026 280.752L333.183 279.921L335.76 270.048" stroke="white" stroke-width="1.26573" stroke-linecap="square"/>
<path d="M225.385 236.701L232.439 234.941" stroke="white" stroke-width="1.26573" stroke-linecap="square"/>
<path d="M284.246 241.261C284.246 241.207 298.945 227.802 298.945 227.802L316.349 224.149C316.349 224.149 302.059 210.382 280.064 228.034" fill="#F9D0B5"/>
<path d="M360.641 183.13L361.763 192.218L350.114 192.045" stroke="white" stroke-width="1.26573" stroke-linecap="square"/>
<path d="M226.06 207.154L232.388 235.064L278.077 221.887L284.498 241.599L299.346 227.039L339.912 221.698C339.912 221.698 351.663 219.845 357.417 223.541" stroke="white" stroke-width="1.26573" stroke-linecap="square"/>
<path d="M189.362 176H0V269.791H189.362V176Z" fill="#081638"/>
<path d="M558.408 181.021H390.229V254.594H558.408V181.021Z" fill="#081638"/>
<path d="M335.976 285.199H126.189V372.345H335.976V285.199Z" fill="#081638"/>
<path d="M498.184 47.1738H461.317V109.245H498.184V47.1738Z" fill="#DADDF1"/>
<path d="M491.759 279.921H438.792V323.403H491.759V279.921Z" fill="#DADDF1"/>
<path d="M268.639 66.1895H223.077L245.856 27.9053L268.639 66.1895Z" fill="#FEA217"/>
<path d="M245.856 61.9028C247.254 61.9028 248.387 60.7693 248.387 59.3713C248.387 57.9733 247.254 56.8398 245.856 56.8398C244.458 56.8398 243.324 57.9733 243.324 59.3713C243.324 60.7693 244.458 61.9028 245.856 61.9028Z" fill="#DADDF1"/>
<path d="M247.543 40.8071H244.168V55.1521H247.543V40.8071Z" fill="#DADDF1"/>
<path d="M487.05 84.3779C489.088 84.3779 490.737 82.727 490.737 80.6904C490.737 78.6539 489.088 77.0029 487.05 77.0029C485.012 77.0029 483.362 78.6539 483.362 80.6904C483.362 82.727 485.012 84.3779 487.05 84.3779Z" fill="#FEA217"/>
<path d="M489.615 54H484.493V74.3108H489.615V54Z" fill="#FEA217"/>
<path d="M536.363 190.214L548.856 202.707" stroke="#FEA217" stroke-width="2.10956"/>
<path d="M548.856 190.214L536.363 202.707" stroke="#FEA217" stroke-width="2.10956"/>
<path d="M136.725 295.68L149.989 308.949" stroke="#FEA217" stroke-width="2.10956"/>
<path d="M149.989 295.68L136.725 308.949" stroke="#FEA217" stroke-width="2.10956"/>
<path d="M10.083 247.957L23.3479 261.226" stroke="#FEA217" stroke-width="2.10956"/>
<path d="M23.3479 247.957L10.083 261.226" stroke="#FEA217" stroke-width="2.10956"/>
<path d="M174.051 184.109L181.789 191.847" stroke="#FEA217" stroke-width="2.10956"/>
<path d="M181.789 184.109L174.051 191.847" stroke="#FEA217" stroke-width="2.10956"/>
<path d="M467.536 93.1494L476.7 102.313" stroke="#FEA217" stroke-width="2.10956"/>
<path d="M476.7 93.1494L467.536 102.313" stroke="#FEA217" stroke-width="2.10956"/>
<path d="M451.415 287.802L479.139 315.526" stroke="#FEA217" stroke-width="2.10956"/>
<path d="M479.139 287.802L451.415 315.526" stroke="#FEA217" stroke-width="2.10956"/>
<path d="M234.59 167.427L236.974 167.397C248.788 167.266 257.517 155.752 255.188 143.433L252.479 129.088C250.674 119.536 242.695 112.726 233.557 112.937C223.157 113.173 214.929 122.346 215.182 133.421L215.512 147.766C215.76 158.765 224.27 167.52 234.59 167.427Z" fill="#F9D0B5"/>
<path d="M242.105 136.48L244.94 147.846L240.902 148.876" stroke="#252B2D" stroke-width="1.26573"/>
<path d="M223.237 148.344L226.191 126.679L226.895 121.536C228.305 122.715 229.9 123.651 231.616 124.308C237.852 126.725 255.315 123.274 256.214 110.617C256.948 100.293 246.974 107.419 241.417 107.469C232.688 107.554 226.077 103.25 215.094 111.068C201.943 120.451 210.951 138.315 210.951 138.315C210.951 138.315 216.875 135.138 223.237 148.344Z" fill="#081638"/>
<path d="M233.679 140.969C234.819 140.969 235.743 140.045 235.743 138.905C235.743 137.766 234.819 136.842 233.679 136.842C232.54 136.842 231.616 137.766 231.616 138.905C231.616 140.045 232.54 140.969 233.679 140.969Z" fill="#081638"/>
<path d="M246.375 139.61C247.514 139.61 248.438 138.687 248.438 137.547C248.438 136.407 247.514 135.484 246.375 135.484C245.235 135.484 244.312 136.407 244.312 137.547C244.312 138.687 245.235 139.61 246.375 139.61Z" fill="#081638"/>
<path d="M237.902 155.069C237.902 155.069 241.333 157.658 244.916 154.433" stroke="#252B2D" stroke-width="1.26573"/>
<path d="M211.437 56.2065H76.8809V151.373H211.437V56.2065Z" fill="#081638"/>
<path d="M214.136 154.399C216.685 157.579 221.329 158.092 224.508 155.544C227.687 152.996 228.198 148.352 225.649 145.172L221.183 139.598C218.634 136.418 213.99 135.906 210.811 138.453C207.632 141.002 207.121 145.645 209.67 148.825L214.136 154.399Z" fill="#F9D0B5"/>
<path d="M212.428 143.028L219.073 148.5" stroke="#252B2D" stroke-width="1.26573"/>
<path d="M192.336 66.0459L201.5 75.2098" stroke="#FEA217" stroke-width="2.10956"/>
<path d="M201.5 66.0459L192.336 75.2098" stroke="#FEA217" stroke-width="2.10956"/>
<path d="M239.198 167.216L234.173 168.283L238.738 171.519L239.198 167.216Z" fill="#081638"/>
<path d="M297.675 219.39C297.675 219.39 309.1 216.356 316.349 224.14" stroke="white" stroke-width="1.26573" stroke-linecap="square"/>
<path d="M265.866 328.775L281.423 344.332L311.475 314.28" stroke="#FEA217" stroke-width="2"/>
<path d="M334.866 87.7754L350.423 103.332L380.475 73.2797" stroke="#FEA217" stroke-width="2"/>
<path d="M85.8662 124.775L101.423 140.332L131.475 110.28" stroke="#FEA217" stroke-width="2"/>
<path d="M126.866 242.775L142.423 258.332L172.475 228.28" stroke="#FEA217" stroke-width="2"/>
</svg>
