<svg width="572" height="335" viewBox="0 0 572 335" fill="none" xmlns="http://www.w3.org/2000/svg">
<path d="M547.045 25.1748H512.839V53.2139H482.754V84.1293" stroke="#1758FE" stroke-width="11.0496" stroke-linecap="round" stroke-linejoin="round"/>
<path d="M329.766 108.86L361.01 77.6203L335.395 52.0054L362.875 24.5288" stroke="#1758FE" stroke-width="11.0496" stroke-linecap="round" stroke-linejoin="round"/>
<path d="M404.582 88.4956L458.846 142.759" stroke="#1758FE" stroke-width="11.0496" stroke-linecap="round" stroke-linejoin="round"/>
<path d="M445.921 13.2214L417.313 41.8331" stroke="#1758FE" stroke-width="11.0496" stroke-linecap="round" stroke-linejoin="round"/>
<path d="M239.857 287.194L211.246 315.805" stroke="#1758FE" stroke-width="11.0496" stroke-linecap="round" stroke-linejoin="round"/>
<path d="M167.52 6.29688L138.908 34.9086" stroke="#1758FE" stroke-width="11.0496" stroke-linecap="round" stroke-linejoin="round"/>
<path d="M56.1963 72.1455L14.4055 113.936" stroke="#1758FE" stroke-width="11.0496" stroke-linecap="round" stroke-linejoin="round"/>
<path d="M566 88.4956L539.555 114.941" stroke="#1758FE" stroke-width="11.0496" stroke-linecap="round" stroke-linejoin="round"/>
<path d="M542.923 166.991L484.24 225.674" stroke="#1758FE" stroke-width="11.0496" stroke-linecap="round" stroke-linejoin="round"/>
<path d="M384.489 150.41C378.925 150.41 374.414 145.899 374.414 140.335C374.414 134.77 378.925 130.26 384.489 130.26C390.054 130.26 394.564 134.77 394.564 140.335C394.564 145.899 390.054 150.41 384.489 150.41Z" fill="#1758FE"/>
<path d="M189.564 269.149V234.946H161.522V204.861H130.607" stroke="#1758FE" stroke-width="11.0496" stroke-linecap="round" stroke-linejoin="round"/>
<path d="M104.202 65.2681L135.445 96.5116L161.057 70.8966L188.533 98.3766" stroke="#1758FE" stroke-width="11.0496" stroke-linecap="round" stroke-linejoin="round"/>
<path d="M437.37 273.418L468.614 304.662L494.225 279.047L521.702 306.527" stroke="#1758FE" stroke-width="11.0496" stroke-linecap="round" stroke-linejoin="round"/>
<path d="M125.906 147.45L71.6428 201.714" stroke="#1758FE" stroke-width="11.0496" stroke-linecap="round" stroke-linejoin="round"/>
<path d="M295.489 56.9978L241.226 111.261" stroke="#1758FE" stroke-width="11.0496" stroke-linecap="round" stroke-linejoin="round"/>
<path d="M128.919 288.108L102.474 261.662" stroke="#1758FE" stroke-width="11.0496" stroke-linecap="round" stroke-linejoin="round"/>
<path d="M347.54 180.214L321.095 153.768" stroke="#1758FE" stroke-width="11.0496" stroke-linecap="round" stroke-linejoin="round"/>
<path d="M64.4131 257.738L5.72984 199.055" stroke="#1758FE" stroke-width="11.0496" stroke-linecap="round" stroke-linejoin="round"/>
<path d="M74.0664 132.409C68.5014 132.409 63.9912 127.899 63.9912 122.334C63.9912 116.77 68.5014 112.259 74.0664 112.259C79.6314 112.259 84.1416 116.77 84.1416 122.334C84.1416 127.899 79.6314 132.409 74.0664 132.409Z" fill="#1758FE"/>
<path d="M60.1104 30.6763C54.5454 30.6763 50.0352 26.1655 50.0352 20.6011C50.0352 15.0367 54.5454 10.5259 60.1104 10.5259C65.6753 10.5259 70.1855 15.0367 70.1855 20.6011C70.1855 26.1655 65.6753 30.6763 60.1104 30.6763Z" fill="#1758FE"/>
<path d="M387.532 316.602C381.968 316.602 377.457 312.091 377.457 306.527C377.457 300.963 381.968 296.452 387.532 296.452C393.097 296.452 397.607 300.963 397.607 306.527C397.607 312.091 393.097 316.602 387.532 316.602Z" fill="#1758FE"/>
<path d="M47.6377 311.576C42.0727 311.576 37.5625 307.066 37.5625 301.501C37.5625 295.937 42.0727 291.426 47.6377 291.426C53.2027 291.426 57.7129 295.937 57.7129 301.501C57.7129 307.066 53.2027 311.576 47.6377 311.576Z" fill="#1758FE"/>
<path d="M217.896 56.7566C212.331 56.7566 207.82 52.2457 207.82 46.6814C207.82 41.1171 212.331 36.6062 217.896 36.6062C223.46 36.6062 227.971 41.1171 227.971 46.6814C227.971 52.2457 223.46 56.7566 217.896 56.7566Z" fill="#1758FE"/>
<path d="M547.041 253.744C541.477 253.744 536.966 249.233 536.966 243.668C536.966 238.104 541.477 233.593 547.041 233.593C552.605 233.593 557.116 238.104 557.116 243.668C557.116 249.233 552.605 253.744 547.041 253.744Z" fill="#1758FE"/>
<path d="M188.456 172.717L159.844 144.105" stroke="#1758FE" stroke-width="11.0496" stroke-linecap="round" stroke-linejoin="round"/>
<path d="M239.964 55.9766C239.384 56.1842 238.817 56.3717 238.263 56.5391C238.819 56.375 239.388 56.1875 239.964 55.9766Z" fill="white"/>
<path d="M231.954 57.8948C232.098 57.8948 232.255 57.858 232.423 57.8345L231.954 57.8948Z" fill="white"/>
<path d="M239.967 55.973L241.869 64.3439L242.261 64.2033C245.693 62.9175 247.377 61.0458 249.507 59.2611L247.605 50.907C247.454 51.0309 247.307 51.1581 247.166 51.282L246.497 51.8512L246.162 52.1459L245.827 52.4405L245.465 52.7519C245.362 52.8423 245.251 52.9327 245.131 53.0231C244.956 53.1671 244.796 53.3111 244.595 53.4484L244.26 53.7029C244.036 53.8669 243.805 54.0377 243.567 54.1884C243.493 54.2419 243.413 54.2922 243.336 54.3424C243.098 54.4998 242.847 54.6471 242.589 54.7978C242.459 54.8681 242.331 54.9417 242.201 55.0087C241.926 55.1527 241.645 55.2933 241.347 55.4273L241.143 55.5177C240.881 55.6315 240.61 55.742 240.329 55.8525L239.967 55.973Z" fill="#081638"/>
<path d="M256.368 46.6814L258.27 55.0355C262.288 53.9875 266.774 53.214 266.774 53.214L264.869 44.8599C264.869 44.8599 260.396 45.6233 256.368 46.6814Z" fill="#081638"/>
<path d="M238.263 56.5391C238.819 56.375 239.388 56.1875 239.964 55.9766C239.384 56.1842 238.817 56.3717 238.263 56.5391Z" fill="white"/>
<path d="M231.954 57.8948C232.098 57.8948 232.255 57.858 232.423 57.8345L231.954 57.8948Z" fill="white"/>
<path d="M232.618 66.3828L234.249 73.5482C234.249 73.5482 237.735 73.3808 242.888 71.5794L243.474 71.3685L241.87 64.3369C238.882 65.3963 235.776 66.0834 232.618 66.3828Z" fill="#081638"/>
<path d="M239.964 55.9766C239.384 56.1842 238.817 56.3717 238.263 56.5391C238.819 56.375 239.388 56.1875 239.964 55.9766Z" fill="white"/>
<path d="M232.423 57.8345L231.954 57.8948C232.098 57.8814 232.255 57.858 232.423 57.8345Z" fill="white"/>
<path d="M448.828 138.222L460.728 177.635L462.171 182.621L445.064 183.636L441.12 165.374L448.828 138.222Z" fill="#B5D6F4"/>
<path d="M280.218 263.367L287.022 270.967C292.543 277.131 300.182 280.989 308.419 281.773C316.657 282.557 324.887 280.21 331.471 275.2L449.189 185.624L431.537 160.927L280.218 263.367Z" fill="#DADDF1"/>
<path d="M282.652 109.242C282.652 109.242 287.597 78.9528 282.652 76.6859C277.706 74.4191 270.494 79.157 270.494 79.157C270.494 79.157 263.489 81.2196 263.077 83.6907C262.665 86.1618 265.548 97.9078 267.196 98.7348C268.843 99.5619 268.85 106.151 268.85 106.151" fill="#DADDF1"/>
<path d="M422.303 184.567L404.004 219.631L390.232 208.966L397.532 194.233L422.303 184.567Z" fill="#B5D6F4"/>
<path d="M273.608 79.5691L276.287 91.8642C276.287 91.8642 269.761 90.9736 267.976 85.4086" stroke="white" stroke-width="1.00451" stroke-linecap="square"/>
<path d="M281.417 81.2197C281.417 81.2197 275.802 80.8112 274.385 81.6081" stroke="white" stroke-width="1.00451" stroke-linecap="square"/>
<path d="M282.345 86.6271C282.345 86.6271 276.987 85.8034 275.474 86.6271" stroke="white" stroke-width="1.00451" stroke-linecap="square"/>
<path d="M282.087 94.3017C282.087 94.3017 271.473 92.6543 270.907 96.4145" stroke="white" stroke-width="1.00451" stroke-linecap="square"/>
<path d="M395.114 181.751L400.796 182.625L393.791 215.12L353.269 210.078" stroke="white" stroke-width="1.00451" stroke-linecap="square"/>
<path d="M335.546 222.082L332.733 262.104C332.733 262.104 331.223 273.579 324.382 278.739" stroke="white" stroke-width="1.00451" stroke-linecap="square"/>
<path d="M253.187 305.198L254.583 308.352C255.169 309.628 255.628 310.96 255.953 312.326C256.592 314.851 255.638 316.344 257.208 320.325C258.99 324.836 253.927 322.83 252.668 320.851C251.687 319.304 252.079 317.255 250.659 316.297C250.053 317.031 248.754 318.069 247.311 324.484C247.049 325.636 248.369 333.525 243.172 334.62C238.896 334.774 235.749 327.765 235.317 325.512C234.748 322.624 234.861 319.642 235.652 316.806C236.445 313.676 236.402 312.614 238.414 308.797C239.386 307.055 240.507 305.399 241.762 303.848" fill="#DADDF1"/>
<path d="M299.718 298.178L432.389 198.094C436.53 194.97 442.42 195.795 445.543 199.936L445.546 199.938C448.669 204.079 447.845 209.969 443.704 213.093L311.032 313.177C306.891 316.301 301.002 315.476 297.878 311.335L297.876 311.333C294.752 307.191 295.576 301.302 299.718 298.178Z" fill="#19F0FE"/>
<path d="M156.898 120.475L312.335 299.473C315.736 303.39 315.318 309.322 311.402 312.723L311.399 312.725C307.483 316.126 301.55 315.708 298.149 311.791L142.715 132.793C139.313 128.877 139.731 122.945 143.645 119.544L143.649 119.542C147.566 116.141 153.5 116.559 156.898 120.475Z" fill="#19F0FE"/>
<path d="M267.372 99.8833L291.688 105.448C291.688 105.448 289.833 146.633 287.051 155.299C285.163 161.176 276.783 180.417 271.586 192.188C272.296 192.566 272.954 192.981 273.554 193.433C275.803 195.122 277.458 198.089 279.698 202.105C283.545 209.003 289.119 218.997 302.403 230.935C311.644 239.238 289.522 278.943 289.522 278.943L253.641 239.426C253.313 246.424 253.264 253.729 253.942 259.231C255.76 273.988 260.974 305.73 260.974 305.73H234.623C234.623 305.73 228.261 267.278 227.591 256.325C226.921 245.373 230.106 203.116 230.106 203.116L233.035 204.687C233.344 200.239 235.014 195.951 239.606 193.695L239.196 193.577L262.273 147.484L267.372 99.8833Z" fill="#FE6A17"/>
<mask id="mask0_1083_1267" style="mask-type:luminance" maskUnits="userSpaceOnUse" x="227" y="99" width="78" height="207">
<path fill-rule="evenodd" clip-rule="evenodd" d="M267.372 99.8833L291.688 105.448C291.688 105.448 289.833 146.633 287.051 155.299C285.163 161.176 276.783 180.417 271.586 192.188C272.296 192.566 272.954 192.981 273.554 193.433C275.803 195.122 277.458 198.089 279.698 202.105C283.545 209.003 289.119 218.997 302.403 230.935C311.644 239.238 289.522 278.943 289.522 278.943L253.641 239.426C253.313 246.424 253.264 253.729 253.942 259.231C255.76 273.988 260.974 305.73 260.974 305.73H234.623C234.623 305.73 228.261 267.278 227.591 256.325C226.921 245.373 230.106 203.116 230.106 203.116L233.035 204.687C233.344 200.239 235.014 195.951 239.606 193.695L239.196 193.577L262.273 147.484L267.372 99.8833Z" fill="white"/>
</mask>
<g mask="url(#mask0_1083_1267)">
<path d="M301.606 118.31H284.848V132.939H272.117V147.665" stroke="#1758FE" stroke-width="6.02704" stroke-linecap="round" stroke-linejoin="round"/>
<path d="M273.942 112.333H258.269" stroke="#1758FE" stroke-width="6.02704" stroke-linecap="round" stroke-linejoin="round"/>
<path d="M294.397 156.016L268.85 173.223" stroke="#1758FE" stroke-width="6.02704" stroke-linecap="round" stroke-linejoin="round"/>
<path d="M263.455 161.992L244.366 142.903" stroke="#1758FE" stroke-width="6.02704" stroke-linecap="round" stroke-linejoin="round"/>
<path d="M254.8 181.751L258.269 186.901" stroke="#1758FE" stroke-width="6.02704" stroke-linecap="round" stroke-linejoin="round"/>
<path d="M293.852 244.131L284.543 248.336" stroke="#1758FE" stroke-width="6.02704" stroke-linecap="round" stroke-linejoin="round"/>
<path d="M278.907 192.017L264.868 199.702L270.104 214.123L256.534 218.657" stroke="#1758FE" stroke-width="6.02704" stroke-linecap="round" stroke-linejoin="round"/>
<path d="M278.908 233.905L290.068 206.499" stroke="#1758FE" stroke-width="6.02704" stroke-linecap="round" stroke-linejoin="round"/>
<path d="M266.774 231.846L270.105 261.311" stroke="#1758FE" stroke-width="6.02704" stroke-linecap="round" stroke-linejoin="round"/>
<path d="M245.974 250.406L219.25 268.728" stroke="#1758FE" stroke-width="6.02704" stroke-linecap="round" stroke-linejoin="round"/>
<path d="M253.169 265.962L257.95 275.016L246.221 281.636L254.468 292.287L245.374 300.393" stroke="#1758FE" stroke-width="6.02704" stroke-linecap="round" stroke-linejoin="round"/>
<path d="M234.653 281.502L225.308 293.455" stroke="#1758FE" stroke-width="6.02704" stroke-linecap="round" stroke-linejoin="round"/>
</g>
<path d="M211.804 171.687C203.265 166.437 199.676 156.761 203.788 150.076C207.9 143.39 218.152 142.227 226.69 147.478C235.229 152.728 238.818 162.404 234.706 169.089C230.595 175.774 220.342 176.938 211.804 171.687Z" fill="#081638"/>
<path d="M250.85 204.165C251.957 202.364 252.445 200.252 252.242 198.148C252.039 196.044 251.155 194.065 249.725 192.509L227.334 168.146C225.587 166.27 223.169 165.161 220.604 165.062C218.043 164.962 215.545 165.88 213.656 167.616C211.771 169.351 210.646 171.763 210.529 174.324C210.412 176.886 211.316 179.389 213.037 181.289L235.427 205.651C236.442 206.757 237.702 207.612 239.104 208.149C240.507 208.685 242.014 208.89 243.509 208.746C245.003 208.602 246.444 208.113 247.718 207.318C248.992 206.523 250.064 205.444 250.85 204.165Z" fill="#DADDF1"/>
<path d="M243.46 189.201L244.749 188.002C246.247 186.607 247.42 184.9 248.183 183.001C248.946 181.102 249.281 179.058 249.165 177.014C249.048 174.971 248.483 172.978 247.51 171.178C246.536 169.378 245.177 167.815 243.53 166.599L235.37 160.572C232.735 158.628 229.5 157.674 226.232 157.878C222.964 158.082 219.874 159.431 217.5 161.687C214.825 164.234 213.271 167.739 213.177 171.432C213.087 175.124 214.466 178.703 217.011 181.379L223.879 188.598C226.407 191.256 229.879 192.809 233.545 192.922C237.211 193.035 240.774 191.698 243.46 189.201Z" fill="#DADDF1"/>
<path d="M232.792 166.991L241.628 169.61L239.847 172.633" stroke="#081638" stroke-width="1.00451"/>
<path d="M232.069 173.222C231.128 173.222 230.365 172.459 230.365 171.518C230.365 170.577 231.128 169.814 232.069 169.814C233.01 169.814 233.773 170.577 233.773 171.518C233.773 172.459 233.01 173.222 232.069 173.222Z" fill="#081638"/>
<path d="M236.357 166.244C235.416 166.244 234.653 165.481 234.653 164.54C234.653 163.599 235.416 162.836 236.357 162.836C237.298 162.836 238.062 163.599 238.062 164.54C238.062 165.481 237.298 166.244 236.357 166.244Z" fill="#081638"/>
<path d="M240.828 177.475C240.828 177.475 239.633 179.196 237.63 178.978" stroke="#081638" stroke-width="1.00451"/>
<path d="M198.324 243.752C216.127 256.904 219.78 237.263 219.78 237.263C219.78 237.263 234.158 260.099 246.41 236.319C258.662 212.539 246.336 196.406 236.562 191.608C232.672 189.699 228.644 189.86 224.562 190.332C230.308 176.701 221.649 171.635 221.649 171.635C221.649 171.635 241.685 156.444 226.286 147.192C210.887 137.941 196.298 150.678 190.737 160.083C189.572 162.064 188.714 164.208 188.189 166.445C186.454 173.637 186.776 180.23 182.011 188.26C168.849 210.439 188.296 225.306 188.296 225.306C188.296 225.306 186.273 234.849 198.324 243.752Z" fill="#081638"/>
<path d="M218.461 189.933C215.036 189.407 212.685 186.204 213.211 182.78C213.736 179.355 216.937 177.006 220.363 177.532L226.001 178.397C229.427 178.923 231.777 182.126 231.252 185.55C230.726 188.974 227.522 191.324 224.096 190.798L218.461 189.933Z" fill="#DADDF1"/>
<path d="M217.313 183.633L225.309 184.855" stroke="#081638" stroke-width="1.00451"/>
<path d="M400.796 182.624C400.501 184.968 393.791 215.12 393.791 215.12L336.534 207.995L332.888 260.608C332.632 264.298 331.641 267.9 329.973 271.202C328.305 274.504 325.993 277.439 323.174 279.834C320.355 282.23 317.086 284.038 313.558 285.151C310.03 286.265 306.316 286.663 302.632 286.32C300.153 286.088 297.751 285.329 295.589 284.093C293.427 282.857 291.553 281.173 290.095 279.155C288.636 277.135 287.626 274.828 287.132 272.387C286.638 269.946 286.671 267.428 287.23 265.001L305.113 187.319C306.287 182.219 309.346 177.753 313.677 174.815C318.008 171.878 323.29 170.688 328.461 171.485L400.796 182.624Z" fill="#DADDF1"/>
</svg>
