<svg width="551" height="356" viewBox="0 0 551 356" fill="none" xmlns="http://www.w3.org/2000/svg">
<path d="M502.85 355.338C512.455 355.338 520.243 347.551 520.243 337.946C520.243 328.341 512.455 320.553 502.85 320.553C493.245 320.553 485.458 328.341 485.458 337.946C485.458 347.551 493.245 355.338 502.85 355.338Z" fill="#19F0FE"/>
<path d="M362.607 0L380.386 255.319L143.163 271.841L131.855 109.476L219.669 9.9521L362.607 0Z" fill="#B5D6F4"/>
<path d="M0.291016 354.526H30.144L15.2175 331.675L0.291016 354.526Z" fill="#081638"/>
<path d="M385.439 287.399L402.082 280.555L388.521 271.238L385.439 287.399Z" fill="#081638"/>
<path d="M219.669 9.9519L226.143 102.91L131.855 109.476L219.669 9.9519Z" fill="#F6F8FF"/>
<path d="M471.439 354.847C467.837 351.657 465.669 346.572 465.669 341.194C465.626 337.137 466.887 333.171 469.271 329.886H490.335C492.719 333.171 493.98 337.137 493.937 341.194C493.937 346.572 491.785 351.674 488.167 354.847H471.439Z" fill="white"/>
<path fill-rule="evenodd" clip-rule="evenodd" d="M469.048 329.395H490.583H490.586C493.134 332.795 494.49 336.937 494.447 341.185C494.447 347.007 492.053 352.162 488.369 355.328H471.265C467.584 352.162 465.187 347.007 465.187 341.185C465.144 336.937 466.5 332.795 469.048 329.395ZM493.465 341.184C493.501 337.317 492.322 333.538 490.095 330.378H490.092H469.529C467.299 333.538 466.12 337.317 466.156 341.184C466.156 346.352 468.196 351.241 471.625 354.346H487.999C491.428 351.241 493.465 346.352 493.465 341.184Z" fill="#081638"/>
<path d="M418.728 319.708V245.845" stroke="#081638" stroke-width="0.982438"/>
<path d="M418.728 245.845C423.984 245.845 428.248 241.583 428.248 236.325C428.248 231.068 423.984 226.806 418.728 226.806C413.469 226.806 409.208 231.068 409.208 236.325C409.208 241.583 413.469 245.845 418.728 245.845Z" fill="#081638"/>
<path d="M479.813 329.395V314.187" stroke="#081638" stroke-width="0.982438"/>
<path d="M479.813 314.187C483.559 314.187 486.595 311.151 486.595 307.405C486.595 303.659 483.559 300.623 479.813 300.623C476.066 300.623 473.031 303.659 473.031 307.405C473.031 311.151 476.066 314.187 479.813 314.187Z" fill="#081638"/>
<path d="M91.5367 272.541C97.0567 272.541 101.531 268.067 101.531 262.547C101.531 257.027 97.0567 252.552 91.5367 252.552C86.0167 252.552 81.542 257.027 81.542 262.547C81.542 268.067 86.0167 272.541 91.5367 272.541Z" fill="#081638"/>
<path d="M393.601 284.124L407.535 319.708" stroke="#081638" stroke-width="0.982438"/>
<path d="M428.32 319.423L443.627 284.406" stroke="#081638" stroke-width="0.982438"/>
<path d="M442.876 270.006L437.715 281.814L449.524 286.975L454.685 275.167L442.876 270.006Z" fill="#19F0FE"/>
<path d="M156.617 273.262L133.863 263.902L152.405 251.163L156.617 273.262Z" fill="#19F0FE"/>
<path d="M120.879 303.449V231.374" stroke="#081638" stroke-width="0.982438"/>
<path d="M145.397 268.726L131.8 303.449" stroke="#081638" stroke-width="0.982438"/>
<path d="M110.429 305.764L95.4922 271.595" stroke="#081638" stroke-width="0.982438"/>
<path d="M400.952 354.847L389.231 314.161H448.224L444.274 327.875L440.354 341.482L436.5 354.847H400.952Z" fill="white"/>
<path fill-rule="evenodd" clip-rule="evenodd" d="M388.577 313.689H448.876H448.889L444.756 328.026L440.826 341.636L436.874 355.354H400.583L396.587 341.489L393.142 329.523L388.577 313.689ZM443.803 327.754L447.576 314.655L447.566 314.672H389.874L394.075 329.251L397.524 341.217L401.313 354.372H436.124L439.873 341.361L443.803 327.754Z" fill="#081638"/>
<path d="M60.0237 318.182H24.168V354.038H60.0237V318.182Z" fill="white"/>
<path fill-rule="evenodd" clip-rule="evenodd" d="M23.6768 317.691H60.515V354.519H23.6768V317.691ZM59.5323 353.537V318.673H24.659V353.537H59.5323Z" fill="#081638"/>
<path d="M550.493 336.6H533.058V354.035H550.493V336.6Z" fill="white"/>
<path fill-rule="evenodd" clip-rule="evenodd" d="M532.58 336.098H550.997V354.519H532.58V336.098ZM550.004 353.537V337.091L550.014 337.081H533.562V353.537H550.004Z" fill="#081638"/>
<path d="M194.879 331.675H172.027V354.526H194.879V331.675Z" fill="#081638"/>
<path d="M131.326 210.478H110.43V231.374H131.326V210.478Z" fill="#19F0FE"/>
<path d="M100.348 354.038C91.9093 346.699 86.876 334.91 86.876 322.456C86.876 312.71 89.8953 303.393 95.3904 296.192H143.759C149.248 303.396 152.274 312.71 152.274 322.456C152.274 334.9 147.24 346.689 138.798 354.038H100.348Z" fill="white"/>
<path fill-rule="evenodd" clip-rule="evenodd" d="M95.1416 295.691H144.002C149.438 302.732 152.758 312.127 152.758 322.446C152.758 335.65 147.325 347.341 138.975 354.519H100.165C91.8177 347.334 86.3848 335.65 86.3848 322.446C86.3848 312.127 89.7054 302.732 95.1416 295.691ZM151.792 322.456C151.792 312.903 148.861 303.773 143.533 296.683V296.673H95.6193C90.2912 303.78 87.3603 312.893 87.3603 322.446C87.3439 328.603 88.5958 334.694 91.0379 340.346C93.2107 345.379 96.4511 349.879 100.535 353.537H138.621C142.702 349.882 145.941 345.386 148.114 340.356C150.555 334.704 151.807 328.612 151.792 322.456Z" fill="#081638"/>
<path d="M94.0488 331.121H115.116L104.584 314.996L94.0488 331.121Z" fill="#19F0FE"/>
<path d="M124.026 331.121H145.093L134.561 314.996L124.026 331.121Z" fill="#19F0FE"/>
<path d="M420.939 341.672C424.898 341.672 428.108 338.463 428.108 334.504C428.108 330.545 424.898 327.335 420.939 327.335C416.98 327.335 413.771 330.545 413.771 334.504C413.771 338.463 416.98 341.672 420.939 341.672Z" fill="#19F0FE"/>
<path d="M405.449 334.504C405.449 336.406 404.693 338.227 403.35 339.573C402.004 340.916 400.183 341.672 398.281 341.672C397.711 341.672 397.141 341.607 396.588 341.469L393.143 329.506C394.138 328.485 395.415 327.781 396.81 327.489C398.205 327.196 399.656 327.327 400.979 327.862C402.299 328.399 403.432 329.32 404.228 330.502C405.024 331.684 405.449 333.079 405.449 334.504Z" fill="#19F0FE"/>
<path d="M444.746 328.01L440.816 341.617C439.008 341.391 437.351 340.484 436.189 339.079C435.026 337.674 434.44 335.879 434.551 334.062C434.666 332.241 435.468 330.531 436.795 329.284C438.124 328.033 439.876 327.337 441.7 327.335C442.752 327.331 443.793 327.561 444.746 328.01Z" fill="#19F0FE"/>
<path d="M352.302 330.365L358.308 343.952L343.391 354.526H304.29L326.791 339.128L352.302 330.365Z" fill="#19F0FE"/>
<path d="M286.201 330.365L292.207 347.554L277.293 354.526H238.192L260.69 339.128L286.201 330.365Z" fill="#19F0FE"/>
<path d="M328.262 56.2412L327.103 52.9107C326.661 51.27 326.314 49.6061 326.058 47.9265C325.672 45.3066 326.713 41.7633 323.458 37.8401C320.203 33.9169 325.835 35.6755 327.486 37.5126C328.865 39.0419 329.451 42.9062 330.911 43.9705C331.386 43.5333 331.796 43.0303 332.13 42.4772L338.899 27.2036C339.01 26.9517 339.203 26.7453 339.449 26.618C339.694 26.4907 339.973 26.4501 340.245 26.5028L340.873 26.6305C341.024 26.654 341.171 26.7109 341.299 26.7973C341.423 26.8836 341.532 26.9972 341.61 27.1298C341.689 27.2623 341.735 27.4106 341.748 27.5638C341.764 27.717 341.741 27.8714 341.689 28.0157C340.454 31.3167 336.511 41.092 336.701 41.1149L337.058 41.3474L345.776 26.1294C345.91 25.8848 346.126 25.694 346.385 25.5892C346.647 25.4843 346.932 25.4715 347.2 25.5531L348.055 25.8151C348.199 25.855 348.33 25.9254 348.441 26.0215C348.556 26.1175 348.648 26.2369 348.71 26.3714C348.772 26.5059 348.802 26.6523 348.805 26.8004C348.805 26.9486 348.772 27.0951 348.71 27.2298C347.125 30.7862 340.713 42.4608 340.909 42.5034L341.358 42.7261L349.974 30.3474C350.118 30.0913 350.347 29.8954 350.626 29.7956C350.901 29.6957 351.202 29.6986 351.477 29.8038L352.132 30.0657C352.266 30.1152 352.391 30.1927 352.496 30.2933C352.6 30.3938 352.679 30.515 352.735 30.6491C352.787 30.7832 352.813 30.9271 352.807 31.0715C352.803 31.2159 352.767 31.3574 352.702 31.487L344.741 43.7413L345.17 44.1048L352.669 35.5052C352.83 35.2759 353.065 35.1089 353.337 35.032C353.606 34.955 353.894 34.973 354.153 35.0827L354.48 35.2235C354.611 35.2786 354.729 35.3601 354.827 35.4629C354.925 35.5658 355.001 35.6879 355.05 35.8212C355.099 35.9548 355.119 36.0966 355.109 36.2384C355.099 36.3802 355.063 36.5184 354.997 36.6448C354.067 38.5049 350.586 42.1661 348.163 46.1417C346.283 49.2364 345.668 51.8431 342.858 55.5174C341.672 57.073 339.655 58.8348 338.555 59.8205" fill="#FEA217"/>
<path d="M274.784 110.046L308.387 91.0587L322.013 52.4358L344.115 58.7987L327.639 109.29L283.754 135.9" fill="#19F0FE"/>
<path d="M321.087 341.299L289.643 287.831L292.42 341.073L255.058 340.985L246.635 164.719L298.57 163.327L309.124 241.11L356.298 329.136L321.087 341.299Z" fill="#081638"/>
<path d="M181.866 137.662L180.212 134.453C179.305 132.953 178.322 131.502 177.264 130.104C175.604 127.923 172.352 126.102 171.629 120.961C170.905 115.819 168.501 121.079 168.757 123.581C168.969 125.663 171.399 128.876 171.216 130.68C170.582 130.698 169.95 130.625 169.336 130.464L153.807 124.203C153.561 124.097 153.285 124.084 153.03 124.166C152.775 124.249 152.559 124.421 152.422 124.652L152.094 125.189C152.015 125.322 151.963 125.47 151.944 125.624C151.925 125.778 151.938 125.934 151.983 126.083C152.027 126.232 152.103 126.369 152.204 126.487C152.305 126.605 152.429 126.7 152.569 126.767C155.775 128.283 165.459 132.563 165.361 132.724L165.295 133.143L148.545 128.287C148.286 128.203 148.005 128.217 147.756 128.327C147.507 128.436 147.306 128.632 147.192 128.879L146.829 129.675C146.765 129.811 146.73 129.959 146.725 130.11C146.721 130.26 146.747 130.41 146.803 130.55C146.858 130.69 146.942 130.817 147.048 130.923C147.154 131.029 147.281 131.113 147.421 131.168C151.043 132.619 163.723 136.526 163.625 136.693L163.491 137.174L148.862 134.319C148.593 134.232 148.3 134.251 148.044 134.373C147.789 134.495 147.589 134.71 147.487 134.974L147.244 135.629C147.193 135.766 147.169 135.911 147.175 136.057C147.18 136.204 147.214 136.347 147.275 136.48C147.335 136.613 147.422 136.733 147.529 136.832C147.636 136.932 147.762 137.009 147.899 137.06L162.024 140.276L162.004 140.842L150.87 139.932C150.602 139.879 150.325 139.926 150.09 140.063C149.854 140.201 149.678 140.42 149.592 140.678L149.491 141.006C149.403 141.283 149.426 141.583 149.556 141.843C149.685 142.102 149.911 142.301 150.185 142.398C152.15 143.089 157.082 143.272 161.565 144.441C165.046 145.348 167.342 146.799 171.848 147.467C173.754 147.752 176.351 147.601 177.788 147.533" fill="#FEA217"/>
<path d="M220.124 135.626C220.124 135.626 232.359 120.945 246.739 113.242C259.939 106.172 296.116 106.172 296.116 106.172L298.585 163.612L246.634 164.719L242.815 149.255L231.76 158.543C229.611 160.26 227.114 161.487 224.441 162.138C221.77 162.79 218.987 162.85 216.29 162.315L176.262 154.384L180.191 130.501L220.124 135.626Z" fill="#19F0FE"/>
<mask id="mask0_1083_1342" style="mask-type:luminance" maskUnits="userSpaceOnUse" x="176" y="106" width="123" height="59">
<path fill-rule="evenodd" clip-rule="evenodd" d="M220.216 135.557C220.216 135.557 232.451 120.876 246.83 113.174C260.031 106.103 296.208 106.103 296.208 106.103L298.677 163.543L246.726 164.65L242.907 149.186L231.851 158.474C229.703 160.191 227.205 161.418 224.533 162.07C221.861 162.721 219.079 162.781 216.381 162.246L176.354 154.315L180.283 130.432L220.216 135.557Z" fill="white"/>
</mask>
<g mask="url(#mask0_1083_1342)">
<path d="M221.172 120.441H198.163L209.667 138.056L221.172 120.441Z" fill="#081638"/>
<path d="M254.705 117.166H231.696L243.201 134.781L254.705 117.166Z" fill="#081638"/>
<path d="M205.193 142.103H182.185L193.689 159.718L205.193 142.103Z" fill="#081638"/>
<path d="M238.727 142.103H215.719L227.223 159.718L238.727 142.103Z" fill="#081638"/>
<path d="M272.261 142.103H249.252L260.756 159.718L272.261 142.103Z" fill="#081638"/>
<path d="M305.798 142.103H282.789L294.293 159.718L305.798 142.103Z" fill="#081638"/>
<path d="M242.503 150.454L249.403 144.091" stroke="white" stroke-width="0.982438" stroke-linecap="square"/>
</g>
<mask id="mask1_1083_1342" style="mask-type:luminance" maskUnits="userSpaceOnUse" x="274" y="52" width="70" height="84">
<path fill-rule="evenodd" clip-rule="evenodd" d="M274.598 110.007L308.2 91.0197L321.827 52.3967L343.928 58.7597L335.836 84.1622L327.649 109.214L283.567 135.861" fill="white"/>
</mask>
<g mask="url(#mask1_1083_1342)">
<path d="M321.778 117.166H298.77L310.274 134.781L321.778 117.166Z" fill="#081638"/>
<path d="M288.244 117.166H265.235L276.74 134.781L288.244 117.166Z" fill="#081638"/>
<path d="M306.089 90.3091H283.08L294.584 107.924L306.089 90.3091Z" fill="#081638"/>
<path d="M339.622 90.3091H316.613L328.118 107.924L339.622 90.3091Z" fill="#081638"/>
<path d="M324.453 64.6086H301.444L312.949 82.2238L324.453 64.6086Z" fill="#081638"/>
<path d="M342.848 42.353H319.839L331.343 59.9681L342.848 42.353Z" fill="#081638"/>
</g>
<path d="M269.829 116.006H269.613C267.263 115.949 265.031 114.96 263.409 113.258C261.788 111.556 260.908 109.279 260.964 106.929L261.754 74.2462C261.782 73.0823 262.039 71.9351 262.51 70.8705C262.981 69.8059 263.657 68.8444 264.5 68.0411C265.343 67.2381 266.336 66.6087 267.422 66.1889C268.508 65.7694 269.666 65.568 270.83 65.5958C271.994 65.6236 273.141 65.8807 274.205 66.3519C275.27 66.8232 276.232 67.4994 277.035 68.3424C277.838 69.185 278.467 70.1779 278.887 71.2638C279.307 72.3497 279.508 73.508 279.48 74.6719L278.691 107.358C278.634 109.67 277.675 111.869 276.02 113.485C274.364 115.101 272.143 116.005 269.829 116.006Z" fill="#DADDF1"/>
<path d="M263.365 99.2034L261.642 98.961C259.64 98.6817 257.724 97.9642 256.03 96.8596C254.336 95.7553 252.907 94.2908 251.844 92.5709C250.781 90.8513 250.11 88.9182 249.879 86.9095C249.648 84.9007 249.863 82.8657 250.508 80.9497L253.708 71.4527C254.74 68.3859 256.821 65.7815 259.584 64.0972C262.347 62.413 265.615 61.7567 268.814 62.244C270.602 62.5142 272.318 63.1341 273.866 64.0684C275.413 65.0027 276.761 66.2327 277.833 67.6884C278.905 69.144 279.68 70.7968 280.112 72.5518C280.545 74.3071 280.627 76.1301 280.355 77.9172L278.878 87.6532C278.333 91.2325 276.398 94.4529 273.494 96.6153C270.59 98.7776 266.951 99.7074 263.365 99.2034Z" fill="#DADDF1"/>
<path d="M253.442 73.1655L247.967 80.6419L250.701 81.4671" fill="#DADDF1"/>
<path d="M273.583 87.3552C269.98 86.3007 273.963 74.4623 273.963 74.4623L269.201 76.8398C268.14 77.5177 267.141 69.8121 267.141 69.8121C267.141 69.8121 252.843 71.0401 254.432 58.7989C255.349 51.7581 261.001 57.4301 264.777 57.9541C270.711 58.7727 275.584 56.4116 282.372 62.7058C290.497 70.2378 283.234 90.1748 273.583 87.3552Z" fill="#081638"/>
<path d="M260.939 98.748L266.116 99.0166L260.798 102.897L260.939 98.748Z" fill="#081638"/>
<path d="M256.121 75.3858C256.902 75.3858 257.535 74.7525 257.535 73.9711C257.535 73.1897 256.902 72.5564 256.121 72.5564C255.339 72.5564 254.706 73.1897 254.706 73.9711C254.706 74.7525 255.339 75.3858 256.121 75.3858Z" fill="#081638"/>
<path d="M290.991 291.07L283.515 193.94" stroke="white" stroke-width="0.982438" stroke-linecap="square"/>
<path d="M278.355 74.2212L278.353 74.2189C276.413 72.2079 273.21 72.1502 271.199 74.0902L269.132 76.0843C267.121 78.0242 267.063 81.2273 269.003 83.2384L269.005 83.2407C270.945 85.252 274.148 85.3094 276.159 83.3694L278.227 81.3753C280.238 79.4354 280.295 76.2323 278.355 74.2212Z" fill="#DADDF1"/>
<path d="M276.792 77.9138L272.773 80.9528" stroke="#081638" stroke-width="0.982438" stroke-linecap="square"/>
<path d="M256.382 83.5348C255.843 83.8461 255.229 84.0007 254.607 83.9812C253.985 83.962 253.38 83.7696 252.862 83.4256" stroke="#081638" stroke-width="0.982438" stroke-linecap="square"/>
<path d="M297.636 124.511L298.075 129.797" stroke="white" stroke-width="0.982438" stroke-linecap="square"/>
<path d="M303.939 236.676L309.123 241.11L304.735 248.766" stroke="white" stroke-width="0.982438" stroke-linecap="square"/>
<path d="M257.019 69.9136L259.134 71.4626" stroke="#081638" stroke-width="0.982438" stroke-linecap="square"/>
</svg>
