<svg width="543" height="345" viewBox="0 0 543 345" fill="none" xmlns="http://www.w3.org/2000/svg">
<path d="M293.089 190.449C293.089 190.449 303.724 170.43 323.793 170.43C336.875 170.43 340.065 179.403 352.828 179.403C365.591 179.403 381.544 138.048 403.242 138.048C424.939 138.048 453.02 186.777 469.293 186.777C485.565 186.777 489.713 168.204 503.434 168.204C517.155 168.204 543 199.951 543 199.951" fill="#19F0FE"/>
<path d="M0 206.481C0 206.481 36.3668 125.673 73.6395 125.673C110.912 125.673 107.129 195.653 147.605 195.653C188.08 195.653 223.098 153.059 259.042 153.059C294.985 153.059 332.055 212.515 332.055 212.515" fill="#19F0FE"/>
<path d="M250.66 286.05C260.227 286.05 267.982 278.295 267.982 268.729C267.982 259.163 260.227 251.407 250.66 251.407C241.094 251.407 233.339 259.163 233.339 268.729C233.339 278.295 241.094 286.05 250.66 286.05Z" fill="#FFC774"/>
<path d="M275.034 270.358C278.505 270.358 281.942 271.041 285.149 272.369C288.356 273.697 291.27 275.644 293.725 278.099C296.179 280.553 298.126 283.467 299.454 286.674C300.783 289.881 301.466 293.318 301.466 296.79L305.376 296.79C305.376 292.806 304.592 288.86 303.067 285.178C301.542 281.497 299.307 278.152 296.49 275.334C293.672 272.516 290.327 270.281 286.645 268.757C282.964 267.232 279.018 266.448 275.033 266.448L275.034 270.358Z" fill="#1758FE"/>
<path d="M307.502 306.989C306.174 303.782 305.49 300.345 305.49 296.875H301.58C301.58 300.859 302.365 304.804 303.89 308.485C305.415 312.166 307.649 315.511 310.467 318.328C313.285 321.146 316.63 323.38 320.311 324.905C323.992 326.428 327.937 327.213 331.922 327.213V323.303C328.452 323.304 325.014 322.62 321.807 321.293C318.6 319.964 315.686 318.018 313.232 315.564C310.778 313.109 308.83 310.196 307.502 306.989Z" fill="#1758FE"/>
<mask id="mask0_1083_1426" style="mask-type:luminance" maskUnits="userSpaceOnUse" x="275" y="266" width="57" height="62">
<path fill-rule="evenodd" clip-rule="evenodd" d="M275.035 270.358C278.506 270.358 281.943 271.041 285.15 272.369C288.357 273.697 291.271 275.644 293.726 278.099C296.18 280.553 298.127 283.467 299.455 286.674C300.784 289.881 301.467 293.318 301.467 296.79L305.377 296.79C305.377 292.806 304.593 288.86 303.068 285.178C301.543 281.497 299.308 278.152 296.491 275.334C293.673 272.516 290.328 270.281 286.646 268.757C282.965 267.232 279.019 266.448 275.034 266.448L275.035 270.358ZM307.502 306.989C306.174 303.782 305.49 300.345 305.49 296.875H301.58C301.58 300.859 302.365 304.805 303.89 308.486C305.415 312.167 307.649 315.511 310.467 318.328C313.285 321.146 316.63 323.381 320.311 324.905C323.992 326.428 327.937 327.213 331.922 327.213V323.303C328.452 323.304 325.014 322.62 321.807 321.293C318.6 319.965 315.686 318.018 313.232 315.564C310.777 313.11 308.83 310.196 307.502 306.989Z" fill="white"/>
</mask>
<g mask="url(#mask0_1083_1426)">
<path d="M321.672 290.785H294.112V305.679H321.672V290.785Z" fill="white"/>
</g>
<path d="M503.554 56.6698H376.52C376.52 56.6698 385.19 34.9494 402.994 35.865C420.798 36.7806 418.729 49.951 429.155 49.951C439.582 49.951 446.989 22.8901 467.354 22.8901C494.424 22.8901 503.554 56.6698 503.554 56.6698Z" fill="#19F0FE"/>
<path d="M281.909 93.7208H417.976C412.893 82.9519 405.158 73.4439 394.62 73.1246C382.043 72.7466 376.373 87.7482 364.317 87.7482C352.261 87.7482 345.386 51.0555 321.789 51.0555C297.901 51.0555 286.862 75.2262 281.909 93.7208Z" fill="#19F0FE"/>
<path d="M42.5381 27.7386H171.671C171.671 27.7386 165.448 10.7364 149.514 10.7364C137.575 10.7364 132.206 17.9211 120.743 17.9211C109.28 17.9211 98.5399 0 76.1483 0C53.4797 -0.00325839 42.5381 27.7386 42.5381 27.7386Z" fill="#19F0FE"/>
<path fill-rule="evenodd" clip-rule="evenodd" d="M434.421 191.717V212.57L434.422 212.57C434.422 216.692 432.786 220.645 429.87 223.559L427.107 220.795L427.107 220.795C429.286 218.613 430.512 215.655 430.512 212.57L430.511 212.57V191.717H434.421ZM418.883 224.203C421.968 224.202 424.924 222.976 427.107 220.795L429.87 223.559L429.87 223.559L429.87 223.559C426.957 226.474 423.005 228.112 418.883 228.113V228.113H418.883V224.203ZM362.513 226.225V224.203H418.883V224.203H418.883V228.113H362.538L362.513 226.225ZM362.513 266.981L362.486 269.002C356.595 268.928 350.971 266.535 346.829 262.343L346.83 262.342C342.691 258.15 340.368 252.495 340.368 246.603C340.368 240.711 342.691 235.055 346.829 230.863L346.829 230.863C350.971 226.67 356.595 224.277 362.486 224.203L362.513 226.225V228.113H362.538L362.538 228.113C357.673 228.174 353.03 230.149 349.612 233.61L349.612 233.61C346.194 237.071 344.278 241.739 344.278 246.603C344.278 251.466 346.194 256.134 349.612 259.595L349.612 259.595C353.03 263.056 357.673 265.031 362.538 265.092L362.513 265.092V266.981ZM499.153 269.002C506.302 269.078 513.135 271.972 518.166 277.055H518.166C523.196 282.139 526.018 289.001 526.018 296.153H529.928C529.928 287.972 526.699 280.121 520.945 274.305H520.945C515.191 268.49 507.374 265.179 499.192 265.092H499.182H499.173L362.538 265.092L362.513 266.981V269.002H499.153ZM499.153 269.002H499.173L499.173 267.047L499.153 269.002ZM362.513 224.203V226.158L362.487 224.203L362.5 224.203H362.513ZM499.173 327.213V325.258L499.172 325.22V323.303L499.153 323.303C506.302 323.228 513.135 320.334 518.166 315.251H518.166C523.196 310.167 526.018 303.304 526.018 296.153H529.928C529.928 304.334 526.699 312.185 520.945 318.001H520.945C515.191 323.816 507.374 327.125 499.192 327.213H499.182H499.173ZM499.153 323.303L499.172 325.22V327.214H331.102V323.303L499.153 323.303ZM362.513 267.047L362.487 269.002H362.5H362.513V267.047Z" fill="#1758FE"/>
<path d="M204.167 73.1344L207.986 81.7431L204.467 82.1634" fill="#1758FE"/>
<path d="M224.099 77.0054L237.657 78.5857" stroke="#32373F" stroke-width="11.7302" stroke-linecap="round"/>
<path d="M228.439 77.5906C228.821 74.3068 227.72 71.4808 225.979 71.2781C224.238 71.0754 222.517 73.573 222.134 76.8565C221.752 80.1403 222.854 82.9663 224.595 83.1689C226.335 83.3716 228.057 80.8741 228.439 77.5906Z" fill="#DADDF1"/>
<path d="M206.076 74.8125L224.046 76.8848" stroke="#32373F" stroke-width="7.49428"/>
<path d="M207.947 75.027C208.188 72.9573 207.544 71.1815 206.509 71.0609C205.474 70.9403 204.44 72.5207 204.199 74.5907C203.958 76.6608 204.602 78.4363 205.637 78.5568C206.672 78.6774 207.706 77.0971 207.947 75.027Z" fill="#DADDF1"/>
<path d="M207.692 71.2055C207.692 71.2055 207.66 70.5538 208.761 69.8467C213.323 66.9696 226.813 64.8386 226.07 76.7838C225.35 88.3674 214.48 83.7275 210.169 80.8796C208.934 80.065 209.247 78.9539 209.247 78.9539C209.247 78.9539 215.816 79.9151 216.031 75.7607C216.246 71.6063 207.692 71.2055 207.692 71.2055Z" fill="#1758FE"/>
<path d="M142.93 187.315C142.93 187.315 141.151 197.803 143.581 202.153C146.012 206.503 149.958 208.898 153.852 208.4C155.735 208.162 163.259 197.471 163.259 197.471L152.467 185.799L142.93 187.315Z" fill="#1758FE"/>
<path d="M190.43 344.18H144.653L148.11 330.465L168.58 330.24L190.43 344.18Z" fill="#FE6A17"/>
<path d="M246.325 245.079L246.611 247.911L271.235 249.078L230.697 270.25L228.179 248.931L246.325 245.079Z" fill="#FE6A17"/>
<path d="M227.739 120.87L207.335 123.884L211.473 154.838L168.99 155.888L173.878 185.757L138.687 190.283C134.083 155.826 160.665 104.926 160.665 104.926L161.642 110.827C165.321 103.636 168.899 99.208 187.886 99.7065C207.015 100.212 212.754 100.837 212.754 100.837L208.762 82.9682L227.312 77.6831L235.852 108.377C236.23 109.734 236.316 111.156 236.103 112.549C235.889 113.941 235.382 115.273 234.615 116.454C233.847 117.636 232.838 118.641 231.652 119.402C230.466 120.163 229.132 120.663 227.739 120.87Z" fill="#FFC774"/>
<mask id="mask1_1083_1426" style="mask-type:luminance" maskUnits="userSpaceOnUse" x="138" y="77" width="99" height="114">
<path fill-rule="evenodd" clip-rule="evenodd" d="M227.738 120.87L207.334 123.884L211.472 154.838L168.989 155.888L173.877 185.757L138.686 190.283C134.082 155.826 160.664 104.926 160.664 104.926L161.642 110.827C165.32 103.636 168.898 99.208 187.885 99.7065C207.015 100.212 212.753 100.837 212.753 100.837L208.761 82.9682L227.311 77.6831L235.851 108.377C236.23 109.734 236.315 111.156 236.102 112.549C235.888 113.941 235.381 115.273 234.614 116.454C233.846 117.636 232.837 118.641 231.651 119.402C230.465 120.163 229.131 120.663 227.738 120.87Z" fill="white"/>
</mask>
<g mask="url(#mask1_1083_1426)">
<path d="M144.216 157.448C144.216 160.798 138.152 170.622 138.152 170.622C138.152 170.622 132.085 160.798 132.085 157.448C132.121 155.864 132.777 154.357 133.91 153.249C135.044 152.142 136.566 151.521 138.15 151.521C139.735 151.521 141.257 152.142 142.391 153.249C143.524 154.357 144.179 155.864 144.216 157.448Z" fill="#B49AC9"/>
<path d="M159.957 179.905C159.957 183.255 153.89 193.082 153.89 193.082C153.89 193.082 147.826 183.255 147.826 179.905C147.863 178.321 148.518 176.813 149.652 175.706C150.785 174.598 152.307 173.978 153.892 173.978C155.476 173.978 156.998 174.598 158.132 175.706C159.265 176.813 159.92 178.321 159.957 179.905Z" fill="#B49AC9"/>
<path d="M162.864 136.894C162.864 140.244 156.801 150.071 156.801 150.071C156.801 150.071 150.733 140.241 150.733 136.894C150.77 135.31 151.425 133.803 152.559 132.695C153.692 131.588 155.214 130.968 156.799 130.968C158.383 130.968 159.905 131.588 161.039 132.695C162.172 133.803 162.828 135.31 162.864 136.894Z" fill="#B49AC9"/>
<path d="M179.931 114.434C179.931 117.784 173.864 127.608 173.864 127.608C173.864 127.608 167.8 117.784 167.8 114.434C167.837 112.85 168.492 111.343 169.625 110.235C170.759 109.128 172.281 108.507 173.865 108.507C175.45 108.507 176.972 109.128 178.105 110.235C179.239 111.343 179.894 112.85 179.931 114.434Z" fill="#B49AC9"/>
<path d="M195.669 136.894C195.669 140.244 189.605 150.071 189.605 150.071C189.605 150.071 183.541 140.241 183.541 136.894C183.541 135.286 184.18 133.744 185.317 132.607C186.454 131.469 187.997 130.83 189.605 130.83C191.213 130.83 192.755 131.469 193.893 132.607C195.03 133.744 195.669 135.286 195.669 136.894Z" fill="#B49AC9"/>
<path d="M198.578 93.8835C198.578 97.2331 192.511 107.06 192.511 107.06C192.511 107.06 186.447 97.2266 186.447 93.8835C186.484 92.2993 187.139 90.7923 188.273 89.6847C189.406 88.5769 190.928 87.9572 192.513 87.9572C194.098 87.9572 195.62 88.5769 196.753 89.6847C197.886 90.7923 198.542 92.2993 198.578 93.8835Z" fill="#B49AC9"/>
<path d="M216.851 113.483C216.851 116.832 210.787 126.656 210.787 126.656C210.787 126.656 204.724 116.832 204.724 113.483C204.724 111.874 205.362 110.332 206.5 109.195C207.637 108.058 209.179 107.419 210.787 107.419C212.396 107.419 213.938 108.058 215.075 109.195C216.212 110.332 216.851 111.874 216.851 113.483Z" fill="#B49AC9"/>
<path d="M235.5 92.9257C235.5 96.2753 229.436 106.103 229.436 106.103C229.436 106.103 223.372 96.2753 223.372 92.9257C223.372 91.3173 224.011 89.7751 225.148 88.638C226.285 87.5008 227.828 86.8618 229.436 86.8618C231.044 86.8618 232.586 87.5008 233.724 88.638C234.861 89.7751 235.5 91.3173 235.5 92.9257Z" fill="#B49AC9"/>
</g>
<path d="M257.461 173.913L249.745 246.643L225.223 251.883L225.275 187.116L193.796 193.167L170.635 330.465L145.298 330.821L154.148 185.37C154.46 180.312 155.113 175.282 156.103 170.313L158.908 156.119L200.091 155.044L239.843 154.467C242.325 154.433 244.785 154.928 247.061 155.919C249.337 156.91 251.376 158.373 253.042 160.213C254.709 162.052 255.965 164.225 256.727 166.587C257.489 168.949 257.739 171.446 257.461 173.913Z" fill="#DADDF1"/>
<path d="M165.451 115.656L159.234 156.119C159.234 156.119 153.02 174.513 152.74 208.455" stroke="white" stroke-width="0.977515"/>
<path d="M183.542 72.7433L184.207 99.7162" stroke="#1758FE" stroke-width="13.0335" stroke-linecap="round" stroke-linejoin="round"/>
<path d="M190.341 92.7793L191.765 92.9814C193.418 93.2163 195.102 93.084 196.698 92.5939C198.293 92.1039 199.761 91.2684 200.997 90.1466C202.233 89.0247 203.207 87.6441 203.848 86.1032C204.49 84.5627 204.785 82.8993 204.711 81.2316L204.346 72.9716C204.225 70.305 203.17 67.766 201.365 65.7999C199.559 63.8338 197.12 62.566 194.473 62.2189C191.488 61.8276 188.47 62.6377 186.081 64.4705C183.693 66.3033 182.13 69.0094 181.736 71.9941L180.68 80.0521C180.29 83.0182 181.086 86.0188 182.894 88.4017C184.703 90.7846 187.379 92.3577 190.341 92.7793Z" fill="#1758FE"/>
<path d="M133.567 85.7703C134.366 103.809 147.673 102.427 147.673 102.427C147.673 102.427 138.002 123.252 159.273 118.833C180.544 114.415 187.031 98.3347 185.066 89.6771C184.281 86.2298 185.278 80.8143 182.896 78.4683C194.434 75.1252 194.476 69.9476 194.476 69.9476C194.476 69.9476 209.879 74.9036 207.836 60.3973C205.793 45.891 190.315 43.1604 181.544 44.454C179.695 44.731 177.898 45.2882 176.216 46.106C170.791 48.6899 166.836 52.6065 159.335 53.6981C138.608 56.7186 144.32 69.6641 144.32 69.6641C144.32 69.6641 133.03 73.5677 133.567 85.7703Z" fill="#DADDF1"/>
<path d="M202.306 76.1614C203.138 76.1614 203.812 75.6202 203.812 74.9525C203.812 74.2849 203.138 73.7437 202.306 73.7437C201.475 73.7437 200.801 74.2849 200.801 74.9525C200.801 75.6202 201.475 76.1614 202.306 76.1614Z" fill="white"/>
<path d="M201.606 83.8609C201.606 83.8609 199.944 83.8609 199.905 82.1633L201.606 83.8609Z" fill="#1758FE"/>
<path d="M201.606 83.8609C201.606 83.8609 199.944 83.8609 199.905 82.1633" stroke="white" stroke-width="0.977515" stroke-linecap="square"/>
<path d="M190.394 83.2094L190.651 83.0302C192.57 81.6617 193.225 78.6249 192.104 76.2788L190.042 71.9484C188.921 69.6057 186.435 68.8041 184.503 70.1694L184.248 70.3518C182.326 71.7204 181.671 74.7572 182.792 77.1032L184.858 81.4303C185.988 83.7829 188.475 84.5779 190.394 83.2094Z" fill="#1758FE"/>
<path d="M185.018 72.3882L188.142 78.931" stroke="white" stroke-width="0.977515" stroke-linecap="square"/>
<path d="M194.119 193.916C194.119 193.916 189.401 193.962 185.054 192.58C179.762 190.899 178.062 189.407 178.062 189.407" stroke="white" stroke-width="0.977515"/>
<path d="M212.926 100.361L218.028 100.785" stroke="white" stroke-width="0.977515" stroke-linecap="square"/>
<path d="M411 143.305L431.851 166L453 143" stroke="white" stroke-width="47" stroke-linecap="round"/>
</svg>
