<svg width="539" height="371" viewBox="0 0 539 371" fill="none" xmlns="http://www.w3.org/2000/svg">
<path d="M441.585 47.5734H279.104V149.64H441.585V47.5734Z" fill="#081638"/>
<path d="M243.409 248.96H169.061V326.468H243.409V248.96Z" fill="#081638"/>
<path d="M422.356 274.783H323.074V321.155H422.356V274.783Z" fill="#081638"/>
<path d="M126.902 41.4344H26.1836V153.278H126.902V41.4344Z" fill="#081638"/>
<path d="M255.855 5.87634H148.049V122.594H255.855V5.87634Z" fill="#081638"/>
<path d="M261.188 142.153H153.438V233.121H261.188V142.153Z" fill="#081638"/>
<path d="M538.91 113.679H464.834V189.554H538.91V113.679Z" fill="#081638"/>
<path d="M505.243 36.6929H466.883V95.3076H505.243V36.6929Z" fill="#081638"/>
<path d="M415.738 0.00012207H304.952V36.6369H415.738V0.00012207Z" fill="#081638"/>
<path d="M505.239 217.713H464.834V302.62H505.239V217.713Z" fill="#081638"/>
<path d="M446.627 170.304H341.031V258.867H446.627V170.304Z" fill="#081638"/>
<path d="M121.498 172.847H0V249.055H121.498V172.847Z" fill="#081638"/>
<path d="M152.577 266.848H81.8916V308.58H152.577V266.848Z" fill="#081638"/>
<path d="M285.548 281.23L260.265 370.304" stroke="#475056" stroke-width="1.75095"/>
<path d="M306.91 281.23L281.626 370.304" stroke="#475056" stroke-width="1.75095"/>
<path d="M337.656 281.23L362.94 370.304" stroke="#475056" stroke-width="1.75095"/>
<path d="M359.018 281.23L384.301 370.304" stroke="#475056" stroke-width="1.75095"/>
<path d="M296.751 125.438C304.959 125.438 311.613 116.94 311.613 106.458C311.613 95.9752 304.959 87.4775 296.751 87.4775C288.543 87.4775 281.889 95.9752 281.889 106.458C281.889 116.94 288.543 125.438 296.751 125.438Z" fill="#24272D"/>
<path d="M185.208 207.981C185.208 202.028 192.527 197.237 201.555 197.237C210.583 197.237 217.898 202.046 217.898 207.981" fill="#FE6A17"/>
<path d="M182.76 192.643H226.779V197.237H185.313C184.844 197.236 184.379 197.143 183.946 196.962C183.513 196.782 183.119 196.518 182.788 196.185C182.457 195.852 182.195 195.458 182.016 195.023C181.838 194.589 181.747 194.124 181.748 193.655C181.751 193.387 181.858 193.131 182.047 192.942C182.237 192.753 182.493 192.646 182.76 192.643Z" fill="#DADDF1"/>
<path d="M223.494 202.844H201.187C199.769 202.844 198.62 203.993 198.62 205.411V205.414C198.62 206.832 199.769 207.981 201.187 207.981H223.494C224.912 207.981 226.061 206.832 226.061 205.414V205.411C226.061 203.993 224.912 202.844 223.494 202.844Z" fill="#DADDF1"/>
<path d="M203.54 193.539H236.08V203.74H209.574C207.974 203.74 206.439 203.105 205.307 201.973C204.176 200.841 203.54 199.307 203.54 197.707V193.539Z" fill="#DADDF1"/>
<path d="M368.042 174.755H348.358V207.943H384.854C395.052 207.943 400.084 195.539 392.762 188.444C379.066 175.168 361.752 159.294 353.316 155.218C338.16 147.892 313.304 147.314 302.385 149.902C291.466 152.49 267.044 178.618 267.044 178.618L221.354 185.1V208.562H263.311C268.572 208.563 273.756 207.3 278.428 204.882L297.5 195.021C297.5 195.021 308.131 211.479 310.859 223.431H361.367C361.367 223.431 358.163 199.72 357.267 186.196" fill="white"/>
<mask id="mask0_1083_1551" style="mask-type:luminance" maskUnits="userSpaceOnUse" x="221" y="148" width="176" height="76">
<path fill-rule="evenodd" clip-rule="evenodd" d="M368.042 174.755H348.358V207.943H384.854C395.052 207.943 400.084 195.539 392.762 188.444C379.066 175.168 361.752 159.294 353.316 155.218C338.16 147.892 313.304 147.314 302.385 149.902C291.466 152.49 267.044 178.618 267.044 178.618L221.354 185.1V208.562H263.311C268.572 208.563 273.756 207.3 278.428 204.882L297.5 195.021C297.5 195.021 308.131 211.479 310.859 223.431H361.367C361.367 223.431 358.163 199.72 357.267 186.196" fill="white"/>
</mask>
<g mask="url(#mask0_1083_1551)">
<path d="M251.965 188.076L239.431 169.306L226.895 188.076H251.965Z" fill="#FEA217"/>
<path d="M388.989 188.076L376.456 169.306L363.923 188.076H388.989Z" fill="#FEA217"/>
<path d="M296.662 188.076L284.129 169.306L271.596 188.076H296.662Z" fill="#FEA217"/>
<path d="M341.364 188.076L328.827 169.306L316.294 188.076H341.364Z" fill="#FEA217"/>
<path d="M319.884 162.159L307.347 143.392L294.813 162.159H319.884Z" fill="#FEA217"/>
<path d="M274.625 216.834L262.088 198.067L249.555 216.834H274.625Z" fill="#FEA217"/>
<path d="M319.884 216.834L307.347 198.067L294.813 216.834H319.884Z" fill="#FEA217"/>
<path d="M367.3 216.834L354.766 198.067L342.229 216.834H367.3Z" fill="#FEA217"/>
</g>
<path d="M348.358 207.943H384.854C395.052 207.943 400.084 195.539 392.762 188.444C379.066 175.168 361.752 159.294 353.316 155.218C338.16 147.892 313.304 147.314 302.385 149.902C291.466 152.49 267.044 178.618 267.044 178.618L221.354 185.1V208.562H263.311C268.572 208.563 273.756 207.3 278.428 204.882L297.5 195.021C297.5 195.021 308.131 211.479 310.859 223.431H361.367C361.367 223.431 360.87 221.53 359.427 207.988" stroke="#25282D" stroke-width="1.05057"/>
<path d="M368.038 174.755H348.357" stroke="#25282D" stroke-width="1.05057"/>
<path d="M371.845 265.447H272.608V281.934H371.845V265.447Z" fill="#DADDF1"/>
<path d="M280.26 370.413H323.319L328.747 370.353L324.594 352.917L305.113 354.49L280.26 370.413Z" fill="#FE6A17"/>
<path d="M181.885 345.76L218.938 367.703L223.638 370.413L232.743 345.504L213.132 343.347L181.885 345.76Z" fill="#FE6A17"/>
<path d="M319.176 159.049C316.966 159.048 314.816 158.326 313.053 156.993C311.291 155.659 310.011 153.787 309.409 151.66L299.975 118.368C299.595 117.08 299.474 115.729 299.619 114.394C299.764 113.059 300.173 111.766 300.821 110.59C301.47 109.413 302.345 108.378 303.396 107.542C304.448 106.706 305.655 106.088 306.947 105.722C308.239 105.355 309.591 105.249 310.924 105.409C312.258 105.569 313.546 105.992 314.715 106.653C315.884 107.314 316.91 108.201 317.734 109.261C318.558 110.322 319.164 111.535 319.516 112.831L328.95 146.124C329.313 147.407 329.421 148.75 329.266 150.074C329.11 151.399 328.696 152.68 328.045 153.845C327.395 155.009 326.522 156.034 325.475 156.861C324.429 157.688 323.229 158.301 321.946 158.664C321.044 158.918 320.113 159.048 319.176 159.049Z" fill="#DADDF1"/>
<path d="M309.897 144.268L308.125 144.758C306.061 145.328 303.898 145.437 301.788 145.077C299.678 144.716 297.673 143.895 295.916 142.672C294.16 141.448 292.694 139.853 291.624 137.999C290.554 136.145 289.906 134.078 289.726 131.945L288.826 121.379C288.536 117.967 289.458 114.562 291.43 111.762C293.402 108.962 296.298 106.946 299.608 106.069C303.343 105.08 307.319 105.616 310.66 107.558C314 109.5 316.433 112.689 317.422 116.424L320.087 126.499C321.069 130.206 320.55 134.15 318.642 137.477C316.734 140.803 313.592 143.243 309.897 144.268Z" fill="#DADDF1"/>
<path d="M295.955 122.594L293.444 131.899L297.118 131.969" stroke="#25282D" stroke-width="1.05057"/>
<path d="M300.385 126.212C301.37 126.212 302.167 125.414 302.167 124.429C302.167 123.445 301.37 122.647 300.385 122.647C299.401 122.647 298.603 123.445 298.603 124.429C298.603 125.414 299.401 126.212 300.385 126.212Z" fill="#24272D"/>
<path d="M291.82 126.212C292.804 126.212 293.602 125.414 293.602 124.429C293.602 123.445 292.804 122.647 291.82 122.647C290.835 122.647 290.037 123.445 290.037 124.429C290.037 125.414 290.835 126.212 291.82 126.212Z" fill="#24272D"/>
<path d="M300.893 135.495C300.893 135.495 303.078 135.376 303.982 133.475" stroke="#25282D" stroke-width="1.05057"/>
<path d="M383.223 133.948C385.188 157.018 365.679 149.517 365.679 149.517C365.679 149.517 378.146 174.839 350.246 172.724C322.346 170.609 314.733 150.788 315.815 139.456C316.246 134.939 318.596 131.44 321.25 128.064C305.961 125.711 306.192 115.226 306.192 115.226C306.192 115.226 281.679 124.748 281.878 105.964C282.078 87.1797 301.412 81.1565 312.838 81.3561C315.246 81.4062 317.632 81.8194 319.916 82.5818C327.27 84.9771 332.971 88.8852 342.734 89.0322C369.699 89.4595 372.297 114.929 372.297 114.929C372.297 114.929 381.896 118.336 383.223 133.948Z" fill="#19F0FE"/>
<path d="M324.265 122.379C325.673 119.039 324.108 115.191 320.769 113.783C317.43 112.376 313.582 113.942 312.174 117.282L309.857 122.777C308.449 126.117 310.014 129.965 313.353 131.373C316.692 132.78 320.54 131.214 321.948 127.874L324.265 122.379Z" fill="#DADDF1"/>
<path d="M319.261 117.923L315.969 125.718" stroke="#25282D" stroke-width="1.05057"/>
<path opacity="0.68" d="M326.296 178.611L342.944 161.963C347.131 157.775 352.812 155.422 358.734 155.421H378.369L381.952 151.835C384.799 148.991 388.658 147.393 392.681 147.391H405.358C407.578 147.393 409.708 148.275 411.276 149.845C412.849 151.415 413.731 153.544 413.731 155.765C413.728 157.985 412.845 160.114 411.276 161.683C409.704 163.253 407.575 164.134 405.355 164.134H357.19C354.224 164.134 351.285 164.718 348.547 165.853C345.807 166.988 343.318 168.652 341.221 170.749L331.951 180.019" fill="#CBCFD3"/>
<path d="M352.309 176.552H367.178" stroke="white" stroke-width="1.05057" stroke-linecap="square"/>
<path d="M353.313 223.425H271.778C265.661 223.425 259.679 225.219 254.571 228.586C249.464 231.953 245.457 236.744 243.045 242.366L202.14 337.8L237.887 354.609L278.779 265.447H351.051L353.313 223.425Z" fill="#1758FE"/>
<path d="M353.316 223.421V265.444H330.606V354.339H292.327V249.374C292.327 242.491 295.061 235.891 299.927 231.024C304.793 226.157 311.394 223.422 318.276 223.421H353.316Z" fill="#1758FE"/>
<path d="M292.327 265.447V249.374C292.327 242.491 295.061 235.891 299.927 231.024C304.793 226.157 311.394 223.422 318.276 223.421" stroke="white" stroke-width="1.05057" stroke-linecap="square"/>
<path d="M354.689 218.718H371.849V270.725H338.983V234.424C338.983 230.259 340.638 226.264 343.583 223.318C346.529 220.373 350.526 218.718 354.689 218.718Z" fill="#DADDF1"/>
<path d="M344.443 175.186H319.832V208.552H344.443V175.186Z" fill="#FE6A17"/>
<path d="M349.829 177.648H344.114C341.356 177.648 339.12 179.883 339.12 182.642V199.269C339.12 202.027 341.356 204.262 344.114 204.262H349.829C352.588 204.262 354.823 202.027 354.823 199.269V182.642C354.823 179.883 352.588 177.648 349.829 177.648Z" fill="#FE6A17"/>
<path d="M344.442 181.689H347.097C347.611 181.689 348.12 181.789 348.595 181.986C349.07 182.182 349.502 182.47 349.866 182.833C350.231 183.197 350.518 183.628 350.714 184.102C350.914 184.577 351.015 185.087 351.015 185.601V196.299C351.015 197.337 350.602 198.333 349.869 199.067C349.135 199.801 348.139 200.214 347.1 200.214H344.446V181.689H344.442Z" fill="white"/>
<path d="M328.688 189.68L332.112 193.333L335.586 189.631" stroke="white" stroke-width="8.05436" stroke-linecap="round"/>
<path d="M115.097 208.657L69.208 370.305" stroke="#475056" stroke-width="1.75095"/>
<path d="M164.795 208.657L118.91 370.305" stroke="#475056" stroke-width="1.75095"/>
<path d="M399.763 208.492L445.694 370.304" stroke="#475056" stroke-width="1.75095"/>
<path d="M350.011 208.492L395.945 370.304" stroke="#475056" stroke-width="1.75095"/>
<path d="M348.162 180.824C346.341 182.442 345.763 198.883 348.162 200.084C350.561 201.286 363.444 199.227 363.444 190.16C363.444 181.094 350.767 178.509 348.162 180.824Z" fill="#DADDF1"/>
<path d="M298.74 174.451L294.32 187.639L297.5 195.014" stroke="#25282D" stroke-width="1.05057"/>
<path d="M228.271 104.143V175.26C228.271 176.374 227.828 177.443 227.04 178.231C226.252 179.019 225.183 179.462 224.069 179.462H221.268C222.382 179.462 223.451 179.019 224.239 178.231C225.027 177.443 225.47 176.374 225.47 175.26V104.143C225.47 103.028 225.027 101.96 224.239 101.172C223.451 100.383 222.382 99.9408 221.268 99.9408H224.069C225.183 99.9408 226.252 100.383 227.04 101.172C227.828 101.96 228.271 103.028 228.271 104.143Z" fill="#24272D"/>
<path d="M221.267 99.9408H93.2589C90.9379 99.9408 89.0566 101.822 89.0566 104.143V175.26C89.0566 177.58 90.9379 179.462 93.2589 179.462H221.267C223.588 179.462 225.469 177.58 225.469 175.26V104.143C225.469 101.822 223.588 99.9408 221.267 99.9408Z" fill="#FE6A17"/>
<path d="M160.064 132.13C164.199 132.13 167.551 128.778 167.551 124.643C167.551 120.508 164.199 117.156 160.064 117.156C155.929 117.156 152.577 120.508 152.577 124.643C152.577 128.778 155.929 132.13 160.064 132.13Z" fill="white"/>
<path d="M166.442 110.033C166.442 110.033 166.491 112.786 164.827 114.449C163.164 116.112 160.411 116.063 160.411 116.063C160.411 116.063 160.359 113.311 162.026 111.647C163.693 109.984 166.442 110.033 166.442 110.033Z" fill="white"/>
<path d="M151.057 208.555H123.399L143.987 143.725H171.645L151.057 208.555Z" fill="#FE6A17"/>
<path d="M132.638 179.462L143.987 143.725H171.645" stroke="white" stroke-width="1.05057"/>
<path d="M160.3 179.462H171.646V143.725L160.3 179.462Z" fill="#24272D"/>
<path d="M170.066 203.74H134.438V207.978H170.066V203.74Z" fill="#FE6A17"/>
<path d="M73.3789 208.555H431.217" stroke="#475056" stroke-width="1.75095"/>
<path d="M152.252 179.462C152.163 179.767 152.058 180.067 151.937 180.362C150.358 184.186 146.52 186.224 143.361 184.914C141.26 184.042 139.989 181.913 139.838 179.455C139.767 178.146 139.993 176.839 140.5 175.631C142.079 171.807 145.921 169.768 149.079 171.078C151.972 172.283 153.303 175.907 152.252 179.462Z" fill="white"/>
<path d="M152.252 179.462H139.82C139.749 178.153 139.976 176.846 140.482 175.638C142.062 171.814 145.903 169.775 149.062 171.085C151.972 172.283 153.303 175.907 152.252 179.462Z" fill="#24272D"/>
<path d="M189.655 205.053C191.165 205.053 192.39 203.829 192.39 202.318C192.39 200.808 191.165 199.583 189.655 199.583C188.144 199.583 186.92 200.808 186.92 202.318C186.92 203.829 188.144 205.053 189.655 205.053Z" fill="#FE6A17"/>
<path d="M271.316 265.447H278.779L279.105 258.864" stroke="white" stroke-width="1.05057"/>
<path d="M322.822 264.222L330.607 265.444V257.796" stroke="white" stroke-width="1.05057"/>
</svg>
