<svg width="556" height="338" viewBox="0 0 556 338" fill="none" xmlns="http://www.w3.org/2000/svg">
<path d="M555.451 310.014C555.189 312.8 554.351 315.503 552.988 317.948C551.628 320.395 549.775 322.533 547.546 324.224C546.816 324.781 546.047 325.29 545.25 325.745C541.447 327.908 537.045 328.781 532.703 328.234C528.359 327.687 524.311 325.752 521.162 322.713C518.92 320.556 517.203 317.916 516.144 314.991C515.107 312.13 514.73 309.07 515.037 306.041C515.344 303.012 516.327 300.091 517.915 297.494C519.502 294.897 521.655 292.691 524.21 291.038C526.768 289.385 529.662 288.328 532.681 287.946C535.701 287.563 538.771 287.865 541.658 288.828C544.545 289.791 547.179 291.392 549.364 293.511C551.549 295.63 553.231 298.214 554.284 301.07C555.334 303.927 555.729 306.984 555.442 310.014H555.451Z" fill="#F6F8FF"/>
<path d="M24.3809 314.514L86.6478 266.147" stroke="#DADDF1" stroke-width="4.42686"/>
<path d="M261.388 99.5803L408.954 188.266" stroke="#DADDF1" stroke-width="4.42686"/>
<path d="M344.67 311.475L444.897 251.82" stroke="#DADDF1" stroke-width="4.42686"/>
<path d="M177.714 135.773L149.695 178.195" stroke="#DADDF1" stroke-width="4.42686"/>
<path d="M523.679 99.5803L495.664 168.902" stroke="#DADDF1" stroke-width="4.42686"/>
<path d="M414.722 28.1183L522.136 92.9148" stroke="#DADDF1" stroke-width="4.42686"/>
<path d="M74.585 24.8013L177.326 59.8872" stroke="#DADDF1" stroke-width="4.42686"/>
<path d="M192.965 231.077C191.187 249.921 182.333 267.39 168.187 279.965C166.766 281.23 165.3 282.438 163.789 283.589C161.091 285.647 158.258 287.521 155.308 289.198C142.082 296.725 126.872 300.028 111.716 298.666L111.182 298.618C99.616 297.516 88.4644 293.741 78.6068 287.591C68.7491 281.443 60.4551 273.087 54.3789 263.184C53.5356 261.806 52.7315 260.399 51.9663 258.963C46.5329 248.65 43.5733 237.215 43.3212 225.561C43.0695 213.907 45.5321 202.355 50.5149 191.817C63.6563 164.099 93.1234 146.208 125.427 149.291C166.672 153.224 196.902 189.844 192.965 231.077Z" fill="#DADDF1"/>
<path d="M40.9812 318.776C40.7203 321.565 39.883 324.272 38.5224 326.719C37.1614 329.17 35.3069 331.31 33.0761 333.005C32.3456 333.562 31.5785 334.068 30.7804 334.523C28.4165 335.864 25.8077 336.714 23.1085 337.027C20.4093 337.34 17.6747 337.11 15.0668 336.348C12.4589 335.582 10.0307 334.305 7.92617 332.585C5.82167 330.868 4.08372 328.743 2.81527 326.34C2.37651 325.511 1.99513 324.651 1.67377 323.769C0.638142 320.907 0.259551 317.847 0.566048 314.82C0.872544 311.791 1.85626 308.869 3.44442 306.272C5.03256 303.675 7.18445 301.468 9.7408 299.816C12.2972 298.162 15.1925 297.106 18.2125 296.723C21.2326 296.341 24.3 296.642 27.1877 297.606C30.0753 298.569 32.7096 300.17 34.8949 302.289C37.0805 304.408 38.7611 306.992 39.8131 309.848C40.8651 312.705 41.261 315.763 40.9717 318.792L40.9812 318.776Z" fill="#DADDF1"/>
<path d="M534.901 228.664C533.852 239.554 530.43 250.082 524.878 259.509C519.328 268.937 511.784 277.036 502.772 283.238C493.76 289.441 483.499 293.597 472.71 295.415C461.925 297.233 450.87 296.669 440.322 293.763C429.776 290.856 419.993 285.677 411.658 278.59C403.326 271.502 396.641 262.677 392.078 252.734C387.519 242.79 385.185 231.969 385.248 221.029C385.312 210.089 387.765 199.295 392.442 189.405C405.583 161.686 435.05 143.795 467.354 146.878C508.6 150.812 538.844 187.431 534.901 228.664Z" fill="#DADDF1"/>
<path d="M285.805 83.0145C284.757 93.9065 281.339 104.437 275.789 113.868C270.24 123.299 262.694 131.402 253.682 137.607C244.669 143.812 234.408 147.97 223.618 149.79C212.828 151.609 201.77 151.045 191.221 148.138C180.672 145.23 170.887 140.05 162.553 132.96C154.218 125.87 147.536 117.042 142.975 107.095C138.413 97.1491 136.084 86.3252 136.15 75.3829C136.216 64.4407 138.675 53.6455 143.355 43.7546C156.496 16.0298 185.96 -1.85466 218.267 1.22833C259.503 5.16191 289.741 41.7815 285.805 83.0145Z" fill="#DADDF1"/>
<path d="M98.1895 27.2582C97.7743 31.6073 95.9672 35.7065 93.0363 38.9464C90.1054 42.1865 86.2072 44.3942 81.9211 45.2417C77.6353 46.0891 73.1904 45.531 69.247 43.6502C65.3036 41.7697 62.072 38.6668 60.0331 34.8028C59.5936 33.9737 59.2132 33.1146 58.8948 32.2321C57.8605 29.3701 57.4829 26.3121 57.7903 23.2844C58.0976 20.2568 59.0817 17.337 60.67 14.7411C62.2583 12.1452 64.4097 9.9397 66.9656 8.28769C69.5211 6.63571 72.4157 5.57956 75.4348 5.19743C78.4539 4.81526 81.5205 5.11689 84.4071 6.07995C87.294 7.04301 89.9271 8.64291 92.112 10.7612C94.297 12.8795 95.9776 15.462 97.0296 18.3176C98.0816 21.1731 98.4778 24.2287 98.1895 27.2582Z" fill="#DADDF1"/>
<path d="M357.906 316.443C357.546 320.243 356.12 323.867 353.796 326.893C351.469 329.922 348.335 332.231 344.755 333.555C341.173 334.884 337.293 335.171 333.556 334.39C329.818 333.609 326.375 331.791 323.627 329.141C321.388 326.985 319.671 324.344 318.612 321.42C317.578 318.558 317.198 315.5 317.508 312.471C317.815 309.445 318.798 306.525 320.386 303.929C321.973 301.333 324.126 299.128 326.681 297.475C329.236 295.823 332.129 294.767 335.149 294.384C338.169 294.002 341.236 294.304 344.123 295.266C347.01 296.229 349.641 297.829 351.826 299.946C354.011 302.065 355.693 304.647 356.746 307.502C357.799 310.359 358.194 313.413 357.906 316.443Z" fill="#DADDF1"/>
<path d="M545.466 95.5013C545.052 99.8507 543.243 103.95 540.315 107.191C537.384 110.431 533.485 112.639 529.201 113.487C524.913 114.335 520.467 113.777 516.524 111.896C512.581 110.016 509.349 106.913 507.31 103.049C506.87 102.219 506.491 101.36 506.168 100.478C505.131 97.6158 504.755 94.5568 505.062 91.5282C505.368 88.4996 506.352 85.5785 507.939 82.9815C509.526 80.3845 511.68 78.1778 514.235 76.525C516.793 74.8718 519.686 73.8151 522.706 73.4328C525.729 73.0502 528.796 73.3518 531.683 74.3153C534.57 75.2785 537.204 76.8791 539.389 78.9983C541.574 81.1175 543.256 83.7009 544.309 86.5575C545.359 89.4144 545.754 92.4708 545.466 95.5013Z" fill="#DADDF1"/>
<path d="M429.16 25.7815C428.897 28.5678 428.059 31.2695 426.697 33.7153C425.337 36.1615 423.484 38.2984 421.255 39.9917C420.524 40.5501 419.759 41.0573 418.959 41.5094C415.155 43.671 410.754 44.5441 406.412 43.998C402.071 43.4522 398.02 41.5164 394.871 38.4802C392.632 36.3234 390.915 33.6818 389.856 30.7585C388.822 27.8965 388.445 24.8387 388.752 21.8111C389.059 18.7835 390.042 15.8638 391.629 13.2679C393.217 10.6719 395.37 8.46632 397.925 6.81421C400.48 5.16211 403.376 4.10577 406.393 3.72338C409.413 3.341 412.48 3.64234 415.367 4.60515C418.254 5.56793 420.885 7.16751 423.073 9.28554C425.258 11.4035 426.937 13.9858 427.99 16.8412C429.043 19.6966 429.438 22.752 429.15 25.7815H429.16Z" fill="#DADDF1"/>
<path d="M387.383 183.22L389.315 179.707C390.127 177.953 390.848 176.159 391.477 174.331C392.451 171.463 392.11 167.375 396.375 163.514C400.641 159.653 394.333 160.719 392.202 162.499C390.425 163.982 388.979 168.19 387.212 169.139C386.807 168.568 386.488 167.942 386.263 167.28L382.399 149.174C382.342 148.884 382.184 148.624 381.953 148.441C381.719 148.259 381.429 148.166 381.134 148.181L380.426 148.203C380.255 148.212 380.088 148.257 379.933 148.335C379.781 148.413 379.645 148.522 379.538 148.655C379.427 148.788 379.348 148.942 379.304 149.108C379.256 149.274 379.247 149.447 379.272 149.617C379.866 153.49 381.931 165.016 381.723 165.022L381.296 165.224L375.37 146.885C375.288 146.595 375.101 146.346 374.848 146.185C374.592 146.024 374.289 145.962 373.991 146.012L373.043 146.17C372.878 146.196 372.72 146.255 372.581 146.344C372.439 146.433 372.319 146.55 372.224 146.687C372.132 146.825 372.066 146.98 372.034 147.143C372.002 147.306 372.006 147.475 372.04 147.637C372.951 151.855 377.21 165.892 376.995 165.904L376.474 166.081L370.045 150.904C369.957 150.601 369.754 150.345 369.479 150.187C369.207 150.029 368.885 149.982 368.578 150.056L367.822 150.243C367.664 150.281 367.516 150.35 367.386 150.446C367.256 150.542 367.146 150.663 367.06 150.801C366.978 150.94 366.921 151.094 366.896 151.254C366.87 151.414 366.88 151.578 366.918 151.735L372.701 166.666L372.17 167.001L366.112 156.216C365.995 155.938 365.78 155.713 365.508 155.582C365.239 155.452 364.929 155.425 364.638 155.507L364.278 155.615C363.968 155.706 363.708 155.913 363.55 156.193C363.392 156.473 363.348 156.803 363.43 157.114C364.012 159.327 366.908 163.972 368.594 168.813C369.912 172.564 370.004 175.567 372.18 180.108C373.097 182.034 374.842 184.32 375.794 185.594" fill="#1758FE"/>
<path d="M497.245 286.786C483.183 294.759 466.921 297.976 450.88 295.958C434.842 293.94 419.882 286.794 408.233 275.586L409.138 252.399L380.11 247.605C375.826 246.428 372.101 243.763 369.606 240.087C367.111 236.412 366.007 231.967 366.494 227.551L368.869 182.037L391.803 183.618L392.436 189.411L395.98 219.981C395.98 219.981 419.974 222.982 452.717 231.365C484.59 239.526 493.978 267.829 497.245 286.786Z" fill="#FE6A17"/>
<path d="M408.822 252.104L409.09 244.203" stroke="white" stroke-width="0.948612" stroke-linecap="square"/>
<path d="M472.271 202.984C481.062 191.777 479.809 176.12 469.473 168.012C459.139 159.905 443.633 162.418 434.842 173.625C426.052 184.832 427.304 200.489 437.64 208.596C447.977 216.703 463.481 214.19 472.271 202.984Z" fill="#081638"/>
<path d="M437.619 240.427C435.892 239.177 434.621 237.399 433.998 235.363C433.372 233.326 433.429 231.141 434.156 229.139L445.571 197.797C445.96 196.525 446.605 195.346 447.465 194.332C448.322 193.317 449.381 192.488 450.57 191.895C451.762 191.302 453.059 190.957 454.387 190.881C455.715 190.806 457.043 191.001 458.292 191.456C459.544 191.91 460.686 192.614 461.656 193.525C462.624 194.435 463.399 195.533 463.93 196.753C464.461 197.972 464.739 199.286 464.746 200.616C464.752 201.945 464.49 203.263 463.971 204.487L452.553 235.833C452.031 237.254 451.19 238.535 450.093 239.576C448.996 240.617 447.671 241.39 446.226 241.835C444.777 242.279 443.247 242.382 441.755 242.136C440.262 241.89 438.845 241.302 437.619 240.418V240.427Z" fill="#1758FE"/>
<path d="M439.556 222.951L437.659 222.245C435.452 221.426 433.454 220.131 431.806 218.452C430.156 216.773 428.9 214.751 428.119 212.53C427.341 210.309 427.063 207.944 427.303 205.603C427.544 203.262 428.296 201.003 429.507 198.985L435.515 188.993C437.454 185.767 440.467 183.326 444.028 182.1C447.585 180.874 451.461 180.941 454.978 182.29C458.943 183.812 462.14 186.846 463.869 190.726C465.596 194.606 465.713 199.014 464.192 202.979L460.081 213.676C458.57 217.613 455.569 220.796 451.724 222.532C447.882 224.268 443.509 224.419 439.556 222.951Z" fill="#1758FE"/>
<path d="M441.071 194.663L432.847 201.341L436.075 203.766" stroke="white" stroke-width="0.948612" stroke-linecap="square"/>
<path d="M443.161 199.381C444.119 199.381 444.897 198.604 444.897 197.645C444.897 196.686 444.119 195.909 443.161 195.909C442.203 195.909 441.425 196.686 441.425 197.645C441.425 198.604 442.203 199.381 443.161 199.381Z" fill="white"/>
<path d="M435.942 195.729C436.9 195.729 437.678 194.951 437.678 193.993C437.678 193.034 436.9 192.257 435.942 192.257C434.984 192.257 434.206 193.034 434.206 193.993C434.206 194.951 434.984 195.729 435.942 195.729Z" fill="white"/>
<path d="M488.568 249.565C488.568 249.565 480.562 269.61 464.966 260.705C439.148 245.961 444.451 226.571 451.73 217.702C454.63 214.17 458.687 212.604 462.92 211.321C450.611 200.465 456.663 191.82 456.663 191.82C456.663 191.82 423.74 189.705 434.386 174.088C445.033 158.47 464.049 160.516 474.13 167.299C497.561 183.071 489.586 199.147 494.933 205.066C525.247 238.656 488.568 249.565 488.568 249.565Z" fill="#081638"/>
<path d="M466.38 212.696C469.786 210.626 470.867 206.189 468.796 202.786C466.728 199.382 462.292 198.3 458.886 200.37L453.283 203.777C449.881 205.846 448.799 210.283 450.867 213.687C452.938 217.091 457.375 218.172 460.777 216.103L466.38 212.696Z" fill="#1758FE"/>
<path d="M464.85 205.496L456.9 210.324" stroke="white" stroke-width="0.948612" stroke-linecap="square"/>
<path d="M440.866 208.658C440.948 209.763 440.591 210.856 439.87 211.696C439.146 212.537 438.121 213.056 437.015 213.14C435.911 213.224 434.817 212.866 433.979 212.144C433.138 211.422 432.616 210.395 432.534 209.29C432.357 206.989 434.687 207.011 436.986 206.834C439.285 206.657 440.689 206.356 440.866 208.658Z" fill="white"/>
<path d="M259.235 133.443L256.629 135.527C253.931 137.585 251.098 139.459 248.148 141.136C239.413 146.087 229.772 149.234 219.797 150.391C209.823 151.548 199.718 150.691 190.081 147.87C180.443 145.05 171.471 140.324 163.694 133.971C155.917 127.62 149.494 119.771 144.807 110.891C156.715 102.139 176.652 91.6817 202.153 93.816C244.809 97.4049 259.235 133.443 259.235 133.443Z" fill="#1758FE"/>
<path d="M208.411 111.596C207.931 111.597 207.452 111.569 206.976 111.511C203.811 111.134 200.927 109.516 198.956 107.012C196.985 104.509 196.089 101.325 196.465 98.1606L202.157 50.2841C202.534 47.1196 204.153 44.2345 206.658 42.2636C207.898 41.2878 209.318 40.5659 210.837 40.1387C212.356 39.7119 213.944 39.5882 215.512 39.7751C217.078 39.962 218.593 40.4556 219.969 41.2281C221.345 42.0002 222.556 43.0361 223.532 44.276C224.508 45.5161 225.23 46.9365 225.657 48.4555C226.084 49.9746 226.207 51.5632 226.021 53.13L220.329 101.006C219.98 103.923 218.575 106.611 216.379 108.562C214.183 110.514 211.349 111.593 208.411 111.596Z" fill="#FE6A17"/>
<path d="M218.47 87.1378L221.018 87.4223C223.982 87.7566 226.983 87.4334 229.807 86.4759C232.632 85.5185 235.211 83.9504 237.36 81.8828C239.51 79.8154 241.177 77.2997 242.244 74.5143C243.311 71.7291 243.75 68.7432 243.532 65.7687L242.45 51.0336C242.101 46.2747 240.086 41.7909 236.759 38.3699C233.432 34.9489 229.006 32.8092 224.259 32.327C218.904 31.7837 213.552 33.39 209.381 36.7927C205.21 40.1954 202.561 45.1155 202.017 50.4707L200.55 64.9181C200.01 70.2351 201.589 75.5502 204.944 79.7101C208.299 83.8701 213.159 86.5389 218.47 87.1378Z" fill="#FE6A17"/>
<path d="M206.664 71.4759L206.666 71.474C210.177 69.3146 211.272 64.7183 209.112 61.2078L206.893 57.6018C204.734 54.0916 200.137 52.9966 196.627 55.156L196.624 55.1576C193.114 57.3172 192.019 61.9136 194.179 65.4237L196.397 69.0301C198.557 72.5402 203.153 73.6353 206.664 71.4759Z" fill="#FE6A17"/>
<path d="M197.468 60.9877L203.45 67.3118" stroke="white" stroke-width="0.948612" stroke-linecap="square"/>
<path d="M233.04 52.9055L233.461 64.7473L229.249 64.918" stroke="white" stroke-width="0.948612" stroke-linecap="square"/>
<path d="M220.493 68.5955C220.145 69.2389 219.927 69.945 219.852 70.6729C219.777 71.4008 219.845 72.1363 220.054 72.8377C220.263 73.539 220.608 74.1923 221.07 74.7602C221.531 75.3284 222.1 75.7999 222.743 76.148C223.387 76.4961 224.093 76.7143 224.821 76.7896C225.549 76.8648 226.284 76.7962 226.985 76.5872C227.687 76.3785 228.34 76.0332 228.908 75.5719C229.476 75.1105 229.948 74.542 230.296 73.8982C231.76 71.1883 228.911 69.952 226.185 68.488C223.459 67.0239 221.957 65.8888 220.493 68.5955Z" fill="white"/>
<path d="M208.23 66.4549L213.922 45.0764L215.272 40.0171C216.541 41.3768 218.026 42.517 219.668 43.391C225.625 46.5973 243.585 45.3198 246.074 32.7254C248.104 22.4551 237.198 28.3586 231.614 27.7168C222.839 26.7049 216.752 21.5413 204.736 28.033C190.365 35.8084 197.173 54.8692 197.173 54.8692C197.173 54.8692 203.497 52.3933 208.23 66.4549Z" fill="#081638"/>
<path d="M221.654 87.4855L214.043 86.793L220.993 93.5756L221.654 87.4855Z" fill="#081638"/>
<path d="M224.93 59.3022C226.084 59.3022 227.02 58.3665 227.02 57.2121C227.02 56.0576 226.084 55.1219 224.93 55.1219C223.775 55.1219 222.84 56.0576 222.84 57.2121C222.84 58.3665 223.775 59.3022 224.93 59.3022Z" fill="white"/>
<path d="M237.398 59.3022C238.552 59.3022 239.488 58.3665 239.488 57.2121C239.488 56.0576 238.552 55.1219 237.398 55.1219C236.243 55.1219 235.308 56.0576 235.308 57.2121C235.308 58.3665 236.243 59.3022 237.398 59.3022Z" fill="white"/>
<path d="M180.029 266.584C176.626 271.498 172.651 275.99 168.187 279.965C166.766 281.23 165.3 282.438 163.789 283.589C161.091 285.647 158.258 287.521 155.308 289.198C150.91 291.701 146.27 293.75 141.458 295.314L111.716 298.666L111.182 298.618C99.616 297.516 88.4644 293.741 78.6068 287.591C68.7491 281.442 60.4551 273.087 54.3789 263.184C65.62 242.571 85.7021 221.344 121.357 216.219C155.349 211.333 174.031 250.938 180.029 266.584Z" fill="#081638"/>
<path d="M125.905 233.951L125.525 233.976C121.905 234.142 118.368 232.863 115.691 230.422C113.014 227.98 111.416 224.575 111.249 220.955L109.035 172.943C108.952 171.151 109.223 169.359 109.832 167.671C110.441 165.984 111.377 164.432 112.586 163.106C115.027 160.428 118.432 158.829 122.052 158.661C125.672 158.494 129.21 159.771 131.888 162.212C134.566 164.653 136.165 168.058 136.333 171.678L138.547 219.687C138.713 223.243 137.484 226.723 135.123 229.387C132.762 232.052 129.455 233.689 125.905 233.951Z" fill="#1758FE"/>
<path d="M133.989 208.845L136.465 208.212C139.342 207.463 142.018 206.09 144.304 204.19C146.59 202.29 148.429 199.909 149.691 197.218C150.953 194.527 151.606 191.59 151.605 188.618C151.603 185.645 150.947 182.71 149.683 180.019L143.412 166.691C141.386 162.389 137.91 158.937 133.593 156.943C129.276 154.948 124.394 154.537 119.805 155.782C114.626 157.189 110.218 160.593 107.55 165.249C104.882 169.904 104.171 175.429 105.575 180.608L109.37 194.577C110.77 199.717 114.14 204.098 118.749 206.769C123.358 209.44 128.834 210.186 133.989 208.845Z" fill="#1758FE"/>
<path d="M106.985 199.856C110.249 202.352 114.919 201.73 117.415 198.466C119.911 195.202 119.289 190.532 116.025 188.036L112.675 185.473C109.411 182.977 104.741 183.599 102.245 186.863C99.7483 190.127 100.371 194.797 103.634 197.293L106.985 199.856Z" fill="#1758FE"/>
<path d="M153.458 193.888C155.387 201.904 154.09 213.66 144.383 216.117C134.676 218.574 122.625 210.811 120.601 202.811C118.578 194.812 120.794 190.344 130.508 187.884C140.222 185.423 150.938 183.431 153.458 193.888Z" fill="#081638"/>
<path d="M105.104 192.007L111.482 195.77" stroke="white" stroke-width="0.948612" stroke-linecap="square"/>
<path d="M129.361 195.125C129.201 196.571 129.615 198.021 130.514 199.165C131.412 200.309 132.724 201.055 134.167 201.242C135.609 201.43 137.067 201.044 138.229 200.168C139.39 199.292 140.161 197.995 140.377 196.557C140.772 193.515 137.677 193.395 134.635 192.984C131.593 192.573 129.756 192.083 129.361 195.125Z" fill="white"/>
<path d="M137.844 207.709L130.246 208.272L138.189 213.806L137.844 207.709Z" fill="#081638"/>
<path d="M128.424 183.09C129.573 183.09 130.505 182.158 130.505 181.009C130.505 179.86 129.573 178.929 128.424 178.929C127.275 178.929 126.344 179.86 126.344 181.009C126.344 182.158 127.275 183.09 128.424 183.09Z" fill="white"/>
<path d="M142.979 178.979C144.128 178.979 145.06 178.048 145.06 176.899C145.06 175.749 144.128 174.818 142.979 174.818C141.83 174.818 140.898 175.749 140.898 176.899C140.898 178.048 141.83 178.979 142.979 178.979Z" fill="white"/>
<path d="M105.737 297.047L114.06 302.628C114.06 302.628 113.69 322.479 122.42 321.42C122.42 321.42 122.455 324.556 124.229 324.857C126.003 325.157 130.838 317.752 130.838 317.752C130.838 317.752 137.478 315.247 138.79 308.835C140.102 302.422 140.343 287.276 138.294 286.135C136.245 284.993 116.03 284.493 116.03 284.493C116.03 284.493 107.638 285.512 105.737 297.047Z" fill="#1758FE"/>
<path d="M119.776 281.957L86.2168 269.568" stroke="white" stroke-width="0.948612" stroke-linecap="square"/>
<path d="M92.8799 271.421L111.71 248.503" stroke="white" stroke-width="0.948612" stroke-linecap="square"/>
<path d="M105.686 297.907C105.686 297.907 104.81 285.856 120.386 282.144" stroke="white" stroke-width="0.948612" stroke-linecap="square"/>
<path d="M137.069 173.705L141.686 184.573L137.828 186.236" stroke="white" stroke-width="0.948612" stroke-linecap="square"/>
</svg>
