<svg width="375" height="399" viewBox="0 0 375 399" fill="none" xmlns="http://www.w3.org/2000/svg">
<path opacity="0.32" fill-rule="evenodd" clip-rule="evenodd" d="M137.299 124.676C141.512 115.676 144.163 106.002 145.119 96.0698C149.694 48.1492 114.551 5.59017 66.6267 1.01859C29.0802 -2.56443 -5.16248 18.2208 -20.4354 50.4423C-20.7812 51.1732 -21.1166 51.9084 -21.4415 52.6475L-73.551 34.8522C-73.2528 33.6815 -73.0436 32.4843 -72.9278 31.2704C-72.5926 27.7496 -73.0531 24.1984 -74.2757 20.8797C-75.4983 17.5609 -77.4516 14.5596 -79.9909 12.0977C-82.5303 9.63587 -85.5904 7.77649 -88.9455 6.65722C-92.3004 5.53796 -95.8643 5.18741 -99.3731 5.63156C-102.882 6.07567 -106.246 7.30312 -109.216 9.22304C-112.186 11.143 -114.687 13.7062 -116.533 16.7231C-118.379 19.7401 -119.522 23.1334 -119.879 26.6521C-120.237 30.1709 -119.798 33.7249 -118.596 37.051C-118.226 38.0767 -117.784 39.0752 -117.273 40.0387C-114.903 44.5294 -111.147 48.1356 -106.564 50.3211C-101.982 52.5069 -96.8157 53.1555 -91.8347 52.1707C-86.8534 51.1858 -82.323 48.62 -78.9167 44.8543C-77.4957 43.2834 -76.3019 41.5387 -75.3581 39.6716L-23.3747 57.4239C-26.902 66.9383 -28.7478 77.0146 -28.809 87.2005C-28.8854 99.9175 -26.1781 112.497 -20.8771 124.056C-15.5764 135.616 -7.81024 145.876 1.87605 154.116C5.43188 157.141 9.21478 159.866 13.1854 162.272L-13.3554 202.456C-31.6535 210.972 -46.6661 225.697 -55.4306 244.183C-61.2215 256.43 -64.0835 269.856 -63.791 283.4C-63.4981 296.944 -60.0584 310.234 -53.7438 322.22C-52.8545 323.888 -51.92 325.523 -50.9399 327.126C-43.8782 338.634 -34.2389 348.345 -22.7824 355.491C-11.3259 362.638 1.63434 367.025 15.076 368.307L15.6971 368.362C33.3112 369.945 50.9886 366.106 66.3592 357.359C69.7872 355.41 73.0799 353.232 76.2153 350.84C77.9719 349.502 79.6756 348.098 81.3271 346.628C97.7679 332.014 108.058 311.711 110.124 289.811C114.699 241.89 79.5668 199.331 31.6314 194.76C18.8492 193.54 6.44913 195.145 -4.95011 199.065L17.673 164.813C23.2291 167.745 29.1023 170.076 35.1949 171.755C47.4547 175.135 60.3055 175.79 72.8457 173.676C85.3859 171.561 97.3113 166.729 107.786 159.517C118.26 152.305 127.03 142.888 133.479 131.928C133.993 131.054 134.492 130.172 134.974 129.282L260.074 204.466C259.02 206.321 258.03 208.221 257.11 210.163C251.675 221.657 248.823 234.202 248.749 246.917C248.676 259.631 251.388 272.207 256.687 283.763C261.99 295.319 269.759 305.576 279.442 313.813C280.737 314.914 282.062 315.975 283.415 316.996L224.908 351.819C224.015 350.513 222.991 349.295 221.847 348.187C219.308 345.725 216.251 343.866 212.895 342.747C209.54 341.629 205.975 341.278 202.466 341.723C198.956 342.167 195.594 343.395 192.625 345.315C189.655 347.235 187.153 349.798 185.308 352.815C183.463 355.832 182.32 359.225 181.964 362.743C181.604 366.263 182.045 369.817 183.246 373.143C184.477 376.542 186.473 379.61 189.075 382.117C192.268 385.196 196.27 387.309 200.614 388.217C204.958 389.125 209.467 388.79 213.63 387.247C217.79 385.707 221.432 383.024 224.137 379.504C226.838 375.987 228.495 371.776 228.914 367.358C229.249 363.838 228.789 360.288 227.566 356.968C227.491 356.765 227.413 356.564 227.333 356.363L288.02 320.242C295.612 325.234 303.955 329.021 312.755 331.447C325.015 334.825 337.862 335.48 350.397 333.368C362.936 331.255 374.861 326.424 385.334 319.216C395.808 312.007 404.576 302.594 411.026 291.638C417.479 280.681 421.455 268.446 422.675 255.79C425.309 228.25 414.819 202.48 396.32 184.674L417.899 131.28C421.19 132.071 424.632 132.149 427.991 131.485C432.97 130.5 437.502 127.933 440.908 124.167C444.311 120.401 446.413 115.637 446.895 110.582C447.229 107.06 446.77 103.508 445.55 100.188C444.326 96.8676 442.371 93.8652 439.832 91.4023C437.292 88.9394 434.231 87.0792 430.876 85.9598C427.521 84.8401 423.956 84.4895 420.443 84.9341C416.933 85.3784 413.571 86.6066 410.598 88.5278C407.968 90.2293 405.704 92.4358 403.939 95.0152L309.31 37.9314C310.63 35.3164 311.449 32.4754 311.725 29.5542H311.714C312.048 26.0334 311.589 22.4823 310.365 19.1638C309.141 15.8453 307.19 12.8443 304.65 10.3827C302.107 7.92118 299.05 6.06216 295.695 4.94323C292.339 3.82426 288.775 3.47404 285.265 3.91845C281.759 4.36285 278.393 5.59052 275.424 7.51058C272.455 9.43065 269.952 11.994 268.107 15.011C266.262 18.0279 265.119 21.4213 264.763 24.9399C264.407 28.4585 264.844 32.0123 266.046 35.3385C267.277 38.7359 269.272 41.8059 271.874 44.3126C275.534 47.8412 280.242 50.091 285.287 50.7253C290.333 51.3599 295.448 50.3453 299.869 47.8331C300.799 47.3076 301.688 46.7181 302.537 46.0692C304.008 44.9517 305.339 43.668 306.503 42.2467L401.511 99.5595C400.692 101.604 400.16 103.76 399.937 105.964C399.58 109.484 400.018 113.039 401.223 116.366C401.598 117.391 402.039 118.39 402.55 119.354C404.885 123.778 408.564 127.343 413.054 129.538L392.256 181C379.138 169.868 362.6 162.497 344.172 160.739C310.714 157.546 279.874 173.713 262.749 200.07L137.299 124.676Z" fill="#B5D6F4"/>
<path d="M251.23 202.975L253.476 198.892C254.42 196.854 255.258 194.769 255.989 192.645C257.121 189.312 256.724 184.56 261.682 180.073C266.639 175.586 259.308 176.824 256.831 178.893C254.765 180.617 253.086 185.508 251.032 186.611C250.561 185.947 250.19 185.219 249.929 184.45L245.439 163.407C245.372 163.07 245.189 162.768 244.92 162.556C244.648 162.344 244.31 162.236 243.969 162.253L243.145 162.279C242.947 162.29 242.752 162.342 242.572 162.432C242.396 162.523 242.238 162.649 242.113 162.804C241.984 162.959 241.892 163.138 241.841 163.33C241.786 163.523 241.775 163.724 241.804 163.922C242.495 168.423 244.895 181.818 244.652 181.826L244.156 182.061L237.269 160.747C237.174 160.41 236.957 160.121 236.663 159.933C236.365 159.746 236.012 159.675 235.667 159.732L234.564 159.916C234.373 159.946 234.19 160.015 234.028 160.119C233.863 160.222 233.723 160.357 233.613 160.517C233.506 160.677 233.429 160.857 233.392 161.047C233.355 161.237 233.359 161.432 233.4 161.621C234.458 166.524 239.408 182.836 239.158 182.851L238.552 183.057L231.081 165.417C230.978 165.066 230.743 164.768 230.423 164.585C230.107 164.401 229.732 164.347 229.376 164.433L228.497 164.649C228.313 164.694 228.141 164.775 227.99 164.886C227.839 164.997 227.711 165.138 227.612 165.299C227.516 165.46 227.45 165.639 227.42 165.825C227.391 166.011 227.402 166.201 227.446 166.384L234.168 183.737L233.55 184.126L226.509 171.591C226.373 171.269 226.123 171.007 225.807 170.855C225.495 170.703 225.135 170.673 224.797 170.768L224.378 170.893C224.018 170.998 223.716 171.239 223.532 171.564C223.349 171.89 223.297 172.274 223.393 172.635C224.069 175.207 227.435 180.606 229.394 186.232C230.926 190.59 231.033 194.082 233.561 199.359C234.627 201.597 236.656 204.254 237.762 205.735" fill="#1758FE"/>
<path d="M378.911 323.338C362.569 332.605 343.669 336.344 325.026 333.998C306.387 331.653 289.001 323.348 275.463 310.322L276.514 283.374L242.778 277.803C237.799 276.435 233.47 273.337 230.57 269.066C227.671 264.794 226.388 259.629 226.954 254.497L229.714 201.6L256.368 203.438L257.103 210.17L261.222 245.699C261.222 245.699 289.108 249.186 327.161 258.929C364.204 268.413 375.115 301.307 378.911 323.338Z" fill="#FEA217"/>
<path d="M276.146 292.585L276.458 283.401" stroke="white" stroke-width="3" stroke-linecap="square"/>
<path d="M349.887 235.497C360.103 222.472 358.648 204.276 346.635 194.854C334.625 185.432 316.603 188.352 306.387 201.377C296.171 214.401 297.626 232.598 309.639 242.02C321.653 251.442 339.671 248.522 349.887 235.497Z" fill="#081638"/>
<path d="M309.614 279.014C307.607 277.561 306.13 275.495 305.406 273.128C304.678 270.761 304.744 268.221 305.59 265.894L318.856 229.469C319.308 227.991 320.058 226.621 321.057 225.442C322.053 224.263 323.284 223.299 324.666 222.61C326.052 221.92 327.558 221.52 329.102 221.432C330.645 221.344 332.189 221.571 333.64 222.099C335.095 222.627 336.422 223.446 337.55 224.504C338.675 225.562 339.575 226.838 340.193 228.256C340.81 229.672 341.133 231.2 341.141 232.745C341.148 234.29 340.843 235.821 340.24 237.245L326.97 273.674C326.364 275.325 325.386 276.815 324.111 278.025C322.836 279.235 321.296 280.133 319.617 280.649C317.934 281.165 316.155 281.285 314.42 281C312.686 280.714 311.04 280.03 309.614 279.003V279.014Z" fill="#1758FE"/>
<path d="M311.866 258.702L309.661 257.883C307.096 256.931 304.773 255.426 302.859 253.474C300.94 251.522 299.481 249.172 298.574 246.591C297.67 244.01 297.346 241.262 297.626 238.541C297.905 235.82 298.78 233.194 300.187 230.85L307.169 219.237C309.422 215.487 312.924 212.651 317.062 211.226C321.196 209.801 325.702 209.879 329.788 211.447C334.397 213.215 338.112 216.742 340.122 221.251C342.129 225.761 342.265 230.883 340.497 235.492L335.72 247.924C333.963 252.499 330.476 256.198 326.007 258.216C321.542 260.234 316.46 260.408 311.866 258.702Z" fill="#1758FE"/>
<path d="M313.627 225.827L304.068 233.588L307.82 236.407" stroke="white" stroke-width="3" stroke-linecap="square"/>
<path d="M316.056 231.31C317.169 231.31 318.073 230.406 318.073 229.292C318.073 228.178 317.169 227.275 316.056 227.275C314.942 227.275 314.038 228.178 314.038 229.292C314.038 230.406 314.942 231.31 316.056 231.31Z" fill="white"/>
<path d="M307.666 227.065C308.779 227.065 309.683 226.162 309.683 225.048C309.683 223.934 308.779 223.03 307.666 223.03C306.552 223.03 305.648 223.934 305.648 225.048C305.648 226.162 306.552 227.065 307.666 227.065Z" fill="white"/>
<path d="M368.827 289.634C368.827 289.634 359.522 312.929 341.398 302.581C311.392 285.445 317.555 262.91 326.015 252.602C329.385 248.497 334.1 246.678 339.02 245.186C324.714 232.57 331.748 222.523 331.748 222.523C331.748 222.523 293.485 220.065 305.858 201.914C318.231 183.764 340.332 186.142 352.048 194.024C379.279 212.355 370.011 231.038 376.225 237.917C411.456 276.956 368.827 289.634 368.827 289.634Z" fill="#081638"/>
<path d="M343.04 246.784C346.998 244.379 348.255 239.223 345.848 235.267C343.444 231.311 338.289 230.055 334.331 232.459L327.819 236.419C323.865 238.824 322.608 243.981 325.011 247.937C327.418 251.892 332.574 253.149 336.528 250.744L343.04 246.784Z" fill="#1758FE"/>
<path d="M341.261 238.417L332.022 244.029" stroke="white" stroke-width="3" stroke-linecap="square"/>
<path d="M313.388 242.092C313.483 243.376 313.068 244.646 312.23 245.623C311.389 246.6 310.198 247.204 308.912 247.301C307.629 247.398 306.358 246.982 305.384 246.143C304.406 245.304 303.8 244.111 303.704 242.827C303.499 240.152 306.207 240.177 308.879 239.971C311.55 239.766 313.182 239.417 313.388 242.092Z" fill="white"/>
<path d="M114.238 154.677L111.21 157.099C108.075 159.491 104.782 161.669 101.354 163.618C91.2014 169.372 79.997 173.03 68.4045 174.375C56.8124 175.719 45.0682 174.723 33.8682 171.445C22.6678 168.167 12.2399 162.674 3.20151 155.292C-5.83653 147.91 -13.301 138.788 -18.749 128.468C-4.90936 118.296 18.2609 106.143 47.8989 108.623C97.4733 112.794 114.238 154.677 114.238 154.677Z" fill="#1758FE"/>
<path d="M55.172 129.287C54.6141 129.289 54.057 129.256 53.5036 129.188C49.8261 128.75 46.4735 126.87 44.1829 123.96C41.892 121.05 40.8509 117.35 41.2882 113.673L47.903 58.031C48.3414 54.3532 50.223 51.0002 53.1339 48.7096C54.5752 47.5756 56.2256 46.7366 57.991 46.2401C59.7568 45.744 61.6027 45.6003 63.424 45.8175C65.2449 46.0347 67.0055 46.6083 68.6048 47.5061C70.2041 48.4035 71.6109 49.6074 72.745 51.0484C73.879 52.4896 74.7184 54.1404 75.2145 55.9058C75.711 57.6713 75.8547 59.5175 75.6375 61.3384L69.0227 116.98C68.6173 120.37 66.9846 123.494 64.4323 125.762C61.8801 128.029 58.5859 129.284 55.172 129.287Z" fill="#FEA217"/>
<path d="M66.8615 100.862L69.8235 101.193C73.2676 101.581 76.7554 101.206 80.0382 100.093C83.3207 98.9801 86.3179 97.1577 88.8161 94.7547C91.3143 92.352 93.2524 89.4283 94.492 86.191C95.7315 82.9542 96.2427 79.484 95.9888 76.027L94.7319 58.902C94.3255 53.3713 91.9839 48.1603 88.1175 44.1844C84.2511 40.2085 79.1074 37.7217 73.5903 37.1613C67.3661 36.5299 61.1463 38.3968 56.2984 42.3513C51.4508 46.3059 48.3727 52.024 47.741 58.2478L46.0359 75.0385C45.4082 81.2178 47.2431 87.3949 51.1421 92.2296C55.0412 97.0643 60.6895 100.166 66.8615 100.862Z" fill="#FEA217"/>
<path d="M53.1406 82.6596L53.1436 82.6574C57.2234 80.1479 58.496 74.806 55.9861 70.7261L53.4078 66.5353C50.8978 62.4558 45.556 61.1832 41.4765 63.6928L41.4732 63.6946C37.3937 66.2046 36.1211 71.5464 38.631 75.6259L41.2093 79.8171C43.7193 83.8966 49.0607 85.1692 53.1406 82.6596Z" fill="#FEA217"/>
<path d="M42.4531 70.4705L49.406 77.8203" stroke="white" stroke-width="3" stroke-linecap="square"/>
<path d="M83.7959 61.0776L84.2846 74.8401L79.3896 75.0386" stroke="white" stroke-width="3" stroke-linecap="square"/>
<path d="M69.2136 79.3124C68.809 80.0602 68.5558 80.8808 68.468 81.7268C68.3805 82.5728 68.4603 83.4275 68.7032 84.2426C68.9457 85.0577 69.347 85.817 69.8832 86.477C70.4193 87.1374 71.0805 87.6853 71.8283 88.0899C72.5765 88.4945 73.3968 88.7481 74.2427 88.8355C75.0887 88.923 75.9435 88.8432 76.7585 88.6003C77.5736 88.3578 78.3329 87.9565 78.9929 87.4203C79.6533 86.8842 80.2012 86.2234 80.6058 85.4752C82.3073 82.3258 78.9962 80.8889 75.8284 79.1874C72.6607 77.486 70.9151 76.1667 69.2136 79.3124Z" fill="white"/>
<path d="M54.962 76.8243L61.5769 51.9784L63.146 46.0985C64.6204 47.6787 66.3465 49.0039 68.2541 50.0196C75.1777 53.746 96.0511 52.2613 98.9432 37.6242C101.303 25.6881 88.6278 32.5492 82.1379 31.8032C71.9401 30.6272 64.8659 24.6261 50.9013 32.1707C34.1989 41.2072 42.1109 63.3595 42.1109 63.3595C42.1109 63.3595 49.4607 60.4821 54.962 76.8243Z" fill="#081638"/>
<path d="M70.5623 101.266L61.7168 100.461L69.7942 108.344L70.5623 101.266Z" fill="#081638"/>
<path d="M74.3695 68.5118C75.7109 68.5118 76.7986 67.4244 76.7986 66.0827C76.7986 64.741 75.7109 63.6536 74.3695 63.6536C73.0278 63.6536 71.9404 64.741 71.9404 66.0827C71.9404 67.4244 73.0278 68.5118 74.3695 68.5118Z" fill="white"/>
<path d="M88.8598 68.5118C90.2015 68.5118 91.2889 67.4244 91.2889 66.0827C91.2889 64.741 90.2015 63.6536 88.8598 63.6536C87.5181 63.6536 86.4307 64.741 86.4307 66.0827C86.4307 67.4244 87.5181 68.5118 88.8598 68.5118Z" fill="white"/>
<path d="M95.09 331.076C91.1354 336.788 86.5157 342.008 81.3275 346.628C79.676 348.098 77.9723 349.502 76.2157 350.84C73.0803 353.232 69.7876 355.41 66.3596 357.359C61.2486 360.267 55.8557 362.648 50.2636 364.466L15.6975 368.362L15.0764 368.306C1.63474 367.025 -11.3255 362.638 -22.782 355.491C-34.2385 348.345 -43.8778 338.634 -50.9395 327.125C-37.8752 303.169 -14.5359 278.499 26.9022 272.542C66.4074 266.865 88.1187 312.893 95.09 331.076Z" fill="#081638"/>
<path d="M32.1861 293.151L31.7451 293.181C27.5381 293.373 23.427 291.887 20.3158 289.049C17.2043 286.212 15.3474 282.254 15.153 278.047L12.5805 222.248C12.4839 220.165 12.7985 218.083 13.5066 216.121C14.2148 214.16 15.3022 212.357 16.7067 210.816C19.5437 207.703 23.5012 205.845 27.7083 205.65C31.9153 205.455 36.0275 206.94 39.1401 209.777C42.2528 212.614 44.1108 216.571 44.3059 220.778L46.8784 276.574C47.0713 280.707 45.644 284.751 42.8999 287.847C40.1559 290.944 36.3119 292.847 32.1861 293.151Z" fill="#1758FE"/>
<path d="M41.5834 263.973L44.4609 263.238C47.8039 262.367 50.9144 260.771 53.571 258.563C56.2275 256.354 58.3652 253.588 59.8315 250.46C61.2982 247.332 62.0574 243.92 62.0556 240.465C62.0541 237.011 61.2912 233.599 59.822 230.472L52.5346 214.982C50.1798 209.982 46.1396 205.971 41.1222 203.653C36.1053 201.334 30.432 200.857 25.0978 202.304C19.0795 203.938 13.9567 207.895 10.8554 213.306C7.75453 218.716 6.92878 225.137 8.5608 231.156L12.9707 247.391C14.5976 253.365 18.5143 258.456 23.8708 261.56C29.2273 264.664 35.5919 265.531 41.5834 263.973Z" fill="#1758FE"/>
<path d="M10.1973 253.525C13.9909 256.427 19.418 255.703 22.319 251.91C25.2203 248.117 24.4971 242.69 20.7039 239.788L16.8099 236.81C13.0167 233.909 7.58962 234.632 4.68829 238.425C1.78695 242.219 2.51018 247.646 6.30341 250.547L10.1973 253.525Z" fill="#1758FE"/>
<path d="M64.2098 246.59C66.4515 255.906 64.9448 269.569 53.6629 272.425C42.3809 275.28 28.3759 266.258 26.024 256.961C23.672 247.663 26.2481 242.471 37.5374 239.611C48.8267 236.752 61.2809 234.437 64.2098 246.59Z" fill="#081638"/>
<path d="M8.01367 244.404L15.4259 248.777" stroke="white" stroke-width="3" stroke-linecap="square"/>
<path d="M36.2029 248.027C36.0177 249.708 36.4991 251.393 37.5435 252.723C38.5876 254.052 40.1119 254.919 41.7884 255.137C43.4649 255.355 45.1598 254.907 46.5096 253.889C47.859 252.871 48.7553 251.364 49.0063 249.692C49.4656 246.157 45.8679 246.017 42.3327 245.539C38.7974 245.061 36.6623 244.492 36.2029 248.027Z" fill="white"/>
<path d="M46.0622 262.653L37.2314 263.307L46.4628 269.739L46.0622 262.653Z" fill="#081638"/>
<path d="M35.1153 234.041C36.4508 234.041 37.5334 232.958 37.5334 231.622C37.5334 230.287 36.4508 229.204 35.1153 229.204C33.7799 229.204 32.6973 230.287 32.6973 231.622C32.6973 232.958 33.7799 234.041 35.1153 234.041Z" fill="white"/>
<path d="M52.0304 229.263C53.3658 229.263 54.4485 228.18 54.4485 226.845C54.4485 225.509 53.3658 224.427 52.0304 224.427C50.6949 224.427 49.6123 225.509 49.6123 226.845C49.6123 228.18 50.6949 229.263 52.0304 229.263Z" fill="white"/>
<path d="M8.74707 366.48L18.4194 372.966C18.4194 372.966 17.9894 396.037 28.1358 394.806C28.1358 394.806 28.1763 398.452 30.2379 398.801C32.2995 399.15 37.9184 390.543 37.9184 390.543C37.9184 390.543 45.6357 387.633 47.1608 380.18C48.6859 372.728 48.9652 355.125 46.5838 353.798C44.2025 352.472 20.7089 351.891 20.7089 351.891C20.7089 351.891 10.9557 353.074 8.74707 366.48Z" fill="#1758FE"/>
<path d="M25.0642 348.944L-13.9375 334.545" stroke="white" stroke-width="3" stroke-linecap="square"/>
<path d="M-6.19434 336.699L15.6897 310.063" stroke="white" stroke-width="3" stroke-linecap="square"/>
<path d="M8.68911 367.48C8.68911 367.48 7.67117 353.475 25.7737 349.16" stroke="white" stroke-width="3" stroke-linecap="square"/>
<path d="M45.1631 223.133L50.5284 235.764L46.0451 237.697" stroke="white" stroke-width="3" stroke-linecap="square"/>
</svg>
