<svg width="1440" height="1334" viewBox="0 0 1440 1334" fill="none" xmlns="http://www.w3.org/2000/svg">
<path opacity="0.32" fill-rule="evenodd" clip-rule="evenodd" d="M495.907 415.574C510.02 385.423 518.902 353.018 522.103 319.747C537.429 159.221 419.706 16.6553 259.167 1.34135C133.393 -10.6612 18.6858 58.9658 -32.4758 166.902C-33.6343 169.351 -34.7579 171.814 -35.8463 174.29L-210.404 114.678C-209.405 110.757 -208.704 106.746 -208.316 102.68C-207.193 90.8854 -208.736 78.9896 -212.831 67.8725C-216.927 56.7553 -223.47 46.7012 -231.976 38.4544C-240.483 30.2076 -250.734 23.979 -261.973 20.2296C-273.211 16.4803 -285.15 15.306 -296.903 16.7938C-308.657 18.2815 -319.926 22.3933 -329.875 28.8247C-339.826 35.2562 -348.202 43.8426 -354.385 53.9488C-360.569 64.055 -364.399 75.4222 -365.596 87.2092C-366.793 98.9964 -365.323 110.902 -361.296 122.044C-360.056 125.48 -358.575 128.824 -356.864 132.052C-348.927 147.095 -336.346 159.175 -320.993 166.496C-305.641 173.818 -288.337 175.991 -271.651 172.692C-254.965 169.393 -239.789 160.798 -228.378 148.183C-223.618 142.921 -219.619 137.077 -216.458 130.823L-42.3222 190.29C-54.1381 222.161 -60.3209 255.915 -60.526 290.036C-60.7821 332.636 -51.7131 374.775 -33.9555 413.497C-16.1991 452.221 9.81625 486.588 42.2637 514.192C54.1754 524.324 66.8477 533.455 80.1488 541.514L-8.7576 676.123C-70.0538 704.649 -120.344 753.976 -149.703 815.902C-169.102 856.927 -178.689 901.903 -177.709 947.273C-176.728 992.643 -165.206 1037.16 -144.053 1077.31C-141.074 1082.9 -137.943 1088.38 -134.66 1093.75C-111.005 1132.3 -78.7149 1164.83 -40.3376 1188.77C-1.96027 1212.71 41.4545 1227.4 86.4818 1231.69L88.5623 1231.88C147.567 1237.18 206.783 1224.32 258.272 1195.02C269.755 1188.49 280.785 1181.2 291.288 1173.18C297.172 1168.7 302.88 1164 308.412 1159.08C363.486 1110.12 397.956 1042.11 404.875 968.747C420.202 808.22 302.515 665.655 141.94 650.341C99.1217 646.254 57.5838 651.633 19.3985 664.765L95.1818 550.025C113.793 559.846 133.467 567.656 153.876 573.281C194.945 584.601 237.992 586.795 280 579.713C322.008 572.63 361.956 556.442 397.044 532.283C432.131 508.125 461.508 476.581 483.111 439.866C484.834 436.938 486.504 433.983 488.121 431.002L907.186 682.856C903.652 689.072 900.338 695.436 897.255 701.939C879.048 740.445 869.495 782.467 869.249 825.058C869.003 867.648 878.088 909.776 895.839 948.489C913.603 987.199 939.627 1021.56 972.065 1049.15C976.402 1052.84 980.84 1056.39 985.373 1059.81L789.384 1176.47C786.392 1172.09 782.959 1168.01 779.129 1164.3C770.623 1156.05 760.381 1149.82 749.141 1146.08C737.902 1142.33 725.961 1141.15 714.205 1142.64C702.448 1144.13 691.185 1148.24 681.238 1154.68C671.291 1161.11 662.908 1169.69 656.728 1179.8C650.548 1189.91 646.72 1201.27 645.526 1213.06C644.319 1224.85 645.797 1236.75 649.822 1247.89C653.946 1259.28 660.63 1269.56 669.346 1277.96C680.044 1288.27 693.45 1295.35 708 1298.39C722.551 1301.43 737.656 1300.31 751.604 1295.14C765.539 1289.98 777.738 1281 786.799 1269.2C795.847 1257.42 801.399 1243.31 802.802 1228.52C803.922 1216.72 802.383 1204.83 798.284 1193.71C798.14 1193.32 797.993 1192.93 797.843 1192.54C797.779 1192.38 797.714 1192.21 797.649 1192.05C797.601 1191.93 797.554 1191.81 797.506 1191.69L1000.8 1070.69C1026.23 1087.41 1054.18 1100.1 1083.66 1108.22C1124.72 1119.54 1167.76 1121.73 1209.75 1114.66C1251.75 1107.58 1291.7 1091.4 1326.79 1067.25C1361.87 1043.1 1391.24 1011.57 1412.85 974.867C1434.46 938.164 1447.78 897.178 1451.87 854.784C1460.69 762.527 1425.55 676.202 1363.59 616.557L1435.87 437.697C1446.89 440.345 1458.42 440.607 1469.68 438.381C1486.36 435.081 1501.53 426.483 1512.95 413.869C1524.35 401.253 1531.39 385.293 1533 368.36C1534.12 356.562 1532.58 344.663 1528.49 333.541C1524.39 322.42 1517.85 312.362 1509.34 304.112C1500.83 295.861 1490.58 289.63 1479.34 285.88C1468.1 282.129 1456.16 280.955 1444.39 282.444C1432.63 283.933 1421.37 288.047 1411.41 294.483C1402.6 300.182 1395.02 307.573 1389.1 316.213L1072.11 124.992C1076.54 116.233 1079.28 106.716 1080.2 96.9307H1080.17C1081.29 85.1366 1079.75 73.2413 1075.65 62.1248C1071.55 51.0084 1065.01 40.9553 1056.51 32.7096C1047.99 24.4638 1037.74 18.2364 1026.5 14.4882C1015.27 10.7398 1003.32 9.56667 991.568 11.0554C979.824 12.544 968.548 16.6565 958.601 23.0884C948.655 29.5203 940.271 38.1071 934.092 48.2135C927.912 58.3197 924.083 69.6868 922.889 81.4735C921.695 93.2604 923.16 105.165 927.185 116.307C931.309 127.688 937.994 137.972 946.71 146.369C958.971 158.189 974.74 165.726 991.642 167.85C1008.54 169.976 1025.68 166.577 1040.49 158.162C1043.6 156.402 1046.58 154.427 1049.43 152.253C1054.35 148.51 1058.81 144.209 1062.71 139.448L1380.97 331.436C1378.23 338.286 1376.45 345.507 1375.7 352.892C1374.5 364.683 1375.97 376.592 1380.01 387.737C1381.26 391.17 1382.74 394.515 1384.45 397.745C1392.27 412.565 1404.6 424.509 1419.64 431.86L1349.97 604.249C1306.03 566.959 1250.63 542.265 1188.9 536.378C1076.82 525.681 973.51 579.838 916.144 668.132L495.907 415.574Z" fill="#B5D6F4"/>
<path d="M877.559 677.86L885.08 664.184C888.244 657.356 891.051 650.371 893.5 643.256C897.292 632.091 895.963 616.173 912.569 601.143C929.176 586.112 904.617 590.26 896.32 597.191C889.401 602.965 883.775 619.35 876.894 623.043C875.318 620.818 874.075 618.381 873.201 615.804L858.158 545.315C857.936 544.187 857.321 543.173 856.422 542.463C855.511 541.754 854.378 541.393 853.233 541.45L850.476 541.536C849.811 541.572 849.159 541.747 848.556 542.049C847.965 542.352 847.435 542.776 847.017 543.294C846.586 543.812 846.278 544.413 846.106 545.058C845.921 545.703 845.884 546.378 845.983 547.039C848.297 562.119 856.336 606.99 855.523 607.015L853.861 607.802L830.792 536.403C830.472 535.275 829.745 534.306 828.761 533.678C827.763 533.052 826.582 532.812 825.425 533.005L821.731 533.621C821.091 533.722 820.476 533.952 819.934 534.299C819.38 534.645 818.912 535.099 818.543 535.635C818.186 536.169 817.928 536.773 817.804 537.41C817.681 538.045 817.694 538.7 817.829 539.333C821.374 555.755 837.956 610.4 837.119 610.449L835.088 611.139L810.061 552.049C809.717 550.872 808.929 549.874 807.858 549.26C806.799 548.645 805.543 548.463 804.349 548.75L801.407 549.476C800.792 549.626 800.213 549.896 799.708 550.269C799.204 550.642 798.773 551.112 798.44 551.652C798.12 552.192 797.899 552.79 797.8 553.414C797.702 554.037 797.739 554.674 797.886 555.287L820.402 613.416L818.334 614.721L794.747 572.73C794.292 571.65 793.455 570.773 792.396 570.265C791.35 569.756 790.143 569.653 789.011 569.973L787.607 570.391C786.401 570.745 785.391 571.551 784.776 572.641C784.16 573.73 783.988 575.016 784.308 576.227C786.573 584.844 797.849 602.928 804.411 621.775C809.544 636.375 809.901 648.069 818.371 665.747C821.941 673.244 828.736 682.144 832.441 687.105" fill="#1758FE"/>
<path d="M1305.27 1081.06C1250.52 1112.1 1187.21 1124.63 1124.76 1116.77C1062.32 1108.91 1004.08 1081.09 958.733 1037.46L962.254 947.185L849.245 928.522C832.565 923.94 818.063 913.564 808.35 899.255C798.637 884.945 794.341 867.642 796.237 850.45L805.482 673.256L894.769 679.411L897.231 701.964L911.03 820.98C911.03 820.98 1004.44 832.662 1131.91 865.297C1256 897.07 1292.55 1007.26 1305.27 1081.06Z" fill="#FEA217"/>
<path d="M961.022 978.04L962.068 947.276" stroke="white" stroke-width="3" stroke-linecap="square"/>
<path d="M1208.04 786.805C1242.26 743.174 1237.39 682.219 1197.15 650.656C1156.92 619.094 1096.55 628.877 1062.32 672.507C1028.1 716.137 1032.98 777.093 1073.22 808.655C1113.46 840.218 1173.82 830.435 1208.04 786.805Z" fill="#081638"/>
<path d="M1073.13 932.578C1066.41 927.713 1061.46 920.791 1059.04 912.862C1056.6 904.931 1056.82 896.425 1059.65 888.63L1104.09 766.61C1105.61 761.661 1108.12 757.071 1111.47 753.121C1114.8 749.172 1118.93 745.944 1123.56 743.635C1128.2 741.325 1133.24 739.983 1138.41 739.689C1143.58 739.395 1148.75 740.156 1153.62 741.925C1158.49 743.694 1162.94 746.435 1166.72 749.979C1170.48 753.525 1173.5 757.8 1175.57 762.547C1177.63 767.292 1178.72 772.41 1178.74 777.586C1178.77 782.763 1177.75 787.891 1175.73 792.659L1131.27 914.691C1129.24 920.223 1125.97 925.211 1121.7 929.265C1117.42 933.319 1112.27 936.328 1106.64 938.057C1101 939.786 1095.04 940.187 1089.23 939.23C1083.42 938.274 1077.91 935.984 1073.13 932.541V932.578Z" fill="#1758FE"/>
<path d="M1080.68 864.539L1073.29 861.794C1064.7 858.605 1056.92 853.563 1050.51 847.025C1044.08 840.487 1039.19 832.616 1036.15 823.969C1033.12 815.324 1032.04 806.116 1032.98 797.002C1033.91 787.888 1036.84 779.092 1041.56 771.239L1064.95 732.339C1072.49 719.776 1084.22 710.274 1098.09 705.501C1111.93 700.728 1127.03 700.991 1140.72 706.241C1156.15 712.166 1168.6 723.98 1175.33 739.085C1182.05 754.191 1182.51 771.349 1176.59 786.787L1160.58 828.433C1154.7 843.76 1143.02 856.15 1128.05 862.909C1113.09 869.669 1096.07 870.255 1080.68 864.539Z" fill="#1758FE"/>
<path d="M1086.58 754.411L1054.56 780.41L1067.13 789.852" stroke="white" stroke-width="3" stroke-linecap="square"/>
<path d="M1094.71 772.778C1098.44 772.778 1101.47 769.752 1101.47 766.02C1101.47 762.287 1098.44 759.261 1094.71 759.261C1090.98 759.261 1087.95 762.287 1087.95 766.02C1087.95 769.752 1090.98 772.778 1094.71 772.778Z" fill="white"/>
<path d="M1066.61 758.56C1070.34 758.56 1073.37 755.534 1073.37 751.801C1073.37 748.069 1070.34 745.043 1066.61 745.043C1062.88 745.043 1059.85 748.069 1059.85 751.801C1059.85 755.534 1062.88 758.56 1066.61 758.56Z" fill="white"/>
<path d="M1271.49 968.155C1271.49 968.155 1240.32 1046.19 1179.6 1011.52C1079.09 954.121 1099.73 878.634 1128.07 844.104C1139.36 830.353 1155.16 824.26 1171.64 819.262C1123.71 777.001 1147.28 743.344 1147.28 743.344C1147.28 743.344 1019.1 735.109 1060.55 674.308C1102 613.508 1176.03 621.472 1215.28 647.878C1306.5 709.282 1275.45 771.867 1296.27 794.912C1414.29 925.684 1271.49 968.155 1271.49 968.155Z" fill="#081638"/>
<path d="M1185.11 824.615C1198.36 816.558 1202.57 799.285 1194.51 786.034C1186.46 772.783 1169.19 768.573 1155.93 776.629L1134.12 789.893C1120.87 797.95 1116.66 815.223 1124.71 828.475C1132.78 841.726 1150.05 845.936 1163.29 837.88L1185.11 824.615Z" fill="#1758FE"/>
<path d="M1179.15 796.586L1148.2 815.384" stroke="white" stroke-width="3" stroke-linecap="square"/>
<path d="M1085.78 808.897C1086.1 813.198 1084.7 817.453 1081.9 820.726C1079.08 823.998 1075.09 826.02 1070.78 826.346C1066.49 826.673 1062.23 825.278 1058.96 822.466C1055.69 819.656 1053.66 815.66 1053.34 811.359C1052.65 802.397 1061.72 802.483 1070.67 801.794C1079.62 801.104 1085.09 799.935 1085.78 808.897Z" fill="white"/>
<path d="M418.66 516.072L408.516 524.184C398.013 532.197 386.983 539.493 375.5 546.023C341.49 565.298 303.957 577.55 265.124 582.055C226.293 586.558 186.952 583.221 149.434 572.24C111.914 561.259 76.9826 542.86 46.7054 518.13C16.4295 493.401 -8.57519 462.846 -26.8252 428.275C19.5354 394.2 97.1518 353.49 196.434 361.799C362.5 375.771 418.66 516.072 418.66 516.072Z" fill="#1758FE"/>
<path d="M220.796 431.02C218.927 431.025 217.061 430.914 215.207 430.687C202.888 429.22 191.657 422.921 183.984 413.174C176.31 403.428 172.823 391.032 174.287 378.713L196.446 192.323C197.915 180.003 204.217 168.771 213.968 161.098C218.797 157.299 224.325 154.489 230.239 152.826C236.154 151.164 242.338 150.682 248.439 151.41C254.538 152.138 260.436 154.059 265.794 157.067C271.151 160.073 275.863 164.106 279.662 168.932C283.461 173.761 286.273 179.29 287.935 185.204C289.598 191.118 290.079 197.303 289.352 203.402L267.193 389.793C265.835 401.149 260.366 411.613 251.816 419.209C243.267 426.806 232.232 431.007 220.796 431.02Z" fill="#FEA217"/>
<path d="M259.955 335.8L269.877 336.907C281.415 338.209 293.098 336.951 304.095 333.223C315.091 329.495 325.131 323.391 333.499 315.341C341.868 307.293 348.36 297.499 352.513 286.654C356.665 275.812 358.377 264.187 357.527 252.607L353.317 195.241C351.955 176.714 344.111 159.258 331.159 145.939C318.208 132.621 300.977 124.29 282.495 122.413C261.645 120.298 240.81 126.552 224.571 139.799C208.332 153.046 198.021 172.201 195.905 193.049L190.193 249.295C188.09 269.995 194.237 290.687 207.298 306.883C220.359 323.078 239.28 333.468 259.955 335.8Z" fill="#FEA217"/>
<path d="M213.993 274.826L214.003 274.818C227.67 266.412 231.933 248.517 223.525 234.85L214.888 220.812C206.48 207.146 188.586 202.883 174.92 211.29L174.909 211.296C161.243 219.704 156.98 237.598 165.388 251.264L174.025 265.304C182.433 278.969 200.326 283.232 213.993 274.826Z" fill="#FEA217"/>
<path d="M178.189 233.994L201.481 258.614" stroke="white" stroke-width="3" stroke-linecap="square"/>
<path d="M316.681 202.528L318.318 248.63L301.921 249.295" stroke="white" stroke-width="3" stroke-linecap="square"/>
<path d="M267.834 263.612C266.478 266.117 265.63 268.866 265.336 271.7C265.043 274.534 265.31 277.397 266.124 280.128C266.936 282.858 268.281 285.401 270.077 287.612C271.873 289.824 274.087 291.66 276.592 293.015C279.099 294.371 281.846 295.22 284.68 295.513C287.514 295.806 290.377 295.539 293.108 294.725C295.838 293.913 298.382 292.568 300.593 290.772C302.805 288.976 304.64 286.763 305.996 284.256C311.695 273.707 300.604 268.893 289.992 263.194C279.381 257.494 273.533 253.074 267.834 263.612Z" fill="white"/>
<path d="M220.095 255.278L242.253 172.048L247.51 152.352C252.448 157.645 258.231 162.084 264.621 165.487C287.813 177.969 357.736 172.996 367.424 123.964C375.327 83.9804 332.869 106.964 311.129 104.465C276.968 100.525 253.271 80.4227 206.492 105.696C150.541 135.967 177.045 210.173 177.045 210.173C177.045 210.173 201.666 200.534 220.095 255.278Z" fill="#081638"/>
<path d="M272.352 337.154L242.721 334.458L269.779 360.864L272.352 337.154Z" fill="#081638"/>
<path d="M285.105 227.432C289.598 227.432 293.242 223.79 293.242 219.295C293.242 214.801 289.598 211.158 285.105 211.158C280.61 211.158 276.968 214.801 276.968 219.295C276.968 223.79 280.61 227.432 285.105 227.432Z" fill="white"/>
<path d="M333.645 227.432C338.139 227.432 341.782 223.79 341.782 219.295C341.782 214.801 338.139 211.158 333.645 211.158C329.15 211.158 325.508 214.801 325.508 219.295C325.508 223.79 329.15 227.432 333.645 227.432Z" fill="white"/>
<path d="M354.514 1106.98C341.267 1126.11 325.792 1143.6 308.412 1159.08C302.88 1164 297.173 1168.7 291.288 1173.18C280.785 1181.2 269.755 1188.49 258.272 1195.02C241.151 1204.76 223.086 1212.74 204.353 1218.83L88.5624 1231.88L86.4819 1231.69C41.4546 1227.4 -1.96013 1212.71 -40.3375 1188.77C-78.7148 1164.83 -111.005 1132.3 -134.66 1093.75C-90.8971 1013.49 -12.7144 930.856 126.096 910.901C258.432 891.881 331.161 1046.07 354.514 1106.98Z" fill="#081638"/>
<path d="M143.799 979.937L142.322 980.035C128.229 980.68 114.457 975.702 104.036 966.196C93.6124 956.69 87.392 943.433 86.7408 929.341L78.1236 742.422C77.7998 735.444 78.8536 728.471 81.2258 721.899C83.598 715.329 87.2406 709.29 91.9456 704.127C101.449 693.7 114.706 687.476 128.799 686.822C142.892 686.17 156.667 691.142 167.094 700.646C177.521 710.149 183.745 723.405 184.398 737.498L193.016 924.405C193.662 938.249 188.88 951.798 179.688 962.169C170.496 972.542 157.62 978.916 143.799 979.937Z" fill="#1758FE"/>
<path d="M175.276 882.193L184.915 879.731C196.114 876.816 206.533 871.47 215.432 864.072C224.331 856.674 231.492 847.407 236.404 836.929C241.317 826.451 243.86 815.019 243.854 803.447C243.849 791.875 241.294 780.446 236.372 769.972L211.961 718.085C204.072 701.335 190.538 687.897 173.731 680.132C156.925 672.365 137.92 670.766 120.052 675.614C99.8914 681.088 82.7308 694.344 72.3422 712.469C61.9548 730.592 59.1886 752.1 64.6556 772.262L79.428 826.649C84.8778 846.658 97.9981 863.713 115.942 874.111C133.885 884.51 155.205 887.414 175.276 882.193Z" fill="#1758FE"/>
<path d="M70.1416 847.197C82.8495 856.916 101.029 854.494 110.747 841.787C120.466 829.08 118.043 810.9 105.337 801.181L92.2927 791.205C79.5861 781.486 61.4062 783.909 51.6873 796.615C41.9683 809.322 44.3909 827.502 57.0976 837.221L70.1416 847.197Z" fill="#1758FE"/>
<path d="M251.07 823.965C258.58 855.172 253.533 900.942 215.74 910.507C177.947 920.072 131.033 889.85 123.154 858.705C115.276 827.56 123.905 810.165 161.722 800.588C199.54 791.011 241.259 783.255 251.07 823.965Z" fill="#081638"/>
<path d="M62.8213 816.641L87.6511 831.29" stroke="white" stroke-width="3" stroke-linecap="square"/>
<path d="M157.254 828.779C156.634 834.408 158.246 840.055 161.745 844.509C165.242 848.961 170.349 851.865 175.965 852.595C181.581 853.325 187.258 851.825 191.78 848.414C196.3 845.004 199.303 839.955 200.143 834.355C201.682 822.513 189.63 822.045 177.788 820.445C165.945 818.844 158.793 816.936 157.254 828.779Z" fill="white"/>
<path d="M190.283 877.773L160.701 879.965L191.625 901.508L190.283 877.773Z" fill="#081638"/>
<path d="M153.61 781.925C158.083 781.925 161.71 778.299 161.71 773.825C161.71 769.352 158.083 765.725 153.61 765.725C149.136 765.725 145.51 769.352 145.51 773.825C145.51 778.299 149.136 781.925 153.61 781.925Z" fill="white"/>
<path d="M210.274 765.922C214.748 765.922 218.374 762.296 218.374 757.822C218.374 753.349 214.748 749.722 210.274 749.722C205.8 749.722 202.174 753.349 202.174 757.822C202.174 762.296 205.8 765.922 210.274 765.922Z" fill="white"/>
<path d="M65.2832 1225.58L97.6839 1247.3C97.6839 1247.3 96.2436 1324.59 130.232 1320.46C130.232 1320.46 130.368 1332.68 137.274 1333.85C144.18 1335.01 163.002 1306.18 163.002 1306.18C163.002 1306.18 188.854 1296.43 193.963 1271.47C199.071 1246.5 200.007 1187.54 192.03 1183.09C184.053 1178.65 105.353 1176.7 105.353 1176.7C105.353 1176.7 72.6817 1180.67 65.2832 1225.58Z" fill="#1758FE"/>
<path d="M119.941 1166.83L-10.708 1118.6" stroke="white" stroke-width="3" stroke-linecap="square"/>
<path d="M15.2295 1125.81L88.5373 1036.59" stroke="white" stroke-width="3" stroke-linecap="square"/>
<path d="M65.0866 1228.92C65.0866 1228.92 61.6767 1182.01 122.317 1167.56" stroke="white" stroke-width="3" stroke-linecap="square"/>
<path d="M187.266 745.389L205.239 787.699L190.22 794.174" stroke="white" stroke-width="3" stroke-linecap="square"/>
</svg>
