<svg width="536" height="606" viewBox="0 0 536 606" fill="none" xmlns="http://www.w3.org/2000/svg">
<g style="mix-blend-mode:lighten">
<path fill-rule="evenodd" clip-rule="evenodd" d="M227.551 10.5248C223.303 16.303 217.878 23.6551 215.494 26.8622C210.673 33.3531 212.665 32.4285 196.762 35.5576C175.797 39.6833 170.59 40.8146 169.837 41.4071C168.895 42.1472 169.135 43.6712 173.728 66.1881C175.597 75.3534 176.16 79.6046 175.632 80.576C174.347 82.9373 160.801 101.355 159.691 102.251C158.46 103.244 158.355 107.015 159.438 111.352C160.093 113.975 166.815 146.094 169.931 161.488C170.485 164.224 171.619 169.822 172.451 173.926C173.283 178.031 173.666 181.389 173.303 181.389C172.939 181.389 172.641 181.086 172.641 180.716C172.641 180.347 169.879 176.607 166.503 172.405C163.128 168.205 159.964 164.029 159.473 163.128C158.983 162.226 157.926 161.488 157.124 161.488C156.322 161.488 151.906 164.33 147.31 167.803C136.422 176.03 125.768 184.04 114.984 192.105C110.2 195.684 102.885 201.195 98.7288 204.352C94.5731 207.51 90.2105 210.782 89.0348 211.624C87.8584 212.466 83.2623 215.91 78.8211 219.278C74.3799 222.646 69.79 226.091 68.6214 226.933C67.4527 227.775 62.6629 231.315 57.9774 234.799L49.4591 241.135L47.3093 238.972C44.1713 235.815 38.3335 232.94 32.7835 231.819C23.8372 230.011 14.8949 232.84 7.72575 239.744C2.35629 244.914 0.606409 248.847 0.0967733 256.889C-0.578591 267.535 2.24658 274.492 9.65536 280.43C18.1667 287.251 28.6426 288.928 38.5015 285.047C41.2582 283.962 43.8445 283.188 44.2499 283.325C44.9315 283.556 47.7901 287.148 66.684 311.513C81.973 331.231 93.8674 346.486 96.1137 349.257C98.7412 352.5 97.5967 353.061 114.886 340.067C119.478 336.616 124.165 333.086 125.302 332.221C126.44 331.357 127.522 330.649 127.706 330.649C128.131 330.649 129.462 334.956 131.018 341.366C131.682 344.102 132.403 346.909 132.62 347.603C132.969 348.72 131.869 348.899 123.067 349.158C114.741 349.405 112.598 349.723 109.921 351.111C105.529 353.388 99.2563 359.453 97.2567 363.356C93.1881 371.295 93.2729 368.894 93.308 474.582C93.3259 528.559 93.1765 572.882 92.9765 573.08C92.7758 573.277 89.7273 573.408 86.2011 573.37C78.4227 573.288 74.7066 574.186 72.2729 576.734C70.3853 578.711 68.4128 583.308 68.3918 585.779C68.3623 589.317 71.147 595.067 74.7907 598.989L78.6515 603.145H50.1733C25.3786 603.145 21.696 603.293 21.696 604.293C21.696 605.311 50.0519 605.441 272.234 605.441C494.417 605.441 522.773 605.311 522.773 604.293C522.773 603.315 520.723 603.145 508.999 603.145H495.224L497.984 600.274C503.661 594.367 504.488 592.585 504.488 586.249C504.488 581.094 504.249 580.142 502.334 577.669C499.634 574.184 496.579 573.303 487.176 573.297L479.979 573.293V474.685V376.077L482.001 374.221C485.361 371.139 487.762 365.651 487.743 361.101C487.684 347.364 472.792 338.644 460.369 345.073L456.163 347.249L439.249 331.637C420.874 314.675 421.275 315.38 431.35 317.771C434.648 318.553 448.794 321.649 463.64 324.837C468.561 325.894 473.641 326.772 474.929 326.79L477.27 326.822L479.438 316.68C480.63 311.102 482.603 302.06 483.822 296.587C489.67 270.324 493.817 251.597 497.127 236.501C498.373 230.817 500.103 222.936 500.97 218.986L502.547 211.804L498.068 205.591C495.604 202.173 492.234 197.418 490.579 195.024C487.147 190.062 487.129 191.237 490.881 175.266C492.118 170.003 493.358 163.957 493.637 161.829L494.145 157.96L486.089 156.239C481.659 155.293 474.007 153.677 469.086 152.648C464.165 151.618 459.741 150.629 459.257 150.45C458.772 150.27 455.096 145.535 451.087 139.926C447.078 134.319 443.018 128.695 442.064 127.43C441.111 126.165 439.917 124.355 439.411 123.407C438.261 121.254 436.766 121.238 433.295 123.34C422.503 129.875 406.678 138.525 405.513 138.525C404.032 138.525 390.628 135.723 379.831 133.155C369.478 130.694 369.912 130.492 368.326 138.525C367.578 142.314 366.848 145.414 366.703 145.414C366.298 145.414 364.818 139.665 363.672 133.637C363.103 130.642 361.877 124.575 360.946 120.154C359.166 111.696 358.017 106.085 355.613 94.1296C350.956 70.9621 349.639 65.6094 348.501 65.2098C347.85 64.9817 343.913 62.6977 339.75 60.135C335.587 57.5715 331.561 55.1237 330.802 54.6943C325.022 51.4213 322.969 49.6654 322.607 47.6791C321.437 41.2877 316.536 17.9564 315.789 15.2261C314.955 12.1796 314.814 12.0648 312.444 12.5203C311.084 12.782 307.52 13.4648 304.524 14.0374C292.488 16.3406 285.624 17.7321 281.132 18.7808C272.851 20.7143 272.867 20.7189 254.61 9.93156C245.347 4.45869 237.207 -0.0106969 236.522 1.92301e-05C235.827 0.0107353 231.86 4.66382 227.551 10.5248ZM248.737 9.72183C267.987 20.963 269.531 22.1785 264.568 22.1785C263.49 22.1785 260.485 22.6745 257.89 23.28C253.362 24.3371 245.679 25.8932 234.887 27.94C232.105 28.4681 226.903 29.4739 223.326 30.1766C219.75 30.8793 216.685 31.3178 216.516 31.151C216.108 30.7499 236.337 3.04263 237.038 3.04263C237.182 3.04263 242.447 6.0485 248.737 9.72183ZM314.049 21.0824C316.712 34.708 319.841 50.0611 321.604 58.154C322.2 60.8905 323.246 66.0572 323.929 69.6356C324.611 73.214 325.393 76.8307 325.667 77.6727C325.941 78.5147 326.591 81.6147 327.113 84.5616C328.052 89.8661 327.812 91.3755 325.694 93.4958C324.737 94.4541 301.647 123.446 298.3 127.893C297.096 129.492 281.598 148.932 271.364 161.682C270.113 163.241 270.055 163.225 263.194 159.499C259.393 157.436 255.697 155.51 254.981 155.219C254.264 154.929 252.338 153.862 250.701 152.848C249.064 151.835 243.349 148.66 238.002 145.793C223.943 138.256 221.773 137.073 216.755 134.211C214.271 132.795 212.048 131.636 211.815 131.636C211.582 131.636 208.187 129.809 204.271 127.575C200.355 125.342 195.469 122.673 193.412 121.643C187.538 118.703 186.953 117.868 185.569 110.449C184.876 106.736 184.31 102.82 184.311 101.746C184.312 100.673 184.001 99.4669 183.621 99.0666C182.963 98.3754 182.539 96.4902 180.435 84.9443C179.937 82.2079 179.04 78.0745 178.444 75.7591C177.848 73.4436 176.782 68.6214 176.074 65.043C175.368 61.4646 174.276 55.9534 173.649 52.796C173.022 49.6386 172.333 46.1734 172.119 45.0965C171.745 43.2097 171.927 43.1048 177.049 42.2644C179.974 41.7837 187.563 40.34 193.913 39.0564C200.263 37.772 206.15 36.7218 206.994 36.7218C207.838 36.7218 210.171 36.2388 212.177 35.6479C214.183 35.057 218.8 33.9953 222.438 33.2888C228.666 32.0795 231.432 31.5283 245.78 28.6396C260.317 25.7126 263.685 25.0719 269.702 24.0875C273.23 23.5112 276.441 22.8422 276.835 22.6026C277.23 22.363 280.469 21.6267 284.035 20.9669C294.142 19.0969 300.97 17.7474 306.469 16.5342C309.251 15.9203 311.861 15.4986 312.269 15.5973C312.677 15.6953 313.478 18.1638 314.049 21.0824ZM290.13 46.6725C289.488 47.0805 286.834 47.4196 284.231 47.4265C280.746 47.4349 278.493 47.9408 275.673 49.3485C270.971 51.6953 270.102 51.7183 267.76 49.5544L265.909 47.8429L263.042 51.2728C261.464 53.1596 259.303 55.5095 258.237 56.4946C254.249 60.1848 247.563 61.5204 243.446 59.4492C241.81 58.6271 241.541 58.0193 241.756 55.6335C241.996 52.9682 241.878 52.7968 239.811 52.8075C237.485 52.8197 235.618 53.6625 235.404 54.7953C235.334 55.1688 233.956 55.3816 232.341 55.2676C228.189 54.9752 225.462 56.6676 223.216 60.9341C221.633 63.9392 220.764 64.7414 218.548 65.2359C214.736 66.0863 204.827 64.2025 205.221 62.7023C205.38 62.0953 205.692 60.9609 205.916 60.1817C206.221 59.1147 205.965 58.833 204.875 59.0389C204.03 59.1989 203.13 60.3432 202.707 61.7952C202.263 63.3169 201.481 64.2775 200.686 64.2775C198.548 64.2775 195.984 67.2007 195.984 69.6387C195.984 74.5551 202.617 74.0851 204.12 69.0615C204.983 66.1766 204.822 66.2064 210.997 67.7809C214.898 68.7752 216.318 68.8258 219.07 68.068C222.812 67.0369 223.708 66.2057 225.939 61.6873C227.486 58.5567 227.525 58.5352 232.258 58.3117C236.335 58.1188 237.342 58.35 239.261 59.9199C242.763 62.7872 244.624 63.5121 248.483 63.5121C253.235 63.5121 257.286 61.3758 262.421 56.1609C264.935 53.6066 266.824 52.2334 267.136 52.7309C267.975 54.0666 272.821 53.6885 276.125 52.0306C278.292 50.9429 280.711 50.4997 284.48 50.4997C288.021 50.4997 290.359 50.104 291.513 49.3079C294.546 47.219 293.226 44.7046 290.13 46.6725ZM339.439 63.1944C344.689 66.0817 344.367 66.7935 337.398 67.7121C333.705 68.1981 333.702 68.1966 333.702 65.9179C333.702 63.2871 334.381 61.2158 335.243 61.2158C335.572 61.2158 337.46 62.106 339.439 63.1944ZM202.208 67.0071C202.208 68.2356 200.454 70.401 199.458 70.401C197.972 70.401 198.007 69.285 199.54 67.7764C200.748 66.5884 202.208 66.1674 202.208 67.0071ZM294.507 70.0359C290.423 72.7792 285.481 74.6194 279.97 75.4491C275.621 76.1035 274.892 76.4824 271.039 80.0899C268.707 82.2729 266.401 83.4647 262.091 84.7155C256.475 86.3451 256.246 86.3543 255.117 84.9964C253.428 82.9641 250.926 81.8826 247.916 81.8826C243.366 81.8826 231.239 84.7843 225.582 87.2268C220.387 89.4696 219.839 89.5492 212.9 89.07C205.994 88.5924 205.549 88.6552 203.597 90.3919C202.469 91.3954 201.323 93.309 201.05 94.6447C200.606 96.8224 200.72 97.0306 202.16 96.6601C203.042 96.4328 203.764 95.652 203.764 94.9241C203.764 92.4709 206.508 90.8443 209.759 91.3694C219.581 92.9577 220.404 92.8949 226.813 90.0781C230.184 88.597 235.393 86.812 238.388 86.1116C244.076 84.7813 251.309 84.7736 251.751 86.0971C251.892 86.5204 250.427 87.8071 248.494 88.9552C242.588 92.4647 241.825 97.2816 247.092 97.8044C248.987 97.9927 249.936 97.4477 252.265 94.8345C253.834 93.074 255.117 91.1895 255.117 90.6468C255.117 90.049 257.306 89.1695 260.664 88.4186C267.535 86.8809 269.968 85.6661 273.648 81.9354C276.125 79.4255 277.394 78.8331 282.542 77.786C291.159 76.0323 301.327 70.447 299.935 68.2318C299.17 67.0132 298.845 67.1211 294.507 70.0359ZM343.553 70.7378C342.915 72.3736 332.732 85.0101 332.352 84.6374C332.173 84.4606 332.274 81.5251 332.577 78.1136C333.1 72.2128 333.226 71.8913 335.165 71.5101C336.286 71.2905 338.079 70.8151 339.148 70.4546C342.31 69.3884 344.036 69.4994 343.553 70.7378ZM351.082 86.2907C352.725 94.6018 354.546 103.468 355.131 105.994C355.714 108.52 357.296 116.098 358.646 122.833C359.996 129.569 361.551 137.319 362.103 140.056C362.654 142.792 363.475 146.926 363.926 149.241C366.045 160.109 366.63 162.98 367.671 167.611C368.675 172.075 370.178 179.214 372.639 191.206C373.099 193.448 373.367 195.736 373.235 196.292C373.076 196.956 370.603 195.77 365.992 192.818C362.14 190.353 358.289 188.013 357.433 187.619C354.615 186.323 345.169 180.724 343.432 179.321C342.496 178.564 339.558 176.804 336.904 175.408C334.249 174.014 327.978 170.436 322.969 167.458C317.96 164.481 308.084 158.676 301.023 154.559C293.962 150.442 288.185 146.714 288.185 146.275C288.185 145.206 289.72 143.064 294.604 137.319C296.85 134.676 298.689 132.306 298.689 132.052C298.689 131.798 300.629 129.275 303.002 126.446C305.374 123.617 307.718 120.815 308.211 120.219C311.283 116.5 331.344 90.9783 332.927 88.7715C336.371 83.9722 347.025 71.1665 347.568 71.1734C347.858 71.1779 349.44 77.9804 351.082 86.2907ZM178.62 89.3976C179.14 91.7896 179.793 94.9761 180.071 96.4795L180.576 99.2121L175.636 100.073C172.919 100.546 169.079 101.236 167.102 101.605L163.507 102.277L167.156 97.2464C175.79 85.3462 176.749 84.1376 177.2 84.5807C177.461 84.8379 178.1 87.0049 178.62 89.3976ZM250.425 92.6415C249.542 94.265 247.58 95.3895 246.862 94.6837C246.385 94.2145 249.657 91.0678 250.623 91.0678C250.985 91.0678 250.896 91.7758 250.425 92.6415ZM299.313 94.4396C293.676 99.545 289.526 101.139 279.764 101.952C270.443 102.727 265.27 104.44 263.295 107.405C262.302 108.895 260.94 109.483 256.868 110.181C251.209 111.151 246.12 113.29 239.582 117.449C234.921 120.414 232.957 120.688 228.273 119.028C226.562 118.421 224.05 117.91 222.692 117.892C219.559 117.849 215.253 121.218 215.589 123.449C215.908 125.561 217.474 125.942 217.982 124.031C218.755 121.123 221.889 120.485 227.888 122.015C233.995 123.574 235.797 123.241 241.297 119.54C246.374 116.123 248.903 115.015 255.522 113.31C260.801 111.949 261.777 111.885 262.839 112.826C265.179 114.899 267.826 114.987 270.692 113.087C272.177 112.103 273.514 110.672 273.663 109.907C273.903 108.682 273.461 108.548 269.972 108.785C267.792 108.934 266.009 108.78 266.009 108.442C266.011 107.077 271.978 105.534 281.073 104.548C288.873 103.702 291.357 103.12 294.223 101.468C298.862 98.7934 304.913 93.5195 304.913 92.1509C304.913 90.2733 303.09 91.0188 299.313 94.4396ZM181.821 105.42C183.092 110.465 183.823 115.562 183.276 115.562C182.81 115.562 174.112 111.05 168.193 107.737L164.912 105.9L167.415 105.039C168.792 104.566 171.669 103.941 173.809 103.652C175.948 103.361 178.224 102.833 178.866 102.477C180.72 101.45 180.856 101.586 181.821 105.42ZM172.123 113.192C175.899 115.338 179.116 117.093 179.271 117.093C179.427 117.093 183.359 119.281 188.008 121.956C195.374 126.194 201.825 129.704 212.322 135.189C213.82 135.971 215.221 136.79 215.435 137.009C215.649 137.229 216.7 137.821 217.77 138.327C218.839 138.833 222.166 140.631 225.161 142.323C228.157 144.015 231.308 145.708 232.164 146.087C233.02 146.466 236.443 148.364 239.773 150.305C243.101 152.245 246.165 153.834 246.581 153.834C247.907 153.834 247.461 154.589 240.917 163.416C237.386 168.179 233.973 172.832 233.331 173.757C232.689 174.682 231.288 176.546 230.219 177.9C229.149 179.254 224.947 184.93 220.882 190.513C216.816 196.097 211.732 202.959 209.583 205.762C207.433 208.565 204.672 212.323 203.447 214.112C202.221 215.901 200.991 217.365 200.714 217.365C200.436 217.365 199.549 218.484 198.743 219.852C196.591 223.502 188.692 234.204 188.149 234.204C187.893 234.204 186.714 229.469 185.528 223.68C181.586 204.441 181.345 203.235 180.435 198.229C179.937 195.492 179.026 191.187 178.412 188.661C177.255 183.9 173.267 164.543 171.417 154.706C170.834 151.607 170.164 148.472 169.927 147.738C169.69 147.004 168.946 143.511 168.272 139.976C167.062 133.626 166.193 129.308 163.768 117.599C163.085 114.3 162.527 110.757 162.527 109.727C162.527 107.58 161.755 107.301 172.123 113.192ZM441.854 131.819C444.635 135.694 448.608 141.234 450.682 144.13L454.454 149.395L451.849 148.869C447.635 148.019 428.955 143.894 419.356 141.696L410.476 139.662L415.077 136.906C417.608 135.39 422.13 132.832 425.125 131.223C428.121 129.612 431.791 127.496 433.281 126.521C434.771 125.545 436.171 124.752 436.393 124.76C436.615 124.767 439.072 127.943 441.854 131.819ZM386.93 137.392C392.027 138.44 397.604 139.67 399.323 140.125L402.448 140.954L400.171 142.3C398.917 143.04 394.566 145.539 390.501 147.852C386.436 150.165 380.319 153.663 376.91 155.625C373.499 157.587 370.301 159.192 369.8 159.192C367.996 159.192 367.801 152.686 369.407 146.054C370.256 142.544 371.179 138.425 371.458 136.898C371.961 134.14 371.981 134.127 374.814 134.805C376.381 135.18 381.833 136.344 386.93 137.392ZM420.457 144.669C426.448 145.944 435.026 147.815 439.519 148.826C444.013 149.837 449.7 151.057 452.159 151.537L456.629 152.41L470.518 171.795L484.405 191.179L483.015 196.426C482.25 199.312 481.604 202.459 481.58 203.419C481.499 206.588 481.269 206.566 455.081 200.89C450.587 199.916 442.447 198.171 436.991 197.012C431.534 195.853 427.07 194.582 427.07 194.19C427.07 193.796 428.65 187.257 430.58 179.659C432.511 172.059 433.894 165.65 433.655 165.414C432.985 164.756 426.144 163.091 423.951 163.053C422.144 163.021 421.9 163.459 420.663 168.951C419.928 172.213 418.745 178.385 418.033 182.665C417.321 186.945 416.463 190.886 416.125 191.423C415.635 192.203 414.29 192.125 409.426 191.038C397.702 188.418 382.295 185.063 378.315 184.262C373.782 183.35 373.748 183.285 371.49 171.439C370.89 168.281 370.182 165.16 369.918 164.501C369.288 162.932 370.758 161.767 379.219 157.126C387.577 152.543 399.95 145.538 403.696 143.268C405.177 142.372 407.103 141.798 407.976 141.995C408.849 142.191 414.466 143.394 420.457 144.669ZM288.512 150.267C289.189 150.831 300.42 157.583 313.472 165.272C326.524 172.961 339.304 180.59 341.872 182.226C344.439 183.862 347.336 185.543 348.309 185.961C349.281 186.38 352.001 187.934 354.353 189.414C356.706 190.894 358.813 192.105 359.037 192.105C359.695 192.105 371.046 199.341 371.045 199.76C371.044 199.97 366.58 200.974 361.126 201.989C355.671 203.004 350.448 204.105 349.518 204.435C348.588 204.765 344.386 205.558 340.181 206.198C333.228 207.255 329.063 208.082 312.305 211.732C306.331 213.033 300.965 214.138 288.574 216.618C284.081 217.516 278.128 218.714 275.347 219.278C270.677 220.226 262.119 221.925 248.503 224.607C241.927 225.902 228.729 228.557 221.271 230.083C218.275 230.696 212.848 231.707 209.211 232.328C205.573 232.95 201.722 233.773 200.652 234.158C199.582 234.544 197.004 235.083 194.922 235.357L191.138 235.855L195.118 230.191C197.307 227.075 200.149 223.37 201.432 221.956C202.715 220.542 203.764 219.164 203.764 218.893C203.764 218.621 205.603 215.941 207.849 212.938C213.219 205.757 224.259 190.799 228.662 184.739C237.321 172.822 247.083 159.626 248.533 157.88L250.118 155.971L254.757 158.42C261.685 162.077 265.335 164.061 268.182 165.722C269.873 166.707 270.931 166.94 271.294 166.408C274.77 161.32 285.185 149.241 286.096 149.241C286.75 149.241 287.837 149.703 288.512 150.267ZM474.922 156.606C479.629 157.643 485.273 158.86 487.464 159.31L491.447 160.129L489.54 168.654C486.085 184.094 485.39 187.037 485.139 187.284C485.003 187.418 482.176 183.65 478.859 178.909C475.54 174.169 470.583 167.19 467.843 163.402C465.102 159.613 462.48 155.876 462.014 155.097C461.045 153.475 460.341 153.393 474.922 156.606ZM152.77 174.5C152.09 177.658 150.703 184.202 149.689 189.044C148.675 193.885 146.747 202.841 145.405 208.945C144.063 215.049 142.137 223.833 141.124 228.464C132.825 266.422 133.552 263.701 131.755 263.524C128.3 263.184 88.0684 261.005 76.3554 260.523L63.7117 260.003L63.704 258.011C63.6939 255.379 60.4275 248.57 57.4965 245.072C56.2073 243.534 55.153 241.856 55.153 241.344C55.153 240.831 59.7926 236.984 65.4624 232.794C75.3921 225.458 83.137 219.661 102.883 204.788C107.951 200.97 112.853 197.336 113.776 196.712C114.699 196.088 118.85 192.988 123.001 189.823C127.152 186.658 133.562 181.829 137.246 179.093C140.928 176.357 146.11 172.484 148.76 170.487C151.629 168.326 153.665 167.242 153.793 167.808C153.91 168.332 153.45 171.343 152.77 174.5ZM171.573 186.685C173.339 187.473 174.99 188.448 175.243 188.85C175.729 189.624 178.218 201.305 182.704 223.871C183.123 225.976 184.064 230.368 184.794 233.63C186.104 239.48 186.157 239.562 188.525 239.529C189.845 239.51 192.502 239.148 194.427 238.724C201.492 237.166 208.866 235.815 210.518 235.776C211.772 235.746 213.612 237.578 217.584 242.816C225.219 252.883 225.076 252.143 219.253 251.514C214.344 250.984 185.048 248.398 155.718 245.906C143.434 244.862 140.741 244.424 140.741 243.474C140.741 242.837 141.433 239.371 142.28 235.772C143.125 232.174 144.915 224.062 146.255 217.748C150.72 196.711 152.093 192.066 154.562 189.637C158.9 185.37 165.907 184.153 171.573 186.685ZM389.334 189.755C395.325 191.041 403.545 192.805 407.6 193.675C411.655 194.546 415.055 195.339 415.156 195.438C415.256 195.537 414.651 199.372 413.809 203.962C412.968 208.551 412.544 212.532 412.867 212.809C413.19 213.085 415.15 213.761 417.223 214.31C421.849 215.535 421.683 215.743 424.067 205.749C426.105 197.205 425.615 197.514 434.073 199.426C446.583 202.254 460.937 205.359 470.126 207.226L480.113 209.254L479.699 211.587C477.912 221.663 477.435 222.834 474.329 224.764C472.664 225.797 470.716 226.856 469.999 227.118C469.283 227.379 463.62 230.327 457.415 233.67C451.21 237.014 441.173 242.294 435.11 245.407L424.087 251.065L418.576 243.374C415.545 239.144 413.065 235.55 413.065 235.387C413.065 235.225 414.071 234.874 415.301 234.609C418.862 233.839 421.073 230.957 421.16 226.971C421.253 222.678 419.275 220.484 414.773 219.89C411.968 219.52 411.298 219.751 409.212 221.803C407.371 223.615 406.84 224.811 406.84 227.153C406.84 230.492 409.217 234.196 411.371 234.217C412.089 234.224 408.649 236.594 403.728 239.484L394.78 244.739L392.996 242.725C391.094 240.577 373.786 218.34 371.827 215.527C371.185 214.605 369.005 211.75 366.983 209.183L363.305 204.515L365.816 204.099C376.283 202.36 377.274 201.993 377.274 199.845C377.274 198.712 376.749 195.802 376.107 193.377C374.491 187.278 374.565 186.478 376.69 186.993C377.653 187.226 383.343 188.469 389.334 189.755ZM496.288 207.628L498.203 209.932L494.343 209.376C492.22 209.07 490.236 208.587 489.934 208.304C489.632 208.02 490.139 206.616 491.061 205.184C492.573 202.835 492.818 202.714 493.556 203.951C494.005 204.705 495.235 206.36 496.288 207.628ZM361.429 206.84C362.279 207.788 363.478 209.311 364.094 210.226C364.71 211.141 368.763 216.48 373.102 222.091C384.912 237.363 387.999 241.296 389.717 243.263C391.981 245.854 391.689 246.608 387.577 248.807C385.548 249.893 380.736 252.613 376.885 254.853C365.854 261.266 361.084 263.999 353.154 268.449C349.088 270.73 342.611 274.405 338.759 276.617C316.832 289.212 318.141 288.568 318.141 286.76C318.141 285.845 318.511 283.893 318.963 282.422C319.415 280.951 320.612 275.787 321.622 270.945C323.448 262.192 326.021 250.467 330.608 229.995C331.928 224.101 333.421 217.426 333.925 215.162C334.976 210.449 334.959 210.46 344.595 208.541C348.232 207.817 352.959 206.793 355.099 206.268C357.238 205.742 359.191 205.269 359.437 205.215C359.683 205.161 360.58 205.892 361.429 206.84ZM494.278 212.467L497.294 212.979L489.998 216.697C485.986 218.741 482.591 220.417 482.455 220.42C482.319 220.424 483.367 218.351 484.785 215.814C487.056 211.752 487.596 211.247 489.312 211.578C490.384 211.785 492.619 212.185 494.278 212.467ZM314.25 215.459C314.25 215.907 309.574 222.584 306.482 226.55C305.333 228.024 304.164 229.746 303.884 230.377C303.603 231.009 301.707 233.783 299.669 236.543C297.632 239.302 291.61 247.569 286.286 254.913C273.107 273.094 259.067 292.488 254.729 298.501C252.756 301.238 250.116 304.891 248.864 306.62L246.588 309.763L219.346 296.287C204.363 288.874 192.115 282.637 192.127 282.427C192.146 282.109 198.226 277.352 203.617 273.435C204.34 272.91 208.688 269.638 213.279 266.164C217.871 262.689 223.211 258.687 225.145 257.269C227.08 255.852 228.662 254.26 228.662 253.733C228.662 253.205 225.505 248.681 221.647 243.68L214.631 234.587L219.118 233.67C221.586 233.166 227.281 232.019 231.775 231.121C236.268 230.224 242.395 228.983 245.391 228.363C248.387 227.743 253.632 226.743 257.046 226.142C260.46 225.54 263.786 224.847 264.437 224.601C265.089 224.355 268.422 223.633 271.845 222.996C275.269 222.359 280.346 221.376 283.127 220.811C285.909 220.246 291.861 219.046 296.355 218.146C300.848 217.245 305.75 216.224 307.248 215.877C310.459 215.131 314.25 214.905 314.25 215.459ZM498.142 219.852C497.539 222.484 495.97 229.459 494.655 235.353C493.34 241.246 491.265 250.546 490.043 256.019C483.936 283.368 479.185 304.985 476.955 315.57C476.262 318.853 475.346 321.518 474.92 321.493C474.493 321.467 469.181 314.475 463.115 305.955C457.049 297.435 451.347 289.431 450.441 288.168C431.405 261.603 426.824 255.131 426.539 254.398C426.206 253.546 430.663 251.021 450.023 241.096C455.159 238.463 459.71 236.054 460.138 235.742C460.566 235.431 464.593 233.261 469.086 230.92C473.579 228.578 481.983 224.061 487.76 220.88C493.537 217.699 498.483 215.091 498.751 215.082C499.018 215.075 498.745 217.222 498.142 219.852ZM329.033 224.678C329.033 225.309 323.848 248.896 322.059 256.402C321.206 259.98 319.823 266.181 318.986 270.18C318.149 274.179 316.728 280.682 315.828 284.631C314.929 288.58 314.391 292.006 314.634 292.244C314.876 292.483 319.704 293.665 325.361 294.87C347.56 299.599 352.875 300.774 355.728 301.584L358.692 302.425L355.772 305.63C348.49 313.621 337.153 325.291 336.672 325.291C336.229 325.291 327.425 320.648 308.415 310.387C306.703 309.463 302.851 307.393 299.856 305.786C296.86 304.18 291.258 301.134 287.407 299.018C279.507 294.678 275.069 292.299 269.725 289.542L266.049 287.645L269.096 283.313C272.999 277.765 277.764 271.134 282.987 263.982C290.534 253.647 298.775 242.316 302.975 236.501C310.48 226.11 313.344 224.329 322.614 224.284C326.145 224.268 329.033 224.444 329.033 224.678ZM36.1292 235.398C40.8995 236.681 44.702 239.474 48.4592 244.458C58.3485 257.574 53.1362 275.674 37.4737 282.609C31.6864 285.172 23.5034 284.968 17.177 282.104C5.61874 276.871 -0.186443 264.258 3.39034 252.148C6.06457 243.093 13.1948 236.595 22.5947 234.645C27.7844 233.568 29.7194 233.676 36.1292 235.398ZM416.275 244.682C418.575 247.919 420.72 250.99 421.042 251.506C421.44 252.145 419.36 253.685 414.516 256.336C410.605 258.477 407.114 260.229 406.759 260.229C405.873 260.229 396.624 247.899 396.9 247.086C397.227 246.122 409.354 238.976 410.828 238.88C411.574 238.831 413.807 241.21 416.275 244.682ZM162.527 249.155C168.732 249.745 180.286 250.755 188.203 251.401C206.777 252.916 219.244 254.1 221.538 254.566C223.181 254.9 222.884 255.289 218.502 258.539C215.831 260.522 209.583 265.244 204.62 269.033C199.656 272.822 194.719 276.505 193.649 277.219C192.58 277.932 186.627 282.35 180.422 287.037C158.87 303.317 148.426 311.139 146.21 312.662C141.381 315.979 102.593 345.374 102.183 346.028C101.088 347.77 100.55 346.429 101.159 343.47C101.526 341.682 102.698 335.395 103.761 329.501C104.826 323.607 106.574 314.135 107.645 308.452C108.718 302.768 110.492 293.124 111.589 287.02C112.687 280.915 114.027 273.682 114.567 270.945L115.55 265.97H125.518H135.486L137.333 258.316C138.349 254.106 139.368 249.867 139.598 248.895C140.068 246.904 138.682 246.888 162.527 249.155ZM396.877 252.915C398.72 255.206 401.406 258.65 402.847 260.569C404.288 262.487 405.723 264.056 406.038 264.056C406.352 264.056 410.197 262.138 414.582 259.794C418.967 257.449 422.995 255.696 423.531 255.899C424.068 256.102 427.032 259.828 430.118 264.18C433.204 268.533 443.919 283.619 453.931 297.704C463.941 311.791 472.059 323.382 471.97 323.462C471.766 323.648 460.866 321.421 447.3 318.424C441.523 317.147 432.859 315.283 428.048 314.281C423.235 313.28 418.508 311.948 417.544 311.322C416.578 310.695 409.856 304.713 402.605 298.027C384.886 281.688 382.236 279.365 381.32 279.365C380.889 279.365 377.484 282.637 373.752 286.637C370.021 290.636 366.66 293.908 366.285 293.908C365.91 293.908 365.603 293.281 365.603 292.514C365.603 290.002 363.192 284.092 361.981 283.636C360.986 283.26 360.885 283.707 361.353 286.443C361.66 288.234 362.369 291.206 362.932 293.048C363.814 295.941 363.788 296.646 362.743 298.215C362.078 299.214 361.484 300.032 361.423 300.032C361.363 300.032 360.09 299.673 358.595 299.235C357.1 298.797 351.85 297.583 346.929 296.538C327.315 292.373 321.128 290.98 320.794 290.652C320.397 290.26 329.154 285.038 351.598 272.282C383.074 254.393 389.521 250.708 390.89 249.828C391.746 249.278 392.69 248.81 392.987 248.788C393.284 248.766 395.035 250.623 396.877 252.915ZM94.0565 264.129C104.113 264.581 112.479 265.086 112.647 265.251C112.815 265.416 112.53 267.54 112.014 269.97C111.498 272.401 110.243 279.04 109.226 284.723C108.208 290.407 106.468 300.051 105.359 306.155C104.251 312.26 102.67 321.123 101.846 325.852C100.218 335.206 97.9896 346.172 97.6488 346.507C97.5313 346.623 94.486 342.912 90.8827 338.26C87.2787 333.609 81.5295 326.211 78.106 321.819C74.6825 317.427 69.9558 311.344 67.6021 308.299C65.2484 305.255 60.4664 299.101 56.9752 294.626L50.6269 286.488L54.7702 282.49C59.4713 277.954 62.8271 271.676 63.4884 266.181L63.9389 262.44L69.8554 262.874C73.1093 263.113 83.9999 263.678 94.0565 264.129ZM203.967 291.698C211.772 295.534 218.278 298.78 218.422 298.911C218.567 299.041 211.133 310.369 201.901 324.083L185.116 349.02H160.64C143.882 349.02 136 348.758 135.642 348.189C135.122 347.361 133.837 342.201 131.898 333.155C130.687 327.506 129.54 328.916 144.242 317.975C149.805 313.834 156.458 308.852 159.025 306.905C161.593 304.957 167.545 300.48 172.252 296.958C176.96 293.435 182.562 289.242 184.702 287.641C186.841 286.04 188.858 284.729 189.184 284.726C189.509 284.725 196.162 287.862 203.967 291.698ZM423 320.583L454.175 349.171L451.573 352.525C450.142 354.369 448.733 356.618 448.441 357.522C447.944 359.062 447.555 359.138 442.353 358.716C439.297 358.469 426.817 357.859 414.621 357.362C402.425 356.865 392.161 356.209 391.814 355.905C391.204 355.372 389.195 338.744 385.848 306.538C384.974 298.118 384.036 289.693 383.765 287.816L383.273 284.403L387.549 288.199C389.9 290.286 405.854 304.86 423 320.583ZM269.795 292.76C272.35 294.234 274.652 295.439 274.909 295.439C275.167 295.439 276.683 296.242 278.28 297.224C279.876 298.206 284.646 300.817 288.88 303.027C293.114 305.237 299.591 308.688 303.274 310.697C306.957 312.706 312.247 315.57 315.028 317.062C317.81 318.554 322.362 321.032 325.143 322.568C327.925 324.105 331.163 325.766 332.34 326.26C333.517 326.754 334.48 327.359 334.48 327.604C334.48 327.849 331.504 331.187 327.866 335.022C324.229 338.856 321.281 342.283 321.315 342.637C321.349 342.99 325.005 346.531 329.44 350.505C333.874 354.478 337.351 357.969 337.167 358.262C336.984 358.554 335.166 359.034 333.128 359.326C331.09 359.62 327.847 360.306 325.921 360.852C322.259 361.89 317.81 363.003 309.971 364.843C304.971 366.017 298.807 367.524 291.297 369.406C281.981 371.742 282.42 371.851 278.07 366.105C267.796 352.536 265.843 350.15 264.821 349.925C264.216 349.791 258.546 353.554 252.221 358.287C227.744 376.605 212.668 387.793 211.648 388.395C210.601 389.014 209.376 389.359 200.457 391.551C197.996 392.155 193.971 393.148 191.51 393.757C189.049 394.366 184.76 395.384 181.978 396.018C179.197 396.653 174.12 397.912 170.696 398.815C167.273 399.719 162.896 400.768 160.97 401.147C159.045 401.526 156.495 402.226 155.305 402.704C154.114 403.181 152.957 403.393 152.735 403.173C152.511 402.954 166.916 381.122 184.745 354.657C224.411 295.777 220.959 300.797 221.78 300.797C222.159 300.797 227.639 303.381 233.958 306.538C240.278 309.696 246.054 312.279 246.793 312.279C247.532 312.279 248.744 311.326 249.488 310.161C252.338 305.688 264.089 290.081 264.605 290.081C264.904 290.081 267.239 291.287 269.795 292.76ZM377.68 295.78C379.395 296.485 380.788 297.802 381.524 299.416C382.177 300.847 383.623 310.503 384.854 321.656L387.029 341.366H356.475C339.67 341.366 325.921 341.16 325.921 340.909C325.921 340.452 346.114 319.291 360.096 305.095C366.445 298.649 371.781 294.763 374.381 294.691C374.715 294.682 376.2 295.171 377.68 295.78ZM386.401 344.283C386.927 344.612 387.802 347.965 388.346 351.735L389.334 358.588L395.943 358.813C399.578 358.937 402.846 359.327 403.205 359.681C404.133 360.593 408.86 417.708 408.073 418.482C407.89 418.663 393.963 406.121 377.124 390.613C360.284 375.104 341.884 358.196 336.235 353.038L325.962 343.662L355.703 343.673C372.061 343.68 385.874 343.954 386.401 344.283ZM475.707 346.62C482.978 349.87 486.6 357.864 484.282 365.545C483.635 367.684 482.401 370.064 481.538 370.833C479.767 372.409 479.804 372.429 478.762 369.304C477.621 365.883 476.448 366.939 476.688 371.171C476.889 374.723 476.79 374.921 474.432 375.73C470.207 377.179 468.308 376.847 468.308 374.662C468.308 372.726 467.062 371.244 463.244 368.635C458.501 365.393 458.018 358.66 462.212 354.242C464.632 351.694 464.399 351.042 460.722 350.078C458.224 349.423 458.547 348.512 461.889 346.776C465.598 344.85 471.593 344.782 475.707 346.62ZM183.303 351.508C182.019 354.601 149.255 401.812 148.986 400.959C148.805 400.388 148.278 398.75 147.812 397.32C147.346 395.888 146.965 393.71 146.965 392.478C146.965 390.167 151.646 381.741 155.121 377.796C156.199 376.573 157.08 375.344 157.08 375.066C157.08 374.788 160.041 371.482 163.658 367.722C167.276 363.961 170.253 360.54 170.273 360.119C170.296 359.626 164.81 359.432 154.867 359.574C137.654 359.822 138.052 359.934 137.176 354.543L136.655 351.34L159.512 351.125C172.082 351.006 182.668 350.829 183.034 350.73C183.401 350.631 183.522 350.982 183.303 351.508ZM133.814 353.421C134.262 354.578 134.823 356.474 135.059 357.631L135.489 359.736L128.194 359.741C118.269 359.746 115.642 360.599 110.76 365.401C107.462 368.646 106.533 370.152 105.823 373.407C105.202 376.255 104.949 405.774 104.949 475.309C104.949 532.212 104.658 573.38 104.252 573.626C103.868 573.86 101.942 573.833 99.9721 573.568L96.3907 573.085V473.065C96.3907 373.654 96.4008 373.017 98.0161 368.312C100.638 360.672 105.398 356.179 115.064 352.217C116.134 351.779 120.607 351.397 125.004 351.368L132.999 351.316L133.814 353.421ZM261.082 360.274C260.409 363.135 259.157 368.749 258.301 372.748C257.446 376.748 255.521 385.531 254.023 392.267C252.526 399.003 250.88 406.712 250.364 409.399L249.428 414.284L237.294 413.735C230.621 413.434 216.417 412.613 205.73 411.912L186.298 410.637L206.508 395.528C224.61 381.993 232.219 376.295 255.018 359.196C258.601 356.51 261.706 354.482 261.919 354.691C262.131 354.9 261.755 357.412 261.082 360.274ZM438.838 361.002L447.104 361.473L447.495 366.264C447.737 369.226 448.561 372.236 449.654 374.15L451.422 377.245L448 380.978C436.955 393.02 411.956 418.604 411.587 418.241C411.347 418.006 410.086 404.699 408.783 388.672L406.416 359.532L418.494 360.031C425.137 360.306 434.292 360.743 438.838 361.002ZM273.26 366.134C275.151 366.912 279.673 372.161 291.152 386.907C299.601 397.76 306.416 406.727 306.297 406.834C306.178 406.941 301.354 406.587 295.576 406.047C289.799 405.508 278.163 404.464 269.718 403.726C254.827 402.428 254.374 402.339 254.714 400.772C258.557 383.031 261.643 370.508 262.484 369.24C263.557 367.622 267.908 365.143 269.731 365.112C270.279 365.102 271.867 365.562 273.26 366.134ZM477.586 475.7L477.544 573.293H473.315H469.086L468.933 537.509C468.849 517.828 468.81 499.83 468.846 497.515C468.882 495.199 468.951 467.578 468.999 436.134L469.086 378.965L472.004 378.664C473.609 378.499 475.53 378.306 476.275 378.235C477.554 378.113 477.625 383.439 477.586 475.7ZM284.901 407.511C295.934 408.484 305.107 409.424 305.286 409.601C305.465 409.777 298.539 415.155 289.896 421.552C281.252 427.948 271.729 435.032 268.733 437.295C245.137 455.112 230.054 466.226 229.804 465.979C229.506 465.685 230.406 460.085 233.287 444.317C234.132 439.686 235.559 431.784 236.457 426.758C237.354 421.732 238.291 417.298 238.539 416.905C238.786 416.511 241.588 416.355 244.786 416.557C251.428 416.975 251.258 417.13 252.816 409.239L253.696 404.779L259.269 405.26C262.335 405.526 273.869 406.539 284.901 407.511ZM222.243 415.315C237.875 415.909 236.565 414.649 234.177 426.797C232.716 434.221 230.914 443.815 228.189 458.669C227.437 462.773 226.622 466.117 226.38 466.099C226.138 466.081 223.265 462.551 219.996 458.253C216.727 453.956 210.298 445.618 205.709 439.724C189.227 418.555 190.859 421.077 192.15 418.787C194.063 415.393 197.926 413.933 203.764 414.4C206.546 414.622 214.861 415.034 222.243 415.315ZM371.267 442.767C384.581 445.535 394.324 455.513 396.873 468.994C399.306 481.864 391.536 496.459 379.19 502.207C374.375 504.449 366.255 506.344 364.422 505.653C363.858 505.44 357.025 500.68 349.237 495.075C341.449 489.471 332.28 482.882 328.86 480.433C325.441 477.984 322.179 476.156 321.613 476.37C321.047 476.584 320.336 478.382 320.034 480.367C319.523 483.714 319.858 486.117 323.301 503.829L323.711 505.934L265.488 505.923C202.182 505.911 201.534 505.872 193.565 501.606C182.133 495.485 175.011 481.352 177.199 469.13C178.39 462.482 181.278 456.818 185.964 451.943C190.177 447.561 197.083 443.691 202.208 442.841L204.931 442.389L212.323 452.367C216.388 457.855 221.115 464.22 222.827 466.511C226.386 471.276 231.702 468.699 231.702 468.699L237.999 463.824L238.964 463.046L240.85 461.539L242.332 460.391L245.002 458.275L237.999 463.824C237.999 463.824 245.224 457.958 251.616 453.259C255.039 450.743 259.94 447.108 262.506 445.182L267.172 441.682L316.582 441.677C356.509 441.672 367.004 441.881 371.267 442.767ZM344.688 494.473C355.977 502.482 365.299 509.285 365.404 509.59C365.509 509.895 362.945 511.786 359.707 513.792L353.82 517.44L355.596 520.298C356.572 521.871 359.759 526.89 362.677 531.453C365.596 536.017 368.061 540.09 368.155 540.505C368.249 540.921 366.498 542.43 364.264 543.86L360.203 546.459L356.838 541.314C354.987 538.484 351.768 533.467 349.686 530.166C347.603 526.864 345.44 523.989 344.879 523.777C344.318 523.565 341.316 524.959 338.208 526.877L332.557 530.362L328.518 507.24C326.296 494.524 324.286 483.173 324.052 482.014C323.818 480.856 323.746 479.909 323.894 479.909C324.042 479.909 333.399 486.463 344.688 494.473ZM228.662 577.498C228.662 578.502 221.093 578.665 167 578.838L105.338 579.034L104.949 582.478L104.56 585.922L100.476 586.154L96.3907 586.385V582.946C96.3907 579.766 95.3761 577.863 94.2634 578.958C94.0059 579.211 93.6402 581.26 93.4503 583.512C93.1601 586.953 93.336 587.715 94.5536 588.286C97.5399 589.688 450.786 590.07 472.173 588.696L479.59 588.219L479.822 583.435C480.007 579.601 479.823 578.651 478.892 578.651C478.058 578.651 477.663 579.677 477.493 582.287L477.256 585.922H473.365C469.793 585.922 469.457 585.766 469.257 584.009C469.137 582.956 468.868 581.32 468.659 580.373L468.278 578.651H406.826C352.72 578.651 345.373 578.514 345.373 577.503C345.373 576.49 354.311 576.354 421.152 576.354H496.932L499.348 578.575C502.161 581.16 502.377 583.237 500.195 586.709C497.578 590.876 492.437 593.645 483.48 595.716C475.114 597.65 456.178 598.594 380.775 600.832C347.737 601.814 226.465 601.82 193.649 600.842C98.1429 597.997 91.7347 597.527 80.995 592.585C76.665 590.592 71.4924 585.446 71.4924 583.132C71.4924 582.381 72.5794 580.548 73.9076 579.06L76.3219 576.354H152.493C219.544 576.354 228.662 576.492 228.662 577.498ZM342.261 577.503C342.261 578.512 335.603 578.651 287.018 578.651C238.432 578.651 231.775 578.512 231.775 577.503C231.775 576.493 238.432 576.354 287.018 576.354C335.603 576.354 342.261 576.493 342.261 577.503ZM286.633 585.582C315.497 585.54 339.645 585.304 340.297 585.058C342.384 584.27 341.565 585.459 339.187 586.668C335.829 588.376 239.397 588.431 235.251 586.727C233.767 586.117 232.553 585.408 232.553 585.151C232.553 584.894 232.913 584.903 233.354 585.172C233.795 585.439 257.771 585.624 286.633 585.582ZM535.222 605.058C535.222 605.269 535.397 605.441 535.611 605.441C535.825 605.441 536 605.269 536 605.058C536 604.848 535.825 604.676 535.611 604.676C535.397 604.676 535.222 604.848 535.222 605.058Z" fill="#DADDF1"/>
</g>
</svg>
