<svg width="186" height="51" viewBox="0 0 186 51" fill="none" xmlns="http://www.w3.org/2000/svg">
<g id="uuid-bf1b0bb1-7333-4ba8-9ebf-73c04e4bc333" clip-path="url(#clip0_1134_26)">
<path id="Vector" d="M43.0168 6.13919C42.8766 7.33049 42.7364 8.52179 42.605 9.7131C42.3246 12.1392 42.0617 14.574 41.755 17.0001C41.4834 19.1392 41.168 21.2783 40.87 23.4088C40.4407 26.4522 39.985 29.4957 39.5732 32.5392C39.3892 33.9305 39.3542 35.3392 39.1 36.7131C38.8109 38.287 38.1187 39.7131 37.0321 40.9218C36.6816 41.3131 36.4012 41.7566 36.0332 42.1305C35.0431 43.1218 33.7375 43.5479 32.4406 43.974C32.0814 44.0957 31.9324 44.2522 31.8886 44.6348C31.7572 45.887 31.5819 47.1305 31.4067 48.374C31.1613 50.1044 29.4351 51.287 27.6914 50.9305C26.2632 50.6435 25.2204 49.4957 24.9576 47.8783C24.7823 46.8001 24.6597 45.7044 24.4844 44.6261C24.4494 44.4261 24.2741 44.1566 24.0901 44.0783C23.503 43.8088 22.8721 43.6348 22.2675 43.3914C21.9521 43.2609 21.6103 43.1305 21.3738 42.9131C20.6027 42.2087 19.779 41.5218 19.1481 40.6957C18.6487 40.0435 18.4033 39.2001 18.0703 38.4348C17.4132 36.9131 17.2116 35.287 16.9838 33.6696C16.6684 31.4088 16.3266 29.1479 16.0462 26.887C15.8798 25.5131 15.8535 24.1218 15.6782 22.7479C15.3277 20.0348 14.9247 17.3392 14.5479 14.6348C14.1974 12.1827 13.8556 9.72179 13.5052 7.26962C13.3474 6.14788 13.3474 6.12179 12.2083 6.00875C10.2543 5.80875 8.32659 5.93049 6.42515 6.46962C6.05713 6.57397 6.04837 6.80875 6.04837 7.07832C6.04837 7.93919 6.04837 8.80875 6.04837 9.66962C6.04837 22.9131 6.04837 36.1653 6.04837 49.4087C6.04837 49.8783 5.81179 50.1131 5.33862 50.1131C3.61243 50.1131 1.88624 50.1131 0.0899568 50.1131C0.0811944 49.8957 0.0636697 49.7044 0.0636697 49.5131C0.0636697 38.4087 0.0636697 27.3044 0.0636697 16.2001C0.0636697 14.6609 0.0373826 13.1131 0.598175 11.6174C1.17649 10.1044 2.25426 8.96527 3.35832 7.85223C3.62119 7.59136 4.05931 7.48701 4.41857 7.32179C4.68144 7.20006 4.95307 7.09571 5.21595 6.97397C5.7855 6.7218 6.05713 6.32179 6.02208 5.66962C5.97827 4.89571 6.02208 4.12179 6.05713 3.34788C6.13599 1.39136 7.75703 -0.0782054 9.7198 5.54384e-05C10.6749 0.0435337 11.4197 0.53049 12.0155 1.20006C12.6902 1.95658 13.1284 2.83484 13.1459 3.87832C13.1547 4.46962 13.2423 5.06092 13.2686 5.65223C13.2861 6.03484 13.4964 6.20875 13.8294 6.34788C14.6881 6.69571 15.5468 7.03484 16.3704 7.44353C17.9564 8.23484 18.7889 9.69571 19.56 11.1653C20.5589 13.0696 21.0057 15.1218 21.1372 17.2783C21.2511 19.1914 21.5578 21.1044 21.8119 23.0087C22.2588 26.3914 22.7582 29.774 23.1788 33.1653C23.5819 36.3566 23.9061 39.5566 24.2829 42.7566C24.4406 44.1392 24.4581 44.1392 25.8075 44.3566C27.6564 44.6522 29.4965 44.5827 31.3366 44.2522C31.801 44.1653 31.9675 43.9305 32.02 43.5131C32.3092 41.3218 32.6071 39.1305 32.905 36.9392C33.2117 34.6435 33.5535 32.3479 33.8251 30.0435C34.0003 28.5827 34.0442 27.1044 34.2282 25.6348C34.64 22.374 35.0431 19.1044 35.5776 15.8609C35.8492 14.2435 36.3837 12.6609 36.8832 11.087C37.0409 10.5914 37.4177 10.1479 37.7594 9.73049C38.2851 9.08701 38.8547 8.47832 39.4243 7.87832C39.5907 7.7044 39.8273 7.56527 40.0464 7.46093C41.0365 7.00875 42.0354 6.58266 43.0343 6.14788H43.0168V6.13919Z" fill="black"/>
<path id="Vector_2" d="M185.055 50.1044C182.987 50.1044 181.042 50.1044 179.097 50.087C178.965 50.087 178.746 49.8957 178.702 49.7566C178.019 47.1305 177.362 44.5044 176.678 41.8783C176.144 39.8087 175.574 37.7479 175.022 35.6783C174.908 35.2609 174.672 35.0957 174.198 35.0957C167.083 35.1131 159.968 35.1131 152.862 35.0957C152.406 35.0957 152.205 35.2174 152.091 35.6957C151.425 38.5827 150.742 41.4609 150.023 44.3392C149.585 46.0783 149.059 47.8 148.604 49.5392C148.498 49.9479 148.323 50.1218 147.868 50.1131C145.992 50.087 144.126 50.1044 142.216 50.1044C142.251 49.9131 142.268 49.774 142.303 49.6435C143.294 46.0783 144.292 42.5218 145.265 38.9479C145.747 37.1827 146.159 35.4001 146.641 33.6348C147.07 32.0609 147.587 30.5044 148.034 28.9305C148.884 25.887 149.725 22.8435 150.549 19.7914C150.82 18.7827 150.987 17.7566 151.259 16.7479C151.539 15.687 151.863 14.6435 152.205 13.6001C152.336 13.1914 152.538 12.8087 152.731 12.4174C152.888 12.0957 153.151 11.8087 153.248 11.4696C153.782 9.73918 155.307 8.86092 156.56 7.79136C157.217 7.23483 158.181 7.01744 159.022 6.68701C159.408 6.53918 159.565 6.28701 159.67 5.91309C160.117 4.36527 160.398 2.76527 161.195 1.32179C161.581 0.617442 162.08 0.243529 162.851 0.0870075C164.525 -0.243427 165.839 0.426138 166.356 2.01744C166.786 3.33049 167.136 4.66962 167.487 6.00875C167.565 6.32179 167.688 6.5044 167.995 6.62614C168.722 6.91309 169.493 7.13049 170.133 7.55657C171.85 8.67831 173.445 9.95657 174.172 11.974C174.777 13.6435 175.452 15.2957 175.951 16.9914C177.073 20.8001 178.255 24.6001 179.114 28.4696C179.877 31.9044 181.13 35.174 181.971 38.5827C182.584 41.0696 183.346 43.5305 184.021 46.0087C184.38 47.3392 184.687 48.687 185.038 50.1218L185.055 50.1044ZM153.546 30.1479H173.655C173.629 29.9653 173.611 29.7914 173.568 29.6261C173.165 28.0957 172.726 26.574 172.341 25.0435C171.938 23.4435 171.596 21.8261 171.184 20.2261C170.518 17.6348 169.791 15.0522 169.116 12.4696C168.634 10.6261 168.205 8.77396 167.714 6.93918C167.653 6.72179 167.381 6.45222 167.154 6.39136C164.77 5.77396 162.378 5.73918 159.986 6.37396C159.662 6.46092 159.46 6.60005 159.39 6.95657C159.11 8.33049 158.838 9.7044 158.479 11.0522C157.839 13.487 157.059 15.8783 156.498 18.3305C155.868 21.0783 155.298 23.8348 154.457 26.5305C154.098 27.6783 153.852 28.8522 153.528 30.1392L153.546 30.1479Z" fill="black"/>
<path id="Vector_3" d="M120.791 44.8348C119.363 44.5392 117.996 44.0783 116.708 43.3827C115.779 42.887 115 42.2609 114.474 41.3131C114.018 40.4783 113.44 39.7131 112.984 38.8783C112.318 37.6783 112.169 36.3305 111.889 35.0088C111.284 32.2522 110.522 29.5305 109.874 26.7914C108.866 22.5479 107.893 18.287 106.903 14.0348C106.342 11.6001 105.755 9.17397 105.229 6.73919C105.098 6.13049 104.739 6.06093 104.222 6.00875C102.215 5.82614 100.235 5.82614 98.2809 6.45223C97.7902 6.60875 97.6413 6.80006 97.6413 7.3044C97.6588 21.287 97.65 35.2783 97.65 49.2609C97.65 49.5131 97.65 49.7653 97.65 50.0522H91.4463C91.4463 49.8174 91.4463 49.574 91.4463 49.3305C91.4463 39.087 91.4463 28.8522 91.4638 18.6087C91.4638 16.9914 91.4375 15.3653 91.5777 13.7566C91.7004 12.3044 92.3663 11.0348 93.1812 9.80006C94.1539 8.33049 95.5033 7.45223 97.0893 6.84353C97.5186 6.67832 97.6588 6.41745 97.65 5.98266C97.6325 5.00875 97.615 4.03484 97.6763 3.06962C97.7464 1.92179 98.9294 0.434838 99.8932 0.156577C101.295 -0.252118 102.802 0.113099 103.573 1.23484C103.994 1.85223 104.178 2.63484 104.397 3.36527C104.642 4.15658 104.783 4.97397 105.019 5.76527C105.072 5.93049 105.317 6.1131 105.501 6.15658C107.876 6.68701 109.987 7.64353 111.424 9.68701C112.432 11.1305 113.159 12.7218 113.598 14.4261C114.097 16.3914 114.465 18.3914 114.938 20.3653C115.578 23.0001 116.279 25.6261 116.919 28.2609C117.742 31.6435 118.54 35.0435 119.328 38.4348C119.828 40.5653 120.301 42.7044 120.791 44.8435L120.809 44.8261L120.791 44.8348Z" fill="black"/>
<path id="Vector_4" d="M70.96 0.913086H76.8921V50.0522H70.96V0.913086Z" fill="black"/>
<path id="Vector_5" d="M43.0341 6.14787C43.1567 5.46092 43.3145 4.77396 43.3846 4.07831C43.5072 2.94787 43.9366 1.95657 44.5938 1.05222C45.7241 -0.5043 48.5982 -0.286909 49.6146 1.33918C50.3507 2.51309 50.4032 3.73918 50.3507 5.01744C50.2981 6.47831 50.2806 6.5044 51.63 7.087C54.5391 8.33918 55.9498 10.7479 56.3178 13.6348C56.6596 16.3131 56.5281 19.0522 56.5369 21.774C56.5719 31.0261 56.5719 40.2696 56.5807 49.5218C56.5807 49.6957 56.5807 49.8783 56.5807 50.0783H50.3857C50.3682 49.8522 50.3331 49.6261 50.3331 49.4C50.3331 35.5827 50.3331 21.7653 50.3331 7.93918C50.3331 6.39135 50.3331 6.41744 48.7559 6.14787C46.9859 5.84353 45.2159 5.83483 43.4371 6.10439C43.2969 6.12179 43.148 6.12179 42.999 6.13048L43.0165 6.13918L43.0341 6.14787Z" fill="black"/>
<path id="Vector_6" d="M120.774 44.8522C121.984 44.8957 123.202 45.0174 124.411 44.9566C125.489 44.9044 126.566 44.6609 127.635 44.487C128.065 44.4174 128.214 44.1653 128.214 43.7305C128.196 29.8957 128.187 16.0522 128.179 2.21743C128.179 1.79135 128.179 1.36526 128.179 0.913086H134.347C134.365 1.22613 134.391 1.53048 134.391 1.82613C134.391 13.2174 134.365 24.6087 134.391 36C134.391 38.4783 133.646 40.6348 131.841 42.3044C131 43.0783 129.861 43.5479 128.827 44.087C128.389 44.3131 128.152 44.5218 128.196 45.0435C128.249 45.7044 128.214 46.374 128.205 47.0435C128.196 48.1044 127.872 49.0957 127.276 49.9305C126.601 50.8783 125.515 51.087 124.393 50.9305C123.289 50.774 122.536 50.2261 122.054 49.1653C121.423 47.774 121.142 46.2957 120.783 44.8348L120.766 44.8522H120.774Z" fill="black"/>
<path id="Vector_7" d="M153.545 30.1478C153.869 28.8608 154.114 27.6782 154.474 26.5391C155.315 23.8435 155.884 21.0869 156.515 18.3391C157.076 15.8956 157.856 13.4956 158.496 11.0608C158.846 9.70432 159.118 8.33041 159.407 6.96519C159.477 6.60867 159.679 6.46954 160.003 6.38258C162.395 5.7478 164.787 5.78258 167.17 6.39997C167.398 6.46084 167.67 6.72171 167.731 6.9478C168.222 8.78258 168.651 10.6348 169.133 12.4782C169.808 15.0695 170.526 17.6435 171.201 20.2348C171.613 21.8348 171.955 23.4521 172.358 25.0521C172.743 26.5826 173.173 28.1043 173.584 29.6348C173.628 29.8 173.637 29.9739 173.672 30.1565H153.562L153.545 30.1478Z" fill="white"/>
</g>
<defs>
<clipPath id="clip0_1134_26">
<rect width="185" height="51" fill="white" transform="translate(0.0546875)"/>
</clipPath>
</defs>
</svg>
