<svg width="229" height="79" viewBox="0 0 229 79" fill="none" xmlns="http://www.w3.org/2000/svg">
<g id="logo 1">
<g id="Group">
<path id="Vector" d="M97.0422 21.9751C93.3785 21.9751 90.7144 22.8515 88.4509 24.8732L84.454 28.3773C84.1209 28.6476 83.4545 28.8496 82.9891 28.4442C82.5224 28.0401 82.4563 27.5009 82.8556 26.9617L84.9869 23.7265C85.3201 23.2541 85.0543 22.6481 84.454 22.6481H79.3254C78.7265 22.6481 78.2598 23.1204 78.2598 23.7265V55.2707C78.2598 55.8768 78.7265 56.3492 79.3254 56.3492H84.6537C85.2526 56.3492 85.7193 55.8768 85.7193 55.2707V37.4769C85.7193 29.322 92.4464 28.0415 94.977 28.0415C100.371 28.0415 102.303 31.9511 102.303 34.9161V55.2707C102.303 55.8768 102.77 56.3492 103.369 56.3492H108.697C109.296 56.3492 109.763 55.8768 109.763 55.2707V34.2417C109.763 26.6928 104.9 21.9751 97.0408 21.9751H97.0422Z" fill="black"/>
<path id="Vector_2" d="M131.474 21.8398C121.15 21.8398 114.557 28.2434 114.557 36.9376V41.7236C114.557 50.8901 121.15 57.1586 131.474 57.1586C140.598 57.1586 146.992 52.3726 147.658 45.9021C147.725 45.2277 147.259 44.7568 146.592 44.7568H141.398C140.931 44.7568 140.532 45.0271 140.398 45.498C139.732 47.6549 136.602 50.8901 131.474 50.8901C126.345 50.8901 121.549 47.1157 121.616 41.7236L121.683 35.7255C121.749 31.2098 126.412 28.1097 131.474 28.1097C136.069 28.1097 140.532 30.7388 140.997 35.0525C141.035 35.5513 140.697 36.0013 140.211 36.0961L125.278 39.029C124.679 39.1641 124.212 39.7033 124.212 40.3763V40.4432C124.212 41.0492 124.811 41.5884 125.677 41.5884H147.124C147.713 41.5884 148.189 41.105 148.189 40.51V36.2647C148.189 28.2448 141.329 21.8412 131.472 21.8412L131.474 21.8398Z" fill="black"/>
<path id="Vector_3" d="M168.637 21.8399C160.311 21.8399 153.119 26.7596 153.119 33.2301C153.119 33.7693 153.585 34.1734 154.184 34.1734H159.579C160.111 34.1734 160.511 33.7693 160.578 33.2301C161.111 30.2652 164.641 28.1083 168.437 28.1083C172.965 28.1083 176.03 30.9395 176.03 35.7924V41.6568C176.03 47.6549 171.634 50.6881 166.172 50.6881C161.91 50.6881 159.445 49.0705 159.445 46.4414C159.445 44.1494 160.644 42.1946 165.572 41.0493L172.698 39.0945C173.431 38.8925 173.698 38.285 173.564 37.612C173.498 37.0728 172.899 36.8025 172.365 36.8025H164.973C158.713 36.8025 152.385 40.8459 152.385 46.7771V47.7204C152.385 53.7868 158.046 56.9538 164.506 56.9538C168.635 56.9538 172.165 55.3362 174.363 53.4496L177.627 50.6185C178.16 50.1461 178.693 50.1461 179.158 50.6185C179.558 51.0225 179.424 51.63 179.091 52.1009L177.093 55.2693C176.76 55.7416 177.026 56.3477 177.626 56.3477H182.421C183.02 56.3477 183.487 55.8754 183.487 55.2693V34.8463C183.487 27.0285 177.959 21.8385 168.634 21.8385L168.637 21.8399Z" fill="black"/>
<path id="Vector_4" d="M212.26 22.6494H204.8C202.203 22.6494 199.672 24.267 197.873 25.8178L194.944 28.3787C194.61 28.649 194.01 28.851 193.611 28.5138C193.144 28.1766 192.944 27.5023 193.345 26.9631L195.476 23.7278C195.81 23.2555 195.544 22.6494 194.944 22.6494H189.948C189.35 22.6494 188.883 23.1217 188.883 23.7278V55.2721C188.883 55.8782 189.35 56.3505 189.948 56.3505H195.41C196.009 56.3505 196.476 55.8782 196.476 55.2721V39.0959C196.476 32.1531 199.274 29.053 205.334 29.053H212.261C212.86 29.053 213.327 28.5807 213.327 27.9746V23.7278C213.327 23.1217 212.86 22.6494 212.261 22.6494H212.26Z" fill="black"/>
</g>
<path id="Vector_5" d="M58.2417 15.0476C56.4518 15.0476 54.79 15.9867 53.8524 17.5305L43.7507 32.7077C43.4217 33.2079 43.5552 33.8822 44.0495 34.2152C44.4501 34.4855 44.9802 34.4521 45.3451 34.1344L55.2884 25.4068C55.4536 25.2563 55.7083 25.2716 55.857 25.4388C55.9245 25.5155 55.9603 25.6144 55.9603 25.7161V53.0415C55.9603 53.2672 55.7799 53.4483 55.5569 53.4483C55.4371 53.4483 55.3242 53.3954 55.2485 53.302L25.1913 16.8923C24.2124 15.7234 22.775 15.049 21.2619 15.0476H20.2114C17.3683 15.0476 15.0635 17.38 15.0635 20.2571V58.7428C15.0635 61.62 17.3683 63.9524 20.2114 63.9524C22.0012 63.9524 23.663 63.0133 24.6007 61.4695L34.7023 46.2923C35.0314 45.7921 34.8978 45.1178 34.4035 44.7848C34.0029 44.5145 33.4728 44.5479 33.108 44.8656L23.1646 53.5932C22.9994 53.7437 22.7447 53.7284 22.596 53.5612C22.5285 53.4845 22.4928 53.3856 22.4941 53.2839V25.9516C22.4941 25.7258 22.6745 25.5447 22.8975 25.5447C23.0159 25.5447 23.1302 25.5977 23.2059 25.691L53.259 62.1076C54.2379 63.2766 55.6753 63.951 57.1884 63.9524H58.2389C61.082 63.9538 63.3882 61.6228 63.3909 58.7456V20.2571C63.3909 17.38 61.0862 15.0476 58.243 15.0476H58.2417Z" fill="black"/>
</g>
</svg>
