<svg width="705" height="468" viewBox="0 0 705 468" fill="none" xmlns="http://www.w3.org/2000/svg">
<path opacity="0.32" fill-rule="evenodd" clip-rule="evenodd" d="M729.127 197.461H732.841V201.344C730.612 201.344 728.361 201.432 726.144 201.602L725.828 197.508L726.472 197.461H727.951H728.911H729.127ZM716.962 198.87C717.594 198.753 718.225 198.648 718.863 198.549L718.898 198.315L719.529 202.362C717.336 202.707 715.125 203.146 712.967 203.66L712.014 199.677C713.248 199.385 714.494 199.11 715.751 198.87H715.827H715.886H715.956H716.02H716.061H716.131H716.202H716.272H716.336H716.511H716.588H716.646H716.716H716.781H716.857H716.962ZM705.223 201.812H705.188H705.153H705.118H705.077H705.042H705.001H704.96H704.919H704.873H704.832H704.785H704.738H704.691H704.639H704.586H704.539L704.44 201.847H704.393L704.294 201.882C702.486 202.495 700.714 203.165 698.965 203.894L700.533 207.678C702.586 206.825 704.697 206.047 706.808 205.339L705.545 201.45L705.223 201.812ZM692.239 207.187H692.274L692.333 207.146L694.193 210.79C692.204 211.802 690.239 212.901 688.344 214.071L686.203 210.562C688.028 209.439 689.894 208.38 691.806 207.386L691.953 207.31L692.04 207.263L692.099 207.234L692.187 207.187H692.239ZM680.325 214.533C679.741 214.96 679.156 215.399 678.571 215.843L678.442 215.943L678.36 216.007L678.325 216.036L678.243 216.101L678.202 216.136L678.167 216.165H678.132L678.091 216.194H678.056H678.021L677.986 216.223H677.951H677.91H677.875L677.84 216.253H677.799L677.764 216.282H677.729H677.694L677.658 216.311H677.623H677.588H677.553L677.518 216.34H677.483L677.448 216.37H677.419L677.384 216.399H677.348L677.319 216.428H677.284V216.457H677.249H677.214L677.179 216.487H677.144L677.109 216.516H677.074L677.038 216.545H677.003L676.922 216.609L676.886 216.645L676.805 216.715C676.337 217.095 675.875 217.487 675.418 217.884L678.08 220.99C679.77 219.546 681.542 218.148 683.343 216.838L680.928 213.533L680.325 214.533ZM669.646 223.681L669.675 223.651L670.342 223.148L673.266 226.038C671.699 227.617 670.172 229.272 668.727 230.962L665.61 228.301C665.973 227.88 666.341 227.459 666.71 227.044L666.821 226.927L666.885 226.856L666.92 226.821L666.955 226.786V226.757V226.728L666.985 226.698V226.669V226.634L667.02 226.599L667.055 226.564V226.529L667.09 226.494L667.125 226.459L667.16 226.424V226.383L667.195 226.342L667.271 226.26L667.306 226.219L667.382 226.143C668.061 225.406 668.757 224.681 669.459 223.961L669.5 223.926L669.576 223.85L669.611 223.815L669.646 223.78V223.745V223.71V223.681ZM660.574 234.319L660.574 234.319C660.504 234.413 660.434 234.507 660.37 234.606C660.37 234.637 660.337 234.67 660.306 234.703C660.295 234.714 660.285 234.724 660.276 234.735V234.77V234.799V234.84V234.875L660.247 234.916L660.153 235.045C659.522 235.938 658.908 236.846 658.305 237.77L658.247 237.858L658.159 237.998V238.045V238.086V238.127L658.106 238.215V238.256V238.296L658.077 238.337V238.372V238.408V238.449V238.484V238.519V238.56V238.601V238.636V238.671V238.706V238.741V238.776V238.805V238.84V238.875V238.905V238.94V238.969V239.004V239.033V239.068V239.104V239.133V239.168V239.197V239.238V239.267V239.302V239.343V239.373V239.408L661.586 241.548C662.756 239.653 664.002 237.782 665.306 235.98L661.996 233.577L660.574 234.319ZM653.217 246.333L653.252 246.262L653.948 245.666L657.592 247.526C656.586 249.508 655.644 251.55 654.796 253.602L651.012 252.041V252V251.953C651.029 251.923 651.041 251.892 651.053 251.86C651.702 250.304 652.392 248.771 653.123 247.262L653.17 247.169V247.128L653.217 247.034V246.988V246.947V246.906V246.865V246.824V246.783V246.742V246.701V246.66V246.625V246.584V246.543V246.508V246.479V246.444V246.414V246.373V246.333ZM647.895 259.223V259.323V259.375V259.422V259.469V259.516V259.557V259.603V259.638V259.679V259.72V259.755V259.796V259.831V259.878V259.925V259.966V260.007V260.299V260.329V260.375V260.405V260.451V260.481V260.516V260.58V260.621V260.662V260.697V260.738V260.785V260.814V260.855V260.908V260.954V261.001V261.06V261.101V261.159V261.2V261.235V261.469V261.504V261.58V261.615V261.697V261.756V261.814V262.054V262.13V262.206V262.235V262.311V262.346V262.411V262.452V262.516V262.557V262.592V262.656V262.697V262.762V262.803V262.861V262.902V262.949V262.984V263.031V263.072V263.118V263.159V263.206V263.253V263.3V263.346V263.393V263.446V263.499V263.598V263.697V263.744V263.844V263.949V264.002V264.107V264.206C647.877 264.258 647.865 264.311 647.854 264.364V264.469C647.854 264.522 647.854 264.575 647.813 264.627V264.727V264.832V264.885V264.99V265.089V265.136V265.236V265.288V265.335V265.382V265.429V265.475V265.592V265.633V265.668V265.709L651.796 266.657C652.31 264.499 652.913 262.329 653.597 260.223L649.702 258.966L647.895 259.223ZM644.432 274.389C644.502 273.88 644.572 273.371 644.654 272.868L644.754 272.827L648.795 273.453C648.456 275.646 648.199 277.886 648.029 280.109L643.935 279.799C643.941 279.707 643.951 279.616 643.96 279.524C643.977 279.364 643.993 279.204 643.993 279.044V279.015V278.752V278.676C644.11 277.358 644.257 276.05 644.432 274.751V274.675V274.488V274.424V274.389ZM647.684 286.841H647.62L647.62 286.735L647.684 286.841ZM647.62 286.841C647.623 289.04 647.716 291.256 647.889 293.432L643.795 293.754L643.742 293.052V293.005V292.789V292.76V292.689V292.654V292.549C643.734 292.421 643.725 292.293 643.717 292.165L643.717 292.164C643.654 291.202 643.59 290.232 643.59 289.262V289.157V289.122V289.051V289.022V288.958V288.396V288.367V288.338V288.274V288.239V288.209V288.145V287.706V287.665V287.531V287.455V287.408V287.332V287.256V287.174V287.069V286.993V286.917V286.841H647.62ZM648.682 300.197L648.742 300.187L648.666 300.1L648.682 300.197ZM648.682 300.197L644.701 300.831C644.777 301.299 644.853 301.755 644.935 302.223V302.252V302.404V302.457V302.533V302.562C645.239 304.264 645.596 305.954 645.999 307.621L649.977 306.662C649.464 304.536 649.03 302.358 648.682 300.197ZM651.883 313.189L651.071 313.454C650.876 312.902 650.687 312.35 650.503 311.797L651.883 313.189ZM651.071 313.454C651.62 315.009 652.212 316.556 652.842 318.067L649.064 319.646C648.789 318.991 648.526 318.33 648.269 317.669C648.266 317.664 648.264 317.658 648.261 317.652C648.257 317.644 648.253 317.636 648.248 317.627C648.229 317.589 648.21 317.551 648.21 317.517L648.175 317.424V317.371V317.324V317.277L648.14 317.184V317.137V317.09V317.043V316.997V316.956V316.909V316.868V316.827V316.786V316.751V316.71V316.669V316.628V316.587V316.558V316.517V316.476V316.441V316.4V316.365V316.324V316.283V316.254V316.225V316.189V316.149V316.113V316.073V316.037V316.008V315.979V315.938V315.909V315.88V315.833V315.798V315.757V315.722V315.675V315.64V315.605V315.558V315.529V315.499V315.458V315.423V315.377V315.347V315.3V315.248V315.195V315.143V315.055V314.996L648.105 314.903V314.803L647.988 314.458L651.071 313.454ZM656.97 325.561L657.03 325.53L656.937 325.495L656.97 325.561ZM656.97 325.561L653.386 327.401C654.392 329.355 655.469 331.273 656.609 333.139L656.691 333.279V333.326V333.373L656.72 333.414V333.455V333.496L660.229 331.343C659.073 329.475 657.979 327.532 656.97 325.561ZM664.049 336.917L660.744 339.333V339.368V339.403L660.773 339.438V339.479L660.808 339.52C662.136 341.317 663.522 343.06 664.973 344.748L668.242 342.181C666.792 340.496 665.394 338.73 664.084 336.917H664.049ZM669.88 349.995L672.769 347.07L670.927 345.164C672.5 346.731 674.161 348.258 675.851 349.697L673.202 352.814L672.746 352.422L672.67 352.352L672.629 352.317L672.553 352.252H672.512H672.477H672.442H672.406H672.377H672.342H672.307V352.223H672.272H672.237V352.194H672.202H672.173L672.137 352.165H672.102V352.135L672.067 352.1L672.032 352.065L671.997 352.03L671.962 351.995L671.886 351.925L671.845 351.89L671.769 351.82C671.131 351.223 670.5 350.615 669.88 349.995ZM682.963 355.738L680.565 359.054C682.455 360.423 684.408 361.72 686.414 362.944L688.549 359.435C686.654 358.265 684.776 357.031 682.975 355.727L682.963 355.738ZM692.532 366.359L694.386 362.704L694.088 362.26C696.076 363.295 698.117 364.207 700.17 365.049L698.614 368.833H698.579H698.544H698.509H698.468H698.433H698.398H698.363H698.328H698.281H698.234H698.193H698.147L698.053 368.793H698.006H697.959H697.907L697.755 368.734C696.088 368.02 694.45 367.258 692.836 366.447L692.742 366.4H692.696L692.608 366.359H692.567H692.532ZM706.756 367.792L705.504 371.688H705.539H705.58H705.639H705.68H705.715H705.761H705.808H705.849H705.896H705.937H705.984H706.03H706.083H706.13H706.229L706.329 371.723C707.615 372.113 708.914 372.481 710.23 372.828H710.335H710.388H710.44H710.493H710.54H710.587H710.633H710.668H710.739H710.774H710.902H710.937H710.978H711.025H711.072H711.13L712.06 373.056L713.002 369.067C710.838 368.559 708.668 367.956 706.569 367.278L706.756 367.792ZM719.149 374.91L719.775 370.863L719.798 370.594C721.992 370.933 724.226 371.185 726.448 371.348L726.144 375.442C725.325 375.384 724.507 375.314 723.694 375.232H723.588H723.553H723.448H723.413H723.343H722.67H722.606H721.834H721.728H721.693H721.623H721.489C720.687 375.133 719.915 375.027 719.149 374.91ZM739.818 371.577C737.602 371.752 735.35 371.851 733.122 371.857V375.951C734.894 375.951 736.648 375.895 738.386 375.782H738.76L740.128 375.677L739.801 371.582L739.818 371.577ZM746.463 370.769C748.656 370.418 750.867 369.974 753.025 369.448L752.996 369.565L753.961 373.542L752.99 373.776H752.89H752.82H752.604H752.557H752.498C750.726 374.173 748.931 374.524 747.112 374.817L746.463 370.769ZM765.728 365.272C763.681 366.131 761.57 366.915 759.458 367.611L760.739 371.5C761.324 371.313 761.862 371.126 762.424 370.916H762.476H762.535H762.581H762.64H762.675H762.716H762.751H762.792H762.833H762.868H762.903H762.944H762.979H763.02H763.067H763.114H763.16L763.26 370.88C764.131 370.559 765.015 370.225 765.863 369.88H765.909H765.956H766.003H766.05H766.097H766.137H766.178H766.213H766.254L766.933 369.6L765.348 365.827L765.728 365.272ZM777.609 359.145L777.613 359.142L777.589 359.113L777.609 359.145ZM777.609 359.145C775.721 360.314 773.763 361.424 771.764 362.441L773.641 366.079C775.723 365.008 777.735 363.85 779.747 362.622L777.609 359.145ZM788.398 351.223C786.713 352.673 784.953 354.077 783.134 355.393L785.555 358.692C786.291 358.18 787.014 357.611 787.731 357.046L787.757 357.026L788.041 356.803H788.082L788.123 356.768H788.164L788.205 356.732H788.24L788.275 356.703H788.304H788.339H788.368H788.409L788.456 356.662L788.532 356.604L788.579 356.563L788.655 356.504L788.708 356.463L788.784 356.399L789.953 355.411L790.029 355.346L790.076 355.305L790.152 355.241L790.193 355.206L790.263 355.147H790.298L787.62 352.048L788.398 351.223ZM793.299 346.655C794.866 345.076 796.387 343.415 797.826 341.719L797.814 341.783L800.937 344.433L800.902 344.474C799.399 346.224 797.838 347.913 796.223 349.539L793.299 346.655ZM805.686 330.881C805.407 331.335 805.124 331.788 804.838 332.238L804.423 331.987L805.686 330.881ZM804.838 332.238L807.932 334.116L807.301 335.139L807.248 335.227V335.268V335.309V335.344V335.385V335.42V335.455V335.484V335.514V335.554L807.219 335.601L807.172 335.683L807.137 335.73L807.084 335.812L806.991 335.946L806.938 336.028L806.903 336.081L806.85 336.163L806.762 336.297L806.71 336.379L806.675 336.426L806.622 336.508L806.587 336.555L806.534 336.631L806.499 336.677V336.718V336.759V336.794V336.824V336.859V336.888V336.923V336.964V336.999V337.04V337.081V337.116L806.47 337.157L806.412 337.245V337.292C806.049 337.818 805.68 338.338 805.306 338.859L801.984 336.461C802.977 335.09 803.926 333.675 804.838 332.238ZM811.548 319.334C811.602 319.202 811.657 319.07 811.711 318.938L811.395 319.272L811.548 319.334ZM811.548 319.334C810.751 321.258 809.89 323.161 808.933 325.033L812.588 326.875C813.366 325.315 814.114 323.718 814.834 322.085L814.869 321.997V321.95V321.909V321.88V321.845V321.804V321.757V321.716V321.67V321.629V321.582C814.869 321.548 814.891 321.511 814.911 321.475C814.916 321.467 814.921 321.459 814.925 321.452C814.928 321.446 814.931 321.441 814.933 321.436L815.185 320.822L811.548 319.334ZM815.805 306.2C815.772 306.339 815.739 306.479 815.705 306.619L815.29 306.521L815.805 306.2ZM815.705 306.619L819.273 307.457C819.195 307.816 819.112 308.157 819.029 308.5L819.029 308.501L818.998 308.627V308.685V308.726V308.773V308.808V308.855V308.89V308.966V309.007V309.036V309.077V309.112V309.159V309.206V309.253V309.3V309.352V309.399L818.969 309.504C818.729 310.428 818.472 311.341 818.203 312.247V312.347V312.393V312.44V312.493L818.173 312.587V312.633V312.674V312.715V312.744V312.815V312.856V312.891V312.932V312.973V313.031V313.084V313.177C818.149 313.251 818.126 313.326 818.103 313.4L818.062 313.528C818.026 313.645 817.989 313.762 817.951 313.879L814.05 312.633C814.657 310.669 815.219 308.644 815.705 306.619ZM817.813 293.027L817.816 292.976L817.664 293.017L817.813 293.027ZM817.813 293.027C817.649 295.227 817.399 297.45 817.068 299.626L821.115 300.246C821.115 300.146 821.115 300.059 821.162 299.965V299.901V299.725V299.679V299.632V299.486C821.267 298.76 821.367 298.029 821.449 297.292V297.222V297.146V297.099V296.883V296.848V296.819V296.719V296.69C821.571 295.567 821.677 294.444 821.759 293.309L817.813 293.027ZM821.829 279.243L817.735 279.582C817.922 281.793 818.015 284.045 818.027 286.273H822.121V284.484V284.378V284.144V284.045V284.01V283.981V283.946V283.881V283.811V283.776V283.712V283.682V283.612V283.577V283.507V283.478V283.407V283.109V283.074V283.004V282.975V282.875V282.846V282.811V282.711V282.524V282.197V282.115V282.033V281.928C822.074 281.05 822.016 280.173 821.946 279.313L821.829 279.243ZM815.6 266.382L819.577 265.405L819.753 265.452C819.773 265.543 819.795 265.633 819.817 265.724C819.839 265.814 819.861 265.905 819.881 265.996V266.06V266.089V266.148V266.417V266.47V266.575V266.68C820.302 268.528 820.671 270.394 820.975 272.283L816.933 272.938C816.577 270.745 816.126 268.534 815.6 266.382ZM815.132 252.111L811.36 253.696C812.219 255.749 813.015 257.854 813.699 259.966L817.589 258.679L817.325 257.901L817.296 257.802V257.755V257.708V257.667V257.62V257.58V257.539V257.504V257.457V257.422V257.381V257.34V257.281V257.24L817.267 257.153V257.1L817.232 257.006C816.688 255.468 816.097 253.959 815.477 252.462V252.403V252.339L815.132 252.111ZM805.189 241.817L808.698 239.659L810.897 240.829L811.137 241.215V241.262V241.308V241.349V241.384V241.42V241.455V241.49V241.531V241.566V241.601V241.642V241.677V241.718V241.759V241.8V241.841L811.19 241.928V241.969V242.01V242.051V242.098V242.145V242.192L811.243 242.285V242.332L811.295 242.426L811.354 242.513V242.554L811.406 242.642V242.689L811.459 242.782L811.541 242.923L811.593 243.016V243.063L811.646 243.157C811.65 243.162 811.654 243.168 811.658 243.174L811.666 243.184L811.678 243.2C811.703 243.232 811.728 243.265 811.728 243.297L811.781 243.391V243.437L811.833 243.531V243.578L811.886 243.665L811.939 243.759V243.806L811.991 243.894V243.94V243.987V244.034L812.044 244.122V244.168L812.091 244.256V244.297V244.344V244.385V244.426V244.467V244.508L812.137 244.595V244.636V244.677V244.718V244.759V244.8V244.841V244.876V244.911V244.952V244.987V245.028V245.069V245.104V245.145V245.18V245.215V245.256V245.291V245.332V245.367V245.403V245.438V245.473V245.502V245.537V245.572V245.601V245.642V245.677V245.707V245.748V245.783L808.5 247.666C807.482 245.666 806.359 243.706 805.189 241.817ZM800.382 228.365L797.282 231.044C798.738 232.728 800.148 234.489 801.464 236.279L804.762 233.851C804.458 233.436 804.148 233.027 803.838 232.623L803.803 232.582V232.541V232.506L803.774 232.471V232.436V232.401V232.366V232.337V232.301V232.266V232.237V232.202L803.715 232.132L803.686 232.091V232.05V232.009L803.651 231.968L803.592 231.892L803.557 231.845L803.499 231.769L803.458 231.728L803.394 231.652L803.294 231.529L803.236 231.453L803.201 231.412L803.142 231.342L803.107 231.301L803.049 231.231L803.013 231.19L802.978 231.155V231.12L802.949 231.085V231.056V231.026V230.997H802.92V230.968V230.933L802.891 230.898V230.863V230.828L802.861 230.792L802.826 230.757V230.716V230.681L802.791 230.64V230.605V230.57V230.535L802.727 230.453L802.692 230.412L802.622 230.336L802.586 230.295L802.516 230.213L802.481 230.173L802.446 230.132L802.411 230.091L802.341 230.009L802.306 229.968L802.236 229.892L802.2 229.851L800.382 228.365ZM787.766 221.639L790.404 218.51L790.439 218.534L790.515 218.604L790.556 218.639L790.638 218.709L790.766 218.815L790.932 218.956C791.487 219.431 792.047 219.91 792.579 220.4L792.702 220.505L792.825 220.616L792.901 220.692L793.018 220.803L793.059 220.838L793.141 220.908L793.223 220.979L793.264 221.02L793.34 221.09L793.375 221.125L793.451 221.195L793.574 221.306C793.615 221.34 793.655 221.377 793.691 221.417L793.767 221.487L794.006 221.71C794.539 222.213 795.065 222.716 795.586 223.23L792.708 226.155C791.129 224.564 789.462 223.072 787.766 221.639ZM779.016 210.322L776.899 213.831C778.8 215.001 780.677 216.224 782.485 217.522L784.871 214.194H784.842H784.807H784.772L784.731 214.165L784.684 214.13H784.637L784.561 214.071L784.508 214.036L784.426 213.984L784.292 213.884C783.532 213.337 782.772 212.842 782.003 212.34L782.002 212.34L781.841 212.235L781.701 212.141L781.619 212.089L781.566 212.053L781.485 212.001L781.438 211.972H781.397H781.356L781.321 211.942H781.292H781.257H781.221H781.186H781.151H781.11H781.069H781.034H780.993L780.911 211.89H780.87L780.783 211.837H780.736L780.081 211.434L779.016 210.322ZM764.956 207.807L766.5 204.017L766.506 204.023C767.547 204.444 768.582 204.889 769.6 205.351L769.91 205.491L770.155 205.602L770.308 205.672L770.395 205.713L770.547 205.784C771.337 206.152 772.115 206.526 772.887 206.918L771.05 210.574C769.05 209.562 767.015 208.644 764.956 207.807ZM753.136 199.771L752.206 203.76C754.376 204.263 756.546 204.859 758.639 205.514L759.879 201.613C757.657 200.904 755.399 200.284 753.112 199.753L753.136 199.771ZM739.24 197.795L739.245 197.718L739.233 197.794C739.236 197.794 739.238 197.794 739.24 197.795ZM738.953 201.812L739.24 197.795C739.992 197.847 740.739 197.906 741.485 197.981H741.561H742.099C743.485 198.122 744.848 198.297 746.193 198.496L745.609 202.543C743.415 202.216 741.175 201.97 738.953 201.812Z" fill="white"/>
<path opacity="0.32" fill-rule="evenodd" clip-rule="evenodd" d="M369.035 -117.843H364.941V-113.748V-111.614H369.035V-117.843ZM372.748 -117.842H379.767V-113.748H372.748V-117.842ZM393.804 -117.842H386.785V-113.748H393.804V-117.842ZM400.822 -117.842H407.841V-113.748H400.822V-117.842ZM421.878 -117.842H414.859V-113.748H421.878V-117.842ZM428.896 -117.842H435.914V-113.748H428.896V-117.842ZM449.951 -117.842H442.933V-113.748H449.951V-117.842ZM456.97 -117.842H463.988V-113.748H456.97V-117.842ZM478.025 -117.842H471.007V-113.748H478.025V-117.842ZM485.043 -117.842H492.062V-113.748H485.043V-117.842ZM506.099 -117.842H499.08V-113.748H506.099V-117.842ZM513.117 -117.842H520.136V-113.748H513.117V-117.842ZM534.172 -117.842H527.154V-113.748H534.172V-117.842ZM541.191 -117.842H548.209V-113.748H541.191V-117.842ZM562.246 -117.842H555.228V-113.748H562.246V-117.842ZM569.265 -117.842H576.283V-113.748H569.265V-117.842ZM583.301 -117.842H590.32V-113.748H583.301V-117.842ZM364.94 -104.595H369.035V-97.5766H364.94V-104.595ZM369.035 -90.5582H364.94V-83.5398H369.035V-90.5582ZM364.94 -76.5213H369.035V-69.5029H364.94V-76.5213ZM369.035 -62.4845H364.94V-55.466H369.035V-62.4845ZM364.94 -48.4476H369.035V-41.4292H364.94V-48.4476ZM369.035 -34.4107H364.94V-27.3923H369.035V-34.4107ZM364.94 -20.3739H369.035V-13.3554H364.94V-20.3739ZM369.035 -6.337H364.94V0.681435H369.035V-6.337ZM364.94 7.69987H369.035V14.7183H364.94V7.69987ZM369.035 21.7367H364.94V28.7552H369.035V21.7367ZM369.543 27.0708H376.562V31.1649H369.543V27.0708ZM390.599 27.0708H383.58V31.1649H390.599V27.0708ZM397.617 27.0708H404.636V31.1649H397.617V27.0708ZM418.672 27.0708H411.654V31.1649H418.672V27.0708ZM425.691 27.0708H432.709V31.1649H425.691V27.0708ZM446.746 27.0708H439.728V31.1649H446.746V27.0708ZM453.765 27.0708H460.783V31.1649H453.765V27.0708ZM474.82 27.0708H467.801V31.1649H474.82V27.0708ZM481.838 27.0708H488.857V31.1649H481.838V27.0708ZM502.894 27.0708H495.875V31.1649H502.894V27.0708ZM509.912 27.0708H516.931V31.1649H509.912V27.0708ZM530.967 27.0708H523.949V31.1649H530.967V27.0708ZM537.986 27.0708H545.004V31.1649H537.986V27.0708ZM559.041 27.0708H552.023V31.1649H559.041V27.0708ZM566.06 27.0708H573.078V31.1649H566.06V27.0708ZM587.115 27.0708H580.096V31.1649H587.115V27.0708ZM600.263 20.3331H604.357V27.3515H601.152V31.1649H594.133V27.0708H600.263V20.3331ZM604.357 6.29623H600.263V13.3147H604.357V6.29623ZM600.263 -7.74063H604.357V-0.722198H600.263V-7.74063ZM604.357 -21.7775H600.263V-14.7591H604.357V-21.7775ZM600.263 -35.8144H604.357V-28.7959H600.263V-35.8144ZM604.357 -49.8512H600.263V-42.8328H604.357V-49.8512ZM600.263 -63.8881H604.357V-56.8697H600.263V-63.8881ZM604.357 -77.925H600.263V-70.9065H604.357V-77.925ZM600.263 -91.9618H604.357V-84.9434H600.263V-91.9618ZM604.357 -105.999H600.263V-98.9803H604.357V-105.999ZM597.338 -117.842H604.357V-113.017H600.263V-113.748H597.338V-117.842Z" fill="white"/>
<path opacity="0.32" fill-rule="evenodd" clip-rule="evenodd" d="M290.124 -5.92773H297.043V-1.83365H292.569L290.124 -5.92773ZM311.08 -5.92772H304.061V-1.83364H311.08V-5.92772ZM318.098 -5.92772H325.117V-1.83364H318.098V-5.92772ZM339.154 -5.92772H332.135V-1.83364H339.154V-5.92772ZM346.172 -5.92772H353.19V-1.83364H346.172V-5.92772ZM367.227 -5.92772H360.209V-1.83364H367.227V-5.92772ZM374.246 -5.92772H381.264V-1.83364H374.246V-5.92772ZM395.301 -5.92772H388.283V-1.83364H395.301V-5.92772ZM402.319 -5.92772H409.338V-1.83364H402.319V-5.92772ZM423.375 -5.92772H416.356V-1.83364H423.375V-5.92772ZM430.393 -5.92772H437.412V-1.83364H430.393V-5.92772ZM444.43 -5.92772H451.443L448.998 -1.83364H446.793L448.419 -0.862752L444.822 5.1614L441.313 3.06172L444.43 -2.16116V-5.92772ZM297.289 -1.9156L297.284 -1.91302L297.283 -1.9156H297.289ZM297.284 -1.91302L300.88 4.10856L297.37 6.20824L293.779 0.178235L297.284 -1.91302ZM300.973 12.2326L304.482 10.1388L304.476 10.1271L308.068 16.1512L304.558 18.2509L302.535 14.8528L300.973 12.2326ZM311.67 22.1928L308.161 24.2867L311.758 30.3167L315.267 28.217L311.67 22.1928ZM318.864 34.2416L318.864 34.2411L318.853 34.2235L318.864 34.2416ZM318.864 34.2416L315.355 36.3407L318.075 40.8969L318.94 42.3532L322.45 40.2535L318.864 34.2416ZM326.058 46.2953L326.054 46.2979L326.052 46.2953H326.058ZM326.054 46.2979L329.649 52.3253L326.14 54.425L322.549 48.395L326.054 46.2979ZM333.248 58.352L333.252 58.3493L333.211 58.2908L333.248 58.352ZM333.248 58.352L329.743 60.449L332.954 65.8298L333.299 66.4147L336.808 64.3208L333.248 58.352ZM340.446 70.4035L340.409 70.4258L340.364 70.3509L340.446 70.4035ZM340.409 70.4258L343.961 76.3809L340.452 78.4747L337.762 73.9712L337.726 73.9128V73.8777V73.8309L337.685 73.7548L336.937 72.5032L340.409 70.4258ZM347.626 82.4659L347.64 82.4577L347.611 82.4401L347.626 82.4659ZM347.626 82.4659L344.131 84.5573L345.552 86.9378V86.9728L345.599 87.0547L347.698 90.5639L351.208 88.4701L347.626 82.4659ZM354.834 94.5118L354.798 94.5331L354.758 94.4651L354.834 94.5118ZM354.798 94.5331L358.355 100.489L354.846 102.589L354.729 102.396V102.361V102.314L351.325 96.6115L354.798 94.5331ZM362.022 106.569L362.028 106.566L361.922 106.402L362.022 106.569ZM362.022 106.569L358.518 108.666L358.992 109.467L359.039 109.549L362.01 114.526L365.519 112.426L362.022 106.569ZM372.977 117.591L372.88 117.753L372.825 117.719L372.977 117.591ZM372.88 117.753L376.334 119.819L376.065 120.275L376.012 120.363L372.854 125.627L371.936 125.077L369.257 126.674L367.327 123.44L365.713 120.737L369.222 118.638L370.789 121.264L372.88 117.753ZM380.135 105.595L380.17 105.537L380.135 105.595L380.135 105.595ZM380.135 105.595L376.573 111.561L380.083 113.661L380.434 113.076L383.645 107.695L380.135 105.595ZM387.364 93.4827L387.326 93.5472L387.306 93.5353L387.364 93.4827ZM387.326 93.5472L390.815 95.635C390.815 95.635 390.616 95.9625 390.318 96.4713V96.5123L387.276 101.606L383.767 99.5127L387.326 93.5472ZM390.961 87.4583L394.558 81.4283L398.067 83.528L394.471 89.5521L390.961 87.4583ZM401.752 69.3742L398.155 75.4042L401.664 77.4981L403.852 73.8368L405.232 71.5265L401.723 69.4268L401.752 69.3742ZM405.349 63.3501L408.946 57.3201L412.455 59.4198L408.858 65.4498L405.349 63.3501ZM416.163 45.2484L412.566 51.2784L416.076 53.378L417.555 50.8982L419.655 47.389L416.146 45.2893L416.163 45.2484ZM423.343 33.224L423.357 33.2L423.322 33.2117L423.343 33.224ZM423.343 33.224L419.737 39.2183L423.246 41.318L424.416 39.347L426.831 35.3055L423.343 33.224ZM430.545 21.1459L426.954 27.1701L430.463 29.2697L434.06 23.2397L430.551 21.1459H430.545ZM434.142 15.116L437.739 9.09183L441.248 11.1857L439.283 14.4843L437.651 17.2157L434.142 15.116Z" fill="white"/>
<path opacity="0.32" fill-rule="evenodd" clip-rule="evenodd" d="M15.7623 233.512H8.74391V237.606H15.7623V233.512ZM22.7808 233.512H29.7992V237.606H22.7808V233.512ZM43.8361 233.512H36.8176V237.606H43.8361V233.512ZM50.8545 233.512H57.8729V237.606H50.8545V233.512ZM71.9098 233.512H64.8914V237.606H71.9098V233.512ZM78.9282 233.512H85.9467V237.606H78.9282V233.512ZM99.9835 233.512H92.9651V237.606H99.9835V233.512ZM107.002 233.512H114.02V237.606H107.002V233.512ZM128.057 233.512H121.039V237.606H128.057V233.512ZM135.076 233.512H142.094V237.606H135.076V233.512ZM149.113 233.512H156.131V244.361H152.037V237.606H149.113V233.512ZM0 233.512H4.09409V238.776H0V237.606V233.512ZM4.09409 245.794H0V252.813H4.09409V245.794ZM0 259.831H4.09409V266.85H0V259.831ZM4.09409 273.868H0V280.886H4.09409V273.868ZM0 287.905H4.09409V294.923H0V287.905ZM4.09409 301.942H0V308.96H4.09409V301.942ZM0 315.979H4.09409V322.997H0V315.979ZM4.09409 330.015H0V337.034H4.09409V330.015ZM0 344.052H4.09409V351.071H0V344.052ZM4.09409 358.089H0V363.511H4.09409V358.089ZM8.61512 359.417H15.6335V363.511H8.61512V359.417ZM29.6704 359.417H22.652V363.511H29.6704V359.417ZM36.6888 359.417H43.7073V363.511H36.6888V359.417ZM57.7441 359.417H50.7257V363.511H57.7441V359.417ZM64.7626 359.417H71.781V363.511H64.7626V359.417ZM85.8179 359.417H78.7994V363.511H85.8179V359.417ZM92.8363 359.417H99.8547V363.511H92.8363V359.417ZM113.892 359.417H106.873V363.511H113.892V359.417ZM120.91 359.417H127.928V363.511H120.91V359.417ZM141.965 359.417H134.947V363.511H141.965V359.417ZM148.984 359.417H156.002V363.511H148.984V359.417ZM156.131 349.609H152.037V356.627H156.131V349.609ZM152.037 335.572H156.131V342.59H152.037V335.572ZM156.131 321.535H152.037V328.553H156.131V321.535ZM152.037 307.498H156.131V314.516H152.037V307.498ZM156.131 293.461H152.037V300.48H156.131V293.461ZM152.037 279.424H156.131V286.443H152.037V279.424ZM156.131 265.387H152.037V272.406H156.131V265.387ZM152.037 251.35H156.131V258.369H152.037V251.35Z" fill="white"/>
<path opacity="0.32" fill-rule="evenodd" clip-rule="evenodd" d="M82.297 -111.853H79.9224C78.3666 -111.812 76.8167 -111.724 75.2844 -111.59L75.6295 -107.496C77.8286 -107.683 80.0745 -107.776 82.297 -107.776V-111.853ZM68.3245 -110.683C67.7865 -110.59 67.2542 -110.496 66.7161 -110.391H66.6226H66.5582H66.0435H65.9967H65.8856H65.7862H65.7277L65.5698 -110.362H65.5113L65.3768 -110.333C64.0667 -110.058 62.7741 -109.748 61.4874 -109.42L62.5226 -105.461C64.6632 -106.045 66.8565 -106.49 69.0381 -106.864L68.3479 -110.9L68.3245 -110.683ZM53.9836 -106.864L54.7614 -107.145L55.2995 -108.028L56.6681 -104.168C54.5801 -103.425 52.5038 -102.589 50.486 -101.671L48.7899 -105.396C49.8602 -105.882 50.9422 -106.35 52.0359 -106.788L52.1354 -106.829H52.1646L52.2523 -106.864H52.2874H52.3225H52.3869H52.5799H52.7319H52.7846H52.8782H52.9366H53.0302H53.0829H53.118H53.1706H53.2642H53.2934H53.3461H53.6326H53.6911H53.8315H53.9075H53.9836ZM41.9995 -101.337L41.2333 -100.904L41.1398 -100.852H41.1105H41.0696H41.0345C39.4203 -99.9083 37.843 -98.9121 36.3029 -97.8632L38.6073 -94.4768C40.4379 -95.7284 42.3446 -96.9098 44.2747 -97.986L42.2686 -101.554L41.9995 -101.337ZM30.3664 -93.4122L30.4073 -93.4473L31.6531 -95.0616L34.2382 -91.8857C32.5187 -90.4879 30.8401 -89.0023 29.2434 -87.4641L26.401 -90.3885H26.4302H26.4594L26.4887 -90.4177H26.5238L26.5589 -90.4528L26.5881 -90.482H26.6232L26.6583 -90.5171L26.6992 -90.5522H26.7343L26.7694 -90.5873L26.8104 -90.6224L26.8864 -90.6926L26.9273 -90.7277L26.9683 -90.7628L27.0443 -90.8388L27.0794 -90.8739L27.1145 -90.909L27.2373 -91.0201L27.2783 -91.0552L27.3192 -91.0903L27.3952 -91.1605L27.4362 -91.1956L27.4771 -91.2307L27.5941 -91.3418H27.6292L27.6643 -91.3769L27.7403 -91.4471L27.7754 -91.4822L27.8105 -91.5173L27.8456 -91.5524L27.8865 -91.5875L27.9216 -91.6225L27.9509 -91.6518H27.986L28.0152 -91.681L28.0503 -91.7161L28.0854 -91.7454V-91.7746H28.1146L28.1497 -91.8039H28.179H28.2082H28.2433L28.2784 -91.8331H28.3135L28.3486 -91.8682L28.3895 -91.9033L28.4538 -91.9618L28.4948 -92.0027L28.5357 -92.0436C28.9627 -92.418 29.3896 -92.7806 29.8224 -93.1432L29.9394 -93.2426L29.9804 -93.2777L30.0213 -93.3128H30.0564H30.0856H30.1149H30.1441H30.1792H30.2143H30.2494L30.3254 -93.3772L30.3664 -93.4122ZM20.3185 -83.715L20.2834 -83.6799L20.2541 -83.6449L20.2073 -83.6039H20.1781L20.1488 -83.5688V-83.5396V-83.5103V-83.4811V-83.4518L20.1196 -83.4168L20.0845 -83.3817L19.9851 -83.2647L19.95 -83.2179C19.0688 -82.1768 18.209 -81.1124 17.3707 -80.0245L17.3415 -79.9836V-79.9485V-79.9192V-79.89V-79.8608V-79.8257L17.3122 -79.7906L17.283 -79.7555L17.2537 -79.7204L16.5987 -78.8431L19.9032 -76.4217C21.2133 -78.2056 22.617 -79.9309 24.0733 -81.6212L20.9911 -84.3175L20.3185 -83.715ZM10.4108 -69.6549C10.9313 -70.579 11.4635 -71.4972 12.0192 -72.4038L12.2414 -72.7489L15.7506 -70.6141C14.5984 -68.7074 13.5106 -66.7423 12.5222 -64.7654L8.86087 -66.5902C9.31122 -67.5026 9.78497 -68.4033 10.2704 -69.2923L10.3055 -69.3566V-69.4093V-69.4385L10.3347 -69.4911L10.4108 -69.6257V-69.6549ZM5.75527 -59.8582C5.34586 -58.8171 4.954 -57.7702 4.58553 -56.7058V-56.6414V-56.4777V-56.4484V-56.4192V-56.3899V-56.3548L4.55044 -56.2671V-56.2379C4.22876 -55.3021 3.93047 -54.3546 3.64388 -53.4012L7.5625 -52.2315C8.20001 -54.3487 8.93694 -56.466 9.74991 -58.5247L5.94241 -60.0337L5.75527 -59.8582ZM1.73127 -46.2892V-46.4062L2.06466 -46.9852L6.07099 -46.1488C5.62064 -43.9848 5.25803 -41.774 4.99484 -39.5691L0.930009 -40.0603C1.14641 -41.85 1.4096 -43.5696 1.73127 -45.3242V-45.4294V-45.5347V-45.6341V-45.6809V-45.7511V-45.8272V-45.8739V-45.9441V-46.0085V-46.0962V-46.1722V-46.2483V-46.2892ZM0.0526689 -32.4863V-32.2875V-32.1354V-32.0945V-32.0535C0.0526689 -31.7122 0.0436328 -31.369 0.0346021 -31.026C0.0273872 -30.752 0.0201756 -30.4781 0.0175781 -30.2054V-30.1118V-30.065V-29.9305V-29.8895V-29.8486V-29.7959V-29.5678V-29.5328V-29.0766V-29.0181V-28.9888V-28.9881C0.0175781 -28.3041 0.0175781 -27.62 0.0585054 -26.9359V-26.8716V-26.8424V-26.8131V-26.7546V-26.6201C0.0585054 -26.2633 0.0585153 -25.9066 0.105305 -25.5498L4.19939 -25.7486C4.13505 -27.0295 4.10581 -28.3279 4.10581 -29.6146V-29.615C4.10581 -30.5507 4.10581 -31.4922 4.15259 -32.4279L0.0585054 -32.5682L0.0526689 -32.4863ZM4.63145 -19.0131L4.79024 -19.0343L4.59723 -19.2624C4.6085 -19.1793 4.61991 -19.0962 4.63145 -19.0131ZM4.63145 -19.0131L0.731244 -18.4904C0.84237 -17.6891 0.959338 -16.8879 1.08801 -16.0925V-16.0164V-15.9462V-15.8176V-15.724V-15.6947V-15.6304V-15.6012C1.21077 -14.8938 1.34522 -14.1923 1.47968 -13.4908L1.47969 -13.4907L1.47988 -13.4898V-13.4605V-13.4313V-13.4021V-13.3377V-13.2149V-13.1681C1.57346 -12.7119 1.66704 -12.2616 1.77231 -11.8112L5.76696 -12.7002C5.3055 -14.7768 4.92526 -16.8967 4.63145 -19.0131ZM7.68531 -6.03278L7.61407 -6.01038L7.56248 -6.17314L7.68531 -6.03278ZM7.61407 -6.01038C8.26837 -3.95358 9.01121 -1.90363 9.83178 0.0908127L6.04767 1.65241L5.97157 1.46423C5.87608 1.22829 5.7835 0.999512 5.69091 0.763412V0.663979V0.599648C4.99297 -1.17426 4.35546 -2.97566 3.77839 -4.80455L7.61407 -6.01038ZM12.7076 6.30923L12.756 6.28461L12.5455 5.99803C12.5992 6.10181 12.6533 6.20555 12.7076 6.30923ZM12.7076 6.30923L9.09476 8.1445C9.25489 8.45168 9.41866 8.75703 9.58201 9.06158L9.58236 9.06223L9.58255 9.06259L9.58259 9.06266C9.7114 9.30282 9.83994 9.54247 9.96622 9.78214L10.0247 9.89326V9.92251V9.9576L10.1007 10.098C10.8318 11.4081 11.5922 12.7006 12.3934 13.964L15.8559 11.7824C14.7479 10.0096 13.6819 8.1687 12.7076 6.30923ZM19.8564 17.5552L19.3519 17.936C18.7735 17.2245 18.2104 16.5038 17.669 15.7772L19.8564 17.5552ZM19.3519 17.936C20.1795 18.954 21.0383 19.9532 21.9093 20.924L18.868 23.6612L18.4469 23.1933L18.4118 23.1465L18.3123 23.0295L18.2772 22.9886L18.248 22.9477L18.2129 22.9126L18.1837 22.8775H18.1544V22.8482V22.819V22.7897V22.7605V22.7313V22.702V22.6728V22.6435L18.1252 22.6084L18.0959 22.5792V22.55L18.0667 22.5149L18.0375 22.4856L18.0082 22.4505L17.979 22.4213L17.9497 22.3862L17.9205 22.3511L17.8912 22.3219L17.862 22.2868L17.8327 22.2517L17.8035 22.2166L17.7743 22.1815L17.745 22.1464L17.7158 22.1113L17.6865 22.0704L17.6573 22.0353L17.628 22.0002L17.593 21.9651V21.9241V21.8891V21.854V21.813L17.5637 21.7721L17.5345 21.7311L17.5052 21.696L17.476 21.6551L17.4116 21.5732L17.3765 21.5381L17.3473 21.4972L17.3181 21.4621L17.283 21.427L17.2537 21.3919L17.2245 21.351L17.1952 21.3159L17.166 21.2749L17.1368 21.2399L17.1075 21.1989V21.1638V21.1229L17.0783 21.0878L17.049 21.0527L17.0198 21.0176L16.9905 20.9825L16.9613 20.9474V20.9123V20.8772V20.8421V20.8071L16.932 20.7778L16.9028 20.7486L16.8736 20.7135L16.8443 20.6784V20.6491V20.614V20.5848L16.8151 20.5497V20.5205L16.7858 20.4854L16.7566 20.4561L16.7273 20.4269V20.3918V20.3625V20.3333V20.3041V20.2748L16.6981 20.2456H16.6689V20.2105V20.1754L16.6396 20.1344L16.587 20.0643V20.0233L19.3519 17.936ZM25.9566 30.4572L28.764 27.4685L27.8984 26.521C29.5126 28.0417 31.1912 29.5038 32.9458 30.8783L30.4074 34.0892C30.1307 33.8853 29.8902 33.6854 29.6425 33.4795C29.5918 33.4373 29.5408 33.395 29.4892 33.3523L29.4483 33.3172L29.3371 33.2236L29.302 33.1944L29.267 33.1651H29.2377H29.2085V33.1359H29.1792H29.15L29.1149 33.1066L29.0856 33.0774H29.0564H29.0213H28.9921H28.9628L28.9277 33.0482V33.0189H28.8926L28.8575 32.9897H28.8225H28.7874L28.7581 32.9604L28.723 32.9312L28.6879 32.9019L28.647 32.8727L28.6119 32.8434L28.5768 32.8142L28.5417 32.7791L28.5066 32.7499L28.4715 32.7206V32.6914L28.4364 32.6621L28.3955 32.6329L28.3546 32.6037L28.3195 32.5744L28.2844 32.5393L28.2493 32.5042L28.2083 32.4691L28.1732 32.4399L28.1382 32.4106L28.0972 32.3755L28.0563 32.3405L28.0212 32.3054L27.9861 32.2703L27.9451 32.241L27.9042 32.2059L27.8633 32.1709L27.8223 32.1358L27.7814 32.1007L27.6586 31.9895L27.6176 31.9545L27.5767 31.9194L27.4948 31.8433L27.4539 31.8082L27.4129 31.7731L27.2492 31.6269L25.9566 30.4572ZM39.2096 35.7094L36.952 39.1251C37.6363 39.5754 38.3206 40.0141 39.0108 40.441C39.831 40.9737 40.6659 41.4433 41.5064 41.9161L41.5066 41.9162L41.7538 42.0553H41.7889L41.8708 42.1021H41.9L42.5843 42.4764L44.5436 38.8853C42.6019 37.8267 40.6776 36.6686 38.8295 35.4463L39.2096 35.7094ZM50.9062 42.0865L50.9072 42.0844L50.8078 42.0435L50.9062 42.0865ZM50.9062 42.0865L49.2637 45.8334L50.3633 46.3072C52.1179 47.0441 53.8979 47.7184 55.7031 48.3308L57.0249 44.459C54.9592 43.757 52.9048 42.9587 50.9062 42.0865ZM63.5168 46.3715L62.5401 50.3311C64.1543 50.7288 65.7919 51.0797 67.4413 51.3838H67.5407H67.5992H67.8682L69.4181 51.6412L70.0498 47.5939C67.8624 47.2547 65.6633 46.8102 63.5168 46.2838V46.3715ZM76.3899 52.5302L76.6765 48.4361V48.3659C78.5363 48.5005 80.4255 48.5648 82.2971 48.5648H83.3498L83.4025 52.6589H78.6358C77.8871 52.6238 77.1327 52.5828 76.3899 52.5302ZM96.6147 47.3307C94.439 47.7343 92.2165 48.0443 90.0115 48.2607L90.4092 52.3547H90.6549H90.7952C92.158 52.2144 93.5149 52.0389 94.8542 51.8342H94.9127H95.018H95.1057H95.1759H95.6555H95.714H95.8134H95.9713C96.4334 51.7582 96.8954 51.6763 97.3516 51.5885L96.6088 47.5647L96.6147 47.3307ZM103.107 45.8394C105.241 45.2487 107.376 44.5644 109.452 43.7924L110.874 47.6349C108.69 48.4462 106.464 49.1632 104.194 49.7873L103.107 45.8394ZM121.501 38.1133C119.582 39.2304 117.6 40.2715 115.6 41.2131L117.354 44.9153C117.904 44.658 118.448 44.3948 118.986 44.1257L119.05 44.0965H119.126H119.167L119.22 44.0673H119.249C120.52 43.4239 121.768 42.7472 122.992 42.0378H123.027L123.086 42.0085L123.179 41.9559L121.127 38.4116L121.501 38.1133ZM127.116 34.5279C128.905 33.2529 130.713 31.8901 132.414 30.4689L130.321 33.171L132.947 36.3117C132.432 36.7404 131.917 37.1615 131.403 37.575L131.362 37.6101H131.315L131.245 37.6686L131.204 37.7037L131.169 37.733L131.134 37.7622H131.104H131.075H131.046H131.017H130.982H130.946H130.917L130.888 37.7914H130.859H130.824H130.789H130.753H130.718H130.689H130.66L130.625 37.8207H130.596H130.566H130.537H130.502H130.467H130.438L130.408 37.8499H130.379H130.344H130.315H130.286H130.25H130.215H130.186H130.157H130.128H130.093H130.063H130.034H130.005H129.976H129.946H129.917H129.888H129.853H129.818H129.788H129.759H129.73H129.701H129.671H129.636H129.601L129.56 37.8792H129.525H129.49H129.455L127.116 34.5279ZM141.86 21.0875C140.427 22.7778 138.901 24.4213 137.327 25.9829L140.211 28.9072C141.872 27.2579 143.461 25.5425 144.977 23.7604L141.86 21.0875ZM149.225 10.8776C149.352 10.6668 149.479 10.4556 149.604 10.244L148.966 10.7236L149.225 10.8776ZM149.225 10.8776C148.205 12.5664 147.12 14.228 145.966 15.8295L149.294 18.21C149.791 17.5198 150.271 16.818 150.744 16.1103L150.832 15.9875V15.9407L150.861 15.8997V15.8529V15.8178V15.7886V15.7594V15.7301V15.7009V15.6658V15.6307V15.5956V15.5605V15.5254V15.4903L150.891 15.4494L150.949 15.3675V15.3266V15.2856L151.037 15.1511C151.528 14.3715 152.008 13.5912 152.476 12.8116L149.225 10.8776ZM155.394 -1.75149C154.604 0.318947 153.715 2.37769 152.756 4.37209L156.441 6.1267C157.244 4.46568 157.991 2.7754 158.681 1.05589L158.716 0.974007V0.921364L158.763 0.798546L158.848 0.583267L158.848 0.581253C158.948 0.327972 159.047 0.0766678 159.143 -0.178192L155.411 -1.72224L155.394 -1.75149ZM158.956 -14.1165L158.975 -14.2088L158.999 -14.3328C159.014 -14.4086 159.029 -14.4843 159.044 -14.5601L158.751 -14.1565L158.956 -14.1165ZM158.956 -14.1165C158.551 -12.0881 158.061 -10.0581 157.494 -8.07388L161.43 -6.95092C161.43 -7.02449 161.458 -7.09806 161.486 -7.16994C161.5 -7.20663 161.514 -7.24287 161.523 -7.27845L161.564 -7.42467V-7.48901V-7.51825V-7.57088V-7.60013V-7.85162V-7.92766V-7.97444V-8.07972L161.599 -8.20839C162.044 -9.91212 162.434 -11.634 162.769 -13.3728L158.956 -14.1165ZM160.465 -27.8073C160.412 -25.5848 160.272 -23.3448 160.032 -21.1515L164.126 -20.7129C164.379 -23.0248 164.53 -25.3643 164.576 -27.7313L160.482 -27.819L160.465 -27.8073ZM159.634 -41.1248L163.688 -41.7097L164.009 -41.6278V-41.5868V-41.5401V-41.4933V-41.2359V-41.1657V-41.078V-40.9844V-40.9084V-40.499V-40.4288V-40.3528V-40.3235V-40.2475V-40.2007V-40.072V-39.9726V-39.7796C164.165 -38.5356 164.292 -37.2822 164.389 -36.0189V-35.8551V-35.7206V-35.6446V-35.3112V-35.2527V-35.2235L164.424 -34.7439L160.33 -34.4924C160.219 -36.709 159.962 -38.9374 159.634 -41.1248ZM160.453 -55.3547L156.564 -54.0738C157.26 -51.9683 157.868 -49.816 158.377 -47.6403L162.366 -48.5878C162.038 -49.9564 161.68 -51.3209 161.29 -52.6819V-52.7111L161.249 -52.8339L161.219 -52.9217V-52.9509V-53.0094V-53.0386V-53.0971V-53.1264V-53.2199V-53.2492V-53.2784C161.207 -53.3299 161.191 -53.3808 161.173 -53.4305V-53.4597C161.015 -53.9627 160.857 -54.4599 160.693 -54.957L160.453 -55.3547ZM151.329 -66.2918L154.938 -68.2218L155.3 -67.4498C155.71 -66.67 156.109 -65.8902 156.499 -65.1103L156.575 -64.9641C156.583 -64.9499 156.593 -64.9352 156.603 -64.9202C156.629 -64.8798 156.657 -64.8372 156.657 -64.7945L156.727 -64.6483C156.744 -64.6063 156.764 -64.5652 156.786 -64.5255L156.844 -64.4085C156.867 -64.3713 156.887 -64.3322 156.903 -64.2915L156.961 -64.1687L157.032 -64.0225L157.09 -63.8997L157.131 -63.8002C157.149 -63.75 157.17 -63.7011 157.195 -63.654C157.206 -63.6276 157.222 -63.6021 157.238 -63.577C157.264 -63.5354 157.289 -63.4953 157.289 -63.4552C157.523 -62.9327 157.751 -62.4122 157.973 -61.8936L154.213 -60.2852C153.341 -62.3147 152.37 -64.3383 151.329 -66.2918ZM147.335 -79.9835L144.1 -77.4744C145.463 -75.7198 146.761 -73.895 147.966 -72.0351L151.394 -74.2459C150.119 -76.1955 148.763 -78.1022 147.329 -79.9659L147.335 -79.9835ZM135.064 -87.2652L137.824 -90.2889L139.328 -88.587L139.363 -88.5577H139.392H139.421L139.45 -88.5285H139.48H139.509V-88.4993V-88.47L139.538 -88.4408H139.567L139.597 -88.4115H139.626H139.655H139.684L139.714 -88.3823L139.743 -88.353V-88.3238L139.772 -88.2945H139.801H139.831H139.86H139.895L139.93 -88.2653L139.959 -88.2361L139.994 -88.201L140.024 -88.1717L140.053 -88.1425L140.082 -88.1074H140.111L140.146 -88.0723H140.181L140.217 -88.0372L140.252 -88.0021L140.287 -87.967L140.322 -87.9319L140.357 -87.8968L140.392 -87.8617L140.427 -87.8267L140.468 -87.7916L140.503 -87.7565L140.538 -87.7155L140.614 -87.6395L140.655 -87.5986L140.69 -87.5635L140.994 -87.2535C141.509 -86.7329 142.012 -86.2066 142.509 -85.6685L142.544 -85.6334L142.655 -85.5164L142.691 -85.4755L142.726 -85.4345L142.761 -85.3936L142.796 -85.3585L139.79 -82.5862C138.286 -84.1888 136.696 -85.7738 135.064 -87.2652ZM126.712 -98.8398L124.495 -95.3949C126.361 -94.1959 128.198 -92.9034 129.952 -91.5523L132.45 -94.7984C130.594 -96.2254 128.681 -97.5726 126.712 -98.8398ZM112.716 -101.612L114.313 -105.379C116.473 -104.466 118.586 -103.464 120.653 -102.373L118.74 -98.7522C116.781 -99.7874 114.757 -100.747 112.716 -101.612ZM100.978 -109.712L100.054 -105.724C102.206 -105.221 104.37 -104.624 106.487 -103.94L107.756 -107.835C105.838 -108.455 103.889 -109.007 101.908 -109.49H101.814H101.756H101.621L100.978 -109.642V-109.712ZM86.8647 -107.607L87.0986 -111.701L87.122 -111.409H88.3327H88.4438H88.5023H88.6368H88.6719H88.7772H90.4148H90.5143H90.678H90.7131C91.8419 -111.298 92.9649 -111.157 94.082 -110.999L93.4971 -106.946C91.3097 -107.256 89.0813 -107.484 86.8647 -107.607Z" fill="white"/>
<path opacity="0.32" fill-rule="evenodd" clip-rule="evenodd" d="M149.539 -63.8826H147.001C145.5 -63.8358 144.008 -63.75 142.527 -63.6252L142.872 -59.5311C145.071 -59.7183 147.317 -59.8119 149.539 -59.8119V-63.8826ZM135.567 -62.7127C134.566 -62.5431 133.566 -62.3559 132.578 -62.1278H132.455H132.391H132.262H132.233H132.11H132.046L131.917 -61.9641H131.853L131.73 -61.9348H131.701H131.666H131.543H131.478H131.356H131.326L131.168 -61.8997H131.104H130.981H130.917H130.794H130.73L130.607 -61.8705L128.765 -61.4143L129.8 -57.4489C131.94 -58.0337 134.134 -58.4841 136.315 -58.8526L135.625 -62.8882L135.567 -62.7127ZM121.834 -59.145L122.003 -59.2035L122.103 -59.5603L123.472 -55.706C121.384 -54.9632 119.307 -54.121 117.289 -53.2086L115.593 -56.9342L116.629 -57.3904L116.71 -57.4255H116.915H117.044H117.102H117.219L117.365 -57.4898C118.75 -58.0788 120.154 -58.6303 121.577 -59.145H121.676H121.717H121.746H121.805H121.834ZM109.242 -53.4017L108.47 -52.9631H108.44H108.405H108.376H108.341C106.668 -51.9881 105.031 -50.9552 103.428 -49.8633L105.733 -46.4827C107.563 -47.7285 109.47 -48.9099 111.4 -49.992L109.394 -53.5597L109.242 -53.4017ZM96.6201 -44.6171L97.6495 -45.471L97.7314 -45.5762L100.317 -42.4004C98.597 -41.0026 96.9184 -39.5112 95.3217 -37.9729L92.4793 -40.8973L93.0641 -41.4822L93.1051 -41.5173L93.2221 -41.6284L93.263 -41.6635L93.3039 -41.6986L93.3858 -41.7687L93.4209 -41.8038L93.456 -41.8389L93.573 -41.9442L93.6139 -41.9793L93.6549 -42.0144L93.7309 -42.0846L93.766 -42.1197H93.8011L93.8771 -42.1899L93.9181 -42.2249L93.959 -42.26L93.9999 -42.2951L94.076 -42.3653L94.1111 -42.4004L94.1462 -42.4355L94.2631 -42.5408L94.3041 -42.5759L94.345 -42.611L94.4269 -42.687L94.4678 -42.7221L94.5088 -42.7572L94.6316 -42.8625L94.6725 -42.8975L94.7954 -43.0028L94.8305 -43.0379L94.8714 -43.073L94.9884 -43.1783L95.0293 -43.2134L95.0702 -43.2485L95.1463 -43.5175L95.1872 -43.5526H95.2282L95.31 -43.6228L95.351 -43.6579L95.3919 -43.693H95.427L95.468 -43.7281H95.5089H95.544L95.5791 -43.7632L95.62 -43.7982L95.6551 -43.8333L96.1581 -44.2252L96.1932 -44.2544L96.2283 -44.2837L96.2575 -44.3129L96.2926 -44.3422L96.3219 -44.3714L96.357 -44.4007L96.3921 -44.4299L96.4271 -44.4591L96.4622 -44.4884L96.4915 -44.5176H96.5207L96.55 -44.5469L96.5851 -44.582L96.6201 -44.6171ZM87.5605 -35.7327L87.0575 -35.1479L86.9522 -35.0251L86.9172 -34.9841L86.8821 -34.949L86.8119 -34.8671L86.7768 -34.8262L86.7475 -34.7853L86.7183 -34.7443L86.654 -34.6683L86.6247 -34.6332L86.5955 -34.5923L86.5311 -34.5104L86.5019 -34.4694V-34.4343L86.4668 -34.3934L86.3966 -34.3115L86.3615 -34.2706L86.3264 -34.2296L86.2212 -34.1068C85.1976 -32.8669 84.2034 -31.5977 83.2559 -30.2993L86.5545 -27.8779C87.8646 -29.6618 89.2683 -31.3872 90.7247 -33.0774L87.6424 -35.7737L87.5605 -35.7327ZM78.5887 -23.2632C78.8168 -23.6726 79.0449 -24.0528 79.2788 -24.433L79.542 -24.8482L83.0512 -22.7135C81.899 -20.8068 80.8112 -18.8475 79.8228 -16.8648L76.1615 -18.6954L76.296 -18.9644V-18.9995C77.0212 -20.4266 77.7816 -21.8245 78.5887 -23.2047V-23.234V-23.2632ZM73.0149 -11.8935L72.7868 -11.3086V-11.2794L72.7517 -11.1917V-11.139V-11.0162V-10.9402L72.705 -10.8115C72.0774 -9.15457 71.5077 -7.47366 70.9971 -5.76993L70.9562 -5.64126L74.8748 -4.47152C75.5123 -6.5946 76.2493 -8.71183 77.0622 -10.7706L73.2547 -12.2795L73.0149 -11.8935ZM68.7338 2.84514C68.8157 2.41818 68.9034 1.98537 68.9911 1.55843V1.55257L72.9975 2.38894C72.5472 4.55296 72.1845 6.76961 71.9213 8.96872L67.8565 8.47743C68.0747 6.65263 68.3536 4.84539 68.6929 3.05569C68.6973 3.02937 68.7041 3.00304 68.711 2.97672C68.7224 2.93286 68.7338 2.889 68.7338 2.84514ZM67.3124 15.4785V15.6832V15.8236V15.8704V15.9113C67.3124 16.2323 67.3036 16.5709 67.2947 16.9137C67.2874 17.1954 67.28 17.4798 67.2773 17.7595V17.8531V17.894V17.9817V18.0227V18.0636V18.163V18.2508V18.3911V18.4906V18.9117V18.9409C67.2773 19.6545 67.2773 20.3563 67.3183 21.064V21.0932V21.1283V21.1576V21.1868V21.3213C67.3183 21.5678 67.3332 21.8143 67.3481 22.0608C67.3541 22.1594 67.3601 22.258 67.3651 22.3566L71.4592 22.1577C71.3948 20.8827 71.3656 19.5784 71.3656 18.2976C71.3656 17.3618 71.3656 16.4143 71.4124 15.4843L67.3183 15.3381L67.3124 15.4785ZM71.8965 28.9511L72.0499 28.9305L71.8744 28.7901L71.8965 28.9511ZM71.8965 28.9511L67.9967 29.4744C68.0961 30.2231 68.2073 30.9658 68.3242 31.7086V31.7613V31.8665V31.925V31.9894V32.1063V32.1648V32.1941C68.4997 33.2193 68.6945 34.2393 68.9091 35.2529V35.2822V35.3758V35.405V35.6097L69.0495 36.2414L73.0441 35.3524C72.5763 33.247 72.1919 31.0915 71.8965 28.9511ZM74.9451 41.9319L74.8751 41.954L74.8106 41.7506L74.9451 41.9319ZM74.8751 41.954C75.5262 43.9971 76.2649 46.0333 77.0857 48.0146L73.2958 49.5762C72.6015 47.8877 71.9623 46.1722 71.3774 44.4293V44.4001L71.3423 44.2831V44.2539V44.2246V44.096L71.3072 43.9965C71.2634 43.8563 71.2181 43.7176 71.1729 43.5789L71.1727 43.5784C71.1274 43.4394 71.082 43.3005 71.0382 43.1602L74.8751 41.954ZM79.8556 54.3279L80.0217 54.2435L78.8519 52.4479C79.1758 53.077 79.5111 53.7042 79.8556 54.3279ZM79.8556 54.3279L76.3545 56.1092C76.5984 56.5822 76.847 57.0529 77.0944 57.5213L77.0946 57.5218L77.0951 57.5227C77.239 57.7951 77.3824 58.0667 77.5243 58.3376L77.6061 58.4779L77.6588 58.5715V58.6066L77.6939 58.6651L77.729 58.7236V58.7587L77.7641 58.823L77.8109 58.9107V58.94L77.8635 59.0277L77.9161 59.1154L77.9688 59.209L77.9688 59.2091C77.9981 59.2559 78.0273 59.3026 78.0506 59.3494L78.115 59.4605L78.1735 59.5482L78.2437 59.6652L78.3021 59.7529L78.3372 59.8114L78.3665 59.8641V59.8933L78.425 59.9927C78.4582 60.0459 78.4922 60.099 78.5265 60.1525L78.5265 60.1525L78.5266 60.1526C78.5828 60.2403 78.6395 60.3289 78.694 60.4197L82.1564 58.2381C81.3611 56.9617 80.5875 55.6527 79.8556 54.3279ZM87.0986 65.5375L83.835 68.0056C85.2387 69.8655 86.7202 71.6611 88.28 73.3923L91.3214 70.6609C89.8482 69.0189 88.4099 67.2957 87.0986 65.5375ZM93.1987 78.4044L96.006 75.4215L95.5089 74.7723C97.1231 76.2872 98.8017 77.7552 100.556 79.1296L98.018 82.3405L97.2693 81.7557L97.2284 81.7206L97.1582 81.668L97.1231 81.6387H97.0939H97.0646H97.0354L97.0003 81.6095L96.9652 81.5802L96.9301 81.551L96.8892 81.5217L96.8541 81.4866L96.8131 81.4516L96.7313 81.3814L96.6845 81.3463C95.8616 80.6678 95.0603 79.9759 94.2807 79.27L94.2456 79.2349L94.2046 79.1998L94.1637 79.1647L94.1286 79.1296H94.0935H94.0584H94.0233H93.9941L93.9531 79.1004L93.9063 79.0594L93.1987 78.4044ZM106.458 83.6683L104.194 87.0781L104.504 87.2828H104.534C105.417 87.8677 106.317 88.4174 107.224 88.9614H107.259L107.312 88.9965H107.359H107.394C108.201 89.4702 109.014 89.9264 109.833 90.3768L111.792 86.7798C109.85 85.7212 107.932 84.569 106.083 83.3466L106.458 83.6683ZM116.512 93.7923L118.155 90.0432L118.079 89.9438C120.109 90.8328 122.197 91.6458 124.296 92.3535L122.975 96.2312C121.228 95.6346 119.506 94.9836 117.81 94.2777H117.781H117.728H117.641L116.512 93.7923ZM130.747 94.3479L129.771 98.325C131.221 98.6818 132.695 99.0035 134.169 99.2784H134.298H134.391H134.45H134.777H134.853H134.935C135.52 99.3836 136.076 99.4772 136.649 99.5708L137.286 95.5235C135.093 95.1784 132.894 94.7398 130.747 94.2075V94.3479ZM143.62 100.513L143.907 96.4186V96.366C145.767 96.4946 147.656 96.5648 149.527 96.5648H150.58L150.633 100.659H146.194C145.328 100.624 144.474 100.577 143.62 100.513ZM163.845 95.3073C161.669 95.7109 159.447 96.0267 157.242 96.2431L157.64 100.337H157.891H158.026H158.055C159.418 100.197 160.769 100.027 162.114 99.8167H162.172H162.272H162.359H162.43H162.734H162.792H163.05H163.208L164.588 99.5769L163.845 95.5471V95.3073ZM170.337 93.8393C172.472 93.2544 174.607 92.5643 176.683 91.7981L176.554 92.0847L177.976 95.9214C177.268 96.1846 176.554 96.4361 175.841 96.6818H175.812L175.683 96.7227H175.572H175.449H175.39H175.326C174.484 96.9976 173.642 97.2608 172.788 97.5123L172.636 97.5591H172.542L172.454 97.5883H172.139L171.425 97.7872L170.337 93.8393ZM188.731 86.119C186.813 87.2303 184.83 88.2713 182.83 89.2188L184.584 92.9211L185.573 92.4473H185.631H185.678H185.76H185.813H185.871H185.906L186.012 92.3947L186.181 92.3128L187.889 91.2717L188.275 91.067H188.304C189.135 90.6225 189.958 90.1622 190.772 89.6867L188.72 86.1483L188.731 86.119ZM194.352 82.5278C196.136 81.2586 197.943 79.8958 199.645 78.4746L199.206 78.9718L201.832 82.1125C200.476 83.2471 199.079 84.3391 197.645 85.3878L197.598 85.4229L197.469 85.5164L197.428 85.5515L197.382 85.5808L197.294 85.6451L197.253 85.6743L197.212 85.7036L197.171 85.7328H197.13L197.095 85.7621L197.06 85.7913H197.019L196.984 85.8206L196.949 85.8498H196.914H196.879H196.843H196.814H196.785H196.756H196.727L196.691 85.8791L194.352 82.5278ZM209.12 69.0464C207.687 70.7309 206.16 72.3802 204.587 73.936L207.471 76.8603C207.781 76.5562 208.091 76.2403 208.395 75.9304L208.436 75.8894L208.471 75.8485L208.547 75.7724L208.576 75.7374L208.611 75.7023L208.646 75.6672V75.6379L208.675 75.6028V75.5677L208.71 75.5327H208.74L208.769 75.5034V75.4742L208.798 75.4449H208.833L208.874 75.404L208.909 75.3689V75.3338V75.2987L208.974 75.2344L209.015 75.1934L209.05 75.1525L209.114 75.0823L209.155 75.0414L209.19 75.0004L209.225 74.9595L209.284 74.8951L209.319 74.8542L209.354 74.8133L209.412 74.7431L209.447 74.708L209.482 74.6729L209.518 74.6378L209.547 74.6086V74.5735L209.576 74.5442H209.605V74.515V74.4857V74.4565V74.4272L209.635 74.3922V74.3629L209.664 74.3278V74.2927L209.693 74.2576L209.763 74.1816L209.798 74.1407C209.831 74.1037 209.864 74.0667 209.898 74.0296L209.996 73.9203L209.999 73.9175L209.999 73.9174C210.218 73.6741 210.439 73.429 210.623 73.1873L209.12 69.0464ZM216.415 58.9497C216.566 58.7013 216.716 58.4524 216.864 58.2032L215.957 58.677L216.415 58.9497ZM216.415 58.9497C215.416 60.5964 214.354 62.2235 213.226 63.7887L216.554 66.1691L216.998 65.5433L217.092 65.4088V65.362V65.3152L217.15 65.2275V65.1866L217.179 65.1456V65.1047V65.0696V65.0287V64.9877V64.9526V64.9175V64.8824V64.8473V64.8123V64.783V64.7479V64.7128V64.6836V64.6543V64.6192V64.59V64.5608V64.5257V64.4847V64.4438L217.209 64.397V64.356L217.244 64.3093L217.326 64.1806C218.067 63.0617 218.78 61.923 219.466 60.765L216.415 58.9497ZM222.654 46.2074C221.864 48.272 220.975 50.3307 220.016 52.3251L223.701 54.109L223.795 53.9127C223.892 53.711 223.988 53.511 224.081 53.3077V53.2785V53.179L224.122 53.0913C224.484 52.3017 224.835 51.5122 225.174 50.7109L225.251 50.5354V50.4886V50.4536V50.2664V50.2372V50.2079C225.251 50.175 225.268 50.1421 225.286 50.1071L225.287 50.1068L225.295 50.0909C225.3 50.0814 225.305 50.0716 225.309 50.0617C225.578 49.4066 225.841 48.7457 226.093 48.0848L222.654 46.2366V46.2074ZM226.276 33.5369L226.303 33.3988L226.198 33.5217L226.276 33.5369ZM226.276 33.5369C225.86 35.6668 225.349 37.801 224.753 39.8792L228.69 41.0021L228.731 40.8618V40.774V40.6395V40.5986C229.311 38.5357 229.807 36.4384 230.216 34.3054L226.276 33.5369ZM227.725 20.1514C227.672 22.3681 227.532 24.6081 227.298 26.8072L231.392 27.24C231.637 24.9357 231.788 22.5962 231.842 20.2216L227.748 20.1339L227.725 20.1514ZM226.894 6.8281L230.947 6.24323L231.31 6.41284C231.433 7.24336 231.544 8.07972 231.637 8.91608V9.04475V9.07985V9.14419V9.17343V9.20267V9.26701V9.32549V9.35474V9.38983V9.61793V9.65302V9.68227V9.80508V10.8696V11.8814V12.0334V12.1914V12.3142V12.3785V12.4078V12.5013V12.5306V12.5657C231.642 12.6245 231.648 12.6839 231.654 12.7434V12.7436V12.7438V12.744L231.654 12.7443C231.669 12.8974 231.684 13.0518 231.684 13.2032L227.59 13.4605C227.479 11.2439 227.222 9.01551 226.894 6.8281ZM227.713 -7.39581L223.829 -6.11495C224.519 -4.01527 225.128 -1.8571 225.642 0.318611L229.625 -0.623024C229.503 -1.13771 229.374 -1.64655 229.245 -2.14954V-2.17878V-2.20802V-2.34839V-2.44197V-2.47121C228.824 -4.07961 228.35 -5.6763 227.83 -7.24375L227.713 -7.39581ZM218.589 -18.3387L222.198 -20.2629L222.367 -20.0699C222.63 -19.5845 222.882 -19.099 223.127 -18.6078V-18.5434C223.788 -17.245 224.414 -15.9232 224.999 -14.5839V-14.5429V-14.4844L225.019 -14.4365L225.032 -14.404L225.051 -14.3591C225.073 -14.309 225.094 -14.2593 225.116 -14.2097L225.116 -14.2095L225.116 -14.2094C225.156 -14.1188 225.195 -14.0282 225.233 -13.9347L221.472 -12.3263C220.601 -14.3616 219.63 -16.3853 218.589 -18.3387ZM214.594 -32.0246L211.36 -29.5155C212.723 -27.7609 214.021 -25.9361 215.226 -24.0821L218.659 -26.3104C217.384 -28.2598 216.029 -30.1647 214.594 -32.0246ZM202.324 -39.3123L205.09 -42.3302V-42.3595C206.814 -40.7803 208.471 -39.131 210.061 -37.4115L207.049 -34.6333C205.546 -36.23 203.961 -37.815 202.324 -39.3123ZM193.978 -50.8809L193.957 -50.8491L193.954 -50.8517L193.978 -50.8809ZM193.957 -50.8491L191.767 -47.436C193.627 -46.2663 195.463 -44.9503 197.218 -43.5993L199.715 -46.8453L198.493 -47.7694H198.452L198.364 -47.8337L198.323 -47.863L198.282 -47.8922L198.247 -47.9215L198.212 -47.9507H198.177L198.142 -47.98H198.107H198.072H198.042H198.013H197.984H197.955H197.926H197.89H197.855L197.82 -48.0092L197.75 -48.0618H197.715H197.674H197.639L197.604 -48.0911H197.569L197.528 -48.1203L197.452 -48.1671L197.411 -48.1964H197.376L197.335 -48.2256H197.3H197.259H197.218L197.177 -48.2548L197.142 -48.2841H197.101L197.031 -48.3309L196.996 -48.3601L196.96 -48.3894L196.914 -48.4186L196.873 -48.4479L196.838 -48.4771H196.791L196.715 -48.5297L196.668 -48.5648L196.615 -48.5999L196.487 -48.6877L193.957 -50.8491ZM179.982 -53.6532L181.578 -57.4256L181.865 -57.139C183.51 -56.4254 185.129 -55.6786 186.719 -54.8989H186.749L186.842 -54.8521H186.901H186.948H187.029H187.082L187.918 -54.4193L186.006 -50.799C184.076 -51.8342 182.023 -52.7934 179.982 -53.6532ZM168.243 -61.7535L167.319 -57.7647C169.471 -57.2676 171.635 -56.6652 173.753 -55.9809L175.016 -59.8761C173.349 -60.4142 171.665 -60.9055 169.957 -61.3383H169.928H169.893H169.805H169.664H169.6H169.512C169.363 -61.3737 169.213 -61.4098 169.065 -61.4459L169.064 -61.4461C168.794 -61.5113 168.526 -61.5763 168.255 -61.6366L168.243 -61.7535ZM154.107 -59.6248L154.341 -63.7189L154.376 -63.2803C155.518 -63.2101 156.653 -63.1204 157.78 -63.0112H157.944H158.072H158.137H158.236H159.19H159.248H161.038H161.108H161.225H161.324L160.739 -58.9581C158.552 -59.2739 156.324 -59.4962 154.107 -59.6248Z" fill="white"/>
<path opacity="0.32" fill-rule="evenodd" clip-rule="evenodd" d="M202.254 173.271H200.663C198.874 173.306 197.086 173.399 195.3 173.551H195.242L195.592 177.645C197.797 177.458 200.037 177.365 202.254 177.365V173.271ZM188.282 174.44C185.983 174.832 183.69 175.323 181.427 175.914L182.456 179.88C184.597 179.295 186.79 178.85 188.978 178.476L188.282 174.44ZM168.209 180.576C170.349 179.605 172.519 178.729 174.718 177.949L176.081 181.81C173.993 182.547 171.917 183.389 169.899 184.301L168.209 180.576ZM161.951 183.746L161.243 184.149L161.155 184.202H161.12H161.079L161.027 184.231C159.448 185.155 157.888 186.13 156.348 187.155L158.652 190.542C160.483 189.296 162.384 188.115 164.314 187.033L162.308 183.465L161.951 183.746ZM148.816 192.932C149.323 192.495 149.823 192.063 150.364 191.641L151.727 189.904L154.312 193.074C152.599 194.472 150.92 195.963 149.323 197.502L146.475 194.577L147.06 193.992L147.101 193.951L147.177 193.881L147.212 193.846L147.247 193.811L147.282 193.782H147.317L147.346 193.753H147.381V193.723H147.411H147.44H147.469H147.498H147.534L147.569 193.694L147.61 193.659H147.639L147.686 193.618L147.721 193.583L147.756 193.548L147.791 193.513L147.855 193.448L147.89 193.419L147.925 193.39H147.96H147.99L148.025 193.361H148.054H148.083H148.113V193.331H148.142H148.171H148.2L148.23 193.302H148.259L148.288 193.273H148.317H148.352L148.387 193.244H148.423H148.458L148.534 193.179L148.569 193.144L148.651 193.074L148.692 193.039L148.816 192.932ZM140.275 201.379C138.716 203.15 137.252 204.972 135.883 206.848L139.182 209.275C140.486 207.491 141.895 205.766 143.352 204.076L140.275 201.379ZM128.572 218.814C129.609 216.728 130.742 214.681 131.97 212.673L131.953 212.656L135.462 214.79C134.31 216.697 133.222 218.656 132.239 220.639L128.572 218.814ZM125.718 225.259C124.852 227.441 124.086 229.658 123.419 231.892L127.338 233.062C127.976 230.939 128.712 228.815 129.525 226.763L125.718 225.254V225.259ZM121.642 238.975L121.694 238.712L121.776 238.624L125.782 239.46C125.332 241.624 124.969 243.841 124.7 246.04L120.636 245.543C120.688 245.11 120.747 244.677 120.805 244.245V244.116V244.057V244.028V243.999C121.035 242.365 121.314 240.741 121.642 239.127V238.975ZM120.01 252.626C120.01 252.916 119.999 253.204 119.989 253.493L119.989 253.493C119.98 253.734 119.971 253.974 119.969 254.217V254.474C119.969 256.158 119.969 257.837 120.062 259.521L124.156 259.322C124.045 257.112 124.034 254.866 124.11 252.649L120.016 252.503L120.01 252.626ZM124.589 266.1L124.753 266.078L124.566 265.931L124.589 266.1ZM124.589 266.1L120.694 266.627C120.764 267.13 120.84 267.639 120.916 268.142V268.172V268.271V268.487V268.546V268.634V268.663V268.815C121.092 269.903 121.287 270.986 121.501 272.067V272.19V272.26V272.289C121.546 272.488 121.589 272.689 121.633 272.89L121.633 272.89C121.668 273.056 121.704 273.222 121.741 273.389L125.736 272.5C125.268 270.391 124.884 268.243 124.589 266.1ZM127.648 279.085L127.641 279.087L127.636 279.073L127.648 279.085ZM127.641 279.087C128.307 281.194 129.065 283.301 129.906 285.343L126.116 286.899C125.227 284.723 124.431 282.524 123.73 280.302L127.641 279.087ZM129.075 293.28L132.713 291.402C133.725 293.368 134.848 295.315 136.017 297.187L132.555 299.368C131.986 298.464 131.434 297.549 130.9 296.625C130.882 296.595 130.865 296.566 130.848 296.536L130.848 296.536C130.801 296.457 130.755 296.379 130.713 296.298L130.619 296.128L130.584 296.076C130.063 295.151 129.561 294.216 129.075 293.28ZM139.807 302.673L139.421 302.965C138.544 301.925 137.695 300.863 136.889 299.789L139.807 302.673ZM139.421 302.965C139.983 303.63 140.555 304.287 141.135 304.93L138.088 307.668L137.795 307.34L137.684 307.217L137.649 307.176L137.614 307.135L137.579 307.094L137.544 307.059L137.509 307.024L137.474 306.989L137.445 306.954L137.415 306.919L137.386 306.884L137.351 306.849H137.322L137.292 306.819H137.263V306.784V306.749L137.234 306.72V306.691L137.205 306.662V306.626L137.176 306.591H137.146V306.562L137.117 306.527L137.088 306.492L137.059 306.463H137.029L137 306.428V306.393L136.971 306.352V306.322V306.293V306.264V306.229V306.2V306.17V306.141V306.112L136.942 306.077L136.912 306.042V306.007V305.971V305.936V305.901V305.866L136.883 305.831V305.796V305.761V305.726V305.691L136.854 305.656L136.825 305.615L136.795 305.574V305.539L136.731 305.457L136.702 305.422L136.673 305.387L136.637 305.346L136.608 305.305L136.544 305.223V305.182V305.141L139.421 302.965ZM145.919 315.598L148.721 312.616L148.622 312.487C150.242 314.008 151.914 315.476 153.669 316.85L151.125 320.055L150.446 319.511L150.025 319.172L149.943 319.108H149.902L149.821 319.037L149.78 319.002L149.704 318.938L149.663 318.903L149.581 318.833L149.54 318.798L149.458 318.727L149.417 318.692L149.376 318.657L149.335 318.622L149.294 318.587L149.259 318.552L149.224 318.517L149.189 318.482L149.148 318.447L149.107 318.412L149.066 318.376L149.031 318.341L148.996 318.306L148.961 318.271H148.92L148.838 318.207L148.797 318.172L148.715 318.102L148.68 318.066L148.604 317.996L148.563 317.961L148.481 317.897L148.44 317.868L148.358 317.797L148.317 317.762L148.236 317.692L148.2 317.663L148.119 317.593L148.078 317.558L147.996 317.487L147.955 317.452L147.873 317.382L147.832 317.347L147.709 317.236C147.089 316.704 146.504 316.154 145.919 315.598ZM159.167 320.891L156.909 324.301C157.199 324.495 157.488 324.688 157.778 324.88L157.786 324.886C158.079 325.081 158.371 325.275 158.664 325.471H158.693H158.728C159.508 325.951 160.288 326.414 161.068 326.863L161.161 326.921H161.19H161.243H161.278L161.331 326.951H161.36L162.302 327.471L164.255 323.874C162.313 322.816 160.395 321.664 158.547 320.441L159.167 320.891ZM169.221 331.01L170.864 327.255L170.227 326.454C172.25 327.343 174.344 328.156 176.438 328.863L175.128 332.741C174.114 332.406 173.11 332.043 172.116 331.653H172.086L171.958 331.606H171.899L171.806 331.566H171.718L171.624 331.53H171.566H171.502H171.437H170.724H170.694H170.577L170.496 331.495L170.384 331.449H170.349L170.291 331.419H170.232L170.121 331.372L170.004 331.32H169.975L169.864 331.273H169.829L169.659 331.203L169.431 331.103L169.221 331.01ZM183.474 331.536L182.497 335.513H182.585C184.831 336.063 187.1 336.519 189.375 336.876L190.013 332.834C187.825 332.489 185.626 332.045 183.474 331.519V331.536ZM196.347 337.707L196.639 333.612V333.548C198.499 333.677 200.388 333.747 202.254 333.747H203.307L203.359 337.841H200.634C199.821 337.824 199.008 337.8 198.195 337.759H197.195L196.347 337.707ZM216.566 332.495C214.39 332.899 212.168 333.215 209.963 333.431L210.366 337.525H210.612H210.77H210.828C213 337.299 215.162 336.987 217.314 336.59L216.566 332.56V332.495ZM223.087 331.027C225.228 330.443 227.363 329.752 229.433 328.986L229.404 329.027L230.825 332.87C228.871 333.587 226.9 334.231 224.912 334.8H224.812L224.175 334.975L223.087 331.027ZM241.487 323.319C239.569 324.43 237.586 325.471 235.58 326.413L237.334 330.115C239.448 329.128 241.52 328.043 243.552 326.857L241.499 323.319H241.487ZM247.108 319.663C248.891 318.394 250.699 317.031 252.401 315.61L254.74 318.944C253.142 320.277 251.51 321.541 249.845 322.734L249.792 322.769L249.71 322.828L249.447 323.015L247.108 319.663ZM261.87 306.223C261.47 306.692 261.062 307.158 260.649 307.62L260.519 307.51L261.87 306.223ZM260.649 307.62L263.636 310.165C262.759 311.187 261.856 312.194 260.928 313.189L260.817 313.306L260.753 313.37L260.688 313.44L260.653 313.475H260.618H260.589H260.56V313.505V313.534V313.563V313.592H260.53V313.622L260.501 313.657V313.686H260.472V313.715L260.437 313.75L260.402 313.785H260.372V313.815H260.343V313.85V313.879V313.908L260.215 314.037L257.331 311.112L257.583 310.867C258.63 309.815 259.658 308.728 260.649 307.62ZM269.261 295.933C269.369 295.753 269.477 295.572 269.584 295.391L269.245 295.923L269.261 295.933ZM269.261 295.933C268.225 297.653 267.121 299.346 265.946 300.977L269.274 303.357C270.416 301.759 271.491 300.133 272.497 298.479C272.521 298.432 272.548 298.387 272.579 298.345V298.31L272.614 298.257L272.678 298.146L272.754 298.011L269.261 295.933ZM275.363 283.396C275.321 283.506 275.279 283.616 275.237 283.726L274.708 283.524L275.363 283.396ZM275.237 283.726L278.533 284.981L278.518 285.022C278.499 285.074 278.48 285.129 278.457 285.179V285.244V285.396V285.448V286.209V286.238L278.422 286.32L278.375 286.431V286.49C278.188 286.975 277.989 287.46 277.79 287.94L277.743 288.057V288.086V288.145V288.221V288.273V288.379L277.69 288.502C277.287 289.431 276.86 290.356 276.421 291.274L272.731 289.519C273.639 287.631 274.484 285.685 275.237 283.726ZM278.848 271.408C278.904 271.134 278.959 270.861 279.012 270.587L278.503 271.341L278.848 271.408ZM278.848 271.408C278.457 273.306 277.989 275.207 277.462 277.067L281.398 278.19V278.103V278.073V278.044C281.632 277.225 281.849 276.406 282.053 275.582V275.523V275.406V275.371V275.284V275.225V275.137V275.108V274.868V274.699V274.611V274.564V274.488V274.441C282.065 274.388 282.078 274.335 282.094 274.283C282.094 274.213 282.094 274.143 282.141 274.073C282.255 273.576 282.361 273.05 282.466 272.53L282.466 272.529L282.521 272.254V272.119L278.848 271.408ZM280.439 257.334L280.437 257.424L280.328 257.422L280.439 257.334ZM280.437 257.424L284.422 257.515C284.405 258.363 284.375 259.211 284.329 260.059V260.089V260.252V260.299V260.556V261.141V261.41V261.457V261.592V261.726V261.913C284.264 262.756 284.188 263.592 284.101 264.428L280.007 263.99C280.237 261.82 280.383 259.611 280.437 257.424ZM279.603 244.016L283.656 243.431L283.814 243.578V243.724V243.753V243.782V244.005V244.104V244.151V244.315C284.071 246.332 284.276 248.362 284.399 250.391L280.305 250.649C280.188 248.438 279.931 246.204 279.603 244.016ZM280.428 229.792L276.538 231.056C277.229 233.161 277.837 235.319 278.346 237.489L282.329 236.548C282.329 236.451 282.298 236.355 282.268 236.258C282.254 236.214 282.24 236.17 282.229 236.127L282.177 235.916V235.84V235.682V235.618V235.454V235.278V235.191L282.141 235.039C281.705 233.362 281.216 231.699 280.673 230.05L280.428 229.792ZM271.304 218.82L274.918 216.896L275.14 217.253C276.127 219.12 277.037 221.013 277.872 222.932L277.913 223.025L277.948 223.119V223.224L274.181 224.833C273.316 222.797 272.345 220.774 271.304 218.82ZM267.315 205.134L264.081 207.649C265.443 209.404 266.742 211.223 267.947 213.083L271.38 210.854L270.994 210.269L270.947 210.205L270.877 210.1C269.785 208.45 268.615 206.836 267.367 205.257L267.315 205.134ZM255.015 197.817L257.776 194.794L258.758 195.735L259.097 196.051L259.203 196.145L259.249 196.186L259.349 196.273L259.536 196.455L260.203 197.098L260.296 197.192L260.413 197.309L260.484 197.379L260.53 197.425L260.571 197.472V197.507H260.606L260.636 197.537V197.572L260.665 197.601H260.7L260.764 197.665L260.794 197.7L260.829 197.735L260.864 197.765L260.899 197.8L260.934 197.835L260.998 197.905L261.033 197.94L261.068 197.981L261.104 198.016L261.18 198.092L261.25 198.168C261.759 198.689 262.262 199.215 262.753 199.747L259.747 202.526C259.033 201.754 258.384 201.069 257.553 200.245C256.723 199.42 255.875 198.601 255.015 197.817ZM246.663 186.243L244.452 189.688C246.312 190.858 248.149 192.174 249.903 193.525L252.401 190.284C251.759 189.762 251.117 189.301 250.466 188.834L250.466 188.833L250.231 188.664L250.178 188.623C249.176 187.914 248.166 187.23 247.149 186.571L247.037 186.495L246.663 186.243ZM232.679 183.5L234.27 179.727L234.258 179.786L234.539 179.903H234.667L234.761 179.944C236.744 180.792 238.697 181.722 240.61 182.728L238.703 186.348C236.773 185.319 234.72 184.36 232.679 183.5ZM220.935 175.405L220.005 179.394C222.163 179.891 224.327 180.494 226.438 181.178L227.696 177.283C225.468 176.557 223.21 175.932 220.941 175.405H220.935ZM206.816 177.499L207.056 173.405L207.062 173.411C209.397 173.551 211.723 173.787 214.039 174.119L213.454 178.172C211.261 177.856 209.027 177.628 206.816 177.499Z" fill="white"/>
<path d="M180.912 195.25V325.658L175.063 466.997" stroke="#081638" stroke-width="5"/>
<path d="M225.087 325.658L230.936 466.992" stroke="#081638" stroke-width="5"/>
<path d="M301.705 325.658L307.554 466.992" stroke="#081638" stroke-width="5"/>
<path d="M180.912 250.005H202.693" stroke="#081638" stroke-width="5" stroke-linecap="square"/>
<path d="M224.163 176.873L223.829 176.797C221.849 176.328 219.981 175.473 218.331 174.281C216.681 173.089 215.283 171.584 214.215 169.851C213.147 168.118 212.431 166.192 212.108 164.183C211.785 162.173 211.86 160.12 212.331 158.14L225.455 102.841C226.432 98.8717 228.937 95.4484 232.425 93.3178C235.913 91.1865 240.102 90.5197 244.079 91.462C248.056 92.4048 251.501 94.8799 253.662 98.35C255.822 101.819 256.525 106.002 255.617 109.988L242.493 165.287C241.559 169.231 239.118 172.654 235.691 174.819C232.265 176.985 228.126 177.723 224.163 176.873Z" fill="#DADDF1"/>
<path d="M234.901 149.402L237.72 150.49C241.001 151.754 244.521 152.279 248.028 152.028C251.536 151.777 254.945 150.757 258.012 149.038C261.081 147.32 263.732 144.946 265.778 142.087C267.825 139.227 269.216 135.952 269.853 132.493L273.005 115.368C274.025 109.837 273.063 104.122 270.289 99.2283C267.514 94.3353 263.104 90.5758 257.833 88.6106C251.887 86.3963 245.304 86.6343 239.533 89.2721C233.762 91.9099 229.275 96.7315 227.058 102.677L221.08 118.72C218.881 124.623 219.098 131.156 221.685 136.901C224.273 142.646 229.022 147.137 234.901 149.402Z" fill="#DADDF1"/>
<path d="M226.108 128.005L226.114 128.003C230.76 126.586 233.378 121.67 231.961 117.023L230.504 112.246C229.087 107.599 224.171 104.981 219.524 106.398L219.519 106.4C214.872 107.817 212.254 112.733 213.671 117.38L215.128 122.157C216.545 126.804 221.461 129.422 226.108 128.005Z" fill="#DADDF1"/>
<path d="M218.735 113.315L223.677 122.311" stroke="#081638" stroke-width="3"/>
<path d="M266.139 115.468L263.086 129.095L258.237 128.037" stroke="#081638" stroke-width="3"/>
<path d="M229.385 122.761L242.252 100.074L245.305 94.6932C246.346 96.6227 247.7 98.3656 249.312 99.8518C255.161 105.279 276.017 109.175 282.608 95.553C287.978 84.4405 273.783 87.9497 267.607 85.5283C257.898 81.7618 252.482 74.059 236.854 77.8841C218.138 82.4987 220.232 106.239 220.232 106.239C220.232 106.239 228.169 105.309 229.385 122.761Z" fill="#081638"/>
<path d="M246.107 151.905L237.287 150.068L244.51 158.947L246.107 151.905Z" fill="#081638"/>
<path d="M255.716 122.527C257.076 122.527 258.179 121.425 258.179 120.065C258.179 118.705 257.076 117.603 255.716 117.603C254.356 117.603 253.254 118.705 253.254 120.065C253.254 121.425 254.356 122.527 255.716 122.527Z" fill="#081638"/>
<path d="M270.286 124.919C271.645 124.919 272.748 123.817 272.748 122.457C272.748 121.097 271.645 119.995 270.286 119.995C268.926 119.995 267.823 121.097 267.823 122.457C267.823 123.817 268.926 124.919 270.286 124.919Z" fill="#081638"/>
<path d="M249.33 130.107C249.33 130.107 252.652 131.095 253.348 134.353" stroke="#081638" stroke-width="3"/>
<path d="M279.509 183.967C279.509 183.967 300.354 167.006 317.818 188.36C335.282 209.713 304.734 205.994 304.734 205.994L289.352 202.034L279.509 183.967Z" fill="#DADDF1"/>
<path d="M450.536 466.998H374.521L364.94 466.875L372.275 432.76L406.659 435.836L450.536 466.998Z" fill="#DADDF1"/>
<path d="M518.814 277.863L472.884 323.792L467.006 329.495L446.337 299.965L469.375 281.448L518.814 277.863Z" fill="#DADDF1"/>
<path d="M336.13 255.883L245.65 324.857H361.612V441.609H428.13V292.701C428.13 272.365 410.584 255.883 388.984 255.883H336.13Z" fill="#081638"/>
<path d="M338.265 273.254L279.41 316.797C257.98 332.647 224.081 324.986 211.284 300.959L202.687 274.482L306.074 205.725C324.339 195.963 345.517 197.97 365.631 211.808L480.002 265.563L451.303 322.88L338.265 273.254Z" fill="#081638"/>
<path d="M357.718 258.808L279.41 318.552C279.41 318.552 269.976 326.512 251.336 326.512" stroke="white" stroke-width="3"/>
<path d="M429.271 294.636C429.271 294.636 427.481 257.205 389.868 258.807C382.516 259.123 357.7 258.807 357.7 258.807" stroke="white" stroke-width="3"/>
<path d="M429.271 294.637V365.517" stroke="white" stroke-width="3"/>
<path d="M301.705 325.658H182.351" stroke="#081638" stroke-width="5" stroke-linecap="square"/>
<path d="M257.178 325.658L251.681 466.992" stroke="#081638" stroke-width="5"/>
<path d="M202.686 274.482C202.686 274.482 178.788 227.043 178.946 195.01C179.005 184.009 180.701 159.772 226.437 157.847C272.174 155.923 305.705 207.854 305.705 207.854L202.686 274.482Z" fill="#1758FE"/>
<mask id="mask0_1039_504" style="mask-type:luminance" maskUnits="userSpaceOnUse" x="178" y="157" width="128" height="118">
<path fill-rule="evenodd" clip-rule="evenodd" d="M202.686 274.482C202.686 274.482 178.788 227.043 178.946 195.01C179.005 184.009 180.701 159.772 226.437 157.847C272.174 155.923 305.705 207.854 305.705 207.854L202.686 274.482Z" fill="white"/>
</mask>
<g mask="url(#mask0_1039_504)">
<path d="M248.574 232.372C256.475 232.372 262.88 225.967 262.88 218.066C262.88 210.165 256.475 203.76 248.574 203.76C240.673 203.76 234.269 210.165 234.269 218.066C234.269 225.967 240.673 232.372 248.574 232.372Z" fill="#19F0FE"/>
<path d="M171.144 195.788C179.045 195.788 185.45 189.383 185.45 181.482C185.45 173.581 179.045 167.177 171.144 167.177C163.243 167.177 156.838 173.581 156.838 181.482C156.838 189.383 163.243 195.788 171.144 195.788Z" fill="#19F0FE"/>
<path d="M221.092 193.051C228.993 193.051 235.398 186.646 235.398 178.745C235.398 170.844 228.993 164.439 221.092 164.439C213.191 164.439 206.786 170.844 206.786 178.745C206.786 186.646 213.191 193.051 221.092 193.051Z" fill="#19F0FE"/>
<path d="M271.039 190.32C278.94 190.32 285.345 183.915 285.345 176.014C285.345 168.113 278.94 161.708 271.039 161.708C263.138 161.708 256.733 168.113 256.733 176.014C256.733 183.915 263.138 190.32 271.039 190.32Z" fill="#19F0FE"/>
<path d="M198.627 235.109C206.528 235.109 212.933 228.704 212.933 220.803C212.933 212.902 206.528 206.497 198.627 206.497C190.726 206.497 184.321 212.902 184.321 220.803C184.321 228.704 190.726 235.109 198.627 235.109Z" fill="#19F0FE"/>
<path d="M227.607 274.792C235.508 274.792 241.913 268.388 241.913 260.487C241.913 252.586 235.508 246.181 227.607 246.181C219.706 246.181 213.301 252.586 213.301 260.487C213.301 268.388 219.706 274.792 227.607 274.792Z" fill="#19F0FE"/>
<path d="M235.327 190.355L208.592 222.733L188.631 205.637" stroke="white" stroke-width="3"/>
</g>
<path d="M218.928 206.883L229.052 212.334L288.048 192.138" stroke="#DADDF1" stroke-width="43" stroke-linejoin="round"/>
<path d="M291.587 202.695C291.073 202.933 290.541 203.128 289.996 203.28C289.762 203.35 289.522 203.403 289.282 203.45L289.984 203.221L291.587 202.695Z" fill="#DADDF1"/>
<path d="M235.328 190.354L208.593 222.733L188.632 205.637" fill="#1758FE"/>
<path d="M296.757 193.483C296.757 199.01 293.868 203.742 289.774 205.713L288.171 206.257L287.469 206.491L277.866 209.749C279.453 208.808 280.797 207.508 281.79 205.953C283.336 203.555 284.149 200.758 284.13 197.905C284.13 192.15 280.989 187.243 276.603 185.436C275.423 184.946 274.16 184.694 272.883 184.693C272.155 184.695 271.429 184.777 270.719 184.939L280.837 181.476L281.896 181.113L283.984 180.4C284.492 180.313 285.007 180.27 285.522 180.271C291.721 180.271 296.757 186.184 296.757 193.483Z" fill="#081638"/>
<path d="M360.659 207.965C359.191 210.585 361.741 217.802 370.86 222.481C379.978 227.16 388.464 224.984 389.692 222.481C390.546 220.726 383.428 214.486 376.86 211.322C369.959 208.017 361.929 205.701 360.659 207.965Z" fill="#DADDF1"/>
<path d="M282.897 174.809L268.336 180.352C266.495 181.053 265.57 183.113 266.27 184.953C266.97 186.793 269.031 187.716 270.873 187.015L285.434 181.472C287.276 180.771 288.201 178.711 287.5 176.871C286.8 175.031 284.739 174.108 282.897 174.809Z" fill="#081638"/>
<path opacity="0.32" fill-rule="evenodd" clip-rule="evenodd" d="M468.445 129.873H475.463V131.628H468.445V129.873ZM489.5 129.873H482.482V131.628H489.5V129.873ZM496.519 129.873H503.537V131.628H496.519V129.873ZM517.574 129.873H510.556V131.628H517.574V129.873ZM524.593 129.873H531.611V131.628H524.593V129.873ZM545.648 129.873H538.629V131.628H545.648V129.873ZM552.666 129.873H559.685V131.628H552.666V129.873ZM573.722 129.873H566.703V131.628H573.722V129.873ZM580.74 129.873H587.758V131.628H580.74V129.873ZM601.795 129.873H594.777V131.628H601.795V129.873ZM608.814 129.873H615.832V131.628H608.814V129.873ZM629.869 129.873H622.851V131.628H629.869V129.873ZM636.887 129.873H643.906V131.628H636.887V129.873ZM657.943 129.873H650.924V131.628H657.943V129.873ZM664.961 129.873H671.98V131.628H664.961V129.873ZM686.016 129.873H678.998V131.628H686.016V129.873ZM700.053 129.873H693.035V131.628H700.053V129.873ZM468.936 135.628H467.182V142.647H468.936V135.628ZM467.182 149.665H468.936V156.683H467.182V149.665ZM468.936 163.702H467.182V170.72H468.936V163.702ZM467.182 177.739H468.936V184.757H467.182V177.739ZM468.936 191.776H467.182V198.794H468.936V191.776ZM467.182 205.812H468.936V212.831H467.182V205.812ZM468.936 219.849H467.182V226.868H468.936V219.849ZM467.182 233.886H468.936V240.905H467.182V233.886ZM468.936 247.923H467.182V254.941H468.936V247.923ZM467.182 261.96H468.936V268.978H467.182V261.96ZM468.936 275.997H467.182V283.015H468.936V275.997ZM467.182 290.034H468.936V297.052H467.182V290.034ZM468.936 304.07H467.182V311.089H468.936V304.07ZM467.182 318.107H468.936V325.126H467.182V318.107ZM468.936 332.144H467.182V339.163H468.936V332.144ZM467.182 346.181H468.936V353.199H467.182V346.181ZM468.936 360.218H467.182V367.236H468.936V360.218ZM467.182 374.255H468.936V381.273H467.182V374.255ZM468.936 388.292H467.182V395.31H468.936V388.292ZM467.182 402.329H468.936V409.347H467.182V402.329ZM468.936 416.365H467.182V423.384H468.936V416.365ZM467.182 430.402H468.936V437.421H467.182V430.402ZM469.691 443.96L468.877 444.158C468.647 443.467 468.444 442.767 468.269 442.059L469.691 443.96ZM468.877 444.158C469.343 445.551 469.922 446.905 470.609 448.206L469.053 449.019C468.778 448.504 468.521 447.972 468.281 447.434L468.246 447.358V447.305V447.258V447.212V447.165V447.118V447.071V447.024V446.972V446.925V446.878V446.831V446.785V446.738V446.685V446.615V446.562V446.516V446.463V446.41V446.358V446.282L468.211 446.182L468.176 446.083V446.007L468.141 445.907C468.143 445.872 468.143 445.837 468.141 445.802L468.106 445.697L468.071 445.591V445.51V445.428V445.346V445.27V445.217V445.164V445.118V444.849V444.773V444.714C468.058 444.663 468.046 444.614 468.035 444.565C468.02 444.501 468.005 444.438 467.989 444.375L468.877 444.158ZM475.723 455.539L475.768 455.499L475.335 455.113C475.463 455.256 475.592 455.398 475.723 455.539ZM475.723 455.539L474.463 456.669C475.347 457.664 476.301 458.594 477.318 459.453L477.382 459.505L477.429 459.546H477.458L477.505 459.576C478.09 460.038 478.674 460.482 479.294 460.897L480.283 459.447C478.621 458.318 477.091 457.007 475.723 455.539ZM486.558 462.833L485.973 464.483C486.494 464.67 487.026 464.851 487.564 465.009H487.64H487.693H487.746H487.798H487.851H488.488H488.523H488.599H488.629H488.699H488.757H488.81H488.892H488.974C490.206 465.31 491.456 465.527 492.717 465.658L492.898 463.904C490.713 463.676 488.563 463.179 486.5 462.424L486.558 462.833ZM499.788 464.465H506.807V466.22H499.788V464.465ZM520.843 464.465H513.825V466.22H520.843V464.465ZM527.862 464.465H534.88V466.22H527.862V464.465ZM548.917 464.465H541.899V466.22H548.917V464.465ZM555.936 464.465H562.954V466.22H555.936V464.465ZM576.991 464.465H569.972V466.22H576.991V464.465ZM584.009 464.465H591.028V466.22H584.009V464.465ZM605.065 464.465H598.046V466.22H605.065V464.465ZM612.083 464.465H619.101V466.22H612.083V464.465ZM633.138 464.465H626.12V466.22H633.138V464.465ZM640.157 464.465H647.175V466.22H640.157V464.465ZM661.212 464.465H654.194V466.22H661.212V464.465ZM668.23 464.465H675.249V466.22H668.23V464.465ZM689.046 464.231C687.859 464.385 686.666 464.463 685.472 464.465H682.279V466.22H686.824C687.654 466.184 688.479 466.108 689.286 466.003L689.058 464.249L689.046 464.231ZM695.404 462.57C697.445 461.756 699.381 460.695 701.164 459.412L700.971 459.658L701.995 461.079C700.878 461.879 699.702 462.598 698.486 463.231L698.416 463.266H698.369H698.328H698.269H698.205H698.152L698.076 463.301C697.415 463.617 696.737 463.927 696.047 464.202L695.404 462.57ZM709.592 449.469C709.539 449.578 709.485 449.686 709.43 449.794L709.376 449.768L709.592 449.469ZM709.43 449.794L710.949 450.54C710.888 450.655 710.827 450.769 710.768 450.883C710.728 450.959 710.688 451.035 710.649 451.111L710.646 451.117C710.455 451.483 710.268 451.843 710.06 452.201L710.019 452.277L709.984 452.335V452.394L709.943 452.464L709.908 452.517L709.879 452.563V452.61L709.832 452.68L709.803 452.733L709.762 452.797L709.715 452.867L709.669 452.938C708.961 454.042 708.183 455.098 707.329 456.096L705.99 454.961C707.333 453.376 708.488 451.643 709.43 449.794ZM712.336 436.655H714.09L714.049 437.409V438.404V438.778V438.854V438.918V439.059V439.176V439.532C713.956 440.91 713.763 442.278 713.464 443.626L711.751 443.264C712.143 441.41 712.336 439.52 712.336 437.626V436.655ZM714.09 422.618H712.336V429.636H714.09V422.618ZM712.336 408.581H714.09V415.599H712.336V408.581ZM714.09 394.544H712.336V401.562H714.09V394.544ZM712.336 380.507H714.09V387.525H712.336V380.507ZM714.09 366.47H712.336V373.489H714.09V366.47ZM712.336 352.433H714.09V359.452H712.336V352.433ZM714.09 338.396H712.336V345.415H714.09V338.396ZM712.336 324.36H714.09V331.378H712.336V324.36ZM714.09 310.323H712.336V317.341H714.09V310.323ZM712.336 296.286H714.09V303.304H712.336V296.286ZM714.09 282.249H712.336V289.267H714.09V282.249ZM712.336 268.212H714.09V275.231H712.336V268.212ZM714.09 254.175H712.336V261.194H714.09V254.175ZM712.336 240.138H714.09V247.157H712.336V240.138ZM714.09 226.101H712.336V233.12H714.09V226.101ZM712.336 212.065H714.09V219.083H712.336V212.065ZM714.09 198.028H712.336V205.046H714.09V198.028ZM712.336 183.991H714.09V191.009H712.336V183.991ZM714.09 169.954H712.336V176.972H714.09V169.954ZM712.336 155.917H714.09V162.936H712.336V155.917ZM714.09 141.88H712.336V148.899H714.09V141.88ZM707.072 129.891H714.09V134.862H712.336V131.645H707.072V129.891Z" fill="#DADDF1"/>
<path fill-rule="evenodd" clip-rule="evenodd" d="M392.556 153.446H670.625C671.863 153.396 673.101 153.597 674.251 154.037C675.416 154.475 676.465 155.144 677.353 156.002C678.256 156.86 678.956 157.888 679.451 159.027C679.931 160.166 680.179 161.391 680.179 162.629C680.179 163.867 679.931 165.091 679.451 166.23C678.956 167.368 678.256 168.398 677.353 169.256C676.465 170.113 675.416 170.782 674.251 171.22C673.101 171.66 671.863 171.861 670.625 171.812H392.556C391.319 171.861 390.086 171.66 388.928 171.22C387.771 170.782 386.714 170.113 385.821 169.256C384.93 168.398 384.219 167.368 383.734 166.23C383.249 165.091 383 163.867 383 162.629C383 161.391 383.249 160.166 383.734 159.027C384.219 157.888 384.93 156.86 385.821 156.002C386.714 155.144 387.771 154.475 388.928 154.037C390.086 153.597 391.319 153.396 392.556 153.446ZM672.546 158.103C671.935 157.877 671.279 157.779 670.624 157.816H392.555C391.9 157.779 391.246 157.877 390.63 158.103C390.015 158.328 389.451 158.678 388.977 159.128C388.5 159.578 388.122 160.121 387.862 160.723C387.603 161.326 387.469 161.974 387.469 162.629C387.469 163.285 387.603 163.933 387.862 164.536C388.122 165.137 388.5 165.681 388.977 166.131C389.451 166.581 390.015 166.93 390.63 167.156C391.246 167.382 391.9 167.479 392.555 167.443H670.624C671.279 167.479 671.935 167.382 672.546 167.156C673.158 166.93 673.726 166.581 674.207 166.131C674.673 165.681 675.051 165.137 675.314 164.536C675.576 163.933 675.707 163.285 675.707 162.629C675.707 161.974 675.576 161.326 675.314 160.723C675.051 160.121 674.673 159.578 674.207 159.128C673.726 158.678 673.158 158.328 672.546 158.103Z" fill="white"/>
<path d="M486.189 157.438H391.811C389.154 157.438 387 159.677 387 162.438C387 165.2 389.154 167.438 391.811 167.438H486.189C488.846 167.438 491 165.2 491 162.438C491 159.677 488.846 157.438 486.189 157.438Z" fill="white"/>
</svg>
