<svg width="247" height="221" viewBox="0 0 247 221" fill="none" xmlns="http://www.w3.org/2000/svg">
<mask id="mask0_1039_1635" style="mask-type:alpha" maskUnits="userSpaceOnUse" x="0" y="0" width="247" height="221">
<rect y="0.632324" width="247" height="220" rx="16" fill="#1758FE"/>
</mask>
<g mask="url(#mask0_1039_1635)">
<path opacity="0.32" fill-rule="evenodd" clip-rule="evenodd" d="M257.363 85.187H258.958V86.855C258.001 86.855 257.034 86.8927 256.081 86.9655L255.946 85.2071L256.222 85.187H256.858H257.27H257.363ZM252.138 85.7924C252.409 85.7422 252.68 85.697 252.954 85.6542L252.969 85.5538L253.24 87.2921C252.298 87.4403 251.349 87.6287 250.422 87.8498L250.012 86.1391C250.542 86.0135 251.078 85.8954 251.618 85.7924H251.65H251.675H251.706H251.733H251.751H251.781H251.811H251.841H251.869H251.944H251.977H252.002H252.032H252.06H252.092H252.138ZM247.096 87.0559H247.081H247.066H247.051H247.033H247.018H247.001H246.983H246.965H246.945H246.928H246.908H246.888H246.867H246.845H246.822H246.802L246.759 87.071H246.739L246.697 87.0861C245.92 87.3491 245.159 87.637 244.408 87.9502L245.081 89.5755C245.963 89.2087 246.87 88.8746 247.777 88.5707L247.234 86.9002L247.096 87.0559ZM241.519 89.3646H241.534L241.559 89.347L242.358 90.912C241.504 91.3466 240.66 91.8188 239.846 92.3212L238.927 90.814C239.71 90.3317 240.512 89.877 241.333 89.45L241.396 89.4173L241.434 89.3972L241.459 89.3846L241.497 89.3646H241.519ZM236.402 92.5197C236.151 92.703 235.9 92.8914 235.649 93.0824L235.593 93.1251L235.558 93.1527L235.543 93.1653L235.508 93.1929L235.49 93.208L235.475 93.2205H235.46L235.443 93.2331H235.428H235.412L235.397 93.2456H235.382H235.365H235.35L235.335 93.2582H235.317L235.302 93.2708H235.287H235.272L235.257 93.2833H235.242H235.227H235.211L235.196 93.2959H235.181L235.166 93.3084H235.154L235.139 93.321H235.124L235.111 93.3336H235.096V93.3461H235.081H235.066L235.051 93.3587H235.036L235.021 93.3712H235.006L234.99 93.3838H234.975L234.94 93.4114L234.925 93.4265L234.89 93.4567C234.689 93.6199 234.491 93.7882 234.295 93.9591L235.438 95.293C236.164 94.6725 236.925 94.0721 237.698 93.5094L236.661 92.0901L236.402 92.5197ZM231.815 96.4485L231.828 96.4359L232.114 96.2199L233.37 97.4608C232.697 98.1391 232.041 98.85 231.421 99.576L230.082 98.433C230.238 98.2521 230.396 98.0713 230.554 97.8929L230.602 97.8427L230.63 97.8125L230.645 97.7975L230.66 97.7824V97.7698V97.7573L230.672 97.7447V97.7322V97.7171L230.687 97.702L230.702 97.6869V97.6719L230.718 97.6568L230.733 97.6417L230.748 97.6266V97.6091L230.763 97.5915L230.795 97.5563L230.81 97.5387L230.843 97.5061C231.135 97.1895 231.433 96.8781 231.735 96.5691L231.752 96.554L231.785 96.5213L231.8 96.5063L231.815 96.4912V96.4761V96.4611V96.4485ZM227.919 101.018C227.889 101.058 227.859 101.098 227.831 101.141C227.831 101.154 227.817 101.169 227.804 101.183C227.799 101.187 227.795 101.192 227.791 101.196V101.211V101.224V101.241V101.257L227.778 101.274L227.738 101.329C227.467 101.713 227.203 102.103 226.944 102.5L226.919 102.538L226.882 102.598V102.618V102.636V102.653L226.859 102.691V102.709V102.726L226.846 102.744V102.759V102.774V102.791V102.806V102.822V102.839V102.857V102.872V102.887V102.902V102.917V102.932V102.945V102.96V102.975V102.987V103.002V103.015V103.03V103.043V103.058V103.073V103.085V103.1V103.113V103.131V103.143V103.158V103.176V103.188V103.203L228.354 104.123C228.856 103.309 229.391 102.505 229.951 101.731L228.529 100.699L227.919 101.018ZM224.759 106.177L224.774 106.147L225.073 105.891L226.638 106.69C226.206 107.542 225.801 108.418 225.437 109.3L223.812 108.629V108.612V108.592C223.819 108.579 223.824 108.565 223.829 108.551C224.108 107.883 224.405 107.225 224.719 106.577L224.739 106.537V106.519L224.759 106.479V106.459V106.441V106.424V106.406V106.389V106.371V106.353V106.336V106.318V106.303V106.286V106.268V106.253V106.24V106.225V106.213V106.195V106.177ZM222.473 111.714V111.757V111.78V111.8V111.82V111.84V111.857V111.877V111.893V111.91V111.928V111.943V111.96V111.975V111.996V112.016V112.033V112.051V112.176V112.189V112.209V112.222V112.242V112.254V112.269V112.297V112.315V112.332V112.347V112.365V112.385V112.397V112.415V112.438V112.458V112.478V112.503V112.521V112.546V112.563V112.578V112.679V112.694V112.727V112.742V112.777V112.802V112.827V112.93V112.963V112.995V113.008V113.041V113.056V113.083V113.101V113.128V113.146V113.161V113.189V113.206V113.234V113.252V113.277V113.294V113.314V113.329V113.35V113.367V113.387V113.405V113.425V113.445V113.465V113.485V113.505V113.528V113.551V113.593V113.636V113.656V113.699V113.744V113.767V113.812V113.854C222.465 113.877 222.46 113.899 222.455 113.922V113.968C222.455 113.99 222.455 114.013 222.438 114.035V114.078V114.123V114.146V114.191V114.234V114.254V114.297V114.319V114.339V114.359V114.379V114.4V114.45V114.467V114.482V114.5L224.148 114.907C224.369 113.98 224.628 113.048 224.922 112.144L223.249 111.604L222.473 111.714ZM220.986 118.228C221.016 118.009 221.046 117.791 221.081 117.575L221.124 117.557L222.86 117.826C222.714 118.768 222.604 119.73 222.531 120.685L220.772 120.552C220.775 120.512 220.779 120.473 220.783 120.434C220.79 120.365 220.797 120.296 220.797 120.228V120.215V120.102V120.069C220.848 119.503 220.91 118.941 220.986 118.384V118.351V118.271V118.243V118.228ZM222.382 123.576H222.355L222.355 123.531L222.382 123.576ZM222.355 123.576C222.356 124.521 222.396 125.472 222.47 126.407L220.712 126.545L220.689 126.244V126.224V126.131V126.118V126.088V126.073V126.028L220.679 125.863C220.651 125.449 220.624 125.033 220.624 124.616V124.571V124.556V124.526V124.513V124.485V124.244V124.232V124.219V124.192V124.176V124.164V124.136V123.948V123.93V123.872V123.84V123.82V123.787V123.754V123.719V123.674V123.641V123.609V123.576H222.355ZM222.811 129.313L222.837 129.309L222.805 129.271L222.811 129.313ZM222.811 129.313L221.101 129.585C221.134 129.786 221.167 129.982 221.202 130.183V130.195V130.261V130.283V130.316V130.328C221.332 131.059 221.486 131.785 221.659 132.501L223.367 132.089C223.147 131.176 222.961 130.241 222.811 129.313ZM224.186 134.893L223.837 135.007C223.754 134.77 223.672 134.532 223.593 134.295L224.186 134.893ZM223.837 135.007C224.073 135.675 224.327 136.339 224.598 136.988L222.975 137.666C222.857 137.385 222.744 137.101 222.634 136.817C222.631 136.811 222.628 136.805 222.625 136.799C222.617 136.783 222.609 136.767 222.609 136.752L222.594 136.712V136.689V136.669V136.649L222.578 136.609V136.589V136.569V136.548V136.528V136.511V136.491V136.473V136.455V136.438V136.423V136.405V136.388V136.37V136.352V136.34V136.322V136.305V136.29V136.272V136.257V136.239V136.222V136.209V136.197V136.182V136.164V136.149V136.131V136.116V136.104V136.091V136.074V136.061V136.049V136.028V136.013V135.996V135.981V135.961V135.946V135.93V135.91V135.898V135.885V135.868V135.853V135.832V135.82V135.8V135.777V135.755V135.732V135.694V135.669L222.563 135.629V135.586L222.513 135.438L223.837 135.007ZM226.371 140.206L226.397 140.193L226.356 140.178L226.371 140.206ZM226.371 140.206L224.832 140.997C225.264 141.836 225.726 142.66 226.216 143.461L226.251 143.522V143.542V143.562L226.263 143.579V143.597V143.615L227.771 142.69C227.274 141.888 226.804 141.053 226.371 140.206ZM229.411 145.084L227.992 146.122V146.137V146.152L228.004 146.167V146.184L228.02 146.202C228.59 146.974 229.185 147.723 229.808 148.448L231.212 147.345C230.589 146.622 229.989 145.863 229.426 145.084H229.411ZM231.916 150.701L233.157 149.445L232.365 148.626C233.041 149.299 233.755 149.955 234.481 150.573L233.343 151.912L233.147 151.744L233.114 151.713L233.096 151.698L233.064 151.671H233.046H233.031H233.016H233.001H232.988H232.973H232.958V151.658H232.943H232.928V151.646H232.913H232.9L232.885 151.633H232.87V151.62L232.855 151.605L232.84 151.59L232.825 151.575L232.81 151.56L232.777 151.53L232.76 151.515L232.727 151.485C232.453 151.229 232.182 150.967 231.916 150.701ZM237.535 153.168L236.505 154.592C237.317 155.18 238.156 155.737 239.017 156.263L239.934 154.756C239.12 154.253 238.314 153.723 237.54 153.163L237.535 153.168ZM241.645 157.73L242.441 156.16L242.313 155.969C243.167 156.413 244.044 156.805 244.926 157.167L244.257 158.792H244.242H244.227H244.212H244.195H244.18H244.164H244.149H244.134H244.114H244.094H244.077H244.056L244.016 158.775H243.996H243.976H243.953L243.888 158.75C243.172 158.443 242.469 158.116 241.775 157.767L241.735 157.747H241.715L241.678 157.73H241.66H241.645ZM247.754 158.345L247.216 160.018H247.232H247.249H247.274H247.292H247.307H247.327H247.347H247.365H247.385H247.402H247.422H247.443H247.465H247.485H247.528L247.571 160.033C248.123 160.201 248.681 160.359 249.246 160.508H249.291H249.314H249.337H249.359H249.379H249.399H249.42H249.435H249.465H249.48H249.535H249.55H249.568H249.588H249.608H249.633L250.032 160.606L250.437 158.893C249.507 158.674 248.575 158.416 247.674 158.124L247.754 158.345ZM253.077 161.402L253.346 159.664L253.356 159.549C254.298 159.694 255.258 159.802 256.212 159.873L256.081 161.631C255.73 161.606 255.378 161.576 255.029 161.541H254.984H254.969H254.923H254.908H254.878H254.589H254.562H254.23H254.185H254.17H254.14H254.082C253.738 161.498 253.406 161.453 253.077 161.402ZM261.955 159.971C261.003 160.046 260.036 160.089 259.078 160.091V161.85C259.84 161.85 260.593 161.825 261.339 161.777H261.5L262.088 161.732L261.947 159.973L261.955 159.971ZM264.808 159.624C265.75 159.473 266.7 159.282 267.627 159.056L267.614 159.107L268.029 160.815L267.612 160.915H267.569H267.539H267.446H267.426H267.401C266.64 161.086 265.868 161.237 265.087 161.362L264.808 159.624ZM273.083 157.263C272.204 157.632 271.297 157.968 270.39 158.267L270.94 159.938C271.191 159.858 271.423 159.777 271.664 159.687H271.686H271.711H271.732H271.757H271.772H271.789H271.804H271.822H271.84H271.855H271.87H271.887H271.902H271.92H271.94H271.96H271.98L272.023 159.672C272.397 159.533 272.777 159.39 273.141 159.242H273.161H273.181H273.201H273.221H273.241H273.259H273.276H273.291H273.309L273.6 159.121L272.92 157.501L273.083 157.263ZM278.186 154.631L278.187 154.63L278.177 154.617L278.186 154.631ZM278.186 154.631C277.375 155.133 276.534 155.61 275.675 156.047L276.482 157.609C277.376 157.15 278.24 156.652 279.104 156.125L278.186 154.631ZM282.82 151.229C282.096 151.852 281.34 152.455 280.559 153.02L281.599 154.437C281.915 154.217 282.226 153.972 282.534 153.73L282.667 153.625H282.684L282.702 153.61H282.719L282.737 153.595H282.752L282.767 153.583H282.78H282.795H282.807H282.825L282.845 153.565L282.878 153.54L282.898 153.522L282.93 153.497L282.953 153.48L282.986 153.452L283.488 153.027L283.521 153L283.541 152.982L283.573 152.955L283.591 152.939L283.621 152.914H283.636L282.486 151.583L282.82 151.229ZM284.925 149.267C285.598 148.588 286.251 147.875 286.869 147.147L286.864 147.174L288.206 148.312L288.191 148.33C287.545 149.082 286.874 149.807 286.181 150.505L284.925 149.267ZM290.245 142.492C290.125 142.687 290.004 142.881 289.881 143.075L289.703 142.967L290.245 142.492ZM289.881 143.075L291.21 143.881L290.939 144.321L290.916 144.358V144.376V144.393V144.409V144.426V144.441V144.456V144.469V144.481V144.499L290.903 144.519L290.883 144.554L290.868 144.574L290.846 144.609L290.806 144.667L290.783 144.702L290.768 144.725L290.745 144.76L290.708 144.818L290.685 144.853L290.67 144.873L290.647 144.908L290.632 144.928L290.61 144.961L290.594 144.981V144.999V145.016V145.031V145.044V145.059V145.072V145.087V145.104V145.119V145.137V145.155V145.17L290.582 145.187L290.557 145.225V145.245C290.401 145.471 290.243 145.695 290.082 145.918L288.655 144.888C289.082 144.299 289.489 143.692 289.881 143.075ZM292.763 137.532C292.786 137.476 292.81 137.419 292.833 137.362L292.697 137.505L292.763 137.532ZM292.763 137.532C292.421 138.359 292.051 139.176 291.64 139.98L293.21 140.771C293.544 140.101 293.865 139.415 294.174 138.714L294.189 138.676V138.656V138.638V138.626V138.611V138.593V138.573V138.555V138.535V138.518V138.498C294.189 138.483 294.199 138.467 294.208 138.452L294.208 138.452L294.213 138.442L294.217 138.435L294.325 138.171L292.763 137.532ZM294.591 131.891C294.577 131.951 294.563 132.011 294.549 132.071L294.37 132.029L294.591 131.891ZM294.549 132.071L296.081 132.431C296.048 132.585 296.012 132.731 295.976 132.878L295.976 132.878L295.963 132.933V132.959V132.976V132.996V133.011V133.031V133.046V133.079V133.097V133.109V133.127V133.142V133.162V133.182V133.202V133.222V133.245V133.265L295.95 133.31C295.847 133.707 295.737 134.099 295.621 134.488V134.531V134.551V134.571V134.594L295.609 134.634V134.654V134.672V134.689V134.702V134.732V134.75V134.765V134.782V134.8V134.825V134.848V134.888C295.599 134.917 295.59 134.947 295.58 134.976L295.561 135.039L295.535 135.122C295.528 135.144 295.521 135.167 295.513 135.189L293.838 134.654C294.099 133.811 294.34 132.941 294.549 132.071ZM295.454 126.233L295.455 126.211L295.39 126.229L295.454 126.233ZM295.454 126.233C295.383 127.178 295.276 128.133 295.134 129.067L296.872 129.334C296.872 129.291 296.872 129.253 296.892 129.213V129.186V129.11V129.09V129.07V129.007C296.938 128.696 296.98 128.382 297.015 128.065V128.035V128.002V127.982V127.889V127.874V127.862V127.819V127.806C297.068 127.324 297.113 126.842 297.149 126.354L295.454 126.233ZM297.179 120.313L295.42 120.459C295.501 121.408 295.541 122.375 295.546 123.332H297.304V122.564V122.518V122.418V122.375V122.36V122.348V122.333V122.305V122.275V122.26V122.232V122.22V122.189V122.174V122.144V122.132V122.101V121.973V121.958V121.928V121.916V121.873V121.86V121.845V121.803V121.722V121.581V121.546V121.511V121.466C297.284 121.089 297.259 120.712 297.229 120.343L297.179 120.313ZM294.503 114.789L296.212 114.369L296.287 114.39C296.296 114.428 296.305 114.467 296.315 114.506C296.324 114.545 296.333 114.584 296.342 114.623V114.651V114.663V114.688V114.804V114.827V114.872V114.917C296.523 115.711 296.681 116.512 296.812 117.324L295.076 117.605C294.923 116.663 294.73 115.713 294.503 114.789ZM294.302 108.659L292.682 109.34C293.051 110.222 293.393 111.126 293.687 112.033L295.358 111.48L295.245 111.146L295.232 111.104V111.084V111.063V111.046V111.026V111.008V110.991V110.976V110.955V110.94V110.923V110.905V110.88V110.862L295.219 110.825V110.802L295.204 110.762C294.971 110.101 294.717 109.453 294.451 108.81V108.785V108.757L294.302 108.659ZM290.032 104.238L291.539 103.311L292.484 103.814L292.587 103.98V104V104.02V104.037V104.052V104.067V104.083V104.098V104.115V104.13V104.145V104.163V104.178V104.196V104.213V104.231V104.248L292.609 104.286V104.304V104.321V104.339V104.359V104.379V104.399L292.632 104.439V104.459L292.654 104.5L292.679 104.537V104.555L292.702 104.593V104.613L292.725 104.653L292.76 104.713L292.782 104.753V104.773L292.805 104.814C292.809 104.82 292.814 104.826 292.819 104.832C292.829 104.846 292.84 104.86 292.84 104.874L292.863 104.914V104.934L292.885 104.974V104.994L292.908 105.032L292.931 105.072V105.092L292.953 105.13V105.15V105.17V105.19L292.976 105.228V105.248L292.996 105.286V105.303V105.324V105.341V105.359V105.376V105.394L293.016 105.432V105.449V105.467V105.484V105.502V105.519V105.537V105.552V105.567V105.585V105.6V105.617V105.635V105.65V105.668V105.683V105.698V105.715V105.73V105.748V105.763V105.778V105.793V105.808V105.821V105.836V105.851V105.864V105.881V105.896V105.909V105.926V105.941L291.454 106.75C291.017 105.891 290.534 105.05 290.032 104.238ZM287.967 98.4605L286.636 99.6111C287.261 100.335 287.866 101.091 288.432 101.859L289.848 100.817C289.718 100.638 289.585 100.463 289.452 100.289L289.437 100.272V100.254V100.239L289.424 100.224V100.209V100.194V100.179V100.166V100.151V100.136V100.124V100.108L289.399 100.078L289.386 100.061V100.043V100.026L289.371 100.008L289.346 99.9753L289.331 99.9552L289.306 99.9226L289.288 99.905L289.261 99.8723L289.218 99.8196L289.193 99.7869L289.178 99.7693L289.153 99.7392L289.138 99.7216L289.112 99.6914L289.097 99.6739L289.082 99.6588V99.6437L289.07 99.6286V99.6161V99.6035V99.591H289.057V99.5784V99.5633L289.045 99.5483V99.5332V99.5181L289.032 99.503L289.017 99.488V99.4704V99.4553L289.002 99.4377V99.4227V99.4076V99.3925L288.974 99.3573L288.959 99.3398L288.929 99.3071L288.914 99.2895L288.884 99.2543L288.869 99.2368L288.854 99.2192L288.839 99.2016L288.809 99.1664L288.793 99.1488L288.763 99.1162L288.748 99.0986L287.967 98.4605ZM282.548 95.5717L283.681 94.2278L283.696 94.2378L283.729 94.268L283.747 94.283L283.782 94.3132L283.837 94.3584L283.908 94.4192C284.146 94.623 284.387 94.829 284.616 95.0392L284.669 95.0844L284.721 95.1321L284.754 95.1648L284.804 95.2125L284.822 95.2276L284.857 95.2577L284.892 95.2879L284.91 95.3054L284.942 95.3356L284.957 95.3507L284.99 95.3808L285.043 95.4285C285.06 95.4431 285.078 95.4592 285.093 95.4763L285.126 95.5064L285.229 95.6019C285.457 95.8179 285.683 96.0339 285.907 96.255L284.671 97.511C283.993 96.8277 283.277 96.1872 282.548 95.5717ZM278.791 90.711L277.881 92.2182C278.698 92.7206 279.504 93.2456 280.28 93.8033L281.305 92.374H281.293H281.278H281.262L281.245 92.3614L281.225 92.3463H281.205L281.172 92.3212L281.149 92.3061L281.114 92.2835L281.056 92.2408C280.73 92.006 280.404 91.7931 280.073 91.5775L280.073 91.5775L280.004 91.5324L279.944 91.4922L279.908 91.4696L279.886 91.4545L279.851 91.4319L279.831 91.4194H279.813H279.795L279.78 91.4068H279.768H279.753H279.738H279.723H279.708H279.69H279.672H279.657H279.64L279.605 91.3842H279.587L279.549 91.3616H279.529L279.248 91.1883L278.791 90.711ZM272.752 89.6307L273.415 88.0029L273.417 88.0054C273.864 88.1863 274.309 88.3772 274.746 88.5756L274.879 88.6359L274.985 88.6836L275.05 88.7138L275.088 88.7314L275.153 88.7615C275.492 88.9198 275.826 89.0805 276.158 89.2488L275.369 90.8189C274.51 90.3843 273.636 89.9899 272.752 89.6307ZM267.675 86.1791L267.275 87.8924C268.207 88.1084 269.139 88.3646 270.039 88.646L270.571 86.9704C269.617 86.6657 268.647 86.3994 267.665 86.1716L267.675 86.1791ZM261.706 85.3303L261.708 85.2975L261.703 85.3301C261.704 85.3302 261.705 85.3303 261.706 85.3303ZM261.583 87.0559L261.706 85.3303C262.029 85.3529 262.35 85.378 262.671 85.4105H262.703H262.934C263.53 85.4708 264.115 85.5462 264.693 85.6316L264.442 87.3699C263.5 87.2293 262.537 87.1237 261.583 87.0559Z" fill="white"/>
<path opacity="0.32" fill-rule="evenodd" clip-rule="evenodd" d="M102.702 -50.2378H100.943V-48.4794V-47.5625H102.702V-50.2378ZM104.296 -50.2377H107.311V-48.4793H104.296V-50.2377ZM113.34 -50.2377H110.325V-48.4793H113.34V-50.2377ZM116.354 -50.2377H119.369V-48.4793H116.354V-50.2377ZM125.398 -50.2377H122.383V-48.4793H125.398V-50.2377ZM128.412 -50.2377H131.427V-48.4793H128.412V-50.2377ZM137.455 -50.2377H134.441V-48.4793H137.455V-50.2377ZM140.47 -50.2377H143.484V-48.4793H140.47V-50.2377ZM149.513 -50.2377H146.499V-48.4793H149.513V-50.2377ZM152.528 -50.2377H155.542V-48.4793H152.528V-50.2377ZM161.571 -50.2377H158.557V-48.4793H161.571V-50.2377ZM164.586 -50.2377H167.6V-48.4793H164.586V-50.2377ZM173.629 -50.2377H170.614V-48.4793H173.629V-50.2377ZM176.643 -50.2377H179.658V-48.4793H176.643V-50.2377ZM185.687 -50.2377H182.672V-48.4793H185.687V-50.2377ZM188.701 -50.2377H191.716V-48.4793H188.701V-50.2377ZM194.73 -50.2377H197.745V-48.4793H194.73V-50.2377ZM100.943 -44.5478H102.701V-41.5333H100.943V-44.5478ZM102.701 -38.519H100.943V-35.5045H102.701V-38.519ZM100.943 -32.49H102.701V-29.4755H100.943V-32.49ZM102.701 -26.4612H100.943V-23.4467H102.701V-26.4612ZM100.943 -20.4321H102.701V-17.4177H100.943V-20.4321ZM102.701 -14.4033H100.943V-11.3889H102.701V-14.4033ZM100.943 -8.3743H102.701V-5.35984H100.943V-8.3743ZM102.701 -2.34549H100.943V0.668968H102.701V-2.34549ZM100.943 3.68353H102.701V6.69799H100.943V3.68353ZM102.701 9.71234H100.943V12.7268H102.701V9.71234ZM102.92 12.0035H105.934V13.762H102.92V12.0035ZM111.963 12.0035H108.949V13.762H111.963V12.0035ZM114.978 12.0035H117.992V13.762H114.978V12.0035ZM124.021 12.0035H121.007V13.762H124.021V12.0035ZM127.036 12.0035H130.05V13.762H127.036V12.0035ZM136.079 12.0035H133.064V13.762H136.079V12.0035ZM139.093 12.0035H142.108V13.762H139.093V12.0035ZM148.137 12.0035H145.122V13.762H148.137V12.0035ZM151.151 12.0035H154.166V13.762H151.151V12.0035ZM160.194 12.0035H157.18V13.762H160.194V12.0035ZM163.209 12.0035H166.224V13.762H163.209V12.0035ZM172.252 12.0035H169.238V13.762H172.252V12.0035ZM175.267 12.0035H178.281V13.762H175.267V12.0035ZM184.31 12.0035H181.296V13.762H184.31V12.0035ZM187.325 12.0035H190.339V13.762H187.325V12.0035ZM196.368 12.0035H193.354V13.762H196.368V12.0035ZM202.015 9.1096H203.774V12.1241H202.397V13.7619H199.383V12.0035H202.015V9.1096ZM203.774 3.08059H202.015V6.09504H203.774V3.08059ZM202.015 -2.94823H203.774V0.0662308H202.015V-2.94823ZM203.774 -8.97725H202.015V-5.96279H203.774V-8.97725ZM202.015 -15.0061H203.774V-11.9916H202.015V-15.0061ZM203.774 -21.0351H202.015V-18.0206H203.774V-21.0351ZM202.015 -27.0639H203.774V-24.0494H202.015V-27.0639ZM203.774 -33.0929H202.015V-30.0784H203.774V-33.0929ZM202.015 -39.1217H203.774V-36.1073H202.015V-39.1217ZM203.774 -45.1507H202.015V-42.1363H203.774V-45.1507ZM200.759 -50.2377H203.774V-48.1653H202.015V-48.4793H200.759V-50.2377Z" fill="white"/>
<path opacity="0.32" fill-rule="evenodd" clip-rule="evenodd" d="M77.8093 -2.16943H74.7948V-0.411H77.8093V-2.16943ZM80.8236 -2.16943H83.8381V-0.411H80.8236V-2.16943ZM89.8671 -2.16943H86.8526V-0.411H89.8671V-2.16943ZM92.8814 -2.16943H95.8959V-0.411H92.8814V-2.16943ZM101.925 -2.16943H98.9105V-0.411H101.925V-2.16943ZM104.939 -2.16943H107.954V-0.411H104.939V-2.16943ZM113.983 -2.16943H110.968V-0.411H113.983V-2.16943ZM116.997 -2.16943H120.012V-0.411H116.997V-2.16943ZM126.041 -2.16943H123.026V-0.411H126.041V-2.16943ZM129.055 -2.16943H132.069V-0.411H129.055V-2.16943ZM135.084 -2.16943H138.096L137.046 -0.411H136.099L136.797 0.00600028L135.252 2.59341L133.745 1.69158L135.084 -0.551675V-2.16943ZM68.8086 -2.16933H71.7803V-0.410897H69.8586L68.8086 -2.16933ZM71.8858 -0.446167L71.8839 -0.445062L71.8832 -0.446167H71.8858ZM71.8839 -0.445062L73.4282 2.14124L71.9209 3.04307L70.3785 0.453146L71.8839 -0.445062ZM73.4683 5.63049L74.9756 4.73117L74.973 4.72615L76.5154 7.31356L75.0082 8.21538L74.139 6.75588L73.4683 5.63049ZM78.0628 9.90853L76.5556 10.8078L78.1005 13.3978L79.6077 12.4959L78.0628 9.90853ZM81.1522 15.0836L81.1526 15.0833L81.1476 15.0758L81.1522 15.0836ZM81.1522 15.0836L79.6454 15.9852L80.8135 17.9421L81.1853 18.5676L82.6925 17.6657L81.1522 15.0836ZM84.2424 20.2607L84.2406 20.2618L84.2399 20.2607H84.2424ZM84.2406 20.2618L85.7848 22.8506L84.2776 23.7525L82.7352 21.1625L84.2406 20.2618ZM87.3305 25.4392L87.3324 25.438L87.3149 25.4129L87.3305 25.4392ZM87.3305 25.4392L85.8252 26.3398L87.2043 28.6509L87.3525 28.9021L88.8598 28.0028L87.3305 25.4392ZM90.4222 30.6154L90.4063 30.6249L90.3871 30.5928L90.4222 30.6154ZM90.4063 30.6249L91.932 33.1827L90.4248 34.082L89.2692 32.1477L89.2541 32.1226V32.1075V32.0874L89.2366 32.0548L88.915 31.5172L90.4063 30.6249ZM93.5059 35.7961L93.5118 35.7925L93.4993 35.785L93.5059 35.7961ZM93.5059 35.7961L92.0046 36.6944L92.615 37.7168V37.7318L92.6351 37.767L93.537 39.2742L95.0442 38.3749L93.5059 35.7961ZM96.6018 40.9699L96.5866 40.979L96.5692 40.9498L96.6018 40.9699ZM96.5866 40.979L98.1141 43.5372L96.6069 44.439L96.5566 44.3561V44.341V44.3209L95.0946 41.8717L96.5866 40.979ZM99.6893 46.1487L99.6916 46.1473L99.6464 46.077L99.6893 46.1487ZM99.6893 46.1487L98.1844 47.0492L98.3879 47.3933L98.408 47.4285L99.6841 49.5662L101.191 48.6644L99.6893 46.1487ZM104.394 50.8825L104.353 50.9521L104.329 50.9378L104.394 50.8825ZM104.353 50.9521L105.836 51.8396L105.721 52.0355L105.698 52.0732L104.341 54.3341L103.947 54.0979L102.797 54.7837L101.968 53.3946L101.274 52.234L102.781 51.3322L103.455 52.4601L104.353 50.9521ZM107.469 45.7303L107.484 45.7052L107.469 45.7303L107.469 45.7303ZM107.469 45.7303L105.939 48.2926L107.446 49.1944L107.597 48.9432L108.976 46.6321L107.469 45.7303ZM110.574 40.5278L110.557 40.5555L110.549 40.5504L110.574 40.5278ZM110.557 40.5555L112.056 41.4522C112.056 41.4522 111.97 41.5929 111.842 41.8115V41.829L110.536 44.017L109.029 43.1177L110.557 40.5555ZM112.119 37.9404L113.664 35.3505L115.171 36.2523L113.626 38.8397L112.119 37.9404ZM116.754 30.1731L115.209 32.763L116.716 33.6623L117.655 32.0898L118.248 31.0975L116.741 30.1957L116.754 30.1731ZM118.298 27.5859L119.843 24.996L121.35 25.8978L119.805 28.4877L118.298 27.5859ZM122.943 19.8111L121.398 22.401L122.906 23.3028L123.541 22.2377L124.443 20.7305L122.936 19.8287L122.943 19.8111ZM126.027 14.6466L126.033 14.6362L126.018 14.6413L126.027 14.6466ZM126.027 14.6466L124.478 17.2211L125.985 18.123L126.488 17.2764L127.525 15.5406L126.027 14.6466ZM129.12 9.45889L127.578 12.0463L129.085 12.9481L130.63 10.3582L129.123 9.45889H129.12ZM130.665 6.86895L132.21 4.28154L133.717 5.18086L132.873 6.59765L132.172 7.77078L130.665 6.86895Z" fill="white"/>
<path opacity="0.32" fill-rule="evenodd" clip-rule="evenodd" d="M-55.8018 100.671H-54.0433V102.932H-55.8018V102.429V100.671ZM-49.0315 100.671H-52.0459V102.43H-49.0315V100.671ZM-46.0171 100.671H-43.0027V102.43H-46.0171V100.671ZM-36.9737 100.671H-39.9881V102.43H-36.9737V100.671ZM-33.9593 100.671H-30.9448V102.43H-33.9593V100.671ZM-24.9158 100.671H-27.9303V102.43H-24.9158V100.671ZM-21.9015 100.671H-18.887V102.43H-21.9015V100.671ZM-12.858 100.671H-15.8724V102.43H-12.858V100.671ZM-9.84364 100.671H-6.82918V102.43H-9.84364V100.671ZM-0.800159 100.671H-3.81462V102.43H-0.800159V100.671ZM2.21419 100.671H5.22865V102.43H2.21419V100.671ZM8.24321 100.671H11.2577V105.331H9.49924V102.43H8.24321V100.671ZM-54.0432 105.946H-55.8016V108.961H-54.0432V105.946ZM-55.8016 111.975H-54.0432V114.99H-55.8016V111.975ZM-54.0432 118.004H-55.8016V121.019H-54.0432V118.004ZM-55.8016 124.033H-54.0432V127.047H-55.8016V124.033ZM-54.0432 130.062H-55.8016V133.077H-54.0432V130.062ZM-55.8016 136.091H-54.0432V139.105H-55.8016V136.091ZM-54.0432 142.12H-55.8016V145.134H-54.0432V142.12ZM-55.8016 148.149H-54.0432V151.163H-55.8016V148.149ZM-54.0432 154.178H-55.8016V156.506H-54.0432V154.178ZM-52.1013 154.748H-49.0868V156.506H-52.1013V154.748ZM-43.058 154.748H-46.0725V156.506H-43.058V154.748ZM-40.0435 154.748H-37.029V156.506H-40.0435V154.748ZM-31.0002 154.748H-34.0147V156.506H-31.0002V154.748ZM-27.9856 154.748H-24.9712V156.506H-27.9856V154.748ZM-18.9424 154.748H-21.9568V156.506H-18.9424V154.748ZM-15.9278 154.748H-12.9134V156.506H-15.9278V154.748ZM-6.88454 154.748H-9.899V156.506H-6.88454V154.748ZM-3.86998 154.748H-0.855526V156.506H-3.86998V154.748ZM5.17328 154.748H2.15882V156.506H5.17328V154.748ZM8.18785 154.748H11.2023V156.506H8.18785V154.748ZM11.2577 150.535H9.49922V153.55H11.2577V150.535ZM9.49922 144.506H11.2577V147.521H9.49922V144.506ZM11.2577 138.477H9.49922V141.492H11.2577V138.477ZM9.49922 132.448H11.2577V135.463H9.49922V132.448ZM11.2577 126.419H9.49922V129.434H11.2577V126.419ZM9.49922 120.391H11.2577V123.405H9.49922V120.391ZM11.2577 114.362H9.49922V117.376H11.2577V114.362ZM9.49922 108.333H11.2577V111.347H9.49922V108.333Z" fill="white"/>
<path opacity="0.32" fill-rule="evenodd" clip-rule="evenodd" d="M-20.4546 -47.6655H-21.4744C-22.1427 -47.6479 -22.8083 -47.6103 -23.4665 -47.5525L-23.3183 -45.7941C-22.3738 -45.8744 -21.4091 -45.9146 -20.4546 -45.9146V-47.6655ZM-26.4558 -47.1632C-26.6869 -47.123 -26.9155 -47.0828 -27.1466 -47.0376H-27.1868H-27.2144H-27.4355H-27.4556H-27.5033H-27.546H-27.5711L-27.6389 -47.025H-27.6641L-27.7218 -47.0125C-28.2845 -46.8944 -28.8397 -46.7613 -29.3923 -46.6206L-28.9477 -44.9199C-28.0283 -45.1711 -27.0863 -45.3621 -26.1493 -45.5228L-26.4457 -47.2561L-26.4558 -47.1632ZM-32.6152 -45.5229L-32.2811 -45.6435L-32.05 -46.0228L-31.4622 -44.3648C-32.359 -44.0458 -33.2507 -43.6866 -34.1174 -43.2922L-34.8459 -44.8924C-34.3862 -45.1009 -33.9215 -45.3018 -33.4517 -45.4902L-33.409 -45.5078H-33.3964L-33.3588 -45.5229H-33.3437H-33.3286H-33.301H-33.2181H-33.1528H-33.1302H-33.09H-33.0648H-33.0247H-33.002H-32.987H-32.9644H-32.9242H-32.9116H-32.889H-32.7659H-32.7408H-32.6805H-32.6478H-32.6152ZM-37.7625 -43.149L-38.0916 -42.9631L-38.1318 -42.9405H-38.1444H-38.1619H-38.177C-38.8703 -42.5352 -39.5478 -42.1073 -40.2093 -41.6568L-39.2195 -40.2023C-38.4332 -40.7399 -37.6143 -41.2473 -36.7853 -41.7095L-37.647 -43.2419L-37.7625 -43.149ZM-42.759 -39.7451L-42.7414 -39.7601L-42.2063 -40.4535L-41.096 -39.0894C-41.8346 -38.489 -42.5555 -37.851 -43.2413 -37.1903L-44.4622 -38.4463H-44.4496H-44.437L-44.4245 -38.4589H-44.4094L-44.3943 -38.474L-44.3818 -38.4865H-44.3667L-44.3516 -38.5016L-44.334 -38.5167H-44.319L-44.3039 -38.5317L-44.2863 -38.5468L-44.2537 -38.577L-44.2361 -38.592L-44.2185 -38.6071L-44.1858 -38.6398L-44.1708 -38.6548L-44.1557 -38.6699L-44.1029 -38.7176L-44.0854 -38.7327L-44.0678 -38.7478L-44.0351 -38.7779L-44.0175 -38.793L-43.9999 -38.8081L-43.9497 -38.8558H-43.9346L-43.9196 -38.8709L-43.8869 -38.901L-43.8718 -38.9161L-43.8568 -38.9312L-43.8417 -38.9462L-43.8241 -38.9613L-43.809 -38.9764L-43.7965 -38.9889H-43.7814L-43.7688 -39.0015L-43.7538 -39.0166L-43.7387 -39.0291V-39.0417H-43.7261L-43.7111 -39.0543H-43.6985H-43.6859H-43.6709L-43.6558 -39.0668H-43.6407L-43.6257 -39.0819L-43.6081 -39.097L-43.5804 -39.1221L-43.5629 -39.1397L-43.5453 -39.1572C-43.3619 -39.318 -43.1785 -39.4738 -42.9926 -39.6295L-42.9424 -39.6722L-42.9248 -39.6873L-42.9072 -39.7024H-42.8921H-42.8796H-42.867H-42.8545H-42.8394H-42.8243H-42.8092L-42.7766 -39.73L-42.759 -39.7451ZM-47.0746 -35.5801L-47.0897 -35.565L-47.1023 -35.5499L-47.1224 -35.5323H-47.1349L-47.1475 -35.5173V-35.5047V-35.4921V-35.4796V-35.467L-47.16 -35.4519L-47.1751 -35.4369L-47.2178 -35.3866L-47.2329 -35.3665C-47.6114 -34.9194 -47.9806 -34.4622 -48.3407 -33.995L-48.3533 -33.9774V-33.9623V-33.9497V-33.9372V-33.9246V-33.9095L-48.3658 -33.8945L-48.3784 -33.8794L-48.3909 -33.8643L-48.6723 -33.4875L-47.253 -32.4475C-46.6903 -33.2137 -46.0874 -33.9548 -45.4619 -34.6807L-46.7857 -35.8388L-47.0746 -35.5801ZM-51.33 -29.5412C-51.1064 -29.9381 -50.8779 -30.3325 -50.6392 -30.7219L-50.5437 -30.8701L-49.0365 -29.9532C-49.5314 -29.1343 -49.9986 -28.2902 -50.4232 -27.4412L-51.9957 -28.2249C-51.8023 -28.6168 -51.5988 -29.0037 -51.3903 -29.3855L-51.3752 -29.4131V-29.4357V-29.4483L-51.3627 -29.4709L-51.33 -29.5287V-29.5412ZM-53.3295 -25.3334C-53.5053 -24.8863 -53.6737 -24.4366 -53.8319 -23.9795V-23.9518V-23.8815V-23.8689V-23.8564V-23.8438V-23.8287L-53.847 -23.791V-23.7785C-53.9851 -23.3766 -54.1133 -22.9696 -54.2364 -22.5601L-52.5533 -22.0577C-52.2795 -22.9671 -51.963 -23.8765 -51.6138 -24.7607L-53.2491 -25.4088L-53.3295 -25.3334ZM-55.0578 -19.5055V-19.5558L-54.9146 -19.8045L-53.1939 -19.4452C-53.3873 -18.5158 -53.5431 -17.5662 -53.6561 -16.6192L-55.402 -16.8302C-55.309 -17.5989 -55.196 -18.3374 -55.0578 -19.091V-19.1363V-19.1815V-19.2242V-19.2443V-19.2744V-19.3071V-19.3272V-19.3573V-19.385V-19.4226V-19.4553V-19.488V-19.5055ZM-55.7789 -13.5771V-13.4917V-13.4264V-13.4088V-13.3912C-55.7789 -13.2446 -55.7828 -13.0972 -55.7866 -12.9499C-55.7897 -12.8322 -55.7928 -12.7146 -55.7939 -12.5974V-12.5572V-12.5371V-12.4794V-12.4618V-12.4442V-12.4216V-12.3236V-12.3085V-12.1126V-12.0875V-12.0749V-12.0746C-55.7939 -11.7808 -55.7939 -11.487 -55.7764 -11.1932V-11.1656V-11.153V-11.1404V-11.1153V-11.0575C-55.7764 -10.9043 -55.7764 -10.7511 -55.7563 -10.5978L-53.9978 -10.6832C-54.0255 -11.2334 -54.038 -11.791 -54.038 -12.3437V-12.3438C-54.038 -12.7457 -54.038 -13.1501 -54.0179 -13.552L-55.7764 -13.6123L-55.7789 -13.5771ZM-53.8122 -7.79011L-53.744 -7.79925L-53.8269 -7.89722L-53.8122 -7.79011ZM-53.8122 -7.79011L-55.4873 -7.56563C-55.4396 -7.22148 -55.3894 -6.87733 -55.3341 -6.53569V-6.50303V-6.47289V-6.41762V-6.37743V-6.36487V-6.33723V-6.32467C-55.2814 -6.0209 -55.2236 -5.71962 -55.1659 -5.41835L-55.1658 -5.41782V-5.40527V-5.3927V-5.38015V-5.35251V-5.29976V-5.27966C-55.1256 -5.08372 -55.0854 -4.8903 -55.0402 -4.69687L-53.3245 -5.0787C-53.5227 -5.97061 -53.686 -6.88113 -53.8122 -7.79011ZM-52.5006 -2.21518L-52.5312 -2.20557L-52.5534 -2.27547L-52.5006 -2.21518ZM-52.5312 -2.20557C-52.2502 -1.32216 -51.9312 -0.441689 -51.5787 0.414932L-53.204 1.08565L-53.2367 1.0048C-53.2777 0.903469 -53.3175 0.805218 -53.3572 0.703819V0.661114V0.63348C-53.657 -0.128422 -53.9308 -0.902134 -54.1787 -1.68765L-52.5312 -2.20557ZM-50.3435 3.08587L-50.3227 3.0753L-50.4131 2.95221C-50.3901 2.99678 -50.3669 3.04134 -50.3435 3.08587ZM-50.3435 3.08587L-51.8953 3.87413C-51.8264 4.00616 -51.756 4.13741 -51.6858 4.26831C-51.6305 4.37152 -51.5752 4.47451 -51.521 4.5775L-51.4958 4.62523V4.63779V4.65287L-51.4632 4.71315C-51.1492 5.27585 -50.8226 5.83102 -50.4785 6.37362L-48.9913 5.43663C-49.4672 4.67522 -49.9251 3.88452 -50.3435 3.08587ZM-47.2731 7.91614L-47.4898 8.07971C-47.7382 7.77412 -47.9801 7.46457 -48.2126 7.15247L-47.2731 7.91614ZM-47.4898 8.07971C-47.1343 8.51695 -46.7654 8.94611 -46.3914 9.36308L-47.6976 10.5387L-47.8785 10.3377L-47.8936 10.3177L-47.9363 10.2674L-47.9513 10.2498L-47.9639 10.2322L-47.979 10.2172L-47.9915 10.2021H-48.0041V10.1895V10.177V10.1644V10.1519V10.1393V10.1267V10.1142V10.1016L-48.0167 10.0865L-48.0292 10.074V10.0614L-48.0418 10.0464L-48.0543 10.0338L-48.0669 10.0187L-48.0795 10.0062L-48.092 9.99109L-48.1046 9.97602L-48.1171 9.96346L-48.1297 9.94838L-48.1423 9.93331L-48.1548 9.91824L-48.1674 9.90317L-48.1799 9.8881L-48.1925 9.87302L-48.2051 9.85544L-48.2176 9.84037L-48.2302 9.82529L-48.2452 9.81022V9.79264V9.77757V9.76249V9.74491L-48.2578 9.72732L-48.2704 9.70974L-48.2829 9.69467L-48.2955 9.67708L-48.3231 9.64191L-48.3382 9.62684L-48.3508 9.60926L-48.3633 9.59418L-48.3784 9.57911L-48.3909 9.56404L-48.4035 9.54646L-48.4161 9.53138L-48.4286 9.5138L-48.4412 9.49873L-48.4537 9.48114V9.46607V9.44849L-48.4663 9.43341L-48.4789 9.41834L-48.4914 9.40327L-48.504 9.3882L-48.5165 9.37312V9.35805V9.34298V9.32791V9.31284L-48.5291 9.30027L-48.5417 9.28772L-48.5542 9.27264L-48.5668 9.25757V9.24501V9.22994V9.21738L-48.5793 9.2023V9.18974L-48.5919 9.17467L-48.6045 9.16211L-48.617 9.14955V9.13448V9.12192V9.10936V9.0968V9.08424L-48.6296 9.07168H-48.6422V9.05661V9.04153L-48.6547 9.02395L-48.6773 8.9938V8.97622L-47.4898 8.07971ZM-44.653 13.4575L-43.4472 12.1739L-43.819 11.7669C-43.1257 12.4201 -42.4047 13.0481 -41.6511 13.6384L-42.7413 15.0175C-42.8602 14.9299 -42.9636 14.844 -43.07 14.7556L-43.1357 14.701L-43.1533 14.6859L-43.201 14.6457L-43.2161 14.6332L-43.2312 14.6206H-43.2437H-43.2563V14.6081H-43.2689H-43.2814L-43.2965 14.5955L-43.3091 14.5829H-43.3216H-43.3367H-43.3493H-43.3618L-43.3769 14.5704V14.5578H-43.392L-43.407 14.5453H-43.4221H-43.4372L-43.4497 14.5327L-43.4648 14.5201L-43.4799 14.5076L-43.4975 14.495L-43.5125 14.4825L-43.5276 14.4699L-43.5427 14.4548L-43.5578 14.4423L-43.5728 14.4297V14.4171L-43.5879 14.4046L-43.6055 14.392L-43.6231 14.3795L-43.6381 14.3669L-43.6532 14.3518L-43.6683 14.3368L-43.6859 14.3217L-43.7009 14.3091L-43.716 14.2966L-43.7336 14.2815L-43.7512 14.2664L-43.7663 14.2514L-43.7813 14.2363L-43.7989 14.2237L-43.8165 14.2086L-43.8341 14.1936L-43.8517 14.1785L-43.8692 14.1634L-43.922 14.1157L-43.9396 14.1006L-43.9572 14.0856L-43.9923 14.0529L-44.0099 14.0378L-44.0275 14.0228L-44.0978 13.96L-44.653 13.4575ZM-38.9607 15.7134L-39.9303 17.1805C-39.6364 17.3739 -39.3425 17.5623 -39.0461 17.7457C-38.6937 17.9745 -38.3351 18.1762 -37.9741 18.3793L-37.8679 18.439H-37.8529L-37.8177 18.4591H-37.8051L-37.5112 18.6199L-36.6697 17.0775C-37.5037 16.6228 -38.3302 16.1254 -39.124 15.6004L-38.9607 15.7134ZM-33.937 18.4524L-33.9366 18.4515L-33.9793 18.4339L-33.937 18.4524ZM-33.937 18.4524L-34.6425 20.0617L-34.1702 20.2652C-33.4166 20.5817 -32.6521 20.8714 -31.8767 21.1344L-31.309 19.4714C-32.1962 19.1699 -33.0786 18.827 -33.937 18.4524ZM-28.5207 20.2928L-28.9402 21.9935C-28.2469 22.1643 -27.5435 22.315 -26.8351 22.4456H-26.7924H-26.7673H-26.6517L-25.986 22.5562L-25.7147 20.8178C-26.6542 20.6721 -27.5988 20.4812 -28.5207 20.2551V20.2928ZM-22.9917 22.938L-22.8686 21.1795V21.1494C-22.0698 21.2072 -21.2584 21.2348 -20.4545 21.2348H-20.0024L-19.9798 22.9932H-22.0271C-22.3486 22.9781 -22.6727 22.9606 -22.9917 22.938ZM-14.3048 20.7048C-15.2393 20.8781 -16.1939 21.0112 -17.1409 21.1042L-16.9701 22.8626H-16.8646H-16.8043C-16.219 22.8023 -15.6362 22.727 -15.061 22.639H-15.0358H-14.9906H-14.9529H-14.9228H-14.7168H-14.6917H-14.649H-14.5812C-14.3827 22.6064 -14.1843 22.5712 -13.9883 22.5335L-14.3073 20.8052L-14.3048 20.7048ZM-11.5167 20.0644C-10.5998 19.8106 -9.68288 19.5167 -8.79111 19.1851L-8.18068 20.8355C-9.11843 21.184 -10.0748 21.492 -11.0494 21.76L-11.5167 20.0644ZM-3.61613 16.7459C-4.44009 17.2257 -5.29167 17.6728 -6.15079 18.0773L-5.39717 19.6674C-5.16105 19.5569 -4.92743 19.4438 -4.69632 19.3283L-4.66868 19.3157H-4.63602H-4.61844L-4.59583 19.3032H-4.58327C-4.03741 19.0268 -3.50134 18.7362 -2.97556 18.4315H-2.96049L-2.93537 18.4189L-2.89518 18.3963L-3.77691 16.874L-3.61613 16.7459ZM-1.20456 15.2059C-0.435867 14.6583 0.340355 14.0729 1.07136 13.4625L0.172047 14.6231L1.29996 15.9721C1.0789 16.1562 0.857838 16.3371 0.636776 16.5147L0.61919 16.5297H0.599094L0.568951 16.5549L0.551365 16.5699L0.536293 16.5825L0.521221 16.595H0.508663H0.496101H0.48354H0.470982H0.45591H0.440838H0.428276L0.415714 16.6076H0.403156H0.388084H0.373013H0.357937H0.342865H0.330307H0.317745L0.302673 16.6202H0.290112H0.277554H0.264992H0.24992H0.234848H0.222286L0.209728 16.6327H0.197166H0.182095H0.169537H0.156975H0.141903H0.126831H0.114269H0.101711H0.0891495H0.0740776H0.0615158H0.0489578H0.036396H0.0238342H0.0112762H-0.00128555H-0.0138435H-0.0289154H-0.0439911H-0.0565491H-0.0691109H-0.0816689H-0.0942307H-0.106789H-0.121864H-0.136936L-0.154518 16.6453H-0.16959H-0.184666H-0.199738L-1.20456 15.2059ZM5.12836 9.43317C4.51291 10.1592 3.85726 10.865 3.18152 11.5358L4.41996 12.7918C5.13338 12.0834 5.81591 11.3466 6.46728 10.5812L5.12836 9.43317ZM8.29148 5.04804C8.34615 4.95751 8.40038 4.8668 8.45417 4.77593L8.18036 4.98192L8.29148 5.04804ZM8.29148 5.04804C7.85348 5.7734 7.38747 6.48708 6.89167 7.17494L8.32103 8.19734C8.53455 7.90092 8.74054 7.59948 8.94402 7.29552L8.9817 7.24276V7.22267L8.99426 7.20508V7.18499V7.16991V7.15735V7.14479V7.13223V7.11967V7.1046V7.08953V7.07446V7.05938V7.04431V7.02924L9.00682 7.01165L9.03194 6.97649V6.9589V6.94132L9.06962 6.88354C9.28063 6.54868 9.48662 6.21358 9.68758 5.87872L8.29148 5.04804ZM10.9412 -0.376251C10.6021 0.513012 10.2202 1.39725 9.80824 2.25386L11.3908 3.00748C11.7357 2.29406 12.0565 1.56807 12.353 0.829533L12.368 0.794365V0.771755L12.3881 0.719002L12.4246 0.626423L12.4251 0.625061C12.4679 0.516483 12.5104 0.408745 12.5514 0.299488L10.9487 -0.363689L10.9412 -0.376251ZM12.4712 -5.68709C12.4839 -5.75061 12.4963 -5.81412 12.5086 -5.87762L12.383 -5.70428L12.4712 -5.68709ZM12.4712 -5.68709C12.2972 -4.8159 12.0864 -3.94401 11.8429 -3.09175L13.5335 -2.60944C13.5335 -2.64104 13.5457 -2.67264 13.5575 -2.70351C13.5635 -2.71926 13.5695 -2.73484 13.5737 -2.75012L13.5913 -2.81292V-2.84055V-2.85311V-2.87572V-2.88828V-2.9963V-3.02895V-3.04905V-3.09427L13.6064 -3.14953C13.7973 -3.88129 13.9649 -4.62084 14.1088 -5.36767L12.4712 -5.68709ZM13.119 -11.5673C13.0964 -10.6127 13.0361 -9.65062 12.9331 -8.70861L14.6915 -8.5202C14.8003 -9.51322 14.8648 -10.518 14.8849 -11.5347L13.1265 -11.5723L13.119 -11.5673ZM12.7624 -17.2872L14.5032 -17.5384L14.6414 -17.5033V-17.4857V-17.4656V-17.4455V-17.335V-17.3048V-17.2671V-17.227V-17.1943V-17.0185V-16.9883V-16.9557V-16.9431V-16.9104V-16.8903V-16.8351V-16.7924V-16.7095C14.7084 -16.1752 14.7627 -15.6368 14.8046 -15.0942V-15.0239V-14.9661V-14.9335V-14.7903V-14.7651V-14.7526L14.8197 -14.5466L13.0613 -14.4386C13.0136 -15.3906 12.903 -16.3477 12.7624 -17.2872ZM13.1141 -23.3991L11.4436 -22.8489C11.7426 -21.9446 12.0038 -21.0202 12.2224 -20.0857L13.9356 -20.4926C13.7949 -21.0804 13.6409 -21.6665 13.4734 -22.2511V-22.2636L13.4558 -22.3164L13.4432 -22.3541V-22.3666V-22.3917V-22.4043V-22.4294V-22.442V-22.4822V-22.4947V-22.5073C13.4377 -22.5294 13.4309 -22.5512 13.4231 -22.5726V-22.5852C13.3553 -22.8012 13.2875 -23.0147 13.2171 -23.2282L13.1141 -23.3991ZM9.19524 -28.0966L10.7452 -28.9256L10.9009 -28.594C11.0768 -28.2591 11.2483 -27.9241 11.4159 -27.5892L11.4485 -27.5264C11.4503 -27.5232 11.4523 -27.52 11.4544 -27.5167L11.4603 -27.5075C11.4717 -27.4902 11.4837 -27.4719 11.4837 -27.4535L11.5139 -27.3907C11.5211 -27.3727 11.5297 -27.3551 11.539 -27.338L11.5641 -27.2877C11.5739 -27.2718 11.5824 -27.255 11.5892 -27.2375L11.6143 -27.1847L11.6445 -27.1219L11.6696 -27.0692L11.6872 -27.0265C11.695 -27.0049 11.704 -26.9839 11.7148 -26.9637C11.7195 -26.9524 11.7264 -26.9414 11.7331 -26.9306C11.7442 -26.9128 11.755 -26.8955 11.755 -26.8783C11.8555 -26.6539 11.9535 -26.4303 12.0489 -26.2076L10.4337 -25.5167C10.0594 -26.3884 9.64238 -27.2576 9.19524 -28.0966ZM7.4795 -33.9773L6.09033 -32.8997C6.67564 -32.146 7.23331 -31.3623 7.7508 -30.5634L9.22285 -31.513C8.67523 -32.3504 8.09319 -33.1693 7.47698 -33.9698L7.4795 -33.9773ZM2.20926 -37.1049L3.39495 -38.4037L4.04055 -37.6727L4.05562 -37.6601H4.06818H4.08074L4.0933 -37.6475H4.10586H4.11842V-37.635V-37.6224L4.13098 -37.6099H4.14354L4.1561 -37.5973H4.16866H4.18122H4.19378L4.20634 -37.5847L4.2189 -37.5722V-37.5596L4.23146 -37.5471H4.24402H4.25658H4.26914H4.28421L4.29929 -37.5345L4.31185 -37.5219L4.32692 -37.5069L4.33948 -37.4943L4.35204 -37.4817L4.3646 -37.4667H4.37716L4.39223 -37.4516H4.40731L4.42238 -37.4365L4.43745 -37.4215L4.45252 -37.4064L4.46759 -37.3913L4.48267 -37.3762L4.49774 -37.3612L4.51281 -37.3461L4.5304 -37.331L4.54547 -37.3159L4.56054 -37.2984L4.5932 -37.2657L4.61078 -37.2481L4.62585 -37.2331L4.75648 -37.0999C4.97754 -36.8763 5.19358 -36.6503 5.4071 -36.4191L5.42217 -36.4041L5.4699 -36.3538L5.48497 -36.3363L5.50005 -36.3187L5.51512 -36.3011L5.53019 -36.286L4.239 -35.0953C3.5934 -35.7836 2.91013 -36.4644 2.20926 -37.1049ZM-1.37785 -42.0763L-2.32991 -40.5967C-1.52857 -40.0817 -0.739784 -39.5265 0.0138321 -38.9463L1.08648 -40.3405C0.289402 -40.9534 -0.532036 -41.532 -1.37785 -42.0763ZM-7.3894 -43.2671L-6.70361 -44.8848C-5.77591 -44.493 -4.86805 -44.0626 -3.98055 -43.5936L-4.80199 -42.0387C-5.64352 -42.4833 -6.51269 -42.8953 -7.3894 -43.2671ZM-12.4309 -46.7461L-12.8278 -45.0329C-11.9034 -44.8168 -10.974 -44.5606 -10.0646 -44.2667L-9.51948 -45.9397C-10.3434 -46.206 -11.1807 -46.443 -12.0315 -46.6506H-12.0717H-12.0968H-12.1546L-12.4309 -46.716V-46.7461ZM-18.4926 -45.8419L-18.3921 -47.6003L-18.3821 -47.4747H-17.8621H-17.8143H-17.7892H-17.7314H-17.7164H-17.6711H-16.9678H-16.9251H-16.8547H-16.8397C-16.3548 -47.427 -15.8725 -47.3667 -15.3927 -47.2988L-15.6439 -45.558C-16.5834 -45.6911 -17.5405 -45.7891 -18.4926 -45.8419Z" fill="white"/>
<path opacity="0.32" fill-rule="evenodd" clip-rule="evenodd" d="M8.42628 -27.0615H7.33606C6.69122 -27.0414 6.05064 -27.0046 5.41434 -26.951L5.56255 -25.1926C6.50708 -25.2729 7.47171 -25.3131 8.42628 -25.3131V-27.0615ZM2.42491 -26.5589C1.99534 -26.4861 1.56578 -26.4057 1.14125 -26.3077H1.0885H1.06086H1.0056H0.993038H0.940285H0.912653L0.857388 -26.2374H0.829754L0.777002 -26.2248H0.764441H0.749369H0.696615H0.668983H0.61623H0.60367L0.535845 -26.2098H0.508213H0.45546H0.427828H0.375074H0.347441L0.294689 -26.1972L-0.496607 -26.0013L-0.0519753 -24.2981C0.867435 -24.5493 1.80945 -24.7427 2.74645 -24.901L2.45003 -26.6343L2.42491 -26.5589ZM-3.47344 -25.0267L-3.40059 -25.0518L-3.35789 -25.2051L-2.77007 -23.5496C-3.66687 -23.2306 -4.55865 -22.8689 -5.4253 -22.477L-6.1538 -24.0772L-5.70916 -24.2731L-5.67399 -24.2882H-5.58607H-5.53081H-5.50569H-5.45545L-5.39264 -24.3158C-4.79804 -24.5688 -4.19515 -24.8057 -3.58397 -25.0267H-3.54127H-3.52368H-3.51112H-3.486H-3.47344ZM-8.88177 -22.5598L-9.21336 -22.3714H-9.22593H-9.241H-9.25356H-9.26863C-9.98708 -21.9526 -10.6904 -21.509 -11.3787 -21.04L-10.389 -19.588C-9.60273 -20.1231 -8.7838 -20.6305 -7.95483 -21.0953L-8.81646 -22.6276L-8.88177 -22.5598ZM-14.3028 -18.7867L-13.8606 -19.1535L-13.8255 -19.1987L-12.7151 -17.8347C-13.4537 -17.2343 -14.1746 -16.5937 -14.8604 -15.933L-16.0813 -17.1891L-15.8301 -17.4403L-15.8125 -17.4553L-15.7623 -17.5031L-15.7447 -17.5181L-15.7271 -17.5332L-15.6919 -17.5634L-15.6769 -17.5784L-15.6618 -17.5935L-15.6115 -17.6387L-15.594 -17.6538L-15.5764 -17.6689L-15.5437 -17.699L-15.5286 -17.7141H-15.5136L-15.4809 -17.7442L-15.4633 -17.7593L-15.4457 -17.7744L-15.4282 -17.7894L-15.3955 -17.8196L-15.3804 -17.8347L-15.3654 -17.8497L-15.3151 -17.8949L-15.2975 -17.91L-15.28 -17.9251L-15.2448 -17.9577L-15.2272 -17.9728L-15.2096 -17.9879L-15.1569 -18.0331L-15.1393 -18.0482L-15.0865 -18.0934L-15.0714 -18.1085L-15.0539 -18.1235L-15.0036 -18.1688L-14.986 -18.1838L-14.9685 -18.1989L-14.9358 -18.3145L-14.9182 -18.3295H-14.9006L-14.8655 -18.3597L-14.8479 -18.3747L-14.8303 -18.3898H-14.8152L-14.7976 -18.4049H-14.7801H-14.765L-14.7499 -18.42L-14.7323 -18.435L-14.7173 -18.4501L-14.5012 -18.6184L-14.4861 -18.631L-14.4711 -18.6435L-14.4585 -18.6561L-14.4434 -18.6687L-14.4309 -18.6812L-14.4158 -18.6938L-14.4007 -18.7063L-14.3857 -18.7189L-14.3706 -18.7315L-14.358 -18.744H-14.3455L-14.3329 -18.7566L-14.3178 -18.7716L-14.3028 -18.7867ZM-18.194 -14.971L-18.4101 -14.7198L-18.4553 -14.667L-18.4704 -14.6494L-18.4854 -14.6344L-18.5156 -14.5992L-18.5306 -14.5816L-18.5432 -14.564L-18.5558 -14.5465L-18.5834 -14.5138L-18.596 -14.4987L-18.6085 -14.4811L-18.6361 -14.446L-18.6487 -14.4284V-14.4133L-18.6638 -14.3957L-18.6939 -14.3606L-18.709 -14.343L-18.7241 -14.3254L-18.7693 -14.2726C-19.2089 -13.7401 -19.6359 -13.195 -20.0429 -12.6373L-18.6261 -11.5973C-18.0634 -12.3635 -17.4605 -13.1045 -16.835 -13.8305L-18.1589 -14.9886L-18.194 -14.971ZM-22.0474 -9.61512C-21.9494 -9.79097 -21.8515 -9.95425 -21.751 -10.1175L-21.6379 -10.2959L-20.1307 -9.37899C-20.6256 -8.56006 -21.0928 -7.71853 -21.5174 -6.86694L-23.0899 -7.65321L-23.0321 -7.76877V-7.78384C-22.7206 -8.39678 -22.3941 -8.99716 -22.0474 -9.59V-9.60256V-9.61512ZM-24.4415 -4.73191L-24.5395 -4.48071V-4.46815L-24.5545 -4.43046V-4.40786V-4.3551V-4.32245L-24.5746 -4.26718C-24.8442 -3.55552 -25.0888 -2.83356 -25.3081 -2.1018L-25.3257 -2.04653L-23.6427 -1.54412C-23.3688 -2.45599 -23.0523 -3.36536 -22.7032 -4.2496L-24.3385 -4.89771L-24.4415 -4.73191ZM-26.2802 1.5986C-26.2451 1.41522 -26.2074 1.22933 -26.1697 1.04595V1.04344L-24.4489 1.40266C-24.6424 2.33212 -24.7981 3.28419 -24.9112 4.22872L-26.657 4.01771C-26.5633 3.23395 -26.4435 2.45773 -26.2978 1.68904C-26.2959 1.67773 -26.293 1.66643 -26.29 1.65513C-26.2851 1.63629 -26.2802 1.61744 -26.2802 1.5986ZM-26.8907 7.02454V7.11246V7.17275V7.19284V7.21043C-26.8907 7.3483 -26.8945 7.49374 -26.8983 7.64094L-26.8983 7.64095C-26.9015 7.76194 -26.9046 7.88411 -26.9058 8.00424V8.04443V8.06202V8.09969V8.11728V8.13486V8.17757V8.21525V8.27554V8.31824V8.49911V8.51167C-26.9058 8.81814 -26.9058 9.11959 -26.8882 9.42354V9.4361V9.45118V9.46374V9.4763V9.53407C-26.8882 9.63993 -26.8818 9.74579 -26.8754 9.85165L-26.8754 9.85167C-26.8728 9.89401 -26.8702 9.93636 -26.8681 9.97871L-25.1096 9.8933C-25.1373 9.34567 -25.1498 8.78548 -25.1498 8.23534C-25.1498 7.83342 -25.1498 7.42646 -25.1297 7.02705L-26.8882 6.96425L-26.8907 7.02454ZM-24.9219 12.8112L-24.856 12.8023L-24.9314 12.742L-24.9219 12.8112ZM-24.9219 12.8112L-26.5968 13.0359C-26.5541 13.3575 -26.5064 13.6765 -26.4562 13.9955V14.0181V14.0634V14.0885V14.1161V14.1664V14.1915V14.204C-26.3808 14.6444 -26.2972 15.0825 -26.205 15.5178V15.5304V15.5706V15.5831V15.6711L-26.1447 15.9424L-24.4289 15.5605C-24.6299 14.6563 -24.795 13.7305 -24.9219 12.8112ZM-23.6125 18.3865L-23.6425 18.3959L-23.6702 18.3086L-23.6125 18.3865ZM-23.6425 18.3959C-23.3629 19.2735 -23.0456 20.148 -22.693 20.999L-24.3209 21.6697C-24.619 20.9445 -24.8936 20.2077 -25.1448 19.4591V19.4466L-25.1599 19.3963V19.3838V19.3712V19.3159L-25.1749 19.2732C-25.1938 19.213 -25.2133 19.1533 -25.2327 19.0936C-25.2522 19.034 -25.2717 18.9743 -25.2905 18.914L-23.6425 18.3959ZM-21.5033 23.7106L-21.432 23.6744L-21.9344 22.9032C-21.7953 23.1733 -21.6513 23.4427 -21.5033 23.7106ZM-21.5033 23.7106L-23.0071 24.4757C-22.9023 24.6789 -22.7955 24.8812 -22.6892 25.0824C-22.6273 25.1995 -22.5657 25.3163 -22.5047 25.4328L-22.4695 25.4931L-22.4469 25.5333V25.5483L-22.4318 25.5735L-22.4167 25.5986V25.6137L-22.4017 25.6413L-22.3816 25.679V25.6915L-22.359 25.7292L-22.3364 25.7669L-22.3137 25.8071C-22.3012 25.8272 -22.2886 25.8473 -22.2786 25.8674L-22.2509 25.9151L-22.2258 25.9528L-22.1957 26.003L-22.1706 26.0407L-22.1555 26.0658L-22.1429 26.0884V26.101L-22.1178 26.1437C-22.1035 26.1665 -22.0889 26.1893 -22.0742 26.2123C-22.0501 26.25 -22.0257 26.288 -22.0023 26.3271L-20.5151 25.3901C-20.8567 24.8418 -21.189 24.2796 -21.5033 23.7106ZM-18.3924 28.5253L-18.3925 28.5253L-18.4 28.5152L-18.3924 28.5253ZM-18.3925 28.5253C-17.8293 29.2805 -17.2115 30.0206 -16.5787 30.7258L-17.885 31.899C-18.555 31.1554 -19.1913 30.3842 -19.7942 29.5854L-18.3925 28.5253ZM-15.7724 34.0517L-14.5666 32.7706L-14.7801 32.4917C-14.0868 33.1424 -13.3658 33.7729 -12.6122 34.3632L-13.7024 35.7423L-14.024 35.4911L-14.0416 35.4761L-14.0717 35.4534L-14.0868 35.4409H-14.0994H-14.1119H-14.1245L-14.1395 35.4283L-14.1546 35.4158L-14.1697 35.4032L-14.1873 35.3906L-14.2023 35.3756L-14.2199 35.3605L-14.2551 35.3304L-14.2752 35.3153C-14.6286 35.0239 -14.9728 34.7267 -15.3076 34.4235L-15.3227 34.4084L-15.3403 34.3934L-15.3579 34.3783L-15.373 34.3632H-15.388H-15.4031H-15.4182H-15.4307L-15.4483 34.3507L-15.4684 34.3331L-15.7724 34.0517ZM-10.0775 36.3126L-11.0497 37.7771L-10.9166 37.865H-10.904C-10.5247 38.1162 -10.1378 38.3524 -9.74846 38.586H-9.73339L-9.71078 38.6011H-9.69068H-9.67561C-9.32895 38.8045 -8.97977 39.0005 -8.62809 39.1939L-7.78655 37.649C-8.62055 37.1943 -9.4445 36.6994 -10.2383 36.1744L-10.0775 36.3126ZM-5.75931 40.6609L-5.05343 39.0506L-5.08608 39.0079C-4.2144 39.3898 -3.3176 39.7389 -2.41578 40.0429L-2.9835 41.7084C-3.73385 41.4522 -4.47314 41.1726 -5.20164 40.8694H-5.2142H-5.2368H-5.27449L-5.75931 40.6609ZM0.355137 40.8995L-0.0643749 42.6077C0.558613 42.7609 1.19165 42.8991 1.82468 43.0172H1.87995H1.92014H1.94526H2.08594H2.1186H2.15376C2.40497 43.0624 2.64361 43.1026 2.88979 43.1428L3.16361 41.4044C2.22159 41.2562 1.27706 41.0678 0.355137 40.8392V40.8995ZM5.8839 43.5472L6.00699 41.7888V41.7662C6.80582 41.8214 7.61722 41.8516 8.42107 41.8516H8.87324L8.89585 43.61H6.9892C6.61742 43.5949 6.25066 43.5749 5.8839 43.5472ZM14.5706 41.3115C13.6361 41.4848 12.6815 41.6205 11.7345 41.7134L11.9053 43.4719H12.0133H12.0711H12.0836C12.6689 43.4116 13.2492 43.3387 13.827 43.2483H13.8521H13.8948H13.9325H13.9626H14.0933H14.1184H14.2289H14.2967L14.8896 43.1453L14.5706 41.4145V41.3115ZM17.3591 40.6809C18.276 40.4297 19.1929 40.1333 20.0847 39.8042L20.0294 39.9273L20.6399 41.5752C20.3359 41.6883 20.0294 41.7963 19.723 41.9018H19.7104L19.6551 41.9194H19.6074H19.5547H19.5295H19.5019C19.1402 42.0375 18.7784 42.1505 18.4117 42.2585L18.3464 42.2786H18.3062L18.2685 42.2912H18.1328L17.8264 42.3766L17.3591 40.6809ZM25.2595 37.3652C24.4355 37.8425 23.5839 38.2896 22.7248 38.6966L23.4784 40.2867L23.903 40.0832H23.9281H23.9482H23.9833H24.006H24.0311H24.0462L24.0914 40.0606L24.1642 40.0255L24.8977 39.5783L25.0635 39.4904H25.0761C25.4328 39.2995 25.7862 39.1018 26.1362 38.8976L25.2544 37.3778L25.2595 37.3652ZM27.6736 35.8227C28.4397 35.2776 29.216 34.6923 29.947 34.0818L29.7586 34.2954L30.8865 35.6443C30.3037 36.1317 29.7041 36.6007 29.0878 37.0511L29.0678 37.0661L29.0125 37.1063L28.9949 37.1214L28.9748 37.134L28.9371 37.1616L28.9195 37.1742L28.902 37.1867L28.8844 37.1993H28.8668L28.8517 37.2118L28.8366 37.2244H28.8191L28.804 37.237L28.7889 37.2495H28.7738H28.7588H28.7437H28.7311H28.7186H28.706H28.6935L28.6784 37.2621L27.6736 35.8227ZM34.0165 30.0324C33.4011 30.7558 32.7454 31.4642 32.0697 32.1324L33.3082 33.3885C33.4413 33.2578 33.5744 33.1222 33.7051 32.989L33.7226 32.9715L33.7377 32.9539L33.7704 32.9212L33.7829 32.9061L33.798 32.8911L33.8131 32.876V32.8634L33.8256 32.8484V32.8333L33.8407 32.8182H33.8533L33.8658 32.8057V32.7931L33.8784 32.7805H33.8935L33.911 32.763L33.9261 32.7479V32.7328V32.7177L33.9537 32.6901L33.9713 32.6725L33.9864 32.6549L34.014 32.6248L34.0316 32.6072L34.0467 32.5896L34.0618 32.572L34.0869 32.5444L34.102 32.5268L34.117 32.5092L34.1422 32.4791L34.1572 32.464L34.1723 32.449L34.1874 32.4339L34.1999 32.4213V32.4062L34.2125 32.3937H34.225V32.3811V32.3686V32.356V32.3434L34.2376 32.3284V32.3158L34.2502 32.3007V32.2857L34.2627 32.2706L34.2929 32.2379L34.3079 32.2204C34.3362 32.1885 34.3651 32.1566 34.394 32.1245C34.4883 32.02 34.5833 31.9147 34.6621 31.8109L34.0165 30.0324ZM37.1499 25.6957C37.2146 25.589 37.2788 25.4821 37.3423 25.3751L36.953 25.5786L37.1499 25.6957ZM37.1499 25.6957C36.7206 26.403 36.2644 27.1018 35.7799 27.7741L37.2092 28.7965L37.4001 28.5277L37.4403 28.47V28.4499V28.4298L37.4654 28.3921V28.3745L37.478 28.3569V28.3393V28.3243V28.3067V28.2891V28.274V28.2589V28.2439V28.2288V28.2137V28.2012V28.1861V28.171V28.1585V28.1459V28.1308V28.1183V28.1057V28.0906V28.0731V28.0555L37.4906 28.0354V28.0178L37.5056 27.9977L37.5408 27.9424C37.8591 27.4619 38.1655 26.9728 38.4602 26.4754L37.1499 25.6957ZM39.8294 20.2229C39.4902 21.1097 39.1084 21.9939 38.6964 22.8505L40.279 23.6167L40.3196 23.5322C40.3612 23.4456 40.4025 23.3598 40.4423 23.2726V23.26V23.2173L40.4599 23.1796C40.6156 22.8405 40.7664 22.5014 40.9121 22.1572L40.9447 22.0819V22.0618V22.0467V21.9663V21.9537V21.9412C40.9447 21.927 40.9522 21.9129 40.9601 21.8979L40.965 21.8884C40.9667 21.8851 40.9683 21.8818 40.9698 21.8784C41.0854 21.597 41.1984 21.3132 41.3064 21.0293L39.8294 20.2355V20.2229ZM41.3853 14.7809L41.3968 14.7216L41.3516 14.7743L41.3853 14.7809ZM41.3853 14.7809C41.2065 15.6957 40.9868 16.6123 40.7311 17.5049L42.4217 17.9872L42.4393 17.9269V17.8893V17.8315V17.8139C42.6888 16.9279 42.9015 16.0271 43.0774 15.1109L41.3853 14.7809ZM42.0074 9.03165C41.9847 9.98372 41.9245 10.9458 41.824 11.8904L43.5824 12.0763C43.6879 11.0865 43.7525 10.0817 43.7758 9.0618L42.0174 9.02412L42.0074 9.03165ZM41.6505 3.30922L43.3914 3.05801L43.5471 3.13086C43.5999 3.48757 43.6476 3.84679 43.6878 4.20602V4.26128V4.27635V4.30399V4.31655V4.32911V4.35674V4.38186V4.39442V4.40949V4.50746V4.52253V4.5351V4.58785V5.04504V5.47963V5.54494V5.61277V5.66552V5.69315V5.70571V5.7459V5.75846V5.77354C43.6899 5.79881 43.6924 5.82427 43.6949 5.84982C43.7014 5.91572 43.7079 5.98219 43.7079 6.04735L41.9495 6.15788C41.9017 5.20581 41.7912 4.24872 41.6505 3.30922ZM42.0021 -2.80009L40.3341 -2.24995C40.6306 -1.34813 40.8918 -0.421179 41.1129 0.513302L42.8236 0.108862C42.7708 -0.112198 42.7156 -0.330746 42.6603 -0.546782V-0.559341V-0.571903V-0.632191V-0.672384V-0.684944C42.4794 -1.37576 42.2759 -2.06155 42.0524 -2.73478L42.0021 -2.80009ZM38.0834 -7.50016L39.6333 -8.32662L39.7062 -8.24372C39.8192 -8.03522 39.9273 -7.82672 40.0328 -7.61571V-7.58808C40.3166 -7.0304 40.5854 -6.46268 40.8366 -5.88742V-5.86984V-5.84472C40.8529 -5.80453 40.8699 -5.76559 40.8868 -5.72666C40.897 -5.70331 40.9072 -5.67997 40.9172 -5.65635C40.9239 -5.64057 40.9306 -5.62468 40.9371 -5.60858L39.3219 -4.91777C38.9476 -5.79196 38.5306 -6.66113 38.0834 -7.50016ZM36.3677 -13.3783L34.9785 -12.3007C35.5638 -11.5471 36.1215 -10.7633 36.639 -9.96699L38.1135 -10.9241C37.5659 -11.7613 36.9839 -12.5795 36.3677 -13.3783ZM31.0974 -16.5083L32.2856 -17.8045V-17.8171C33.0259 -17.1388 33.7376 -16.4304 34.4209 -15.6919L33.1272 -14.4986C32.4816 -15.1844 31.8008 -15.8652 31.0974 -16.5083ZM27.5129 -21.4771L27.5041 -21.4634L27.5028 -21.4645L27.5129 -21.4771ZM27.5041 -21.4634L26.5633 -19.9975C27.3621 -19.4951 28.1509 -18.9299 28.9045 -18.3496L29.9772 -19.7438L29.4522 -20.1407H29.4346L29.3969 -20.1683L29.3793 -20.1809L29.3617 -20.1934L29.3467 -20.206L29.3316 -20.2186H29.3165L29.3014 -20.2311H29.2864H29.2713H29.2587H29.2462H29.2336H29.2211H29.2085H29.1934H29.1784L29.1633 -20.2437L29.1331 -20.2663H29.1181H29.1005H29.0854L29.0703 -20.2788H29.0553L29.0377 -20.2914L29.005 -20.3115L28.9874 -20.3241H28.9724L28.9548 -20.3366H28.9397H28.9221H28.9045L28.887 -20.3492L28.8719 -20.3617H28.8543L28.8242 -20.3818L28.8091 -20.3944L28.794 -20.407L28.7739 -20.4195L28.7563 -20.4321L28.7413 -20.4446H28.7212L28.6885 -20.4672L28.6684 -20.4823L28.6458 -20.4974L28.5905 -20.5351L27.5041 -21.4634ZM21.5015 -22.6679L22.1873 -24.2882L22.3104 -24.1651C23.017 -23.8586 23.7121 -23.5378 24.3954 -23.203H24.408L24.4482 -23.1829H24.4733H24.4934H24.5285H24.5511L24.9104 -22.997L24.0889 -21.442C23.26 -21.8867 22.3782 -22.2986 21.5015 -22.6679ZM16.4598 -26.1469L16.0629 -24.4337C16.9873 -24.2202 17.9168 -23.9614 18.8261 -23.6675L19.3687 -25.3406C18.6528 -25.5717 17.9293 -25.7827 17.1958 -25.9686H17.1832H17.1682H17.1305H17.0702H17.0426H17.0049C16.9404 -25.9838 16.8762 -25.9993 16.8122 -26.0149C16.6965 -26.0429 16.5812 -26.0708 16.4648 -26.0967L16.4598 -26.1469ZM10.3881 -25.2326L10.4885 -26.991L10.5036 -26.8026C10.9942 -26.7725 11.4815 -26.734 11.9656 -26.6871H12.036H12.0912H12.1189H12.1616H12.571H12.5961H13.3648H13.395H13.4452H13.4879L13.2367 -24.9462C12.2972 -25.0819 11.3401 -25.1773 10.3881 -25.2326Z" fill="white"/>
<path opacity="0.32" fill-rule="evenodd" clip-rule="evenodd" d="M31.0677 74.7974H30.3844C29.6157 74.8124 28.8478 74.8526 28.0809 74.9179H28.0558L28.2065 76.6764C29.1535 76.596 30.1156 76.5558 31.0677 76.5558V74.7974ZM25.0665 75.2999C24.0793 75.4682 23.0945 75.6792 22.1224 75.9329L22.5645 77.6361C23.4839 77.3849 24.4259 77.1939 25.3654 77.0332L25.0665 75.2999ZM16.445 77.9348C17.3645 77.5178 18.2964 77.1418 19.241 76.8069L19.8263 78.4648C18.9295 78.7814 18.0377 79.1431 17.171 79.535L16.445 77.9348ZM13.7573 79.2965L13.4533 79.4698L13.4157 79.4924H13.4006H13.383L13.3604 79.505C12.6821 79.9019 12.0122 80.3206 11.3507 80.761L12.3405 82.2155C13.1268 81.6804 13.9432 81.173 14.7722 80.7082L13.9105 79.1759L13.7573 79.2965ZM8.11553 83.2422C8.33332 83.0544 8.54843 82.8689 8.78073 82.6878L9.36604 81.9417L10.4764 83.3032C9.74033 83.9036 9.01937 84.5442 8.33358 85.2048L7.11022 83.9488L7.36142 83.6976L7.37901 83.68L7.41166 83.6499L7.42673 83.6348L7.44181 83.6197L7.45688 83.6072H7.47195L7.48451 83.5946H7.49958V83.582H7.51215H7.5247H7.53726H7.54983H7.5649L7.57997 83.5695L7.59755 83.5544H7.61012L7.63021 83.5368L7.64528 83.5218L7.66036 83.5067L7.67543 83.4916L7.70306 83.464L7.71813 83.4514L7.7332 83.4389H7.74828H7.76084L7.77591 83.4263H7.78847H7.80103H7.81359V83.4137H7.82615H7.83871H7.85127L7.86383 83.4012H7.87639L7.88895 83.3886H7.90151H7.91658L7.93166 83.3761H7.94673H7.9618L7.99446 83.3484L8.00953 83.3333L8.0447 83.3032L8.06228 83.2881L8.11553 83.2422ZM4.44753 86.8703C3.77756 87.6307 3.1488 88.4134 2.56098 89.2191L3.97777 90.2616C4.53796 89.4954 5.14336 88.7543 5.76886 88.0283L4.44753 86.8703ZM-0.579154 94.3585C-0.133768 93.4625 0.352816 92.5833 0.880345 91.7209L0.872809 91.7134L2.38004 92.6302C1.88516 93.4492 1.41792 94.2907 0.9959 95.1423L-0.579154 94.3585ZM-1.80509 97.1268C-2.17687 98.0638 -2.50595 99.0159 -2.79233 99.9755L-1.10925 100.478C-0.83544 99.566 -0.518922 98.6542 -0.169747 97.7724L-1.80509 97.1243V97.1268ZM-3.55586 103.018L-3.53326 102.905L-3.49809 102.867L-1.77733 103.226C-1.97076 104.156 -2.12651 105.108 -2.24206 106.052L-3.98794 105.839C-3.96533 105.653 -3.94021 105.467 -3.91509 105.281V105.226V105.201V105.188V105.176C-3.81636 104.474 -3.69654 103.776 -3.55586 103.083V103.018ZM-4.25683 108.881C-4.25683 109.006 -4.26131 109.129 -4.26579 109.253C-4.26953 109.357 -4.27327 109.46 -4.27441 109.564V109.675C-4.27441 110.398 -4.27441 111.119 -4.23422 111.843L-2.47579 111.757C-2.52352 110.808 -2.52854 109.843 -2.49588 108.891L-4.25432 108.828L-4.25683 108.881ZM-2.2899 114.668L-2.21941 114.659L-2.2998 114.596L-2.2899 114.668ZM-2.2899 114.668L-3.96277 114.895C-3.93263 115.111 -3.89997 115.329 -3.86731 115.545V115.558V115.601V115.694V115.719V115.756V115.769V115.834C-3.79195 116.302 -3.7083 116.767 -3.61611 117.231V117.284V117.314V117.326C-3.59682 117.412 -3.57828 117.498 -3.55967 117.585C-3.54436 117.656 -3.52899 117.727 -3.51311 117.799L-1.79739 117.417C-1.99811 116.511 -2.16306 115.589 -2.2899 114.668ZM-0.975871 120.245L-0.979002 120.246L-0.980896 120.24L-0.975871 120.245ZM-0.979002 120.246C-0.693082 121.151 -0.367158 122.056 -0.00622082 122.933L-1.63403 123.601C-2.01586 122.667 -2.3575 121.722 -2.65894 120.768L-0.979002 120.246ZM-0.363143 126.342L1.19935 125.536C1.63394 126.38 2.11625 127.216 2.61866 128.02L1.13153 128.957C0.887104 128.568 0.649966 128.176 0.420616 127.779L0.398273 127.741C0.378238 127.707 0.358565 127.673 0.34023 127.638L0.300038 127.565L0.284966 127.543C0.0613933 127.146 -0.154643 126.744 -0.363143 126.342ZM4.24645 130.376L4.08056 130.502C3.7039 130.055 3.33908 129.599 2.99294 129.138L4.24645 130.376ZM4.08056 130.502C4.32168 130.788 4.56765 131.07 4.81669 131.346L3.50791 132.522L3.38231 132.381L3.33458 132.328L3.31951 132.311L3.30443 132.293L3.28936 132.276L3.27429 132.261L3.25922 132.245L3.24414 132.23L3.23158 132.215L3.21902 132.2L3.20646 132.185L3.19139 132.17H3.17883L3.16627 132.158H3.15371V132.142V132.127L3.14115 132.115V132.102L3.12859 132.09V132.075L3.11603 132.06H3.10347V132.047L3.09091 132.032L3.07835 132.017L3.06579 132.004H3.05323L3.04067 131.989V131.974L3.02811 131.957V131.944V131.931V131.919V131.904V131.891V131.879V131.866V131.854L3.01555 131.838L3.00299 131.823V131.808V131.793V131.778V131.763V131.748L2.99043 131.733V131.718V131.703V131.688V131.673L2.97787 131.658L2.96531 131.64L2.95275 131.622V131.607L2.92511 131.572L2.91255 131.557L2.89999 131.542L2.88492 131.524L2.87236 131.507L2.84473 131.472V131.454V131.437L4.08056 130.502ZM6.87177 135.928L8.07504 134.647L8.03233 134.592C8.72817 135.245 9.44661 135.875 10.2002 136.466L9.10749 137.842L8.81609 137.609L8.63522 137.463L8.60005 137.435H8.58247L8.5473 137.405L8.52972 137.39L8.49706 137.362L8.47948 137.347L8.44431 137.317L8.42672 137.302L8.39155 137.272L8.37397 137.257L8.35639 137.242L8.3388 137.227L8.32122 137.212L8.30614 137.197L8.29107 137.181L8.276 137.166L8.25842 137.151L8.24083 137.136L8.22325 137.121L8.20817 137.106L8.1931 137.091L8.17803 137.076H8.16045L8.12528 137.048L8.10769 137.033L8.07252 137.003L8.05745 136.988L8.0248 136.958L8.00721 136.943L7.97204 136.915L7.95446 136.903L7.91929 136.873L7.9017 136.857L7.86654 136.827L7.85146 136.815L7.8163 136.785L7.79871 136.77L7.76354 136.739L7.74596 136.724L7.71079 136.694L7.6932 136.679L7.64045 136.631C7.37418 136.403 7.12297 136.167 6.87177 135.928ZM12.5614 138.201L11.5917 139.666C11.7173 139.75 11.8429 139.834 11.9685 139.917C12.0941 140.001 12.2197 140.084 12.3453 140.168H12.3579H12.373C12.7078 140.374 13.0429 140.573 13.3778 140.766L13.418 140.791H13.4305H13.4531H13.4682L13.4908 140.804H13.5034L13.9078 141.027L14.7468 139.482C13.9128 139.028 13.0889 138.533 12.2951 138.008L12.5614 138.201ZM16.8796 142.547L17.5855 140.935L17.3117 140.59C18.1808 140.972 19.0801 141.321 19.9795 141.625L19.4168 143.291C18.9814 143.147 18.5501 142.991 18.123 142.824H18.1105L18.0552 142.804H18.0301L17.9899 142.786H17.9522L17.912 142.771H17.8869H17.8593H17.8317H17.5252H17.5126H17.4624L17.4272 142.756L17.3795 142.736H17.3644L17.3393 142.723H17.3142L17.2664 142.703L17.2162 142.68H17.2036L17.1559 142.66H17.1408L17.068 142.63L16.97 142.587L16.8796 142.547ZM23.0016 142.773L22.5821 144.482H22.6198C23.5844 144.718 24.5591 144.914 25.5362 145.067L25.8101 143.331C24.8705 143.183 23.926 142.992 23.0016 142.766V142.773ZM28.5306 145.424L28.6562 143.665V143.638C29.455 143.693 30.2664 143.723 31.0677 143.723H31.5199L31.5425 145.481H30.3719C30.0227 145.474 29.6735 145.464 29.3244 145.446H28.8948L28.5306 145.424ZM37.2147 143.185C36.2802 143.359 35.3256 143.494 34.3786 143.587L34.5519 145.346H34.6574H34.7253H34.7504C35.6831 145.249 36.6118 145.115 37.5362 144.944L37.2147 143.213V143.185ZM40.0156 142.555C40.9351 142.304 41.852 142.007 42.7412 141.678L42.7287 141.696L43.3391 143.346C42.5001 143.654 41.6535 143.931 40.7994 144.175H40.7567L40.4829 144.251L40.0156 142.555ZM47.9185 139.244C47.0945 139.721 46.243 140.168 45.3813 140.573L46.1349 142.163C47.0425 141.739 47.9328 141.273 48.8052 140.764L47.9235 139.244H47.9185ZM50.3326 137.674C51.0988 137.129 51.875 136.544 52.606 135.933L53.6108 137.365C52.9243 137.938 52.2234 138.48 51.5082 138.993L51.4856 139.008L51.4505 139.033L51.3374 139.113L50.3326 137.674ZM56.6731 131.901C56.5013 132.102 56.3264 132.303 56.1486 132.501L56.0928 132.454L56.6731 131.901ZM56.1486 132.501L57.4317 133.594C57.0549 134.033 56.6673 134.466 56.2686 134.893L56.2209 134.943L56.1933 134.971L56.1656 135.001L56.1505 135.016H56.1355H56.1229H56.1104V135.029V135.041V135.054V135.066H56.0978V135.079L56.0852 135.094V135.106H56.0727V135.119L56.0576 135.134L56.0425 135.149H56.03V135.162H56.0174V135.177V135.189V135.202L55.9621 135.257L54.7237 134.001L54.8317 133.896C55.2818 133.444 55.7231 132.977 56.1486 132.501ZM59.8474 127.482C59.894 127.404 59.9403 127.327 59.9863 127.249L59.8406 127.477L59.8474 127.482ZM59.8474 127.482C59.4025 128.22 58.9286 128.948 58.4238 129.648L59.8531 130.67C60.3438 129.984 60.8052 129.285 61.2373 128.575C61.2476 128.555 61.2594 128.536 61.2725 128.517V128.502L61.2875 128.48L61.3152 128.432L61.3478 128.374L59.8474 127.482ZM62.4683 122.097C62.4504 122.144 62.4324 122.191 62.4142 122.238L62.1869 122.152L62.4683 122.097ZM62.4142 122.238L63.8298 122.777L63.8235 122.795C63.8155 122.818 63.8071 122.841 63.7971 122.863V122.89V122.956V122.978V123.305V123.318L63.7821 123.353L63.762 123.4V123.426C63.6816 123.634 63.5962 123.843 63.5108 124.049L63.4907 124.099V124.111V124.136V124.169V124.192V124.237L63.4681 124.29C63.2947 124.689 63.1114 125.086 62.923 125.48L61.3378 124.727C61.7279 123.916 62.091 123.08 62.4142 122.238ZM63.9652 116.948C63.9894 116.83 64.0129 116.713 64.0357 116.595L63.8172 116.919L63.9652 116.948ZM63.9652 116.948C63.7973 117.763 63.5961 118.58 63.37 119.379L65.0606 119.861V119.823V119.811V119.798C65.1611 119.446 65.2541 119.095 65.342 118.741V118.715V118.665V118.65V118.612V118.587V118.55V118.537V118.434V118.361V118.324V118.304V118.271V118.251C65.3468 118.228 65.3525 118.205 65.3596 118.183C65.3596 118.153 65.3596 118.123 65.3797 118.093C65.4288 117.879 65.4743 117.653 65.5192 117.429L65.5429 117.311V117.253L63.9652 116.948ZM64.6488 110.903L64.6478 110.942L64.601 110.941L64.6488 110.903ZM64.6478 110.942L66.3595 110.981C66.3519 111.345 66.3394 111.709 66.3193 112.074V112.086V112.157V112.177V112.287V112.538V112.654V112.674V112.732V112.79V112.87C66.2916 113.232 66.259 113.591 66.2213 113.95L64.4629 113.762C64.562 112.83 64.6245 111.881 64.6478 110.942ZM64.2894 105.183L66.0303 104.932L66.0981 104.995V105.058V105.07V105.083V105.178V105.221V105.241V105.311C66.2086 106.178 66.2966 107.05 66.3493 107.921L64.5909 108.032C64.5406 107.082 64.4301 106.123 64.2894 105.183ZM64.6437 99.0739L62.9732 99.6165C63.2697 100.521 63.5309 101.448 63.7495 102.38L65.4602 101.975C65.4602 101.934 65.4471 101.892 65.434 101.851C65.4281 101.832 65.4222 101.813 65.4175 101.794L65.3949 101.704V101.671V101.604V101.576V101.506V101.43V101.392L65.3798 101.327C65.1921 100.607 64.9821 99.8928 64.7493 99.1844L64.6437 99.0739ZM60.7248 94.3612L62.2773 93.5348L62.3727 93.688C62.7965 94.4901 63.1874 95.3032 63.5459 96.1272L63.5635 96.1674L63.5785 96.2076V96.2528L61.9608 96.9436C61.589 96.0694 61.172 95.2003 60.7248 94.3612ZM59.0116 88.483L57.6224 89.5632C58.2078 90.3168 58.7654 91.0981 59.2829 91.8969L60.7575 90.9398L60.5917 90.6886L60.5716 90.661L60.5415 90.6158C60.0724 89.9074 59.57 89.214 59.0342 88.5358L59.0116 88.483ZM53.7288 85.3403L54.9145 84.0416L55.3365 84.446L55.4822 84.5817L55.5274 84.6219L55.5475 84.6395L55.5902 84.6771L55.6706 84.755L55.957 85.0313L55.9972 85.0715L56.0474 85.1218L56.0776 85.1519L56.0977 85.172L56.1152 85.1921V85.2072H56.1303L56.1429 85.2197V85.2348L56.1554 85.2474H56.1705L56.1981 85.275L56.2107 85.2901L56.2258 85.3052L56.2408 85.3177L56.2559 85.3328L56.271 85.3479L56.2986 85.378L56.3137 85.3931L56.3288 85.4107L56.3438 85.4257L56.3765 85.4584L56.4066 85.491C56.6252 85.7146 56.8412 85.9407 57.0522 86.1693L55.761 87.3625C55.4546 87.0309 55.1757 86.737 54.819 86.3828C54.4623 86.0286 54.0981 85.6769 53.7288 85.3403ZM50.1417 80.3692L49.1921 81.8488C49.991 82.3512 50.7798 82.9164 51.5334 83.4967L52.606 82.105C52.3302 81.8808 52.0544 81.6825 51.775 81.4817L51.674 81.4092L51.6514 81.3916C51.2211 81.0869 50.7873 80.793 50.3502 80.5099L50.3025 80.4772L50.1417 80.3692ZM44.1354 79.191L44.8187 77.5707L44.8136 77.5958L44.9342 77.6461H44.9895L45.0297 77.6636C45.8813 78.0279 46.7203 78.4273 47.5417 78.8594L46.7228 80.4143C45.8938 79.9722 45.0121 79.5602 44.1354 79.191ZM39.0911 75.7143L38.6917 77.4275C39.6186 77.641 40.5481 77.8997 41.4549 78.1936L41.995 76.5206C41.0379 76.2091 40.0683 75.9403 39.0936 75.7143H39.0911ZM33.0272 76.6135L33.1301 74.855L33.1327 74.8575C34.1357 74.9178 35.1348 75.0191 36.1295 75.1615L35.8783 76.9024C34.9363 76.7667 33.9767 76.6687 33.0272 76.6135Z" fill="white"/>
<path d="M21.9012 84.2373V140.248L19.3892 200.955" stroke="#081638"/>
<path d="M40.8745 140.249L43.3866 200.952" stroke="#081638"/>
<path d="M73.7827 140.249L76.2948 200.952" stroke="#081638"/>
<path d="M21.9009 107.755H31.2557" stroke="#081638" stroke-linecap="square"/>
<path d="M40.4775 76.3445L40.3343 76.3118C39.4837 76.1101 38.6814 75.7429 37.9727 75.2309C37.2641 74.7189 36.6635 74.0726 36.2048 73.3283C35.7461 72.5842 35.4386 71.757 35.2999 70.8939C35.161 70.0307 35.1934 69.149 35.3956 68.2984L41.0327 44.547C41.4522 42.8423 42.5281 41.372 44.0263 40.4569C45.5245 39.5415 47.3233 39.2551 49.0318 39.6598C50.74 40.0647 52.2193 41.1278 53.1475 42.6182C54.0755 44.1084 54.3774 45.905 53.9873 47.6167L48.3503 71.3681C47.9493 73.0623 46.9008 74.5321 45.429 75.4623C43.9574 76.3925 42.1799 76.7092 40.4775 76.3445Z" fill="#DADDF1"/>
<path d="M45.0897 64.5454L46.3005 65.0127C47.7097 65.5555 49.2215 65.7811 50.7279 65.6734C52.2344 65.5656 53.6987 65.1272 55.0163 64.3892C56.3341 63.6512 57.4728 62.6318 58.3518 61.4036C59.2307 60.1752 59.8283 58.7685 60.1017 57.2831L61.4556 49.9278C61.8937 47.5519 61.4805 45.0974 60.2891 42.9956C59.0973 40.894 57.2033 39.2793 54.9394 38.4352C52.3854 37.4842 49.5581 37.5864 47.0794 38.7193C44.6006 39.8523 42.6733 41.9232 41.721 44.4767L39.1537 51.3672C38.2089 53.9029 38.3021 56.7089 39.4134 59.1762C40.525 61.6435 42.5645 63.5728 45.0897 64.5454Z" fill="#DADDF1"/>
<path d="M41.3131 55.3553L41.3156 55.3545C43.3114 54.7458 44.4358 52.6345 43.8271 50.6386L43.2014 48.5865C42.5927 46.5907 40.4813 45.4663 38.4855 46.075L38.4833 46.0758C36.4874 46.6844 35.3628 48.7958 35.9715 50.7916L36.5972 52.8435C37.2059 54.8393 39.3173 55.9639 41.3131 55.3553Z" fill="#DADDF1"/>
<path d="M38.1465 49.0459L40.2692 52.9094" stroke="#081638"/>
<path d="M58.5066 49.9707L57.1953 55.8238L55.1128 55.3691" stroke="#081638"/>
<path d="M42.7207 53.103L48.2472 43.3588L49.5585 41.0477C50.0054 41.8765 50.5869 42.625 51.2792 43.2634C53.7913 45.5945 62.7493 47.2676 65.5803 41.417C67.8864 36.6441 61.7897 38.1513 59.1369 37.1113C54.9669 35.4936 52.6408 32.1852 45.9286 33.8281C37.89 35.8101 38.7893 46.0065 38.7893 46.0065C38.7893 46.0065 42.1982 45.6071 42.7207 53.103Z" fill="#081638"/>
<path d="M49.9029 65.6203L46.1147 64.8315L49.2171 68.6448L49.9029 65.6203Z" fill="#081638"/>
<path d="M54.0302 53.0024C54.6143 53.0024 55.0878 52.5288 55.0878 51.9448C55.0878 51.3607 54.6143 50.8872 54.0302 50.8872C53.4462 50.8872 52.9727 51.3607 52.9727 51.9448C52.9727 52.5288 53.4462 53.0024 54.0302 53.0024Z" fill="#081638"/>
<path d="M60.2876 54.0297C60.8716 54.0297 61.3451 53.5562 61.3451 52.9721C61.3451 52.3881 60.8716 51.9146 60.2876 51.9146C59.7035 51.9146 59.23 52.3881 59.23 52.9721C59.23 53.5562 59.7035 54.0297 60.2876 54.0297Z" fill="#081638"/>
<path d="M51.2871 56.2583C51.2871 56.2583 52.714 56.6828 53.0129 58.082" stroke="#081638"/>
<path d="M64.249 79.3916C64.249 79.3916 73.202 72.1066 80.7029 81.2781C88.2039 90.4496 75.0835 88.852 75.0835 88.852L68.4768 87.1513L64.249 79.3916Z" fill="#DADDF1"/>
<path d="M137.707 200.955H105.058L100.943 200.902L104.093 186.249L118.861 187.57L137.707 200.955Z" fill="#DADDF1"/>
<path d="M167.032 119.72L147.305 139.447L144.78 141.896L135.903 129.213L145.798 121.26L167.032 119.72Z" fill="#DADDF1"/>
<path d="M88.5684 110.28L49.707 139.904H99.5134V190.05H128.083V126.093C128.083 117.359 120.547 110.28 111.27 110.28H88.5684Z" fill="#081638"/>
<path d="M89.4852 117.74L64.2065 136.443C55.0023 143.25 40.4425 139.959 34.9461 129.64L31.2534 118.268L75.6589 88.7363C83.504 84.5437 92.6001 85.4053 101.239 91.3488L150.362 114.437L138.036 139.055L89.4852 117.74Z" fill="#081638"/>
<path d="M97.8401 111.536L64.2063 137.196C64.2063 137.196 60.1543 140.615 52.1484 140.615" stroke="white"/>
<path d="M128.572 126.924C128.572 126.924 127.804 110.847 111.649 111.536C108.491 111.671 97.8325 111.536 97.8325 111.536" stroke="white"/>
<path d="M128.573 126.924V157.368" stroke="white"/>
<path d="M73.7824 140.248H22.519" stroke="#081638" stroke-linecap="square"/>
<path d="M54.6582 140.249L52.2969 200.952" stroke="#081638"/>
<path d="M31.2534 118.268C31.2534 118.268 20.9891 97.8928 21.057 84.1344C21.0821 79.4092 21.8106 68.9993 41.4548 68.1728C61.099 67.3463 75.5006 89.6508 75.5006 89.6508L31.2534 118.268Z" fill="#1758FE"/>
<mask id="mask1_1039_1635" style="mask-type:luminance" maskUnits="userSpaceOnUse" x="21" y="68" width="55" height="51">
<path fill-rule="evenodd" clip-rule="evenodd" d="M31.2534 118.268C31.2534 118.268 20.9891 97.8928 21.057 84.1344C21.0821 79.4092 21.8106 68.9993 41.4548 68.1728C61.099 67.3463 75.5006 89.6508 75.5006 89.6508L31.2534 118.268Z" fill="white"/>
</mask>
<g mask="url(#mask1_1039_1635)">
<path d="M50.9628 100.182C54.3564 100.182 57.1073 97.4306 57.1073 94.037C57.1073 90.6435 54.3564 87.8926 50.9628 87.8926C47.5693 87.8926 44.8184 90.6435 44.8184 94.037C44.8184 97.4306 47.5693 100.182 50.9628 100.182Z" fill="#19F0FE"/>
<path d="M17.706 84.4686C21.0995 84.4686 23.8505 81.7177 23.8505 78.3242C23.8505 74.9306 21.0995 72.1797 17.706 72.1797C14.3125 72.1797 11.5615 74.9306 11.5615 78.3242C11.5615 81.7177 14.3125 84.4686 17.706 84.4686Z" fill="#19F0FE"/>
<path d="M39.1586 83.2928C42.5522 83.2928 45.3031 80.5419 45.3031 77.1484C45.3031 73.7549 42.5522 71.0039 39.1586 71.0039C35.7651 71.0039 33.0142 73.7549 33.0142 77.1484C33.0142 80.5419 35.7651 83.2928 39.1586 83.2928Z" fill="#19F0FE"/>
<path d="M60.6118 82.1195C64.0053 82.1195 66.7562 79.3686 66.7562 75.975C66.7562 72.5815 64.0053 69.8306 60.6118 69.8306C57.2182 69.8306 54.4673 72.5815 54.4673 75.975C54.4673 79.3686 57.2182 82.1195 60.6118 82.1195Z" fill="#19F0FE"/>
<path d="M29.5102 101.357C32.9037 101.357 35.6547 98.6064 35.6547 95.2128C35.6547 91.8193 32.9037 89.0684 29.5102 89.0684C26.1167 89.0684 23.3657 91.8193 23.3657 95.2128C23.3657 98.6064 26.1167 101.357 29.5102 101.357Z" fill="#19F0FE"/>
<path d="M41.9575 118.401C45.351 118.401 48.1019 115.65 48.1019 112.257C48.1019 108.863 45.351 106.112 41.9575 106.112C38.5639 106.112 35.813 108.863 35.813 112.257C35.813 115.65 38.5639 118.401 41.9575 118.401Z" fill="#19F0FE"/>
<path d="M45.273 82.1348L33.7904 96.0415L25.2168 88.6987" stroke="white"/>
</g>
<path d="M38.2295 89.2338L42.5778 91.575L67.9169 82.9009" stroke="#DADDF1" stroke-linejoin="round"/>
<path d="M69.4365 87.4351C69.216 87.5373 68.9874 87.6212 68.7532 87.6863C68.6528 87.7164 68.5498 87.739 68.4468 87.7591L68.7482 87.6611L69.4365 87.4351Z" fill="#DADDF1"/>
<path d="M45.2735 82.1348L33.7909 96.0415L25.2173 88.6987" fill="#1758FE"/>
<path d="M71.6573 83.4784C71.6573 85.8523 70.4163 87.8846 68.6579 88.7311L67.9696 88.9648L67.6681 89.0652L63.5434 90.4644C64.2249 90.0603 64.8024 89.5021 65.2289 88.8341C65.8929 87.8042 66.242 86.6029 66.2338 85.3775C66.2338 82.9057 64.8848 80.7981 63.0008 80.0219C62.4943 79.8116 61.9515 79.7033 61.4031 79.7028C61.0903 79.7036 60.7786 79.739 60.4736 79.8083L64.8195 78.3212L65.2742 78.1655L66.171 77.859C66.3893 77.8216 66.6103 77.8032 66.8316 77.8037C69.4944 77.8037 71.6573 80.3434 71.6573 83.4784Z" fill="#081638"/>
<path d="M99.1041 89.6984C98.4736 90.8238 99.5688 93.9237 103.485 95.9333C107.401 97.943 111.046 97.0085 111.574 95.9333C111.941 95.1797 108.884 92.4994 106.062 91.1403C103.098 89.721 99.6492 88.7263 99.1041 89.6984Z" fill="#DADDF1"/>
<path d="M65.7049 75.4577L59.4507 77.8384C58.6599 78.1396 58.2625 79.0243 58.5634 79.8144C58.8641 80.6047 59.7494 81.0013 60.5402 80.7004L66.7944 78.3195C67.5855 78.0185 67.9826 77.1338 67.6819 76.3435C67.381 75.5532 66.496 75.1565 65.7049 75.4577Z" fill="#081638"/>
<path opacity="0.32" fill-rule="evenodd" clip-rule="evenodd" d="M145.399 56.1577H148.413V56.9113H145.399V56.1577ZM154.442 56.1577H151.428V56.9113H154.442V56.1577ZM157.456 56.1577H160.471V56.9113H157.456V56.1577ZM166.5 56.1577H163.485V56.9113H166.5V56.1577ZM169.514 56.1577H172.529V56.9113H169.514V56.1577ZM178.558 56.1577H175.543V56.9113H178.558V56.1577ZM181.572 56.1577H184.587V56.9113H181.572V56.1577ZM190.615 56.1577H187.601V56.9113H190.615V56.1577ZM193.63 56.1577H196.644V56.9113H193.63V56.1577ZM202.673 56.1577H199.659V56.9113H202.673V56.1577ZM205.688 56.1577H208.702V56.9113H205.688V56.1577ZM214.731 56.1577H211.717V56.9113H214.731V56.1577ZM217.745 56.1577H220.76V56.9113H217.745V56.1577ZM226.789 56.1577H223.775V56.9113H226.789V56.1577ZM229.804 56.1577H232.818V56.9113H229.804V56.1577ZM238.847 56.1577H235.832V56.9113H238.847V56.1577ZM244.876 56.1577H241.861V56.9113H244.876V56.1577ZM145.61 58.6295H144.856V61.6439H145.61V58.6295ZM144.856 64.6585H145.61V67.6729H144.856V64.6585ZM145.61 70.6873H144.856V73.7018H145.61V70.6873ZM144.856 76.7163H145.61V79.7308H144.856V76.7163ZM145.61 82.7451H144.856V85.7596H145.61V82.7451ZM144.856 88.7742H145.61V91.7886H144.856V88.7742ZM145.61 94.803H144.856V97.8174H145.61V94.803ZM144.856 100.832H145.61V103.846H144.856V100.832ZM145.61 106.861H144.856V109.875H145.61V106.861ZM144.856 112.89H145.61V115.904H144.856V112.89ZM145.61 118.919H144.856V121.933H145.61V118.919ZM144.856 124.948H145.61V127.962H144.856V124.948ZM145.61 130.976H144.856V133.991H145.61V130.976ZM144.856 137.005H145.61V140.02H144.856V137.005ZM145.61 143.034H144.856V146.049H145.61V143.034ZM144.856 149.063H145.61V152.078H144.856V149.063ZM145.61 155.092H144.856V158.107H145.61V155.092ZM144.856 161.121H145.61V164.136H144.856V161.121ZM145.61 167.15H144.856V170.164H145.61V167.15ZM144.856 173.179H145.61V176.193H144.856V173.179ZM145.61 179.208H144.856V182.222H145.61V179.208ZM144.856 185.237H145.61V188.251H144.856V185.237ZM145.934 191.06L145.584 191.145C145.485 190.848 145.398 190.547 145.323 190.243L145.934 191.06ZM145.584 191.145C145.784 191.743 146.033 192.325 146.328 192.883L145.66 193.233C145.542 193.012 145.431 192.783 145.328 192.552L145.313 192.519V192.497V192.476V192.456V192.436V192.416V192.396V192.376V192.353V192.333V192.313V192.293V192.273V192.253V192.23V192.2V192.178V192.157V192.135V192.112V192.09V192.057L145.298 192.014L145.283 191.972V191.939L145.268 191.896C145.269 191.881 145.269 191.866 145.268 191.851L145.253 191.806L145.238 191.76V191.725V191.69V191.655V191.622V191.6V191.577V191.557V191.441V191.409V191.384C145.232 191.362 145.227 191.341 145.223 191.32L145.223 191.32L145.222 191.32C145.216 191.292 145.21 191.265 145.203 191.238L145.584 191.145ZM148.525 196.033L148.544 196.016L148.358 195.85C148.413 195.912 148.468 195.973 148.525 196.033ZM148.525 196.033L147.984 196.518C148.363 196.946 148.773 197.345 149.209 197.714L149.237 197.737L149.257 197.754H149.27L149.29 197.767C149.541 197.965 149.792 198.156 150.058 198.335L150.483 197.712C149.769 197.227 149.112 196.664 148.525 196.033ZM153.178 199.166L152.927 199.874C153.151 199.955 153.379 200.033 153.611 200.101H153.643H153.666H153.688H153.711H153.734H154.007H154.022H154.055H154.068H154.098H154.123H154.146H154.181H154.216C154.745 200.23 155.282 200.323 155.824 200.379L155.901 199.626C154.963 199.528 154.04 199.315 153.153 198.99L153.178 199.166ZM158.861 199.867H161.875V200.621H158.861V199.867ZM167.904 199.867H164.89V200.621H167.904V199.867ZM170.918 199.867H173.933V200.621H170.918V199.867ZM179.962 199.867H176.947V200.621H179.962V199.867ZM182.976 199.867H185.991V200.621H182.976V199.867ZM192.02 199.867H189.005V200.621H192.02V199.867ZM195.034 199.867H198.049V200.621H195.034V199.867ZM204.078 199.867H201.063V200.621H204.078V199.867ZM207.092 199.867H210.106V200.621H207.092V199.867ZM216.135 199.867H213.121V200.621H216.135V199.867ZM219.15 199.867H222.164V200.621H219.15V199.867ZM228.193 199.867H225.179V200.621H228.193V199.867ZM231.208 199.867H234.222V200.621H231.208V199.867ZM240.148 199.766C239.638 199.833 239.126 199.866 238.613 199.867H237.242V200.62H239.194C239.55 200.605 239.904 200.573 240.251 200.528L240.153 199.774L240.148 199.766ZM242.878 199.053C243.755 198.703 244.587 198.248 245.353 197.697L245.27 197.802L245.71 198.413C245.23 198.756 244.725 199.065 244.202 199.337L244.172 199.352H244.152H244.135H244.109H244.082H244.059L244.026 199.367C243.743 199.503 243.451 199.636 243.155 199.754L242.878 199.053ZM248.973 193.426C248.95 193.473 248.927 193.519 248.903 193.566L248.88 193.554L248.973 193.426ZM248.903 193.566L249.556 193.886C249.511 193.969 249.468 194.052 249.425 194.134L249.425 194.134L249.425 194.135C249.343 194.292 249.263 194.446 249.174 194.599L249.156 194.632L249.141 194.657V194.682L249.124 194.712L249.108 194.735L249.096 194.755V194.775L249.076 194.805L249.063 194.828L249.046 194.855L249.026 194.886L249.006 194.916C248.702 195.39 248.367 195.844 248.001 196.272L247.425 195.785C248.002 195.104 248.498 194.36 248.903 193.566ZM250.151 187.922H250.905L250.887 188.246V188.673V188.834V188.867V188.894V188.955V189.005V189.158C250.847 189.75 250.764 190.338 250.636 190.917L249.9 190.761C250.068 189.965 250.151 189.153 250.151 188.339V187.922ZM250.905 181.893H250.151V184.908H250.905V181.893ZM250.151 175.864H250.905V178.879H250.151V175.864ZM250.905 169.835H250.151V172.85H250.905V169.835ZM250.151 163.806H250.905V166.821H250.151V163.806ZM250.905 157.778H250.151V160.792H250.905V157.778ZM250.151 151.749H250.905V154.763H250.151V151.749ZM250.905 145.72H250.151V148.734H250.905V145.72ZM250.151 139.691H250.905V142.705H250.151V139.691ZM250.905 133.662H250.151V136.676H250.905V133.662ZM250.151 127.633H250.905V130.647H250.151V127.633ZM250.905 121.604H250.151V124.619H250.905V121.604ZM250.151 115.575H250.905V118.59H250.151V115.575ZM250.905 109.546H250.151V112.561H250.905V109.546ZM250.151 103.517H250.905V106.532H250.151V103.517ZM250.905 97.4884H250.151V100.503H250.905V97.4884ZM250.151 91.4594H250.905V94.4739H250.151V91.4594ZM250.905 85.4306H250.151V88.445H250.905V85.4306ZM250.151 79.4016H250.905V82.416H250.151V79.4016ZM250.905 73.3728H250.151V76.3872H250.905V73.3728ZM250.151 67.3437H250.905V70.3582H250.151V67.3437ZM250.905 61.3149H250.151V64.3294H250.905V61.3149ZM247.89 56.1653H250.905V58.3005H250.151V56.9189H247.89V56.1653Z" fill="#DADDF1"/>
<path fill-rule="evenodd" clip-rule="evenodd" d="M112.804 66.282H232.236C232.767 66.2607 233.299 66.347 233.793 66.5359C234.294 66.7242 234.744 67.0114 235.126 67.3798C235.514 67.7483 235.814 68.1899 236.027 68.6791C236.233 69.1683 236.339 69.6944 236.339 70.2261C236.339 70.7579 236.233 71.284 236.027 71.7731C235.814 72.2617 235.514 72.704 235.126 73.0724C234.744 73.4409 234.294 73.728 233.793 73.9163C233.299 74.1052 232.767 74.1916 232.236 74.1703H112.804C112.272 74.1916 111.743 74.1052 111.245 73.9163C110.749 73.728 110.294 73.4409 109.911 73.0724C109.528 72.704 109.223 72.2617 109.015 71.7731C108.806 71.284 108.699 70.7579 108.699 70.2261C108.699 69.6944 108.806 69.1683 109.015 68.6791C109.223 68.1899 109.528 67.7483 109.911 67.3798C110.294 67.0114 110.749 66.7242 111.245 66.5359C111.743 66.347 112.272 66.2607 112.804 66.282ZM233.061 68.2824C232.798 68.1854 232.517 68.1435 232.235 68.1592H112.803C112.522 68.1435 112.241 68.1854 111.976 68.2824C111.712 68.3793 111.47 68.5295 111.266 68.7228C111.062 68.9161 110.899 69.1494 110.788 69.4078C110.676 69.6668 110.619 69.9451 110.619 70.2266C110.619 70.5081 110.676 70.7865 110.788 71.0455C110.899 71.3038 111.062 71.5372 111.266 71.7305C111.47 71.9238 111.712 72.0739 111.976 72.1709C112.241 72.2678 112.522 72.3097 112.803 72.2941H232.235C232.517 72.3097 232.798 72.2678 233.061 72.1709C233.324 72.0739 233.568 71.9238 233.774 71.7305C233.974 71.5372 234.137 71.3038 234.25 71.0455C234.362 70.7865 234.418 70.5081 234.418 70.2266C234.418 69.9451 234.362 69.6668 234.25 69.4078C234.137 69.1494 233.974 68.9161 233.774 68.7228C233.568 68.5295 233.324 68.3793 233.061 68.2824Z" fill="white"/>
<path d="M153.019 67.9971H112.483C111.342 67.9971 110.417 68.9586 110.417 70.1446C110.417 71.3306 111.342 72.2921 112.483 72.2921H153.019C154.161 72.2921 155.086 71.3306 155.086 70.1446C155.086 68.9586 154.161 67.9971 153.019 67.9971Z" fill="white"/>
</g>
</svg>
