<svg width="298" height="184" viewBox="0 0 298 184" fill="none" xmlns="http://www.w3.org/2000/svg">
<path d="M21.724 67.2994C21.5018 69.6314 20.5331 71.8294 18.9618 73.5668C17.3904 75.3042 15.3003 76.4881 13.0024 76.9426C10.7044 77.3973 8.32103 77.0983 6.20659 76.0899C4.09213 75.0816 2.35948 73.418 1.26614 71.3463C1.03121 70.9012 0.826733 70.4408 0.654111 69.9679C0.0988459 68.4331 -0.10414 66.793 0.0601916 65.1692C0.224523 63.5454 0.75195 61.9792 1.60345 60.5868C2.45496 59.1944 3.6087 58.0112 4.97932 57.125C6.34993 56.2387 7.90232 55.6721 9.52155 55.4672C11.1408 55.262 12.7854 55.4238 14.3337 55.9403C15.882 56.4569 17.2942 57.3149 18.4659 58.4512C19.6377 59.5874 20.539 60.9725 21.1029 62.5041C21.6669 64.0359 21.8792 65.6746 21.724 67.2994Z" fill="#F6F8FF"/>
<path d="M133.499 143.633C133.358 145.127 132.909 146.575 132.179 147.887C131.45 149.198 130.456 150.344 129.261 151.252C128.869 151.55 128.458 151.822 128.03 152.065C125.911 153.267 123.45 153.724 121.041 153.361C118.631 152.998 116.414 151.837 114.742 150.065C113.071 148.292 112.043 146.009 111.823 143.583C111.603 141.157 112.203 138.727 113.528 136.682C114.853 134.637 116.825 133.096 119.13 132.306C121.435 131.515 123.938 131.521 126.239 132.322C128.54 133.123 130.505 134.673 131.821 136.724C133.136 138.775 133.726 141.207 133.494 143.633H133.499Z" fill="#F6F8FF"/>
<path d="M297.563 169.434C297.422 170.928 296.973 172.377 296.242 173.688C295.513 175 294.52 176.146 293.324 177.053C292.933 177.352 292.521 177.624 292.094 177.869C290.054 179.028 287.694 179.496 285.366 179.203C283.037 178.91 280.867 177.872 279.178 176.243C277.976 175.087 277.056 173.671 276.488 172.103C275.932 170.568 275.73 168.928 275.894 167.304C276.059 165.68 276.586 164.114 277.437 162.722C278.288 161.329 279.443 160.146 280.813 159.26C282.184 158.373 283.735 157.807 285.355 157.602C286.974 157.397 288.62 157.559 290.168 158.075C291.716 158.591 293.128 159.45 294.299 160.586C295.471 161.722 296.373 163.107 296.937 164.639C297.5 166.171 297.712 167.809 297.558 169.434H297.563Z" fill="#F6F8FF"/>
<path d="M183.667 11.9132C183.526 13.4073 183.077 14.8557 182.346 16.1672C181.617 17.4786 180.624 18.6243 179.429 19.5322C179.037 19.8316 178.627 20.1035 178.198 20.346C176.158 21.5049 173.798 21.973 171.471 21.6802C169.143 21.3876 166.972 20.3497 165.283 18.7218C164.448 17.9169 163.745 16.9847 163.202 15.9601C162.414 14.4633 161.986 12.8036 161.951 11.1125C161.915 9.42135 162.274 7.74523 162.999 6.21682C164.096 3.90467 165.974 2.05324 168.3 0.987832C170.628 -0.0775762 173.256 -0.288806 175.724 0.391251C178.191 1.07131 180.339 2.59914 181.792 4.70634C183.245 6.81352 183.909 9.36528 183.667 11.9132Z" fill="#F6F8FF"/>
<path d="M12.8232 171.847L46.2083 145.915" stroke="#F6F8FF" stroke-width="2"/>
<path d="M184.55 170.218L238.288 138.233" stroke="#F6F8FF" stroke-width="2"/>
<path d="M95.0353 76.0133L80.0127 98.7582" stroke="#F6F8FF" stroke-width="2"/>
<path d="M280.528 56.6085L265.507 93.776" stroke="#F6F8FF" stroke-width="2"/>
<path d="M222.109 18.2928L279.701 53.0342" stroke="#F6F8FF" stroke-width="2"/>
<path d="M39.7412 16.5145L94.8269 35.3262" stroke="#F6F8FF" stroke-width="2"/>
<path d="M103.212 127.112C102.259 137.215 97.512 146.581 89.9273 153.324C89.1654 154.002 88.3794 154.649 87.569 155.266C86.1225 156.37 84.6035 157.375 83.0221 158.274C75.931 162.309 67.7758 164.08 59.6498 163.35L59.3633 163.324C53.1622 162.733 47.1831 160.709 41.8978 157.412C36.6125 154.116 32.1656 149.636 28.9078 144.326C28.4556 143.587 28.0245 142.833 27.6142 142.063C24.7011 136.534 23.1142 130.403 22.9791 124.154C22.8442 117.906 24.1645 111.712 26.8361 106.062C33.882 91.2004 49.6811 81.6081 67.0009 83.261C89.1152 85.3701 105.323 105.004 103.212 127.112Z" fill="#F6F8FF"/>
<path d="M21.7243 174.132C21.5844 175.628 21.1355 177.079 20.406 178.391C19.6763 179.705 18.682 180.853 17.4859 181.761C17.0943 182.06 16.683 182.331 16.2551 182.575C14.9876 183.294 13.5889 183.75 12.1417 183.918C10.6945 184.086 9.22832 183.962 7.83003 183.553C6.43177 183.143 5.12987 182.458 4.00152 181.536C2.87317 180.615 1.94135 179.476 1.26125 178.188C1.02601 177.743 0.821528 177.282 0.649228 176.809C0.0939631 175.275 -0.109023 173.634 0.0553088 172.011C0.21964 170.387 0.747067 168.821 1.59858 167.428C2.45008 166.036 3.60384 164.853 4.97445 163.966C6.34507 163.08 7.89744 162.514 9.51667 162.309C11.1359 162.103 12.7805 162.265 14.3288 162.782C15.877 163.298 17.2894 164.156 18.4611 165.293C19.6329 166.429 20.534 167.814 21.098 169.345C21.6621 170.877 21.8743 172.517 21.7192 174.141L21.7243 174.132Z" fill="#F6F8FF"/>
<path d="M286.544 125.818C285.982 131.657 284.147 137.301 281.17 142.356C278.195 147.41 274.15 151.753 269.318 155.079C264.486 158.404 258.985 160.633 253.2 161.607C247.417 162.582 241.49 162.28 235.834 160.721C230.18 159.163 224.935 156.386 220.466 152.586C215.999 148.786 212.415 144.054 209.968 138.723C207.524 133.392 206.272 127.59 206.306 121.724C206.34 115.859 207.656 110.071 210.163 104.769C217.209 89.907 233.008 80.3147 250.328 81.9676C272.442 84.0767 288.659 103.711 286.544 125.818Z" fill="#DADDF1"/>
<path d="M152.99 47.7261C152.428 53.566 150.595 59.2122 147.62 64.2688C144.645 69.3252 140.599 73.6694 135.767 76.9964C130.935 80.3235 125.433 82.5529 119.648 83.5285C113.862 84.5038 107.934 84.2015 102.278 82.6426C96.6219 81.0837 91.3756 78.3062 86.9068 74.5049C82.4382 70.7034 78.8554 65.9703 76.41 60.6373C73.9644 55.3046 72.7155 49.5012 72.7507 43.6344C72.786 37.7676 74.1045 31.9796 76.6138 26.6765C83.6597 11.8116 99.4571 2.22264 116.779 3.87562C138.888 5.98465 155.101 25.6186 152.99 47.7261Z" fill="#F6F8FF"/>
<path d="M52.3967 17.8315C52.1741 20.1633 51.2052 22.3612 49.6338 24.0983C48.0624 25.8355 45.9723 27.0192 43.6743 27.4736C41.3764 27.9279 38.9932 27.6287 36.8789 26.6203C34.7646 25.6121 33.032 23.9484 31.9388 21.8767C31.7032 21.4321 31.4992 20.9715 31.3285 20.4983C30.7739 18.9639 30.5715 17.3243 30.7363 15.701C30.9011 14.0777 31.4287 12.5122 32.2803 11.1204C33.1318 9.72856 34.2854 8.54604 35.6557 7.6603C37.0259 6.77458 38.5779 6.20831 40.1966 6.00343C41.8153 5.79852 43.4595 5.96025 45.0072 6.4766C46.555 6.99296 47.9668 7.85076 49.1383 8.9865C50.3098 10.1222 51.2108 11.5069 51.7749 13.0379C52.3389 14.569 52.5514 16.2072 52.3967 17.8315Z" fill="#F6F8FF"/>
<path d="M191.647 172.881C191.454 174.919 190.689 176.862 189.443 178.484C188.195 180.108 186.515 181.346 184.596 182.056C182.675 182.768 180.595 182.923 178.591 182.504C176.587 182.085 174.741 181.11 173.267 179.69C172.067 178.533 171.147 177.118 170.579 175.549C170.024 174.015 169.821 172.376 169.987 170.752C170.151 169.129 170.679 167.563 171.53 166.172C172.381 164.78 173.535 163.597 174.905 162.712C176.275 161.826 177.826 161.259 179.445 161.054C181.064 160.849 182.709 161.011 184.257 161.527C185.805 162.043 187.215 162.901 188.387 164.036C189.558 165.172 190.46 166.557 191.025 168.087C191.589 169.619 191.801 171.257 191.647 172.881Z" fill="#F6F8FF"/>
<path d="M292.209 54.4212C291.987 56.7532 291.017 58.9512 289.447 60.6886C287.876 62.4258 285.785 63.6099 283.488 64.0644C281.189 64.5191 278.806 64.2199 276.691 63.2117C274.577 62.2034 272.845 60.5398 271.751 58.468C271.516 58.0232 271.312 57.5625 271.139 57.0897C270.583 55.5549 270.381 53.9148 270.546 52.291C270.71 50.6672 271.237 49.101 272.089 47.7086C272.94 46.3162 274.094 45.133 275.464 44.2468C276.836 43.3605 278.387 42.7939 280.006 42.5889C281.627 42.3838 283.271 42.5455 284.819 43.0621C286.367 43.5785 287.779 44.4367 288.951 45.5729C290.122 46.7092 291.024 48.0943 291.589 49.6259C292.151 51.1576 292.363 52.7964 292.209 54.4212Z" fill="#F6F8FF"/>
<path d="M229.85 17.0402C229.71 18.5341 229.26 19.9827 228.53 21.294C227.801 22.6056 226.807 23.7513 225.612 24.6591C225.22 24.9585 224.81 25.2305 224.381 25.4729C222.342 26.6319 219.982 27.1 217.654 26.8072C215.326 26.5145 213.155 25.4766 211.466 23.8488C210.266 22.6924 209.345 21.276 208.777 19.7087C208.223 18.1742 208.021 16.5347 208.185 14.9114C208.35 13.2882 208.877 11.7227 209.728 10.3309C210.579 8.93906 211.734 7.75649 213.104 6.8707C214.474 5.98491 216.026 5.41854 217.644 5.21352C219.263 5.0085 220.907 5.17006 222.455 5.68629C224.003 6.20249 225.414 7.06012 226.587 8.19573C227.758 9.33131 228.659 10.7158 229.223 12.2468C229.788 13.7777 230 15.4159 229.845 17.0402H229.85Z" fill="#F6F8FF"/>
<path d="M207.451 101.452L208.487 99.5688C208.923 98.6285 209.309 97.6666 209.646 96.6867C210.169 95.149 209.986 92.9569 212.273 90.8868C214.56 88.8168 211.177 89.3881 210.035 90.3426C209.082 91.1378 208.307 93.3943 207.359 93.9029C207.142 93.5965 206.971 93.2609 206.851 92.906L204.779 83.1984C204.749 83.0429 204.664 82.9034 204.54 82.8056C204.415 82.7079 204.259 82.6582 204.101 82.666L203.721 82.6779C203.63 82.6828 203.54 82.7069 203.457 82.7486C203.375 82.7903 203.302 82.8486 203.245 82.92C203.185 82.9914 203.143 83.0741 203.119 83.1629C203.094 83.2518 203.089 83.3447 203.102 83.4357C203.421 85.5125 204.528 91.6921 204.416 91.6955L204.187 91.804L201.01 81.9709C200.966 81.8156 200.866 81.6822 200.731 81.5957C200.593 81.5095 200.431 81.4764 200.271 81.503L199.763 81.5878C199.674 81.6017 199.59 81.6334 199.515 81.6812C199.439 81.7288 199.374 81.7914 199.323 81.8651C199.274 81.9387 199.239 82.022 199.222 82.1096C199.205 82.1971 199.206 82.2873 199.225 82.3744C199.713 84.636 201.997 92.1617 201.882 92.1685L201.602 92.2635L198.155 84.1257C198.108 83.9637 197.999 83.8262 197.852 83.7416C197.706 83.657 197.533 83.6319 197.369 83.6714L196.963 83.7714C196.879 83.7921 196.799 83.8292 196.73 83.8806C196.66 83.932 196.601 83.9967 196.555 84.071C196.511 84.1454 196.48 84.2278 196.467 84.3138C196.453 84.3995 196.458 84.4872 196.479 84.5716L199.579 92.5771L199.295 92.7568L196.046 86.9739C195.984 86.8251 195.868 86.7044 195.722 86.6344C195.578 86.5643 195.412 86.5501 195.256 86.5942L195.063 86.6518C194.897 86.7005 194.758 86.8115 194.673 86.9616C194.588 87.1116 194.565 87.2888 194.609 87.4554C194.921 88.6422 196.474 91.1327 197.377 93.7283C198.084 95.739 198.133 97.3496 199.3 99.7841C199.791 100.817 200.727 102.042 201.238 102.726" fill="#DADDF1"/>
<path d="M266.355 156.981C258.816 161.256 250.096 162.98 241.496 161.898C232.897 160.816 224.876 156.985 218.631 150.976L219.115 138.543L203.552 135.973C201.255 135.342 199.258 133.913 197.92 131.943C196.582 129.972 195.991 127.589 196.252 125.221L197.525 100.818L209.821 101.666L210.16 104.772L212.061 121.163C212.061 121.163 224.925 122.772 242.481 127.266C259.57 131.642 264.604 146.817 266.355 156.981Z" fill="#19F0FE"/>
<path d="M252.965 112.049C257.678 106.04 257.007 97.6457 251.465 93.2989C245.925 88.9522 237.61 90.2995 232.897 96.3082C228.184 102.317 228.856 110.712 234.398 115.058C239.94 119.405 248.252 118.058 252.965 112.049Z" fill="#081638"/>
<path d="M234.386 132.125C233.46 131.455 232.778 130.502 232.444 129.41C232.109 128.317 232.139 127.146 232.529 126.072L238.649 109.268C238.858 108.586 239.204 107.954 239.665 107.41C240.124 106.866 240.692 106.422 241.33 106.104C241.969 105.786 242.664 105.601 243.376 105.56C244.088 105.52 244.8 105.625 245.47 105.868C246.141 106.112 246.753 106.489 247.274 106.978C247.792 107.466 248.208 108.055 248.493 108.708C248.777 109.362 248.927 110.067 248.93 110.78C248.933 111.492 248.793 112.199 248.515 112.855L242.393 129.661C242.113 130.423 241.662 131.11 241.074 131.669C240.485 132.227 239.775 132.641 239 132.879C238.224 133.117 237.403 133.173 236.603 133.041C235.803 132.909 235.043 132.594 234.386 132.12V132.125Z" fill="#DADDF1"/>
<path d="M235.425 122.755L234.408 122.377C233.224 121.937 232.153 121.243 231.27 120.343C230.385 119.442 229.712 118.358 229.293 117.167C228.876 115.977 228.727 114.709 228.855 113.454C228.984 112.198 229.388 110.987 230.037 109.905L233.258 104.548C234.298 102.818 235.913 101.509 237.822 100.852C239.73 100.195 241.808 100.231 243.693 100.954C245.819 101.77 247.533 103.397 248.461 105.477C249.386 107.558 249.449 109.921 248.634 112.047L246.43 117.782C245.619 119.893 244.01 121.599 241.949 122.53C239.889 123.461 237.544 123.542 235.425 122.755Z" fill="#DADDF1"/>
<path d="M236.237 107.588L231.827 111.168L233.558 112.469" stroke="white" stroke-linecap="square"/>
<path d="M237.358 110.117C237.871 110.117 238.288 109.701 238.288 109.187C238.288 108.673 237.871 108.256 237.358 108.256C236.844 108.256 236.427 108.673 236.427 109.187C236.427 109.701 236.844 110.117 237.358 110.117Z" fill="white"/>
<path d="M233.486 108.159C234 108.159 234.417 107.742 234.417 107.228C234.417 106.714 234 106.298 233.486 106.298C232.973 106.298 232.556 106.714 232.556 107.228C232.556 107.742 232.973 108.159 233.486 108.159Z" fill="white"/>
<path d="M261.703 137.024C261.703 137.024 257.41 147.771 249.049 142.997C235.206 135.092 238.049 124.696 241.952 119.94C243.507 118.046 245.682 117.207 247.952 116.519C241.352 110.699 244.597 106.064 244.597 106.064C244.597 106.064 226.945 104.929 232.653 96.556C238.361 88.1826 248.557 89.2795 253.962 92.9161C266.525 101.373 262.249 109.992 265.116 113.165C281.369 131.175 261.703 137.024 261.703 137.024Z" fill="#081638"/>
<path d="M249.806 117.256C251.632 116.147 252.212 113.768 251.101 111.943C249.993 110.118 247.614 109.538 245.788 110.648L242.784 112.474C240.96 113.584 240.38 115.963 241.489 117.788C242.599 119.613 244.978 120.192 246.802 119.083L249.806 117.256Z" fill="#DADDF1"/>
<path d="M248.986 113.396L244.724 115.985" stroke="white" stroke-linecap="square"/>
<path d="M236.127 115.091C236.171 115.684 235.979 116.27 235.593 116.72C235.204 117.171 234.655 117.45 234.062 117.495C233.47 117.539 232.883 117.347 232.434 116.96C231.983 116.573 231.703 116.023 231.659 115.43C231.564 114.196 232.814 114.208 234.046 114.113C235.279 114.018 236.032 113.857 236.127 115.091Z" fill="white"/>
<path d="M116.887 49.9369L118.253 50.0895C119.842 50.2687 121.451 50.0954 122.966 49.582C124.48 49.0687 125.863 48.228 127.015 47.1194C128.168 46.0109 129.062 44.6621 129.634 43.1687C130.206 41.6754 130.442 40.0745 130.324 38.4796L129.745 30.5792C129.557 28.0277 128.477 25.6237 126.693 23.7895C124.909 21.9553 122.536 20.808 119.991 20.5495C117.12 20.2582 114.25 21.1195 112.014 22.9438C109.777 24.7682 108.357 27.4062 108.066 30.2775L107.279 38.0236C106.99 40.8743 107.836 43.7241 109.635 45.9545C111.434 48.1849 114.04 49.6158 116.887 49.9369Z" fill="#19F0FE"/>
<path d="M138.743 74.7642L137.346 75.8815C135.9 76.985 134.381 77.9898 132.799 78.889C128.116 81.5436 122.947 83.231 117.599 83.8514C112.251 84.4715 106.833 84.0119 101.666 82.4997C96.4987 80.9874 91.6879 78.4535 87.5182 75.0477C83.3486 71.6421 79.905 67.434 77.3916 62.6729C83.7763 57.9802 94.4656 52.3736 108.139 53.518C131.009 55.4422 138.743 74.7642 138.743 74.7642Z" fill="#FE6A17"/>
<path d="M111.494 63.0505C111.237 63.0512 110.98 63.0359 110.724 63.0047C109.028 62.8026 107.481 61.9351 106.424 60.5927C105.368 59.2505 104.887 57.5434 105.089 55.8469L108.141 30.1774C108.343 28.4807 109.211 26.9339 110.554 25.8771C111.219 25.354 111.98 24.9669 112.795 24.7379C113.609 24.509 114.461 24.4427 115.301 24.5429C116.141 24.6431 116.953 24.9077 117.691 25.3219C118.429 25.7359 119.078 26.2913 119.601 26.9561C120.124 27.621 120.512 28.3825 120.74 29.197C120.97 30.0114 121.036 30.8632 120.936 31.7033L117.884 57.3727C117.697 58.9367 116.944 60.3778 115.766 61.424C114.589 62.4702 113.069 63.0488 111.494 63.0505Z" fill="#19F0FE"/>
<path d="M110.557 41.5396L110.559 41.5386C112.441 40.3809 113.028 37.9165 111.87 36.0343L110.68 34.1009C109.523 32.2189 107.058 31.6318 105.176 32.7895L105.175 32.7904C103.293 33.9483 102.705 36.4127 103.863 38.2947L105.053 40.2283C106.211 42.1103 108.675 42.6974 110.557 41.5396Z" fill="#19F0FE"/>
<path d="M105.626 35.9165L108.834 39.3072" stroke="white" stroke-width="2" stroke-linecap="square"/>
<path d="M124.699 31.5828L124.924 37.9319L122.666 38.0234" stroke="white" stroke-width="2" stroke-linecap="square"/>
<path d="M117.971 39.9957C117.785 40.3407 117.668 40.7193 117.627 41.1095C117.587 41.4998 117.624 41.8941 117.736 42.2702C117.848 42.6462 118.033 42.9965 118.28 43.301C118.527 43.6056 118.832 43.8584 119.177 44.045C119.523 44.2317 119.901 44.3487 120.291 44.389C120.682 44.4294 121.076 44.3926 121.452 44.2805C121.828 44.1686 122.178 43.9835 122.483 43.7362C122.787 43.4888 123.04 43.184 123.227 42.8388C124.012 41.3859 122.484 40.723 121.023 39.938C119.561 39.1531 118.756 38.5444 117.971 39.9957Z" fill="white"/>
<path d="M111.397 38.8474L114.449 27.385L115.173 24.6725C115.853 25.4015 116.649 26.0128 117.529 26.4814C120.723 28.2005 130.353 27.5156 131.687 20.763C132.776 15.2564 126.928 18.4217 123.934 18.0775C119.23 17.535 115.966 14.7665 109.524 18.247C101.818 22.4159 105.468 32.6356 105.468 32.6356C105.468 32.6356 108.859 31.3081 111.397 38.8474Z" fill="#1758FE"/>
<path d="M118.593 50.1237L114.513 49.7524L118.239 53.389L118.593 50.1237Z" fill="#1758FE"/>
<path d="M120.35 35.0128C120.969 35.0128 121.471 34.5111 121.471 33.8921C121.471 33.2731 120.969 32.7715 120.35 32.7715C119.731 32.7715 119.229 33.2731 119.229 33.8921C119.229 34.5111 119.731 35.0128 120.35 35.0128Z" fill="white"/>
<path d="M127.035 35.0128C127.654 35.0128 128.155 34.5111 128.155 33.8921C128.155 33.2731 127.654 32.7715 127.035 32.7715C126.416 32.7715 125.914 33.2731 125.914 33.8921C125.914 34.5111 126.416 35.0128 127.035 35.0128Z" fill="white"/>
<path d="M73.6589 114.583L69.585 114.885L73.8437 117.852L73.6589 114.583Z" fill="#1758FE"/>
<path d="M96.2758 146.149C94.4514 148.783 92.3202 151.192 89.9267 153.323C89.1648 154.001 88.3788 154.649 87.5684 155.266C86.122 156.37 84.6029 157.375 83.0215 158.274C80.6636 159.615 78.1756 160.714 75.5958 161.553L59.6492 163.35L59.3627 163.324C53.1616 162.733 47.1825 160.709 41.8973 157.412C36.612 154.115 32.165 149.635 28.9072 144.326C34.9342 133.274 45.7015 121.893 64.8184 119.145C83.0435 116.525 93.0597 137.76 96.2758 146.149Z" fill="#1758FE"/>
<path d="M67.2567 128.653L67.0533 128.666C65.1124 128.755 63.2158 128.07 61.7805 126.76C60.3451 125.451 59.4884 123.626 59.3987 121.685L58.212 95.9425C58.1674 94.9816 58.3125 94.0212 58.6392 93.1162C58.9659 92.2114 59.4676 91.3796 60.1155 90.6686C61.4243 89.2326 63.2501 88.3755 65.1909 88.2854C67.1318 88.1956 69.0289 88.8803 70.4649 90.1892C71.9008 91.498 72.758 93.3235 72.848 95.2644L74.0348 121.005C74.1238 122.912 73.4653 124.778 72.1994 126.206C70.9335 127.634 69.1601 128.512 67.2567 128.653Z" fill="#DADDF1"/>
<path d="M71.5911 115.191L72.9186 114.852C74.4609 114.451 75.8958 113.715 77.1214 112.696C78.347 111.677 79.3332 110.401 80.0096 108.958C80.6862 107.515 81.0365 105.94 81.0357 104.347C81.035 102.753 80.683 101.179 80.0052 99.7366L76.6433 92.5906C75.5569 90.2839 73.693 88.4333 71.3784 87.3638C69.0639 86.2942 66.4466 86.074 63.9857 86.7416C61.2093 87.4956 58.8459 89.3211 57.4152 91.8172C55.9847 94.3131 55.6037 97.2753 56.3566 100.052L58.3911 107.542C59.1416 110.298 60.9485 112.646 63.4197 114.078C65.8908 115.511 68.827 115.91 71.5911 115.191Z" fill="#DADDF1"/>
<path d="M57.1123 110.372C58.8624 111.711 61.3661 111.377 62.7044 109.627C64.0429 107.877 63.7093 105.373 61.9593 104.035L60.1629 102.661C58.413 101.322 55.9093 101.656 54.5708 103.406C53.2323 105.156 53.5659 107.66 55.3159 108.998L57.1123 110.372Z" fill="#DADDF1"/>
<path d="M82.0298 107.173C83.064 111.471 82.3689 117.774 77.1641 119.091C71.9594 120.408 65.4983 116.246 64.4133 111.957C63.3283 107.668 64.5167 105.272 69.7249 103.953C74.933 102.634 80.6786 101.566 82.0298 107.173Z" fill="#1758FE"/>
<path d="M56.1045 106.164L59.524 108.181" stroke="white" stroke-width="2" stroke-linecap="square"/>
<path d="M69.1097 107.836C69.0243 108.611 69.2464 109.389 69.7282 110.002C70.2099 110.615 70.9131 111.015 71.6865 111.116C72.4599 111.216 73.2418 111.01 73.8645 110.54C74.4871 110.07 74.9006 109.375 75.0164 108.604C75.2283 106.973 73.5685 106.908 71.9376 106.688C70.3067 106.467 69.3217 106.205 69.1097 107.836Z" fill="white"/>
<path d="M68.6077 101.383C69.2238 101.383 69.7233 100.883 69.7233 100.267C69.7233 99.6511 69.2238 99.1516 68.6077 99.1516C67.9916 99.1516 67.4922 99.6511 67.4922 100.267C67.4922 100.883 67.9916 101.383 68.6077 101.383Z" fill="white"/>
<path d="M76.4114 99.1791C77.0275 99.1791 77.527 98.6796 77.527 98.0635C77.527 97.4475 77.0275 96.948 76.4114 96.948C75.7954 96.948 75.2959 97.4475 75.2959 98.0635C75.2959 98.6796 75.7954 99.1791 76.4114 99.1791Z" fill="white"/>
<path d="M56.4434 162.482L60.9056 165.474C60.9056 165.474 60.7072 176.117 65.3881 175.549C65.3881 175.549 65.4067 177.231 66.3578 177.392C67.3089 177.553 69.9011 173.583 69.9011 173.583C69.9011 173.583 73.4614 172.24 74.165 168.802C74.8686 165.364 74.9974 157.243 73.8988 156.631C72.8002 156.019 61.9618 155.751 61.9618 155.751C61.9618 155.751 57.4623 156.297 56.4434 162.482Z" fill="#DADDF1"/>
<path d="M63.9714 154.392L45.9785 147.749" stroke="white" stroke-width="2" stroke-linecap="square"/>
<path d="M49.5498 148.743L59.6457 136.455" stroke="white" stroke-width="2" stroke-linecap="square"/>
<path d="M56.4169 162.943C56.4169 162.943 55.9473 156.482 64.2986 154.492" stroke="white" stroke-width="2" stroke-linecap="square"/>
<path d="M73.2432 96.3511L75.7184 102.178L73.6501 103.07" stroke="white" stroke-width="2" stroke-linecap="square"/>
</svg>
