<svg width="264" height="197" viewBox="0 0 264 197" fill="none" xmlns="http://www.w3.org/2000/svg">
<path d="M102.559 76.3473H51.6484L77.1038 34.36L102.559 76.3473Z" fill="#DADDF1"/>
<path d="M191.537 168.533C204.613 168.533 215.215 157.932 215.215 144.856C215.215 131.779 204.613 121.178 191.537 121.178C178.46 121.178 167.859 131.779 167.859 144.856C167.859 157.932 178.46 168.533 191.537 168.533Z" fill="#F6F8FF"/>
<path d="M126.675 70.7049L99.9141 97.466L126.675 124.227L153.436 97.466L126.675 70.7049Z" fill="#DADDF1"/>
<path d="M24.3448 47.3555C37.4216 47.3555 48.0226 36.7546 48.0226 23.6778C48.0226 10.6009 37.4216 0 24.3448 0C11.2679 0 0.666992 10.6009 0.666992 23.6778C0.666992 36.7546 11.2679 47.3555 24.3448 47.3555Z" fill="#DADDF1"/>
<path d="M170.72 52.353C170.72 52.353 162.841 65.1462 152.905 51.0905C144.081 38.6082 168.764 49.3111 168.764 49.3111" fill="#19F0FE"/>
<path d="M229.439 187.991L221.122 119.55L219.998 131.725L223.027 187.991H197.366L195.648 133.484C195.427 129.683 195.788 125.87 196.719 122.178L207.314 73.2904L245.731 72.9832L247.561 129.579L255.465 187.991H229.439Z" fill="#081638"/>
<path d="M221.008 121.039L218.429 94.0161" stroke="white" stroke-linecap="square"/>
<path d="M218.938 187.991L223.258 196.6H184.419L200.597 187.991H218.938Z" fill="#19F0FE"/>
<path d="M250.405 187.991L254.724 196.6H215.886L232.064 187.991H250.405Z" fill="#19F0FE"/>
<path d="M222.24 44.1863L222.409 44.1731C224.016 44.0167 225.496 43.2287 226.52 41.982C227.547 40.7355 228.036 39.1325 227.88 37.5255L225.82 16.2116C225.754 15.4075 225.528 14.6246 225.157 13.9083C224.786 13.192 224.275 12.5567 223.656 12.0393C223.036 11.522 222.321 11.1329 221.551 10.8947C220.779 10.6565 219.968 10.5739 219.165 10.6517C218.363 10.7295 217.582 10.9663 216.872 11.3481C216.162 11.7299 215.533 12.2493 215.025 12.8759C214.518 13.5025 214.137 14.2239 213.911 14.9982C213.684 15.7726 213.613 16.5842 213.703 17.3861L215.763 38.7C215.917 40.2775 216.679 41.7333 217.889 42.7577C219.097 43.7821 220.659 44.2945 222.24 44.1863Z" fill="#19F0FE"/>
<path d="M217.465 32.4906L216.33 32.5937C215.011 32.7134 213.681 32.5408 212.435 32.0883C211.192 31.6358 210.06 30.9142 209.126 29.9753C208.193 29.0365 207.476 27.9031 207.03 26.656C206.582 25.4089 206.417 24.0786 206.543 22.7599L207.166 16.2266C207.369 14.1171 208.307 12.1459 209.817 10.6593C211.327 9.17269 213.312 8.26563 215.425 8.09735C217.807 7.90802 220.169 8.67308 221.988 10.2243C223.807 11.7754 224.936 13.9858 225.126 16.3689L225.637 22.7974C225.826 25.1635 225.073 27.5086 223.543 29.3232C222.013 31.1381 219.829 32.2762 217.465 32.4906Z" fill="#19F0FE"/>
<path d="M228.462 23.0842C229.456 21.546 229.014 19.494 227.476 18.5011C225.938 17.5082 223.886 17.9502 222.893 19.4884L221.874 21.0667C220.881 22.6049 221.323 24.6568 222.861 25.6498C224.399 26.6427 226.45 26.2006 227.443 24.6624L228.462 23.0842Z" fill="#19F0FE"/>
<path d="M227.044 21.0835L224.937 23.6197" stroke="white" stroke-linecap="square"/>
<path d="M210.971 18.9669L210.671 24.2209L212.538 24.3371" stroke="white" stroke-linecap="square"/>
<path d="M222.211 23.4062L219.89 13.8534L219.328 11.5869C218.753 12.1792 218.082 12.6717 217.344 13.0442C214.669 14.4078 206.705 13.668 205.731 8.05242C204.929 3.47084 209.713 6.19806 212.201 5.96767C216.106 5.60429 218.863 3.36969 224.132 6.36851C230.439 9.95923 227.23 18.3563 227.23 18.3563C227.23 18.3563 224.443 17.2118 222.211 23.4062Z" fill="#081638"/>
<path d="M215.215 32.6724L218.601 32.4401L215.449 35.3827L215.215 32.6724Z" fill="#081638"/>
<path d="M213.63 21.6679C214.142 21.6679 214.557 21.2529 214.557 20.7407C214.557 20.2286 214.142 19.8136 213.63 19.8136C213.119 19.8136 212.703 20.2286 212.703 20.7407C212.703 21.2529 213.119 21.6679 213.63 21.6679Z" fill="white"/>
<path d="M208.175 22.0463C208.687 22.0463 209.102 21.6312 209.102 21.1191C209.102 20.607 208.687 20.1919 208.175 20.1919C207.664 20.1919 207.248 20.607 207.248 21.1191C207.248 21.6312 207.664 22.0463 208.175 22.0463Z" fill="white"/>
<path d="M216.419 25.1744C216.336 25.1744 213.69 25.1744 213.422 27.2479L216.419 25.1744Z" fill="white"/>
<path d="M234.444 20.074L227.875 14.5896C227.875 14.5896 221.117 10.937 223.206 8.12738C223.206 8.12738 222.155 7.51863 222.406 6.84994C222.657 6.18124 226.107 5.92463 226.107 5.92463C226.107 5.92463 228.267 4.1096 230.685 4.88132C233.103 5.65303 237.376 7.84267 238.084 8.44019C239.045 9.24749 240.706 15.5467 240.706 15.5467C240.706 15.5467 238.704 21.6174 234.444 20.074Z" fill="#19F0FE"/>
<path d="M146.148 29.9433C143.193 32.1458 140.7 34.9088 138.813 38.0747C136.925 41.2406 135.68 44.7474 135.148 48.3945C134.615 52.0418 134.807 55.7582 135.711 59.3313C136.615 62.9046 138.214 66.265 140.417 69.2201L162.922 52.4485L146.148 29.9433Z" fill="#1758FE"/>
<path d="M123.625 168.539C116.182 168.539 109.044 171.495 103.78 176.757C98.5167 182.019 95.5585 189.156 95.5566 196.6H123.625V168.539Z" fill="#19F0FE"/>
<path d="M169.584 50.3469C169.584 50.3469 168.328 47.689 164.39 46.833C162.483 46.419 160.429 46.2017 157.376 43.836C154.452 41.5658 154.345 45.3551 156.66 46.6719C158.218 47.5597 162.21 49.253 161.717 50.8245L170.708 55.3555" fill="#19F0FE"/>
<path d="M95.5575 168.531H67.4893V196.6H95.5575V168.531Z" fill="#DADDF1"/>
<path d="M165.033 168.531H136.965V196.6H165.033V168.531Z" fill="#DADDF1"/>
<path d="M95.5575 140.465H67.4893V168.533H95.5575V140.465Z" fill="#DADDF1"/>
<path d="M38.4528 196.6C47.0908 196.6 54.0931 189.598 54.0931 180.959C54.0931 172.322 47.0908 165.319 38.4528 165.319C29.8149 165.319 22.8125 172.322 22.8125 180.959C22.8125 189.598 29.8149 196.6 38.4528 196.6Z" fill="#19F0FE"/>
<path d="M144.766 168.531C153.404 168.531 160.407 161.529 160.407 152.891C160.407 144.253 153.404 137.251 144.766 137.251C136.128 137.251 129.126 144.253 129.126 152.891C129.126 161.529 136.128 168.531 144.766 168.531Z" fill="#19F0FE"/>
<path d="M87.6646 140.465H51.5439L69.6043 110.675L87.6646 140.465Z" fill="#19F0FE"/>
<mask id="mask0_1039_265" style="mask-type:luminance" maskUnits="userSpaceOnUse" x="161" y="11" width="103" height="64">
<path fill-rule="evenodd" clip-rule="evenodd" d="M255.754 53.0516L244.453 56.5243C245.751 64.7676 245.746 72.9832 245.746 72.9832L207.329 73.2903C207.329 73.2903 206.879 70.9319 206.409 67.5036C202.425 69.8161 195.639 73.2572 189.111 74.2363C178.247 75.864 161.998 61.5704 161.998 61.5704L167.915 46.9022L187.755 54.6156L208.552 42.1596C208.554 42.1588 208.554 42.1581 208.556 42.1573C219.418 35.4608 222.195 35.7703 227.907 37.5885L227.88 37.5255C237.858 36.5047 240.947 36.3174 240.947 36.3174L231.331 20.4467L244.255 11.8773L261.212 34.3394C266.648 40.7248 263.769 50.5885 255.754 53.0516Z" fill="white"/>
</mask>
<g mask="url(#mask0_1039_265)">
<path d="M160.692 48.4101L172.489 60.2068" stroke="#19F0FE" stroke-width="31" stroke-linecap="round"/>
<path d="M186.013 62.8947L175.591 73.3166" stroke="#19F0FE" stroke-width="31" stroke-linecap="round"/>
<path d="M186.013 34.8845L175.591 45.3064" stroke="#19F0FE" stroke-width="31" stroke-linecap="round"/>
<path d="M203.119 74.212L214.918 62.4133" stroke="#19F0FE" stroke-width="31" stroke-linecap="round"/>
<path d="M217.606 76.8998L228.028 87.3217" stroke="#19F0FE" stroke-width="31" stroke-linecap="round"/>
<path d="M189.596 48.8896L200.018 59.3115" stroke="#19F0FE" stroke-width="31" stroke-linecap="round"/>
<path d="M216.739 19.7593L228.536 31.5579" stroke="#19F0FE" stroke-width="31" stroke-linecap="round"/>
<path d="M214.049 34.2458L203.629 44.6677" stroke="#19F0FE" stroke-width="31" stroke-linecap="round"/>
<path d="M270.791 61.5348L260.369 71.9567" stroke="#19F0FE" stroke-width="31" stroke-linecap="round"/>
<path d="M242.06 34.2458L231.638 44.6677" stroke="#19F0FE" stroke-width="31" stroke-linecap="round"/>
<path d="M259.166 45.563L270.965 33.7644" stroke="#19F0FE" stroke-width="31" stroke-linecap="round"/>
<path d="M231.523 73.9553L243.32 62.1586" stroke="#19F0FE" stroke-width="31" stroke-linecap="round"/>
<path d="M215.967 49.0001L226.387 59.422" stroke="#19F0FE" stroke-width="31" stroke-linecap="round"/>
<path d="M245.416 49.0001L255.838 59.422" stroke="#19F0FE" stroke-width="31" stroke-linecap="round"/>
<path d="M245.643 20.2407L256.064 30.6625" stroke="#19F0FE" stroke-width="31" stroke-linecap="round"/>
</g>
<path d="M206.127 68.1581L204.014 58.1708" stroke="white" stroke-linecap="square"/>
</svg>
