<svg width="292" height="188" viewBox="0 0 292 188" fill="none" xmlns="http://www.w3.org/2000/svg">
<path d="M266.273 187.679C271.346 187.679 275.459 183.566 275.459 178.492C275.459 173.419 271.346 169.306 266.273 169.306C261.2 169.306 257.087 173.419 257.087 178.492C257.087 183.566 261.2 187.679 266.273 187.679Z" fill="#19F0FE"/>
<path d="M192.201 0L201.591 134.852L76.2977 143.578L70.3252 57.822L116.706 5.25639L192.201 0Z" fill="#FE6A17"/>
<path d="M0.836914 187.25H16.6043L8.72064 175.18L0.836914 187.25Z" fill="#DADDF1"/>
<path d="M204.261 151.795L213.051 148.18L205.888 143.26L204.261 151.795Z" fill="#DADDF1"/>
<path d="M116.706 5.25639L120.125 54.3541L70.3252 57.822L116.706 5.25639Z" fill="#FEA217"/>
<path d="M221.842 168.86V129.848" stroke="#1758FE" stroke-width="3"/>
<path d="M221.843 129.848C224.619 129.848 226.871 127.597 226.871 124.82C226.871 122.043 224.619 119.792 221.843 119.792C219.065 119.792 216.814 122.043 216.814 124.82C216.814 127.597 219.065 129.848 221.843 129.848Z" fill="#DADDF1"/>
<path d="M254.105 173.976V165.944" stroke="#1758FE" stroke-width="3"/>
<path d="M254.106 165.944C256.084 165.944 257.688 164.34 257.688 162.362C257.688 160.383 256.084 158.78 254.106 158.78C252.127 158.78 250.523 160.383 250.523 162.362C250.523 164.34 252.127 165.944 254.106 165.944Z" fill="#DADDF1"/>
<path d="M49.0299 143.948C51.9453 143.948 54.3087 141.585 54.3087 138.669C54.3087 135.754 51.9453 133.39 49.0299 133.39C46.1144 133.39 43.751 135.754 43.751 138.669C43.751 141.585 46.1144 143.948 49.0299 143.948Z" fill="#DADDF1"/>
<path d="M208.57 150.066L215.93 168.86" stroke="#1758FE" stroke-width="3"/>
<path d="M226.908 168.71L234.993 150.214" stroke="#1758FE" stroke-width="3"/>
<path d="M234.597 142.609L231.871 148.846L238.108 151.572L240.834 145.335L234.597 142.609Z" fill="#19F0FE"/>
<path d="M83.4033 144.328L71.3857 139.385L81.179 132.657L83.4033 144.328Z" fill="#19F0FE"/>
<path d="M64.5279 160.272V122.205" stroke="#1758FE" stroke-width="3"/>
<path d="M77.4774 141.933L70.2959 160.272" stroke="#1758FE" stroke-width="3"/>
<path d="M59.0081 161.495L51.1191 143.448" stroke="#1758FE" stroke-width="3"/>
<path d="M212.454 187.419L206.264 165.93H237.421L235.336 173.174L233.265 180.36L231.229 187.419H212.454Z" fill="white"/>
<path d="M32.3851 168.054H13.4473V186.992H32.3851V168.054Z" fill="white"/>
<path d="M291.436 177.782H282.228V186.99H291.436V177.782Z" fill="white"/>
<path d="M103.612 175.18H91.543V187.25H103.612V175.18Z" fill="#DADDF1"/>
<path d="M70.0457 111.168H59.0088V122.205H70.0457V111.168Z" fill="#19F0FE"/>
<path d="M53.6841 186.992C49.2268 183.116 46.5684 176.889 46.5684 170.311C46.5684 165.164 48.1631 160.243 51.0654 156.439H76.6123C79.5112 160.245 81.1094 165.164 81.1094 170.311C81.1094 176.884 78.4509 183.111 73.9919 186.992H53.6841Z" fill="white"/>
<path d="M50.3564 174.888H61.4833L55.9207 166.371L50.3564 174.888Z" fill="#19F0FE"/>
<path d="M66.1895 174.888H77.3163L71.7537 166.371L66.1895 174.888Z" fill="#19F0FE"/>
<path d="M223.01 180.461C225.101 180.461 226.796 178.766 226.796 176.675C226.796 174.583 225.101 172.888 223.01 172.888C220.919 172.888 219.224 174.583 219.224 176.675C219.224 178.766 220.919 180.461 223.01 180.461Z" fill="#19F0FE"/>
<path d="M214.828 176.675C214.828 177.679 214.429 178.641 213.719 179.352C213.009 180.061 212.047 180.461 211.042 180.461C210.741 180.461 210.44 180.426 210.148 180.354L208.328 174.035C208.854 173.495 209.528 173.124 210.265 172.97C211.002 172.815 211.768 172.884 212.467 173.167C213.164 173.451 213.763 173.937 214.183 174.561C214.603 175.185 214.828 175.922 214.828 176.675Z" fill="#19F0FE"/>
<path d="M235.584 173.245L233.508 180.431C232.554 180.312 231.678 179.833 231.064 179.091C230.45 178.349 230.141 177.401 230.199 176.441C230.26 175.479 230.684 174.577 231.384 173.918C232.086 173.257 233.012 172.889 233.975 172.888C234.53 172.886 235.081 173.008 235.584 173.245Z" fill="#19F0FE"/>
<path d="M186.758 174.488L189.93 181.665L182.051 187.25H161.399L173.284 179.117L186.758 174.488Z" fill="#19F0FE"/>
<path d="M151.845 174.488L155.017 183.567L147.14 187.25H126.488L138.371 179.117L151.845 174.488Z" fill="#19F0FE"/>
<path d="M174.061 29.7049L173.449 27.9459C173.215 27.0793 173.032 26.2005 172.897 25.3133C172.693 23.9296 173.243 22.0582 171.524 19.986C169.804 17.9139 172.779 18.8427 173.651 19.8131C174.379 20.6208 174.689 22.6618 175.46 23.2239C175.711 22.993 175.927 22.7274 176.104 22.4352L179.679 14.3682C179.738 14.2351 179.84 14.1261 179.969 14.0589C180.099 13.9916 180.246 13.9702 180.39 13.998L180.722 14.0655C180.801 14.0779 180.879 14.108 180.947 14.1536C181.012 14.1992 181.07 14.2592 181.111 14.3292C181.153 14.3992 181.177 14.4775 181.184 14.5584C181.192 14.6393 181.18 14.7209 181.153 14.7971C180.5 16.5406 178.418 21.7036 178.518 21.7157L178.707 21.8385L183.311 13.8008C183.382 13.6716 183.496 13.5709 183.633 13.5155C183.771 13.4601 183.922 13.4533 184.064 13.4964L184.515 13.6348C184.591 13.6559 184.66 13.6931 184.719 13.7438C184.78 13.7946 184.828 13.8576 184.861 13.9286C184.894 13.9997 184.909 14.077 184.911 14.1552C184.911 14.2335 184.894 14.3109 184.861 14.382C184.024 16.2604 180.637 22.4266 180.741 22.4491L180.978 22.5667L185.529 16.0286C185.605 15.8934 185.726 15.7899 185.873 15.7372C186.018 15.6844 186.177 15.686 186.322 15.7415L186.668 15.8799C186.739 15.906 186.805 15.9469 186.86 16C186.916 16.0531 186.957 16.1172 186.987 16.188C187.014 16.2588 187.028 16.3348 187.025 16.4111C187.023 16.4873 187.004 16.5621 186.969 16.6305L182.765 23.1029L182.991 23.2949L186.952 18.7528C187.037 18.6317 187.161 18.5435 187.305 18.5029C187.447 18.4622 187.599 18.4717 187.736 18.5297L187.909 18.6041C187.978 18.6331 188.04 18.6762 188.092 18.7305C188.144 18.7848 188.184 18.8493 188.209 18.9197C188.235 18.9903 188.246 19.0652 188.241 19.1401C188.235 19.215 188.216 19.288 188.182 19.3547C187.691 20.3372 185.852 22.2709 184.572 24.3707C183.579 26.0052 183.254 27.382 181.77 29.3227C181.144 30.1442 180.078 31.0748 179.497 31.5954" fill="#DADDF1"/>
<path d="M145.815 58.123L163.563 48.0945L170.76 27.6951L182.434 31.0558L173.732 57.7234L150.553 71.7785" fill="#19F0FE"/>
<path d="M170.271 180.264L153.663 152.024L155.129 180.144L135.396 180.098L130.947 86.9994L158.378 86.2643L163.952 127.347L188.868 173.84L170.271 180.264Z" fill="#081638"/>
<path d="M96.7391 72.7091L95.8656 71.014C95.3868 70.2219 94.8673 69.4553 94.3089 68.7171C93.432 67.5651 91.7145 66.6034 91.3322 63.8879C90.95 61.1724 89.6804 63.9502 89.8153 65.2716C89.9277 66.3717 91.2111 68.0685 91.1143 69.0215C90.7796 69.0308 90.4454 68.9923 90.1215 68.9073L81.9195 65.6003C81.7896 65.5442 81.6438 65.5373 81.509 65.5809C81.3745 65.6245 81.2603 65.7156 81.1878 65.8372L81.0149 66.1209C80.9727 66.1911 80.9457 66.2695 80.9355 66.3507C80.9253 66.4322 80.9322 66.5147 80.9559 66.5932C80.9794 66.6718 81.0192 66.7444 81.0726 66.8067C81.1259 66.8688 81.1918 66.9193 81.2657 66.9546C82.959 67.7554 88.0736 70.016 88.0217 70.1008L87.9871 70.3222L79.1399 67.7571C79.0033 67.713 78.8551 67.7205 78.7234 67.7782C78.5918 67.8358 78.486 67.9398 78.4256 68.0702L78.2336 68.4905C78.2 68.5624 78.1814 68.6406 78.1789 68.72C78.1767 68.7994 78.1905 68.8786 78.2199 68.9525C78.2492 69.0263 78.2933 69.0934 78.3495 69.1497C78.4057 69.2057 78.4728 69.2498 78.5467 69.2792C80.4597 70.0454 87.1568 72.1089 87.105 72.1971L87.034 72.4514L79.3077 70.9431C79.1654 70.8973 79.0109 70.9075 78.8758 70.9718C78.7407 71.0362 78.6354 71.1496 78.5813 71.2891L78.4533 71.635C78.4263 71.7073 78.4137 71.7843 78.4164 71.8614C78.419 71.9387 78.437 72.0146 78.4692 72.0849C78.5014 72.1551 78.547 72.2182 78.6037 72.2708C78.6603 72.3232 78.7267 72.364 78.7992 72.3908L86.2592 74.0894L86.2488 74.3886L80.368 73.9077C80.2268 73.8799 80.0803 73.9046 79.9562 73.9771C79.8318 74.0497 79.7384 74.1655 79.6934 74.3021L79.6398 74.4751C79.5935 74.6212 79.6057 74.7797 79.6742 74.917C79.7425 75.0541 79.8619 75.1593 80.0065 75.2102C81.0443 75.5751 83.6491 75.672 86.017 76.2895C87.8556 76.7686 89.0681 77.5348 91.4481 77.8877C92.4547 78.0381 93.8264 77.9586 94.5857 77.9222" fill="#DADDF1"/>
<path d="M116.946 71.6332C116.946 71.6332 123.408 63.8792 131.003 59.8111C137.975 56.0768 157.083 56.0768 157.083 56.0768L158.387 86.4148L130.948 86.9994L128.931 78.832L123.092 83.7373C121.957 84.6442 120.638 85.2922 119.226 85.6364C117.815 85.9806 116.346 86.0125 114.921 85.7299L93.7793 81.5406L95.8549 68.9263L116.946 71.6332Z" fill="#19F0FE"/>
<mask id="mask0_1039_195" style="mask-type:luminance" maskUnits="userSpaceOnUse" x="93" y="56" width="66" height="31">
<path fill-rule="evenodd" clip-rule="evenodd" d="M116.995 71.5969C116.995 71.5969 123.457 63.8429 131.052 59.7748C138.024 56.0405 157.131 56.0405 157.131 56.0405L158.436 86.3785L130.996 86.9631L128.98 78.7957L123.14 83.701C122.006 84.6078 120.686 85.2559 119.275 85.6001C117.864 85.9443 116.394 85.9762 114.97 85.6935L93.8281 81.5043L95.9037 68.89L116.995 71.5969Z" fill="white"/>
</mask>
<g mask="url(#mask0_1039_195)">
<path d="M117.499 63.6128H105.347L111.423 72.9166L117.499 63.6128Z" fill="#DADDF1"/>
<path d="M135.211 61.8832H123.059L129.135 71.1869L135.211 61.8832Z" fill="#DADDF1"/>
<path d="M109.061 75.0544H96.9082L102.984 84.3582L109.061 75.0544Z" fill="#DADDF1"/>
<path d="M126.773 75.0544H114.62L120.696 84.3582L126.773 75.0544Z" fill="#DADDF1"/>
<path d="M144.484 75.0544H132.331L138.407 84.3582L144.484 75.0544Z" fill="#DADDF1"/>
<path d="M162.197 75.0544H150.045L156.121 84.3582L162.197 75.0544Z" fill="#DADDF1"/>
</g>
<mask id="mask1_1039_195" style="mask-type:luminance" maskUnits="userSpaceOnUse" x="145" y="27" width="38" height="45">
<path fill-rule="evenodd" clip-rule="evenodd" d="M145.717 58.1022L163.465 48.0737L170.662 27.6743L182.335 31.035L178.061 44.4519L173.737 57.6837L150.454 71.7578" fill="white"/>
</mask>
<g mask="url(#mask1_1039_195)">
<path d="M170.636 61.8832H158.483L164.56 71.187L170.636 61.8832Z" fill="#DADDF1"/>
<path d="M152.924 61.8832H140.771L146.848 71.187L152.924 61.8832Z" fill="#DADDF1"/>
<path d="M162.349 47.6984H150.196L156.273 57.0022L162.349 47.6984Z" fill="#DADDF1"/>
<path d="M180.061 47.6984H167.908L173.984 57.0022L180.061 47.6984Z" fill="#DADDF1"/>
<path d="M172.049 34.1241H159.896L165.973 43.4279L172.049 34.1241Z" fill="#DADDF1"/>
<path d="M181.764 22.3695H169.611L175.688 31.6732L181.764 22.3695Z" fill="#DADDF1"/>
</g>
<path d="M143.199 61.2709H143.085C141.844 61.2405 140.665 60.7185 139.808 59.8194C138.952 58.9204 138.487 57.7179 138.517 56.4764L138.934 39.2145C138.949 38.5998 139.084 37.9939 139.333 37.4316C139.582 36.8693 139.939 36.3615 140.384 35.9372C140.83 35.5131 141.354 35.1806 141.927 34.9589C142.501 34.7373 143.113 34.631 143.728 34.6457C144.342 34.6604 144.948 34.7961 145.51 35.045C146.073 35.2939 146.581 35.6511 147.005 36.0963C147.429 36.5413 147.761 37.0658 147.983 37.6393C148.205 38.2129 148.311 38.8247 148.296 39.4394L147.88 56.703C147.849 57.9244 147.343 59.0857 146.469 59.9391C145.594 60.7925 144.421 61.2704 143.199 61.2709Z" fill="#DADDF1"/>
<path d="M139.785 52.3961L138.875 52.2681C137.817 52.1206 136.805 51.7416 135.911 51.1582C135.016 50.575 134.261 49.8015 133.7 48.8931C133.138 47.9848 132.784 46.9638 132.662 45.9029C132.54 44.8419 132.653 43.7671 132.994 42.7551L134.684 37.7391C135.229 36.1193 136.328 34.7437 137.788 33.8542C139.247 32.9646 140.973 32.618 142.663 32.8754C143.607 33.0181 144.513 33.3455 145.331 33.8389C146.148 34.3324 146.86 34.9821 147.426 35.7509C147.992 36.5197 148.402 37.3927 148.63 38.3196C148.859 39.2467 148.902 40.2096 148.758 41.1534L147.978 46.2957C147.69 48.1862 146.668 49.8871 145.135 51.0292C143.601 52.1713 141.678 52.6623 139.785 52.3961Z" fill="#DADDF1"/>
<path d="M134.543 38.6437L131.651 42.5925L133.096 43.0284" fill="#DADDF1"/>
<path d="M145.181 46.1383C143.278 45.5813 145.382 39.3287 145.382 39.3287L142.867 40.5844C142.306 40.9424 141.779 36.8726 141.779 36.8726C141.779 36.8726 134.227 37.5212 135.066 31.0558C135.55 27.337 138.536 30.3328 140.53 30.6095C143.664 31.0419 146.238 29.7949 149.823 33.1192C154.115 37.0974 150.278 47.6275 145.181 46.1383Z" fill="#081638"/>
<path d="M138.503 52.1557L141.238 52.2976L138.429 54.3472L138.503 52.1557Z" fill="#081638"/>
<path d="M135.958 39.8164C136.371 39.8164 136.705 39.4819 136.705 39.0692C136.705 38.6565 136.371 38.322 135.958 38.322C135.545 38.322 135.211 38.6565 135.211 39.0692C135.211 39.4819 135.545 39.8164 135.958 39.8164Z" fill="#081638"/>
<path d="M154.376 153.734L150.427 102.433" stroke="white" stroke-width="3" stroke-linecap="square"/>
<path d="M147.701 39.2014L147.7 39.2001C146.675 38.138 144.984 38.1075 143.921 39.1322L142.83 40.1854C141.767 41.21 141.737 42.9018 142.762 43.9639L142.763 43.9651C143.788 45.0275 145.479 45.0578 146.541 44.0331L147.633 42.9799C148.695 41.9553 148.726 40.2635 147.701 39.2014Z" fill="#DADDF1"/>
<path d="M146.876 41.1517L144.754 42.7568" stroke="white" stroke-linecap="square"/>
<path d="M134.25 44.3948C134.482 44.1623 134.775 43.9994 135.095 43.9243C135.415 43.8491 135.749 43.8647 136.061 43.9693" stroke="white" stroke-linecap="square"/>
<path d="M161.215 125.005L163.953 127.347L161.635 131.391" stroke="white" stroke-width="3" stroke-linecap="square"/>
<path d="M136.433 36.9262L137.55 37.7443" stroke="white" stroke-linecap="square"/>
</svg>
